G04 #@! TF.GenerationSoftware,KiCad,Pcbnew,(5.1.5)-3*
G04 #@! TF.CreationDate,2020-03-14T15:21:50+00:00*
G04 #@! TF.ProjectId,VC-01 Card,56432d30-3120-4436-9172-642e6b696361,DRAFT WIP*
G04 #@! TF.SameCoordinates,Original*
G04 #@! TF.FileFunction,Soldermask,Bot*
G04 #@! TF.FilePolarity,Negative*
%FSLAX46Y46*%
G04 Gerber Fmt 4.6, Leading zero omitted, Abs format (unit mm)*
G04 Created by KiCad (PCBNEW (5.1.5)-3) date 2020-03-14 15:21:50*
%MOMM*%
%LPD*%
G04 APERTURE LIST*
%ADD10C,0.100000*%
G04 APERTURE END LIST*
D10*
G36*
X140051000Y-146351000D02*
G01*
X130249000Y-146351000D01*
X130249000Y-145375999D01*
X130246598Y-145351613D01*
X130239485Y-145328164D01*
X130227934Y-145306553D01*
X130212389Y-145287611D01*
X130193447Y-145272066D01*
X130171836Y-145260515D01*
X130148387Y-145253402D01*
X130124001Y-145251000D01*
X129249000Y-145251000D01*
X129249000Y-141949000D01*
X140051000Y-141949000D01*
X140051000Y-146351000D01*
G37*
G36*
X149051000Y-146351000D02*
G01*
X142249000Y-146351000D01*
X142249000Y-141949000D01*
X149051000Y-141949000D01*
X149051000Y-146351000D01*
G37*
G36*
X126177395Y-132725546D02*
G01*
X126350466Y-132797234D01*
X126350467Y-132797235D01*
X126506227Y-132901310D01*
X126638690Y-133033773D01*
X126638691Y-133033775D01*
X126742766Y-133189534D01*
X126814454Y-133362605D01*
X126851000Y-133546333D01*
X126851000Y-133733667D01*
X126814454Y-133917395D01*
X126742766Y-134090466D01*
X126742765Y-134090467D01*
X126638690Y-134246227D01*
X126506227Y-134378690D01*
X126427818Y-134431081D01*
X126350466Y-134482766D01*
X126177395Y-134554454D01*
X125993667Y-134591000D01*
X125806333Y-134591000D01*
X125622605Y-134554454D01*
X125449534Y-134482766D01*
X125372182Y-134431081D01*
X125293773Y-134378690D01*
X125161310Y-134246227D01*
X125057235Y-134090467D01*
X125057234Y-134090466D01*
X124985546Y-133917395D01*
X124949000Y-133733667D01*
X124949000Y-133546333D01*
X124985546Y-133362605D01*
X125057234Y-133189534D01*
X125161309Y-133033775D01*
X125161310Y-133033773D01*
X125293773Y-132901310D01*
X125449533Y-132797235D01*
X125449534Y-132797234D01*
X125622605Y-132725546D01*
X125806333Y-132689000D01*
X125993667Y-132689000D01*
X126177395Y-132725546D01*
G37*
G36*
X126851000Y-132051000D02*
G01*
X124949000Y-132051000D01*
X124949000Y-130149000D01*
X126851000Y-130149000D01*
X126851000Y-132051000D01*
G37*
G36*
X126406564Y-118089389D02*
G01*
X126597833Y-118168615D01*
X126597835Y-118168616D01*
X126769973Y-118283635D01*
X126916365Y-118430027D01*
X127031385Y-118602167D01*
X127110611Y-118793436D01*
X127151000Y-118996484D01*
X127151000Y-119203516D01*
X127110611Y-119406564D01*
X127031385Y-119597833D01*
X127031384Y-119597835D01*
X126916365Y-119769973D01*
X126769973Y-119916365D01*
X126597835Y-120031384D01*
X126597834Y-120031385D01*
X126597833Y-120031385D01*
X126406564Y-120110611D01*
X126203516Y-120151000D01*
X125996484Y-120151000D01*
X125793436Y-120110611D01*
X125602167Y-120031385D01*
X125602166Y-120031385D01*
X125602165Y-120031384D01*
X125430027Y-119916365D01*
X125283635Y-119769973D01*
X125168616Y-119597835D01*
X125168615Y-119597833D01*
X125089389Y-119406564D01*
X125049000Y-119203516D01*
X125049000Y-118996484D01*
X125089389Y-118793436D01*
X125168615Y-118602167D01*
X125283635Y-118430027D01*
X125430027Y-118283635D01*
X125602165Y-118168616D01*
X125602167Y-118168615D01*
X125793436Y-118089389D01*
X125996484Y-118049000D01*
X126203516Y-118049000D01*
X126406564Y-118089389D01*
G37*
G36*
X136313512Y-103403927D02*
G01*
X136462812Y-103433624D01*
X136626784Y-103501544D01*
X136774354Y-103600147D01*
X136899853Y-103725646D01*
X136998456Y-103873216D01*
X137066376Y-104037188D01*
X137101000Y-104211259D01*
X137101000Y-104388741D01*
X137066376Y-104562812D01*
X136998456Y-104726784D01*
X136899853Y-104874354D01*
X136774354Y-104999853D01*
X136626784Y-105098456D01*
X136462812Y-105166376D01*
X136313512Y-105196073D01*
X136288742Y-105201000D01*
X136111258Y-105201000D01*
X136086488Y-105196073D01*
X135937188Y-105166376D01*
X135773216Y-105098456D01*
X135625646Y-104999853D01*
X135500147Y-104874354D01*
X135401544Y-104726784D01*
X135333624Y-104562812D01*
X135299000Y-104388741D01*
X135299000Y-104211259D01*
X135333624Y-104037188D01*
X135401544Y-103873216D01*
X135500147Y-103725646D01*
X135625646Y-103600147D01*
X135773216Y-103501544D01*
X135937188Y-103433624D01*
X136086488Y-103403927D01*
X136111258Y-103399000D01*
X136288742Y-103399000D01*
X136313512Y-103403927D01*
G37*
G36*
X129313512Y-103403927D02*
G01*
X129462812Y-103433624D01*
X129626784Y-103501544D01*
X129774354Y-103600147D01*
X129899853Y-103725646D01*
X129998456Y-103873216D01*
X130066376Y-104037188D01*
X130101000Y-104211259D01*
X130101000Y-104388741D01*
X130066376Y-104562812D01*
X129998456Y-104726784D01*
X129899853Y-104874354D01*
X129774354Y-104999853D01*
X129626784Y-105098456D01*
X129462812Y-105166376D01*
X129313512Y-105196073D01*
X129288742Y-105201000D01*
X129111258Y-105201000D01*
X129086488Y-105196073D01*
X128937188Y-105166376D01*
X128773216Y-105098456D01*
X128625646Y-104999853D01*
X128500147Y-104874354D01*
X128401544Y-104726784D01*
X128333624Y-104562812D01*
X128299000Y-104388741D01*
X128299000Y-104211259D01*
X128333624Y-104037188D01*
X128401544Y-103873216D01*
X128500147Y-103725646D01*
X128625646Y-103600147D01*
X128773216Y-103501544D01*
X128937188Y-103433624D01*
X129086488Y-103403927D01*
X129111258Y-103399000D01*
X129288742Y-103399000D01*
X129313512Y-103403927D01*
G37*
G36*
X151601000Y-101101000D02*
G01*
X149799000Y-101101000D01*
X149799000Y-99299000D01*
X151601000Y-99299000D01*
X151601000Y-101101000D01*
G37*
G36*
X148273512Y-99303927D02*
G01*
X148422812Y-99333624D01*
X148586784Y-99401544D01*
X148734354Y-99500147D01*
X148859853Y-99625646D01*
X148958456Y-99773216D01*
X149026376Y-99937188D01*
X149061000Y-100111259D01*
X149061000Y-100288741D01*
X149026376Y-100462812D01*
X148958456Y-100626784D01*
X148859853Y-100774354D01*
X148734354Y-100899853D01*
X148586784Y-100998456D01*
X148422812Y-101066376D01*
X148273512Y-101096073D01*
X148248742Y-101101000D01*
X148071258Y-101101000D01*
X148046488Y-101096073D01*
X147897188Y-101066376D01*
X147733216Y-100998456D01*
X147585646Y-100899853D01*
X147460147Y-100774354D01*
X147361544Y-100626784D01*
X147293624Y-100462812D01*
X147259000Y-100288741D01*
X147259000Y-100111259D01*
X147293624Y-99937188D01*
X147361544Y-99773216D01*
X147460147Y-99625646D01*
X147585646Y-99500147D01*
X147733216Y-99401544D01*
X147897188Y-99333624D01*
X148046488Y-99303927D01*
X148071258Y-99299000D01*
X148248742Y-99299000D01*
X148273512Y-99303927D01*
G37*
M02*
