G04 #@! TF.GenerationSoftware,KiCad,Pcbnew,(5.1.5)-3*
G04 #@! TF.CreationDate,2020-03-12T21:49:23+00:00*
G04 #@! TF.ProjectId,VC-01 Card,56432d30-3120-4436-9172-642e6b696361,DRAFT WIP*
G04 #@! TF.SameCoordinates,Original*
G04 #@! TF.FileFunction,Legend,Top*
G04 #@! TF.FilePolarity,Positive*
%FSLAX46Y46*%
G04 Gerber Fmt 4.6, Leading zero omitted, Abs format (unit mm)*
G04 Created by KiCad (PCBNEW (5.1.5)-3) date 2020-03-12 21:49:23*
%MOMM*%
%LPD*%
G04 APERTURE LIST*
%ADD10C,0.100000*%
%ADD11C,0.150000*%
%ADD12C,0.300000*%
%ADD13C,0.400000*%
%ADD14C,0.120000*%
%ADD15C,0.200000*%
%ADD16C,0.127000*%
%ADD17C,0.153000*%
G04 APERTURE END LIST*
D10*
D11*
X177002200Y-166007200D02*
X177002200Y-198007200D01*
X285002200Y-198007200D01*
X285002200Y-166007200D01*
X177002200Y-166007200D01*
D10*
D11*
X10000000Y-10000000D02*
X10000000Y-200007200D01*
X287002200Y-200007200D01*
X287002200Y-10000000D01*
X10000000Y-10000000D01*
D10*
D11*
X12000000Y-12000000D02*
X12000000Y-198007200D01*
X285002200Y-198007200D01*
X285002200Y-12000000D01*
X12000000Y-12000000D01*
D10*
D11*
X60000000Y-12000000D02*
X60000000Y-10000000D01*
D10*
D11*
X110000000Y-12000000D02*
X110000000Y-10000000D01*
D10*
D11*
X160000000Y-12000000D02*
X160000000Y-10000000D01*
D10*
D11*
X210000000Y-12000000D02*
X210000000Y-10000000D01*
D10*
D11*
X260000000Y-12000000D02*
X260000000Y-10000000D01*
D10*
D11*
X36065476Y-11588095D02*
X35322619Y-11588095D01*
X35694047Y-11588095D02*
X35694047Y-10288095D01*
X35570238Y-10473809D01*
X35446428Y-10597619D01*
X35322619Y-10659523D01*
D10*
D11*
X85322619Y-10411904D02*
X85384523Y-10350000D01*
X85508333Y-10288095D01*
X85817857Y-10288095D01*
X85941666Y-10350000D01*
X86003571Y-10411904D01*
X86065476Y-10535714D01*
X86065476Y-10659523D01*
X86003571Y-10845238D01*
X85260714Y-11588095D01*
X86065476Y-11588095D01*
D10*
D11*
X135260714Y-10288095D02*
X136065476Y-10288095D01*
X135632142Y-10783333D01*
X135817857Y-10783333D01*
X135941666Y-10845238D01*
X136003571Y-10907142D01*
X136065476Y-11030952D01*
X136065476Y-11340476D01*
X136003571Y-11464285D01*
X135941666Y-11526190D01*
X135817857Y-11588095D01*
X135446428Y-11588095D01*
X135322619Y-11526190D01*
X135260714Y-11464285D01*
D10*
D11*
X185941666Y-10721428D02*
X185941666Y-11588095D01*
X185632142Y-10226190D02*
X185322619Y-11154761D01*
X186127380Y-11154761D01*
D10*
D11*
X236003571Y-10288095D02*
X235384523Y-10288095D01*
X235322619Y-10907142D01*
X235384523Y-10845238D01*
X235508333Y-10783333D01*
X235817857Y-10783333D01*
X235941666Y-10845238D01*
X236003571Y-10907142D01*
X236065476Y-11030952D01*
X236065476Y-11340476D01*
X236003571Y-11464285D01*
X235941666Y-11526190D01*
X235817857Y-11588095D01*
X235508333Y-11588095D01*
X235384523Y-11526190D01*
X235322619Y-11464285D01*
D10*
D11*
X285941666Y-10288095D02*
X285694047Y-10288095D01*
X285570238Y-10350000D01*
X285508333Y-10411904D01*
X285384523Y-10597619D01*
X285322619Y-10845238D01*
X285322619Y-11340476D01*
X285384523Y-11464285D01*
X285446428Y-11526190D01*
X285570238Y-11588095D01*
X285817857Y-11588095D01*
X285941666Y-11526190D01*
X286003571Y-11464285D01*
X286065476Y-11340476D01*
X286065476Y-11030952D01*
X286003571Y-10907142D01*
X285941666Y-10845238D01*
X285817857Y-10783333D01*
X285570238Y-10783333D01*
X285446428Y-10845238D01*
X285384523Y-10907142D01*
X285322619Y-11030952D01*
D10*
D11*
X60000000Y-198007200D02*
X60000000Y-200007200D01*
D10*
D11*
X110000000Y-198007200D02*
X110000000Y-200007200D01*
D10*
D11*
X160000000Y-198007200D02*
X160000000Y-200007200D01*
D10*
D11*
X210000000Y-198007200D02*
X210000000Y-200007200D01*
D10*
D11*
X260000000Y-198007200D02*
X260000000Y-200007200D01*
D10*
D11*
X36065476Y-199595295D02*
X35322619Y-199595295D01*
X35694047Y-199595295D02*
X35694047Y-198295295D01*
X35570238Y-198481009D01*
X35446428Y-198604819D01*
X35322619Y-198666723D01*
D10*
D11*
X85322619Y-198419104D02*
X85384523Y-198357200D01*
X85508333Y-198295295D01*
X85817857Y-198295295D01*
X85941666Y-198357200D01*
X86003571Y-198419104D01*
X86065476Y-198542914D01*
X86065476Y-198666723D01*
X86003571Y-198852438D01*
X85260714Y-199595295D01*
X86065476Y-199595295D01*
D10*
D11*
X135260714Y-198295295D02*
X136065476Y-198295295D01*
X135632142Y-198790533D01*
X135817857Y-198790533D01*
X135941666Y-198852438D01*
X136003571Y-198914342D01*
X136065476Y-199038152D01*
X136065476Y-199347676D01*
X136003571Y-199471485D01*
X135941666Y-199533390D01*
X135817857Y-199595295D01*
X135446428Y-199595295D01*
X135322619Y-199533390D01*
X135260714Y-199471485D01*
D10*
D11*
X185941666Y-198728628D02*
X185941666Y-199595295D01*
X185632142Y-198233390D02*
X185322619Y-199161961D01*
X186127380Y-199161961D01*
D10*
D11*
X236003571Y-198295295D02*
X235384523Y-198295295D01*
X235322619Y-198914342D01*
X235384523Y-198852438D01*
X235508333Y-198790533D01*
X235817857Y-198790533D01*
X235941666Y-198852438D01*
X236003571Y-198914342D01*
X236065476Y-199038152D01*
X236065476Y-199347676D01*
X236003571Y-199471485D01*
X235941666Y-199533390D01*
X235817857Y-199595295D01*
X235508333Y-199595295D01*
X235384523Y-199533390D01*
X235322619Y-199471485D01*
D10*
D11*
X285941666Y-198295295D02*
X285694047Y-198295295D01*
X285570238Y-198357200D01*
X285508333Y-198419104D01*
X285384523Y-198604819D01*
X285322619Y-198852438D01*
X285322619Y-199347676D01*
X285384523Y-199471485D01*
X285446428Y-199533390D01*
X285570238Y-199595295D01*
X285817857Y-199595295D01*
X285941666Y-199533390D01*
X286003571Y-199471485D01*
X286065476Y-199347676D01*
X286065476Y-199038152D01*
X286003571Y-198914342D01*
X285941666Y-198852438D01*
X285817857Y-198790533D01*
X285570238Y-198790533D01*
X285446428Y-198852438D01*
X285384523Y-198914342D01*
X285322619Y-199038152D01*
D10*
D11*
X10000000Y-60000000D02*
X12000000Y-60000000D01*
D10*
D11*
X10000000Y-110000000D02*
X12000000Y-110000000D01*
D10*
D11*
X10000000Y-160000000D02*
X12000000Y-160000000D01*
D10*
D11*
X10690476Y-35216666D02*
X11309523Y-35216666D01*
X10566666Y-35588095D02*
X11000000Y-34288095D01*
X11433333Y-35588095D01*
D10*
D11*
X11092857Y-84907142D02*
X11278571Y-84969047D01*
X11340476Y-85030952D01*
X11402380Y-85154761D01*
X11402380Y-85340476D01*
X11340476Y-85464285D01*
X11278571Y-85526190D01*
X11154761Y-85588095D01*
X10659523Y-85588095D01*
X10659523Y-84288095D01*
X11092857Y-84288095D01*
X11216666Y-84350000D01*
X11278571Y-84411904D01*
X11340476Y-84535714D01*
X11340476Y-84659523D01*
X11278571Y-84783333D01*
X11216666Y-84845238D01*
X11092857Y-84907142D01*
X10659523Y-84907142D01*
D10*
D11*
X11402380Y-135464285D02*
X11340476Y-135526190D01*
X11154761Y-135588095D01*
X11030952Y-135588095D01*
X10845238Y-135526190D01*
X10721428Y-135402380D01*
X10659523Y-135278571D01*
X10597619Y-135030952D01*
X10597619Y-134845238D01*
X10659523Y-134597619D01*
X10721428Y-134473809D01*
X10845238Y-134350000D01*
X11030952Y-134288095D01*
X11154761Y-134288095D01*
X11340476Y-134350000D01*
X11402380Y-134411904D01*
D10*
D11*
X10659523Y-185588095D02*
X10659523Y-184288095D01*
X10969047Y-184288095D01*
X11154761Y-184350000D01*
X11278571Y-184473809D01*
X11340476Y-184597619D01*
X11402380Y-184845238D01*
X11402380Y-185030952D01*
X11340476Y-185278571D01*
X11278571Y-185402380D01*
X11154761Y-185526190D01*
X10969047Y-185588095D01*
X10659523Y-185588095D01*
D10*
D11*
X287002200Y-60000000D02*
X285002200Y-60000000D01*
D10*
D11*
X287002200Y-110000000D02*
X285002200Y-110000000D01*
D10*
D11*
X287002200Y-160000000D02*
X285002200Y-160000000D01*
D10*
D11*
X285692676Y-35216666D02*
X286311723Y-35216666D01*
X285568866Y-35588095D02*
X286002200Y-34288095D01*
X286435533Y-35588095D01*
D10*
D11*
X286095057Y-84907142D02*
X286280771Y-84969047D01*
X286342676Y-85030952D01*
X286404580Y-85154761D01*
X286404580Y-85340476D01*
X286342676Y-85464285D01*
X286280771Y-85526190D01*
X286156961Y-85588095D01*
X285661723Y-85588095D01*
X285661723Y-84288095D01*
X286095057Y-84288095D01*
X286218866Y-84350000D01*
X286280771Y-84411904D01*
X286342676Y-84535714D01*
X286342676Y-84659523D01*
X286280771Y-84783333D01*
X286218866Y-84845238D01*
X286095057Y-84907142D01*
X285661723Y-84907142D01*
D10*
D11*
X286404580Y-135464285D02*
X286342676Y-135526190D01*
X286156961Y-135588095D01*
X286033152Y-135588095D01*
X285847438Y-135526190D01*
X285723628Y-135402380D01*
X285661723Y-135278571D01*
X285599819Y-135030952D01*
X285599819Y-134845238D01*
X285661723Y-134597619D01*
X285723628Y-134473809D01*
X285847438Y-134350000D01*
X286033152Y-134288095D01*
X286156961Y-134288095D01*
X286342676Y-134350000D01*
X286404580Y-134411904D01*
D10*
D11*
X285661723Y-185588095D02*
X285661723Y-184288095D01*
X285971247Y-184288095D01*
X286156961Y-184350000D01*
X286280771Y-184473809D01*
X286342676Y-184597619D01*
X286404580Y-184845238D01*
X286404580Y-185030952D01*
X286342676Y-185278571D01*
X286280771Y-185402380D01*
X286156961Y-185526190D01*
X285971247Y-185588095D01*
X285661723Y-185588095D01*
D10*
D11*
X200434342Y-193785771D02*
X200434342Y-192285771D01*
X200791485Y-192285771D01*
X201005771Y-192357200D01*
X201148628Y-192500057D01*
X201220057Y-192642914D01*
X201291485Y-192928628D01*
X201291485Y-193142914D01*
X201220057Y-193428628D01*
X201148628Y-193571485D01*
X201005771Y-193714342D01*
X200791485Y-193785771D01*
X200434342Y-193785771D01*
X202577200Y-193785771D02*
X202577200Y-193000057D01*
X202505771Y-192857200D01*
X202362914Y-192785771D01*
X202077200Y-192785771D01*
X201934342Y-192857200D01*
X202577200Y-193714342D02*
X202434342Y-193785771D01*
X202077200Y-193785771D01*
X201934342Y-193714342D01*
X201862914Y-193571485D01*
X201862914Y-193428628D01*
X201934342Y-193285771D01*
X202077200Y-193214342D01*
X202434342Y-193214342D01*
X202577200Y-193142914D01*
X203077200Y-192785771D02*
X203648628Y-192785771D01*
X203291485Y-192285771D02*
X203291485Y-193571485D01*
X203362914Y-193714342D01*
X203505771Y-193785771D01*
X203648628Y-193785771D01*
X204720057Y-193714342D02*
X204577200Y-193785771D01*
X204291485Y-193785771D01*
X204148628Y-193714342D01*
X204077200Y-193571485D01*
X204077200Y-193000057D01*
X204148628Y-192857200D01*
X204291485Y-192785771D01*
X204577200Y-192785771D01*
X204720057Y-192857200D01*
X204791485Y-193000057D01*
X204791485Y-193142914D01*
X204077200Y-193285771D01*
X205434342Y-193642914D02*
X205505771Y-193714342D01*
X205434342Y-193785771D01*
X205362914Y-193714342D01*
X205434342Y-193642914D01*
X205434342Y-193785771D01*
X205434342Y-192857200D02*
X205505771Y-192928628D01*
X205434342Y-193000057D01*
X205362914Y-192928628D01*
X205434342Y-192857200D01*
X205434342Y-193000057D01*
X207220057Y-192428628D02*
X207291485Y-192357200D01*
X207434342Y-192285771D01*
X207791485Y-192285771D01*
X207934342Y-192357200D01*
X208005771Y-192428628D01*
X208077200Y-192571485D01*
X208077200Y-192714342D01*
X208005771Y-192928628D01*
X207148628Y-193785771D01*
X208077200Y-193785771D01*
X209005771Y-192285771D02*
X209148628Y-192285771D01*
X209291485Y-192357200D01*
X209362914Y-192428628D01*
X209434342Y-192571485D01*
X209505771Y-192857200D01*
X209505771Y-193214342D01*
X209434342Y-193500057D01*
X209362914Y-193642914D01*
X209291485Y-193714342D01*
X209148628Y-193785771D01*
X209005771Y-193785771D01*
X208862914Y-193714342D01*
X208791485Y-193642914D01*
X208720057Y-193500057D01*
X208648628Y-193214342D01*
X208648628Y-192857200D01*
X208720057Y-192571485D01*
X208791485Y-192428628D01*
X208862914Y-192357200D01*
X209005771Y-192285771D01*
X210077200Y-192428628D02*
X210148628Y-192357200D01*
X210291485Y-192285771D01*
X210648628Y-192285771D01*
X210791485Y-192357200D01*
X210862914Y-192428628D01*
X210934342Y-192571485D01*
X210934342Y-192714342D01*
X210862914Y-192928628D01*
X210005771Y-193785771D01*
X210934342Y-193785771D01*
X211862914Y-192285771D02*
X212005771Y-192285771D01*
X212148628Y-192357200D01*
X212220057Y-192428628D01*
X212291485Y-192571485D01*
X212362914Y-192857200D01*
X212362914Y-193214342D01*
X212291485Y-193500057D01*
X212220057Y-193642914D01*
X212148628Y-193714342D01*
X212005771Y-193785771D01*
X211862914Y-193785771D01*
X211720057Y-193714342D01*
X211648628Y-193642914D01*
X211577200Y-193500057D01*
X211505771Y-193214342D01*
X211505771Y-192857200D01*
X211577200Y-192571485D01*
X211648628Y-192428628D01*
X211720057Y-192357200D01*
X211862914Y-192285771D01*
X213005771Y-193214342D02*
X214148628Y-193214342D01*
X215148628Y-192285771D02*
X215291485Y-192285771D01*
X215434342Y-192357200D01*
X215505771Y-192428628D01*
X215577200Y-192571485D01*
X215648628Y-192857200D01*
X215648628Y-193214342D01*
X215577200Y-193500057D01*
X215505771Y-193642914D01*
X215434342Y-193714342D01*
X215291485Y-193785771D01*
X215148628Y-193785771D01*
X215005771Y-193714342D01*
X214934342Y-193642914D01*
X214862914Y-193500057D01*
X214791485Y-193214342D01*
X214791485Y-192857200D01*
X214862914Y-192571485D01*
X214934342Y-192428628D01*
X215005771Y-192357200D01*
X215148628Y-192285771D01*
X216148628Y-192285771D02*
X217077200Y-192285771D01*
X216577200Y-192857200D01*
X216791485Y-192857200D01*
X216934342Y-192928628D01*
X217005771Y-193000057D01*
X217077200Y-193142914D01*
X217077200Y-193500057D01*
X217005771Y-193642914D01*
X216934342Y-193714342D01*
X216791485Y-193785771D01*
X216362914Y-193785771D01*
X216220057Y-193714342D01*
X216148628Y-193642914D01*
X217720057Y-193214342D02*
X218862914Y-193214342D01*
X220362914Y-193785771D02*
X219505771Y-193785771D01*
X219934342Y-193785771D02*
X219934342Y-192285771D01*
X219791485Y-192500057D01*
X219648628Y-192642914D01*
X219505771Y-192714342D01*
X220934342Y-192428628D02*
X221005771Y-192357200D01*
X221148628Y-192285771D01*
X221505771Y-192285771D01*
X221648628Y-192357200D01*
X221720057Y-192428628D01*
X221791485Y-192571485D01*
X221791485Y-192714342D01*
X221720057Y-192928628D01*
X220862914Y-193785771D01*
X221791485Y-193785771D01*
D10*
D11*
X177002200Y-194507200D02*
X285002200Y-194507200D01*
D10*
D11*
X178434342Y-196585771D02*
X178434342Y-195085771D01*
X179291485Y-196585771D02*
X178648628Y-195728628D01*
X179291485Y-195085771D02*
X178434342Y-195942914D01*
X179934342Y-196585771D02*
X179934342Y-195585771D01*
X179934342Y-195085771D02*
X179862914Y-195157200D01*
X179934342Y-195228628D01*
X180005771Y-195157200D01*
X179934342Y-195085771D01*
X179934342Y-195228628D01*
X181505771Y-196442914D02*
X181434342Y-196514342D01*
X181220057Y-196585771D01*
X181077200Y-196585771D01*
X180862914Y-196514342D01*
X180720057Y-196371485D01*
X180648628Y-196228628D01*
X180577200Y-195942914D01*
X180577200Y-195728628D01*
X180648628Y-195442914D01*
X180720057Y-195300057D01*
X180862914Y-195157200D01*
X181077200Y-195085771D01*
X181220057Y-195085771D01*
X181434342Y-195157200D01*
X181505771Y-195228628D01*
X182791485Y-196585771D02*
X182791485Y-195800057D01*
X182720057Y-195657200D01*
X182577200Y-195585771D01*
X182291485Y-195585771D01*
X182148628Y-195657200D01*
X182791485Y-196514342D02*
X182648628Y-196585771D01*
X182291485Y-196585771D01*
X182148628Y-196514342D01*
X182077200Y-196371485D01*
X182077200Y-196228628D01*
X182148628Y-196085771D01*
X182291485Y-196014342D01*
X182648628Y-196014342D01*
X182791485Y-195942914D01*
X184148628Y-196585771D02*
X184148628Y-195085771D01*
X184148628Y-196514342D02*
X184005771Y-196585771D01*
X183720057Y-196585771D01*
X183577200Y-196514342D01*
X183505771Y-196442914D01*
X183434342Y-196300057D01*
X183434342Y-195871485D01*
X183505771Y-195728628D01*
X183577200Y-195657200D01*
X183720057Y-195585771D01*
X184005771Y-195585771D01*
X184148628Y-195657200D01*
X186005771Y-195800057D02*
X186505771Y-195800057D01*
X186720057Y-196585771D02*
X186005771Y-196585771D01*
X186005771Y-195085771D01*
X186720057Y-195085771D01*
X187362914Y-196442914D02*
X187434342Y-196514342D01*
X187362914Y-196585771D01*
X187291485Y-196514342D01*
X187362914Y-196442914D01*
X187362914Y-196585771D01*
X188077200Y-196585771D02*
X188077200Y-195085771D01*
X188434342Y-195085771D01*
X188648628Y-195157200D01*
X188791485Y-195300057D01*
X188862914Y-195442914D01*
X188934342Y-195728628D01*
X188934342Y-195942914D01*
X188862914Y-196228628D01*
X188791485Y-196371485D01*
X188648628Y-196514342D01*
X188434342Y-196585771D01*
X188077200Y-196585771D01*
X189577200Y-196442914D02*
X189648628Y-196514342D01*
X189577200Y-196585771D01*
X189505771Y-196514342D01*
X189577200Y-196442914D01*
X189577200Y-196585771D01*
X190220057Y-196157200D02*
X190934342Y-196157200D01*
X190077200Y-196585771D02*
X190577200Y-195085771D01*
X191077200Y-196585771D01*
X191577200Y-196442914D02*
X191648628Y-196514342D01*
X191577200Y-196585771D01*
X191505771Y-196514342D01*
X191577200Y-196442914D01*
X191577200Y-196585771D01*
X194577200Y-195585771D02*
X194577200Y-197085771D01*
X194577200Y-195657200D02*
X194720057Y-195585771D01*
X195005771Y-195585771D01*
X195148628Y-195657200D01*
X195220057Y-195728628D01*
X195291485Y-195871485D01*
X195291485Y-196300057D01*
X195220057Y-196442914D01*
X195148628Y-196514342D01*
X195005771Y-196585771D01*
X194720057Y-196585771D01*
X194577200Y-196514342D01*
X196577200Y-196514342D02*
X196434342Y-196585771D01*
X196148628Y-196585771D01*
X196005771Y-196514342D01*
X195934342Y-196442914D01*
X195862914Y-196300057D01*
X195862914Y-195871485D01*
X195934342Y-195728628D01*
X196005771Y-195657200D01*
X196148628Y-195585771D01*
X196434342Y-195585771D01*
X196577200Y-195657200D01*
X197220057Y-196585771D02*
X197220057Y-195085771D01*
X197220057Y-195657200D02*
X197362914Y-195585771D01*
X197648628Y-195585771D01*
X197791485Y-195657200D01*
X197862914Y-195728628D01*
X197934342Y-195871485D01*
X197934342Y-196300057D01*
X197862914Y-196442914D01*
X197791485Y-196514342D01*
X197648628Y-196585771D01*
X197362914Y-196585771D01*
X197220057Y-196514342D01*
X198577200Y-195585771D02*
X198577200Y-196585771D01*
X198577200Y-195728628D02*
X198648628Y-195657200D01*
X198791485Y-195585771D01*
X199005771Y-195585771D01*
X199148628Y-195657200D01*
X199220057Y-195800057D01*
X199220057Y-196585771D01*
X200505771Y-196514342D02*
X200362914Y-196585771D01*
X200077200Y-196585771D01*
X199934342Y-196514342D01*
X199862914Y-196371485D01*
X199862914Y-195800057D01*
X199934342Y-195657200D01*
X200077200Y-195585771D01*
X200362914Y-195585771D01*
X200505771Y-195657200D01*
X200577200Y-195800057D01*
X200577200Y-195942914D01*
X199862914Y-196085771D01*
X201077200Y-195585771D02*
X201362914Y-196585771D01*
X201648628Y-195871485D01*
X201934342Y-196585771D01*
X202220057Y-195585771D01*
X204362914Y-197157200D02*
X204291485Y-197085771D01*
X204148628Y-196871485D01*
X204077200Y-196728628D01*
X204005771Y-196514342D01*
X203934342Y-196157200D01*
X203934342Y-195871485D01*
X204005771Y-195514342D01*
X204077200Y-195300057D01*
X204148628Y-195157200D01*
X204291485Y-194942914D01*
X204362914Y-194871485D01*
X205648628Y-195085771D02*
X204934342Y-195085771D01*
X204862914Y-195800057D01*
X204934342Y-195728628D01*
X205077200Y-195657200D01*
X205434342Y-195657200D01*
X205577200Y-195728628D01*
X205648628Y-195800057D01*
X205720057Y-195942914D01*
X205720057Y-196300057D01*
X205648628Y-196442914D01*
X205577200Y-196514342D01*
X205434342Y-196585771D01*
X205077200Y-196585771D01*
X204934342Y-196514342D01*
X204862914Y-196442914D01*
X206362914Y-196442914D02*
X206434342Y-196514342D01*
X206362914Y-196585771D01*
X206291485Y-196514342D01*
X206362914Y-196442914D01*
X206362914Y-196585771D01*
X207862914Y-196585771D02*
X207005771Y-196585771D01*
X207434342Y-196585771D02*
X207434342Y-195085771D01*
X207291485Y-195300057D01*
X207148628Y-195442914D01*
X207005771Y-195514342D01*
X208505771Y-196442914D02*
X208577200Y-196514342D01*
X208505771Y-196585771D01*
X208434342Y-196514342D01*
X208505771Y-196442914D01*
X208505771Y-196585771D01*
X209934342Y-195085771D02*
X209220057Y-195085771D01*
X209148628Y-195800057D01*
X209220057Y-195728628D01*
X209362914Y-195657200D01*
X209720057Y-195657200D01*
X209862914Y-195728628D01*
X209934342Y-195800057D01*
X210005771Y-195942914D01*
X210005771Y-196300057D01*
X209934342Y-196442914D01*
X209862914Y-196514342D01*
X209720057Y-196585771D01*
X209362914Y-196585771D01*
X209220057Y-196514342D01*
X209148628Y-196442914D01*
X210505771Y-197157200D02*
X210577200Y-197085771D01*
X210720057Y-196871485D01*
X210791485Y-196728628D01*
X210862914Y-196514342D01*
X210934342Y-196157200D01*
X210934342Y-195871485D01*
X210862914Y-195514342D01*
X210791485Y-195300057D01*
X210720057Y-195157200D01*
X210577200Y-194942914D01*
X210505771Y-194871485D01*
X211648628Y-196014342D02*
X212791485Y-196014342D01*
X213362914Y-195085771D02*
X214291485Y-195085771D01*
X213791485Y-195657200D01*
X214005771Y-195657200D01*
X214148628Y-195728628D01*
X214220057Y-195800057D01*
X214291485Y-195942914D01*
X214291485Y-196300057D01*
X214220057Y-196442914D01*
X214148628Y-196514342D01*
X214005771Y-196585771D01*
X213577200Y-196585771D01*
X213434342Y-196514342D01*
X213362914Y-196442914D01*
D10*
D11*
X177002200Y-191507200D02*
X285002200Y-191507200D01*
D10*
D12*
X264411485Y-193785771D02*
X263911485Y-193071485D01*
X263554342Y-193785771D02*
X263554342Y-192285771D01*
X264125771Y-192285771D01*
X264268628Y-192357200D01*
X264340057Y-192428628D01*
X264411485Y-192571485D01*
X264411485Y-192785771D01*
X264340057Y-192928628D01*
X264268628Y-193000057D01*
X264125771Y-193071485D01*
X263554342Y-193071485D01*
X265625771Y-193714342D02*
X265482914Y-193785771D01*
X265197200Y-193785771D01*
X265054342Y-193714342D01*
X264982914Y-193571485D01*
X264982914Y-193000057D01*
X265054342Y-192857200D01*
X265197200Y-192785771D01*
X265482914Y-192785771D01*
X265625771Y-192857200D01*
X265697200Y-193000057D01*
X265697200Y-193142914D01*
X264982914Y-193285771D01*
X266197200Y-192785771D02*
X266554342Y-193785771D01*
X266911485Y-192785771D01*
X267482914Y-193642914D02*
X267554342Y-193714342D01*
X267482914Y-193785771D01*
X267411485Y-193714342D01*
X267482914Y-193642914D01*
X267482914Y-193785771D01*
X267482914Y-192857200D02*
X267554342Y-192928628D01*
X267482914Y-193000057D01*
X267411485Y-192928628D01*
X267482914Y-192857200D01*
X267482914Y-193000057D01*
X269340057Y-193785771D02*
X269340057Y-192285771D01*
X269697200Y-192285771D01*
X269911485Y-192357200D01*
X270054342Y-192500057D01*
X270125771Y-192642914D01*
X270197200Y-192928628D01*
X270197200Y-193142914D01*
X270125771Y-193428628D01*
X270054342Y-193571485D01*
X269911485Y-193714342D01*
X269697200Y-193785771D01*
X269340057Y-193785771D01*
X271697200Y-193785771D02*
X271197200Y-193071485D01*
X270840057Y-193785771D02*
X270840057Y-192285771D01*
X271411485Y-192285771D01*
X271554342Y-192357200D01*
X271625771Y-192428628D01*
X271697200Y-192571485D01*
X271697200Y-192785771D01*
X271625771Y-192928628D01*
X271554342Y-193000057D01*
X271411485Y-193071485D01*
X270840057Y-193071485D01*
X272268628Y-193357200D02*
X272982914Y-193357200D01*
X272125771Y-193785771D02*
X272625771Y-192285771D01*
X273125771Y-193785771D01*
X274125771Y-193000057D02*
X273625771Y-193000057D01*
X273625771Y-193785771D02*
X273625771Y-192285771D01*
X274340057Y-192285771D01*
X274697200Y-192285771D02*
X275554342Y-192285771D01*
X275125771Y-193785771D02*
X275125771Y-192285771D01*
X277054342Y-192285771D02*
X277411485Y-193785771D01*
X277697200Y-192714342D01*
X277982914Y-193785771D01*
X278340057Y-192285771D01*
X278911485Y-193785771D02*
X278911485Y-192285771D01*
X279625771Y-193785771D02*
X279625771Y-192285771D01*
X280197200Y-192285771D01*
X280340057Y-192357200D01*
X280411485Y-192428628D01*
X280482914Y-192571485D01*
X280482914Y-192785771D01*
X280411485Y-192928628D01*
X280340057Y-193000057D01*
X280197200Y-193071485D01*
X279625771Y-193071485D01*
D10*
D11*
X178362914Y-193714342D02*
X178577200Y-193785771D01*
X178934342Y-193785771D01*
X179077200Y-193714342D01*
X179148628Y-193642914D01*
X179220057Y-193500057D01*
X179220057Y-193357200D01*
X179148628Y-193214342D01*
X179077200Y-193142914D01*
X178934342Y-193071485D01*
X178648628Y-193000057D01*
X178505771Y-192928628D01*
X178434342Y-192857200D01*
X178362914Y-192714342D01*
X178362914Y-192571485D01*
X178434342Y-192428628D01*
X178505771Y-192357200D01*
X178648628Y-192285771D01*
X179005771Y-192285771D01*
X179220057Y-192357200D01*
X179862914Y-193785771D02*
X179862914Y-192785771D01*
X179862914Y-192285771D02*
X179791485Y-192357200D01*
X179862914Y-192428628D01*
X179934342Y-192357200D01*
X179862914Y-192285771D01*
X179862914Y-192428628D01*
X180434342Y-192785771D02*
X181220057Y-192785771D01*
X180434342Y-193785771D01*
X181220057Y-193785771D01*
X182362914Y-193714342D02*
X182220057Y-193785771D01*
X181934342Y-193785771D01*
X181791485Y-193714342D01*
X181720057Y-193571485D01*
X181720057Y-193000057D01*
X181791485Y-192857200D01*
X181934342Y-192785771D01*
X182220057Y-192785771D01*
X182362914Y-192857200D01*
X182434342Y-193000057D01*
X182434342Y-193142914D01*
X181720057Y-193285771D01*
X183077200Y-193642914D02*
X183148628Y-193714342D01*
X183077200Y-193785771D01*
X183005771Y-193714342D01*
X183077200Y-193642914D01*
X183077200Y-193785771D01*
X183077200Y-192857200D02*
X183148628Y-192928628D01*
X183077200Y-193000057D01*
X183005771Y-192928628D01*
X183077200Y-192857200D01*
X183077200Y-193000057D01*
X184862914Y-193357200D02*
X185577200Y-193357200D01*
X184720057Y-193785771D02*
X185220057Y-192285771D01*
X185720057Y-193785771D01*
X186862914Y-192785771D02*
X186862914Y-193785771D01*
X186505771Y-192214342D02*
X186148628Y-193285771D01*
X187077200Y-193285771D01*
D10*
D11*
X263434342Y-196585771D02*
X263434342Y-195085771D01*
X264791485Y-196585771D02*
X264791485Y-195085771D01*
X264791485Y-196514342D02*
X264648628Y-196585771D01*
X264362914Y-196585771D01*
X264220057Y-196514342D01*
X264148628Y-196442914D01*
X264077200Y-196300057D01*
X264077200Y-195871485D01*
X264148628Y-195728628D01*
X264220057Y-195657200D01*
X264362914Y-195585771D01*
X264648628Y-195585771D01*
X264791485Y-195657200D01*
X265505771Y-196442914D02*
X265577200Y-196514342D01*
X265505771Y-196585771D01*
X265434342Y-196514342D01*
X265505771Y-196442914D01*
X265505771Y-196585771D01*
X265505771Y-195657200D02*
X265577200Y-195728628D01*
X265505771Y-195800057D01*
X265434342Y-195728628D01*
X265505771Y-195657200D01*
X265505771Y-195800057D01*
X268148628Y-196585771D02*
X267291485Y-196585771D01*
X267720057Y-196585771D02*
X267720057Y-195085771D01*
X267577200Y-195300057D01*
X267434342Y-195442914D01*
X267291485Y-195514342D01*
X269862914Y-195014342D02*
X268577200Y-196942914D01*
X271148628Y-196585771D02*
X270291485Y-196585771D01*
X270720057Y-196585771D02*
X270720057Y-195085771D01*
X270577200Y-195300057D01*
X270434342Y-195442914D01*
X270291485Y-195514342D01*
D10*
D11*
X177002200Y-187507200D02*
X285002200Y-187507200D01*
D10*
D13*
X178714580Y-188211961D02*
X179857438Y-188211961D01*
X179036009Y-190211961D02*
X179286009Y-188211961D01*
X180274104Y-190211961D02*
X180440771Y-188878628D01*
X180524104Y-188211961D02*
X180416961Y-188307200D01*
X180500295Y-188402438D01*
X180607438Y-188307200D01*
X180524104Y-188211961D01*
X180500295Y-188402438D01*
X181107438Y-188878628D02*
X181869342Y-188878628D01*
X181476485Y-188211961D02*
X181262200Y-189926247D01*
X181333628Y-190116723D01*
X181512200Y-190211961D01*
X181702676Y-190211961D01*
X182655057Y-190211961D02*
X182476485Y-190116723D01*
X182405057Y-189926247D01*
X182619342Y-188211961D01*
X184190771Y-190116723D02*
X183988390Y-190211961D01*
X183607438Y-190211961D01*
X183428866Y-190116723D01*
X183357438Y-189926247D01*
X183452676Y-189164342D01*
X183571723Y-188973866D01*
X183774104Y-188878628D01*
X184155057Y-188878628D01*
X184333628Y-188973866D01*
X184405057Y-189164342D01*
X184381247Y-189354819D01*
X183405057Y-189545295D01*
X185155057Y-190021485D02*
X185238390Y-190116723D01*
X185131247Y-190211961D01*
X185047914Y-190116723D01*
X185155057Y-190021485D01*
X185131247Y-190211961D01*
X185286009Y-188973866D02*
X185369342Y-189069104D01*
X185262200Y-189164342D01*
X185178866Y-189069104D01*
X185286009Y-188973866D01*
X185262200Y-189164342D01*
X187571723Y-188211961D02*
X187988390Y-190211961D01*
X188905057Y-188211961D01*
X190488390Y-190021485D02*
X190381247Y-190116723D01*
X190083628Y-190211961D01*
X189893152Y-190211961D01*
X189619342Y-190116723D01*
X189452676Y-189926247D01*
X189381247Y-189735771D01*
X189333628Y-189354819D01*
X189369342Y-189069104D01*
X189512200Y-188688152D01*
X189631247Y-188497676D01*
X189845533Y-188307200D01*
X190143152Y-188211961D01*
X190333628Y-188211961D01*
X190607438Y-188307200D01*
X190690771Y-188402438D01*
X191416961Y-189450057D02*
X192940771Y-189450057D01*
X194428866Y-188211961D02*
X194619342Y-188211961D01*
X194797914Y-188307200D01*
X194881247Y-188402438D01*
X194952676Y-188592914D01*
X195000295Y-188973866D01*
X194940771Y-189450057D01*
X194797914Y-189831009D01*
X194678866Y-190021485D01*
X194571723Y-190116723D01*
X194369342Y-190211961D01*
X194178866Y-190211961D01*
X194000295Y-190116723D01*
X193916961Y-190021485D01*
X193845533Y-189831009D01*
X193797914Y-189450057D01*
X193857438Y-188973866D01*
X194000295Y-188592914D01*
X194119342Y-188402438D01*
X194226485Y-188307200D01*
X194428866Y-188211961D01*
X196750295Y-190211961D02*
X195607438Y-190211961D01*
X196178866Y-190211961D02*
X196428866Y-188211961D01*
X196202676Y-188497676D01*
X195988390Y-188688152D01*
X195786009Y-188783390D01*
X199107438Y-189640533D02*
X200059819Y-189640533D01*
X198845533Y-190211961D02*
X199762200Y-188211961D01*
X200178866Y-190211961D01*
X201643152Y-189164342D02*
X200976485Y-189164342D01*
X200845533Y-190211961D02*
X201095533Y-188211961D01*
X202047914Y-188211961D01*
X202690771Y-189164342D02*
X203357438Y-189164342D01*
X203512200Y-190211961D02*
X202559819Y-190211961D01*
X202809819Y-188211961D01*
X203762200Y-188211961D01*
X207059819Y-190021485D02*
X206952676Y-190116723D01*
X206655057Y-190211961D01*
X206464580Y-190211961D01*
X206190771Y-190116723D01*
X206024104Y-189926247D01*
X205952676Y-189735771D01*
X205905057Y-189354819D01*
X205940771Y-189069104D01*
X206083628Y-188688152D01*
X206202676Y-188497676D01*
X206416961Y-188307200D01*
X206714580Y-188211961D01*
X206905057Y-188211961D01*
X207178866Y-188307200D01*
X207262200Y-188402438D01*
X208750295Y-190211961D02*
X208881247Y-189164342D01*
X208809819Y-188973866D01*
X208631247Y-188878628D01*
X208250295Y-188878628D01*
X208047914Y-188973866D01*
X208762200Y-190116723D02*
X208559819Y-190211961D01*
X208083628Y-190211961D01*
X207905057Y-190116723D01*
X207833628Y-189926247D01*
X207857438Y-189735771D01*
X207976485Y-189545295D01*
X208178866Y-189450057D01*
X208655057Y-189450057D01*
X208857438Y-189354819D01*
X209702676Y-190211961D02*
X209869342Y-188878628D01*
X209821723Y-189259580D02*
X209940771Y-189069104D01*
X210047914Y-188973866D01*
X210250295Y-188878628D01*
X210440771Y-188878628D01*
X211797914Y-190211961D02*
X212047914Y-188211961D01*
X211809819Y-190116723D02*
X211607438Y-190211961D01*
X211226485Y-190211961D01*
X211047914Y-190116723D01*
X210964580Y-190021485D01*
X210893152Y-189831009D01*
X210964580Y-189259580D01*
X211083628Y-189069104D01*
X211190771Y-188973866D01*
X211393152Y-188878628D01*
X211774104Y-188878628D01*
X211952676Y-188973866D01*
D10*
D11*
X178934342Y-185600057D02*
X178434342Y-185600057D01*
X178434342Y-186385771D02*
X178434342Y-184885771D01*
X179148628Y-184885771D01*
X179720057Y-186385771D02*
X179720057Y-185385771D01*
X179720057Y-184885771D02*
X179648628Y-184957200D01*
X179720057Y-185028628D01*
X179791485Y-184957200D01*
X179720057Y-184885771D01*
X179720057Y-185028628D01*
X180648628Y-186385771D02*
X180505771Y-186314342D01*
X180434342Y-186171485D01*
X180434342Y-184885771D01*
X181791485Y-186314342D02*
X181648628Y-186385771D01*
X181362914Y-186385771D01*
X181220057Y-186314342D01*
X181148628Y-186171485D01*
X181148628Y-185600057D01*
X181220057Y-185457200D01*
X181362914Y-185385771D01*
X181648628Y-185385771D01*
X181791485Y-185457200D01*
X181862914Y-185600057D01*
X181862914Y-185742914D01*
X181148628Y-185885771D01*
X182505771Y-186242914D02*
X182577200Y-186314342D01*
X182505771Y-186385771D01*
X182434342Y-186314342D01*
X182505771Y-186242914D01*
X182505771Y-186385771D01*
X182505771Y-185457200D02*
X182577200Y-185528628D01*
X182505771Y-185600057D01*
X182434342Y-185528628D01*
X182505771Y-185457200D01*
X182505771Y-185600057D01*
X184148628Y-184885771D02*
X184648628Y-186385771D01*
X185148628Y-184885771D01*
X186505771Y-186242914D02*
X186434342Y-186314342D01*
X186220057Y-186385771D01*
X186077200Y-186385771D01*
X185862914Y-186314342D01*
X185720057Y-186171485D01*
X185648628Y-186028628D01*
X185577200Y-185742914D01*
X185577200Y-185528628D01*
X185648628Y-185242914D01*
X185720057Y-185100057D01*
X185862914Y-184957200D01*
X186077200Y-184885771D01*
X186220057Y-184885771D01*
X186434342Y-184957200D01*
X186505771Y-185028628D01*
X187148628Y-185814342D02*
X188291485Y-185814342D01*
X189291485Y-184885771D02*
X189434342Y-184885771D01*
X189577200Y-184957200D01*
X189648628Y-185028628D01*
X189720057Y-185171485D01*
X189791485Y-185457200D01*
X189791485Y-185814342D01*
X189720057Y-186100057D01*
X189648628Y-186242914D01*
X189577200Y-186314342D01*
X189434342Y-186385771D01*
X189291485Y-186385771D01*
X189148628Y-186314342D01*
X189077200Y-186242914D01*
X189005771Y-186100057D01*
X188934342Y-185814342D01*
X188934342Y-185457200D01*
X189005771Y-185171485D01*
X189077200Y-185028628D01*
X189148628Y-184957200D01*
X189291485Y-184885771D01*
X191220057Y-186385771D02*
X190362914Y-186385771D01*
X190791485Y-186385771D02*
X190791485Y-184885771D01*
X190648628Y-185100057D01*
X190505771Y-185242914D01*
X190362914Y-185314342D01*
X193862914Y-186242914D02*
X193791485Y-186314342D01*
X193577200Y-186385771D01*
X193434342Y-186385771D01*
X193220057Y-186314342D01*
X193077200Y-186171485D01*
X193005771Y-186028628D01*
X192934342Y-185742914D01*
X192934342Y-185528628D01*
X193005771Y-185242914D01*
X193077200Y-185100057D01*
X193220057Y-184957200D01*
X193434342Y-184885771D01*
X193577200Y-184885771D01*
X193791485Y-184957200D01*
X193862914Y-185028628D01*
X195148628Y-186385771D02*
X195148628Y-185600057D01*
X195077200Y-185457200D01*
X194934342Y-185385771D01*
X194648628Y-185385771D01*
X194505771Y-185457200D01*
X195148628Y-186314342D02*
X195005771Y-186385771D01*
X194648628Y-186385771D01*
X194505771Y-186314342D01*
X194434342Y-186171485D01*
X194434342Y-186028628D01*
X194505771Y-185885771D01*
X194648628Y-185814342D01*
X195005771Y-185814342D01*
X195148628Y-185742914D01*
X195862914Y-186385771D02*
X195862914Y-185385771D01*
X195862914Y-185671485D02*
X195934342Y-185528628D01*
X196005771Y-185457200D01*
X196148628Y-185385771D01*
X196291485Y-185385771D01*
X197434342Y-186385771D02*
X197434342Y-184885771D01*
X197434342Y-186314342D02*
X197291485Y-186385771D01*
X197005771Y-186385771D01*
X196862914Y-186314342D01*
X196791485Y-186242914D01*
X196720057Y-186100057D01*
X196720057Y-185671485D01*
X196791485Y-185528628D01*
X196862914Y-185457200D01*
X197005771Y-185385771D01*
X197291485Y-185385771D01*
X197434342Y-185457200D01*
X198148628Y-186242914D02*
X198220057Y-186314342D01*
X198148628Y-186385771D01*
X198077200Y-186314342D01*
X198148628Y-186242914D01*
X198148628Y-186385771D01*
X198862914Y-186385771D02*
X198862914Y-184885771D01*
X199005771Y-185814342D02*
X199434342Y-186385771D01*
X199434342Y-185385771D02*
X198862914Y-185957200D01*
X200077200Y-186385771D02*
X200077200Y-185385771D01*
X200077200Y-184885771D02*
X200005771Y-184957200D01*
X200077200Y-185028628D01*
X200148628Y-184957200D01*
X200077200Y-184885771D01*
X200077200Y-185028628D01*
X201434342Y-186314342D02*
X201291485Y-186385771D01*
X201005771Y-186385771D01*
X200862914Y-186314342D01*
X200791485Y-186242914D01*
X200720057Y-186100057D01*
X200720057Y-185671485D01*
X200791485Y-185528628D01*
X200862914Y-185457200D01*
X201005771Y-185385771D01*
X201291485Y-185385771D01*
X201434342Y-185457200D01*
X202720057Y-186385771D02*
X202720057Y-185600057D01*
X202648628Y-185457200D01*
X202505771Y-185385771D01*
X202220057Y-185385771D01*
X202077200Y-185457200D01*
X202720057Y-186314342D02*
X202577200Y-186385771D01*
X202220057Y-186385771D01*
X202077200Y-186314342D01*
X202005771Y-186171485D01*
X202005771Y-186028628D01*
X202077200Y-185885771D01*
X202220057Y-185814342D01*
X202577200Y-185814342D01*
X202720057Y-185742914D01*
X204077200Y-186385771D02*
X204077200Y-184885771D01*
X204077200Y-186314342D02*
X203934342Y-186385771D01*
X203648628Y-186385771D01*
X203505771Y-186314342D01*
X203434342Y-186242914D01*
X203362914Y-186100057D01*
X203362914Y-185671485D01*
X203434342Y-185528628D01*
X203505771Y-185457200D01*
X203648628Y-185385771D01*
X203934342Y-185385771D01*
X204077200Y-185457200D01*
X204434342Y-186528628D02*
X205577200Y-186528628D01*
X205934342Y-185385771D02*
X205934342Y-186885771D01*
X205934342Y-185457200D02*
X206077200Y-185385771D01*
X206362914Y-185385771D01*
X206505771Y-185457200D01*
X206577200Y-185528628D01*
X206648628Y-185671485D01*
X206648628Y-186100057D01*
X206577200Y-186242914D01*
X206505771Y-186314342D01*
X206362914Y-186385771D01*
X206077200Y-186385771D01*
X205934342Y-186314342D01*
X207934342Y-186314342D02*
X207791485Y-186385771D01*
X207505771Y-186385771D01*
X207362914Y-186314342D01*
X207291485Y-186242914D01*
X207220057Y-186100057D01*
X207220057Y-185671485D01*
X207291485Y-185528628D01*
X207362914Y-185457200D01*
X207505771Y-185385771D01*
X207791485Y-185385771D01*
X207934342Y-185457200D01*
X208577200Y-186385771D02*
X208577200Y-184885771D01*
X208577200Y-185457200D02*
X208720057Y-185385771D01*
X209005771Y-185385771D01*
X209148628Y-185457200D01*
X209220057Y-185528628D01*
X209291485Y-185671485D01*
X209291485Y-186100057D01*
X209220057Y-186242914D01*
X209148628Y-186314342D01*
X209005771Y-186385771D01*
X208720057Y-186385771D01*
X208577200Y-186314342D01*
D10*
D11*
X177002200Y-181507200D02*
X285002200Y-181507200D01*
D10*
D11*
X178362914Y-183614342D02*
X178577200Y-183685771D01*
X178934342Y-183685771D01*
X179077200Y-183614342D01*
X179148628Y-183542914D01*
X179220057Y-183400057D01*
X179220057Y-183257200D01*
X179148628Y-183114342D01*
X179077200Y-183042914D01*
X178934342Y-182971485D01*
X178648628Y-182900057D01*
X178505771Y-182828628D01*
X178434342Y-182757200D01*
X178362914Y-182614342D01*
X178362914Y-182471485D01*
X178434342Y-182328628D01*
X178505771Y-182257200D01*
X178648628Y-182185771D01*
X179005771Y-182185771D01*
X179220057Y-182257200D01*
X179862914Y-183685771D02*
X179862914Y-182185771D01*
X180505771Y-183685771D02*
X180505771Y-182900057D01*
X180434342Y-182757200D01*
X180291485Y-182685771D01*
X180077200Y-182685771D01*
X179934342Y-182757200D01*
X179862914Y-182828628D01*
X181791485Y-183614342D02*
X181648628Y-183685771D01*
X181362914Y-183685771D01*
X181220057Y-183614342D01*
X181148628Y-183471485D01*
X181148628Y-182900057D01*
X181220057Y-182757200D01*
X181362914Y-182685771D01*
X181648628Y-182685771D01*
X181791485Y-182757200D01*
X181862914Y-182900057D01*
X181862914Y-183042914D01*
X181148628Y-183185771D01*
X183077200Y-183614342D02*
X182934342Y-183685771D01*
X182648628Y-183685771D01*
X182505771Y-183614342D01*
X182434342Y-183471485D01*
X182434342Y-182900057D01*
X182505771Y-182757200D01*
X182648628Y-182685771D01*
X182934342Y-182685771D01*
X183077200Y-182757200D01*
X183148628Y-182900057D01*
X183148628Y-183042914D01*
X182434342Y-183185771D01*
X183577200Y-182685771D02*
X184148628Y-182685771D01*
X183791485Y-182185771D02*
X183791485Y-183471485D01*
X183862914Y-183614342D01*
X184005771Y-183685771D01*
X184148628Y-183685771D01*
X184648628Y-183542914D02*
X184720057Y-183614342D01*
X184648628Y-183685771D01*
X184577200Y-183614342D01*
X184648628Y-183542914D01*
X184648628Y-183685771D01*
X184648628Y-182757200D02*
X184720057Y-182828628D01*
X184648628Y-182900057D01*
X184577200Y-182828628D01*
X184648628Y-182757200D01*
X184648628Y-182900057D01*
D10*
D11*
X178434342Y-177685771D02*
X178434342Y-176185771D01*
X178934342Y-177257200D01*
X179434342Y-176185771D01*
X179434342Y-177685771D01*
X180791485Y-177685771D02*
X180791485Y-176900057D01*
X180720057Y-176757200D01*
X180577200Y-176685771D01*
X180291485Y-176685771D01*
X180148628Y-176757200D01*
X180791485Y-177614342D02*
X180648628Y-177685771D01*
X180291485Y-177685771D01*
X180148628Y-177614342D01*
X180077200Y-177471485D01*
X180077200Y-177328628D01*
X180148628Y-177185771D01*
X180291485Y-177114342D01*
X180648628Y-177114342D01*
X180791485Y-177042914D01*
X181291485Y-176685771D02*
X181862914Y-176685771D01*
X181505771Y-176185771D02*
X181505771Y-177471485D01*
X181577200Y-177614342D01*
X181720057Y-177685771D01*
X181862914Y-177685771D01*
X182148628Y-176685771D02*
X182720057Y-176685771D01*
X182362914Y-176185771D02*
X182362914Y-177471485D01*
X182434342Y-177614342D01*
X182577200Y-177685771D01*
X182720057Y-177685771D01*
X184220057Y-176185771D02*
X184577200Y-177685771D01*
X184862914Y-176614342D01*
X185148628Y-177685771D01*
X185505771Y-176185771D01*
X186291485Y-177685771D02*
X186148628Y-177614342D01*
X186077200Y-177542914D01*
X186005771Y-177400057D01*
X186005771Y-176971485D01*
X186077200Y-176828628D01*
X186148628Y-176757200D01*
X186291485Y-176685771D01*
X186505771Y-176685771D01*
X186648628Y-176757200D01*
X186720057Y-176828628D01*
X186791485Y-176971485D01*
X186791485Y-177400057D01*
X186720057Y-177542914D01*
X186648628Y-177614342D01*
X186505771Y-177685771D01*
X186291485Y-177685771D01*
X187648628Y-177685771D02*
X187505771Y-177614342D01*
X187434342Y-177542914D01*
X187362914Y-177400057D01*
X187362914Y-176971485D01*
X187434342Y-176828628D01*
X187505771Y-176757200D01*
X187648628Y-176685771D01*
X187862914Y-176685771D01*
X188005771Y-176757200D01*
X188077200Y-176828628D01*
X188148628Y-176971485D01*
X188148628Y-177400057D01*
X188077200Y-177542914D01*
X188005771Y-177614342D01*
X187862914Y-177685771D01*
X187648628Y-177685771D01*
X189434342Y-177685771D02*
X189434342Y-176185771D01*
X189434342Y-177614342D02*
X189291485Y-177685771D01*
X189005771Y-177685771D01*
X188862914Y-177614342D01*
X188791485Y-177542914D01*
X188720057Y-177400057D01*
X188720057Y-176971485D01*
X188791485Y-176828628D01*
X188862914Y-176757200D01*
X189005771Y-176685771D01*
X189291485Y-176685771D01*
X189434342Y-176757200D01*
D10*
D11*
X197002200Y-191507200D02*
X197002200Y-194507200D01*
D10*
D11*
X261002200Y-191507200D02*
X261002200Y-198007200D01*
D14*
X143200000Y-121200000D02*
X143200000Y-120500000D01*
X145300000Y-121200000D02*
X143200000Y-121200000D01*
X145300000Y-114200000D02*
X145300000Y-121200000D01*
X142400000Y-114200000D02*
X145300000Y-114200000D01*
X142400000Y-115800000D02*
X142400000Y-114200000D01*
X141700000Y-115800000D02*
X142400000Y-115800000D01*
X141700000Y-118800000D02*
X141700000Y-115800000D01*
X143200000Y-118800000D02*
X141700000Y-118800000D01*
X143200000Y-120500000D02*
X143200000Y-118800000D01*
X141500000Y-122200000D02*
X143200000Y-120500000D01*
X141500000Y-122200000D02*
X142000000Y-122200000D01*
X141500000Y-122200000D02*
X141500000Y-121700000D01*
X141500000Y-122200000D02*
X141500000Y-123500000D01*
X141400000Y-122200000D02*
X141500000Y-122200000D01*
X139300000Y-122200000D02*
X141400000Y-122200000D01*
X139300000Y-123500000D02*
X139300000Y-122200000D01*
X140300000Y-125700000D02*
X140300000Y-123500000D01*
X141600000Y-125700000D02*
X140300000Y-125700000D01*
X140300000Y-125700000D02*
X141600000Y-125700000D01*
X141600000Y-127900000D02*
X140300000Y-127900000D01*
X141600000Y-123500000D02*
X141600000Y-127900000D01*
X139000000Y-123500000D02*
X141600000Y-123500000D01*
X139000000Y-125700000D02*
X139000000Y-123500000D01*
X140300000Y-125700000D02*
X139000000Y-125700000D01*
X140300000Y-127900000D02*
X140300000Y-125700000D01*
X143400000Y-116100000D02*
X142000000Y-116100000D01*
X142000000Y-118400000D02*
X143400000Y-118400000D01*
X143400000Y-118400000D02*
X143400000Y-116100000D01*
X142000000Y-116100000D02*
X142000000Y-118400000D01*
X142700000Y-114500000D02*
X142700000Y-115900000D01*
X145000000Y-115900000D02*
X145000000Y-114500000D01*
X145000000Y-114500000D02*
X142700000Y-114500000D01*
X142700000Y-115900000D02*
X145000000Y-115900000D01*
X145000000Y-118600000D02*
X143600000Y-118600000D01*
X143600000Y-120900000D02*
X145000000Y-120900000D01*
X145000000Y-120900000D02*
X145000000Y-118600000D01*
X143600000Y-118600000D02*
X143600000Y-120900000D01*
X145000000Y-116100000D02*
X143600000Y-116100000D01*
X143600000Y-118400000D02*
X145000000Y-118400000D01*
X145000000Y-118400000D02*
X145000000Y-116100000D01*
X143600000Y-116100000D02*
X143600000Y-118400000D01*
X173341422Y-119010000D02*
X173858578Y-119010000D01*
X173341422Y-117590000D02*
X173858578Y-117590000D01*
X170258578Y-119010000D02*
X169741422Y-119010000D01*
X170258578Y-117590000D02*
X169741422Y-117590000D01*
X118530000Y-134930000D02*
G75*
G02X118530000Y-129810000I0J2560000D01*
G01*
X124690000Y-129810000D02*
X118530000Y-129810000D01*
X124690000Y-134930000D02*
X118530000Y-134930000D01*
X124690000Y-129810000D02*
X124690000Y-134930000D01*
X124690000Y-135330000D02*
X123570000Y-135330000D01*
X123570000Y-135330000D02*
X123570000Y-134930000D01*
X123570000Y-134930000D02*
X124690000Y-134930000D01*
X124690000Y-134930000D02*
X124690000Y-135330000D01*
X124820000Y-131100000D02*
X124690000Y-131100000D01*
X124690000Y-131100000D02*
X124690000Y-131100000D01*
X124690000Y-131100000D02*
X124820000Y-131100000D01*
X124820000Y-131100000D02*
X124820000Y-131100000D01*
X124820000Y-133640000D02*
X124690000Y-133640000D01*
X124690000Y-133640000D02*
X124690000Y-133640000D01*
X124690000Y-133640000D02*
X124820000Y-133640000D01*
X124820000Y-133640000D02*
X124820000Y-133640000D01*
X151700000Y-102200000D02*
X142100000Y-102200000D01*
X151700000Y-103200000D02*
X151700000Y-102200000D01*
X151700000Y-108600000D02*
X151700000Y-107600000D01*
X142100000Y-108600000D02*
X151700000Y-108600000D01*
X142100000Y-107600000D02*
X142100000Y-108600000D01*
X142100000Y-105000000D02*
X142100000Y-105800000D01*
X151700000Y-105000000D02*
X151700000Y-105800000D01*
X126800000Y-107400000D02*
X125600000Y-107400000D01*
X125600000Y-107400000D02*
X125600000Y-106900000D01*
X125600000Y-106900000D02*
X123100000Y-106900000D01*
X123100000Y-106900000D02*
X123100000Y-101700000D01*
X123100000Y-101700000D02*
X125600000Y-101700000D01*
X125600000Y-101700000D02*
X125600000Y-101200000D01*
X125600000Y-101200000D02*
X128800000Y-101200000D01*
X131400000Y-101200000D02*
X140300000Y-101200000D01*
X140300000Y-101200000D02*
X140300000Y-107400000D01*
X140300000Y-107400000D02*
X139100000Y-107400000D01*
X135900000Y-107400000D02*
X129400000Y-107400000D01*
X126800000Y-107400000D02*
X126800000Y-109400000D01*
X129400000Y-107400000D02*
X129400000Y-109400000D01*
X130302064Y-135360000D02*
X129097936Y-135360000D01*
X130302064Y-132640000D02*
X129097936Y-132640000D01*
X160510000Y-107385000D02*
X160510000Y-108110000D01*
X160510000Y-108110000D02*
X159785000Y-108110000D01*
X156290000Y-104615000D02*
X156290000Y-103890000D01*
X156290000Y-103890000D02*
X157015000Y-103890000D01*
X156290000Y-107385000D02*
X156290000Y-108110000D01*
X156290000Y-108110000D02*
X157015000Y-108110000D01*
X160510000Y-104615000D02*
X160510000Y-103890000D01*
D15*
X170640000Y-125335000D02*
G75*
G03X170640000Y-125335000I-100000J0D01*
G01*
D16*
X173800000Y-120500000D02*
X173800000Y-121150000D01*
X169800000Y-120500000D02*
X169800000Y-121150000D01*
X173800000Y-124500000D02*
X173800000Y-123850000D01*
X169800000Y-124500000D02*
X169800000Y-123850000D01*
X173800000Y-120500000D02*
X173150000Y-120500000D01*
X169800000Y-120500000D02*
X170450000Y-120500000D01*
X173800000Y-124500000D02*
X173150000Y-124500000D01*
X169800000Y-124500000D02*
X170450000Y-124500000D01*
D14*
X151500000Y-121500000D02*
X141900000Y-121500000D01*
X151500000Y-122500000D02*
X151500000Y-121500000D01*
X151500000Y-127900000D02*
X151500000Y-126900000D01*
X141900000Y-127900000D02*
X151500000Y-127900000D01*
X141900000Y-126900000D02*
X141900000Y-127900000D01*
X141900000Y-124300000D02*
X141900000Y-125100000D01*
X151500000Y-124300000D02*
X151500000Y-125100000D01*
X126550000Y-123700000D02*
X123000000Y-123700000D01*
X123000000Y-123700000D02*
X123000000Y-114500000D01*
X123000000Y-114500000D02*
X126550000Y-114500000D01*
X133250000Y-114500000D02*
X135700000Y-114500000D01*
X135700000Y-114500000D02*
X135700000Y-114900000D01*
X135700000Y-114900000D02*
X137700000Y-114900000D01*
X137700000Y-114900000D02*
X137700000Y-117900000D01*
X137700000Y-121700000D02*
X137700000Y-123300000D01*
X137700000Y-123300000D02*
X135700000Y-123300000D01*
X135700000Y-123300000D02*
X135700000Y-123700000D01*
X135700000Y-123700000D02*
X133250000Y-123700000D01*
X139600000Y-117910000D02*
X141340000Y-117910000D01*
X141340000Y-117910000D02*
X141340000Y-119650000D01*
X160310000Y-126685000D02*
X160310000Y-127410000D01*
X160310000Y-127410000D02*
X159585000Y-127410000D01*
X156090000Y-123915000D02*
X156090000Y-123190000D01*
X156090000Y-123190000D02*
X156815000Y-123190000D01*
X156090000Y-126685000D02*
X156090000Y-127410000D01*
X156090000Y-127410000D02*
X156815000Y-127410000D01*
X160310000Y-123915000D02*
X160310000Y-123190000D01*
X175425000Y-106300000D02*
X175425000Y-103575000D01*
X175425000Y-103575000D02*
X175165000Y-103575000D01*
X175425000Y-106300000D02*
X175425000Y-109025000D01*
X175425000Y-109025000D02*
X175165000Y-109025000D01*
X169975000Y-106300000D02*
X169975000Y-103575000D01*
X169975000Y-103575000D02*
X170235000Y-103575000D01*
X169975000Y-106300000D02*
X169975000Y-109025000D01*
X169975000Y-109025000D02*
X170235000Y-109025000D01*
X170235000Y-109025000D02*
X170235000Y-110700000D01*
X162210000Y-123162779D02*
X162210000Y-122837221D01*
X161190000Y-123162779D02*
X161190000Y-122837221D01*
X161390000Y-103862779D02*
X161390000Y-103537221D01*
X162410000Y-103862779D02*
X162410000Y-103537221D01*
X162690000Y-123058578D02*
X162690000Y-122541422D01*
X164110000Y-123058578D02*
X164110000Y-122541422D01*
X164310000Y-103758578D02*
X164310000Y-103241422D01*
X162890000Y-103758578D02*
X162890000Y-103241422D01*
X158941422Y-120890000D02*
X159458578Y-120890000D01*
X158941422Y-122310000D02*
X159458578Y-122310000D01*
X159141422Y-103010000D02*
X159658578Y-103010000D01*
X159141422Y-101590000D02*
X159658578Y-101590000D01*
X155210000Y-121396078D02*
X155210000Y-120878922D01*
X153790000Y-121396078D02*
X153790000Y-120878922D01*
X153990000Y-101858578D02*
X153990000Y-101341422D01*
X155410000Y-101858578D02*
X155410000Y-101341422D01*
X155690000Y-121250279D02*
X155690000Y-120924721D01*
X156710000Y-121250279D02*
X156710000Y-120924721D01*
X156910000Y-101962779D02*
X156910000Y-101637221D01*
X155890000Y-101962779D02*
X155890000Y-101637221D01*
X161190000Y-126837221D02*
X161190000Y-127162779D01*
X162210000Y-126837221D02*
X162210000Y-127162779D01*
X162410000Y-107537221D02*
X162410000Y-107862779D01*
X161390000Y-107537221D02*
X161390000Y-107862779D01*
X162690000Y-126941422D02*
X162690000Y-127458578D01*
X164110000Y-126941422D02*
X164110000Y-127458578D01*
X164310000Y-107641422D02*
X164310000Y-108158578D01*
X162890000Y-107641422D02*
X162890000Y-108158578D01*
X175900000Y-111950000D02*
G75*
G02X176600000Y-111250000I700000J0D01*
G01*
X177200000Y-111250000D02*
G75*
G02X177900000Y-111950000I0J-700000D01*
G01*
X177900000Y-113350000D02*
G75*
G02X177200000Y-114050000I-700000J0D01*
G01*
X176600000Y-114050000D02*
G75*
G02X175900000Y-113350000I0J700000D01*
G01*
X177200000Y-114050000D02*
X176600000Y-114050000D01*
X177900000Y-111950000D02*
X177900000Y-113350000D01*
X176600000Y-111250000D02*
X177200000Y-111250000D01*
X175900000Y-113350000D02*
X175900000Y-111950000D01*
X173897936Y-127410000D02*
X175102064Y-127410000D01*
X173897936Y-125590000D02*
X175102064Y-125590000D01*
X169702064Y-127410000D02*
X168497936Y-127410000D01*
X169702064Y-125590000D02*
X168497936Y-125590000D01*
X171002064Y-130410000D02*
X169797936Y-130410000D01*
X171002064Y-128590000D02*
X169797936Y-128590000D01*
X146790000Y-137497936D02*
X146790000Y-138702064D01*
X148610000Y-137497936D02*
X148610000Y-138702064D01*
X174210000Y-137810000D02*
X174210000Y-136550000D01*
X174210000Y-130990000D02*
X174210000Y-132250000D01*
X170450000Y-137810000D02*
X174210000Y-137810000D01*
X168200000Y-130990000D02*
X174210000Y-130990000D01*
X142790000Y-138702064D02*
X142790000Y-137497936D01*
X144610000Y-138702064D02*
X144610000Y-137497936D01*
X149052064Y-112410000D02*
X144947936Y-112410000D01*
X149052064Y-108990000D02*
X144947936Y-108990000D01*
X164437221Y-99890000D02*
X164762779Y-99890000D01*
X164437221Y-100910000D02*
X164762779Y-100910000D01*
X161490000Y-118762779D02*
X161490000Y-118437221D01*
X162510000Y-118762779D02*
X162510000Y-118437221D01*
D17*
X141567857Y-103425000D02*
X141603571Y-103460714D01*
X141639285Y-103567857D01*
X141639285Y-103639285D01*
X141603571Y-103746428D01*
X141532142Y-103817857D01*
X141460714Y-103853571D01*
X141317857Y-103889285D01*
X141210714Y-103889285D01*
X141067857Y-103853571D01*
X140996428Y-103817857D01*
X140925000Y-103746428D01*
X140889285Y-103639285D01*
X140889285Y-103567857D01*
X140925000Y-103460714D01*
X140960714Y-103425000D01*
X141639285Y-102710714D02*
X141639285Y-103139285D01*
X141639285Y-102925000D02*
X140889285Y-102925000D01*
X140996428Y-102996428D01*
X141067857Y-103067857D01*
X141103571Y-103139285D01*
X152867857Y-107425000D02*
X152903571Y-107460714D01*
X152939285Y-107567857D01*
X152939285Y-107639285D01*
X152903571Y-107746428D01*
X152832142Y-107817857D01*
X152760714Y-107853571D01*
X152617857Y-107889285D01*
X152510714Y-107889285D01*
X152367857Y-107853571D01*
X152296428Y-107817857D01*
X152225000Y-107746428D01*
X152189285Y-107639285D01*
X152189285Y-107567857D01*
X152225000Y-107460714D01*
X152260714Y-107425000D01*
X152260714Y-107139285D02*
X152225000Y-107103571D01*
X152189285Y-107032142D01*
X152189285Y-106853571D01*
X152225000Y-106782142D01*
X152260714Y-106746428D01*
X152332142Y-106710714D01*
X152403571Y-106710714D01*
X152510714Y-106746428D01*
X152939285Y-107175000D01*
X152939285Y-106710714D01*
D11*
X173433333Y-117007142D02*
X173385714Y-117054761D01*
X173242857Y-117102380D01*
X173147619Y-117102380D01*
X173004761Y-117054761D01*
X172909523Y-116959523D01*
X172861904Y-116864285D01*
X172814285Y-116673809D01*
X172814285Y-116530952D01*
X172861904Y-116340476D01*
X172909523Y-116245238D01*
X173004761Y-116150000D01*
X173147619Y-116102380D01*
X173242857Y-116102380D01*
X173385714Y-116150000D01*
X173433333Y-116197619D01*
X173766666Y-116102380D02*
X174385714Y-116102380D01*
X174052380Y-116483333D01*
X174195238Y-116483333D01*
X174290476Y-116530952D01*
X174338095Y-116578571D01*
X174385714Y-116673809D01*
X174385714Y-116911904D01*
X174338095Y-117007142D01*
X174290476Y-117054761D01*
X174195238Y-117102380D01*
X173909523Y-117102380D01*
X173814285Y-117054761D01*
X173766666Y-117007142D01*
X169833333Y-120307142D02*
X169785714Y-120354761D01*
X169642857Y-120402380D01*
X169547619Y-120402380D01*
X169404761Y-120354761D01*
X169309523Y-120259523D01*
X169261904Y-120164285D01*
X169214285Y-119973809D01*
X169214285Y-119830952D01*
X169261904Y-119640476D01*
X169309523Y-119545238D01*
X169404761Y-119450000D01*
X169547619Y-119402380D01*
X169642857Y-119402380D01*
X169785714Y-119450000D01*
X169833333Y-119497619D01*
X170690476Y-119735714D02*
X170690476Y-120402380D01*
X170452380Y-119354761D02*
X170214285Y-120069047D01*
X170833333Y-120069047D01*
X167787142Y-123866666D02*
X167834761Y-123914285D01*
X167882380Y-124057142D01*
X167882380Y-124152380D01*
X167834761Y-124295238D01*
X167739523Y-124390476D01*
X167644285Y-124438095D01*
X167453809Y-124485714D01*
X167310952Y-124485714D01*
X167120476Y-124438095D01*
X167025238Y-124390476D01*
X166930000Y-124295238D01*
X166882380Y-124152380D01*
X166882380Y-124057142D01*
X166930000Y-123914285D01*
X166977619Y-123866666D01*
X166882380Y-122961904D02*
X166882380Y-123438095D01*
X167358571Y-123485714D01*
X167310952Y-123438095D01*
X167263333Y-123342857D01*
X167263333Y-123104761D01*
X167310952Y-123009523D01*
X167358571Y-122961904D01*
X167453809Y-122914285D01*
X167691904Y-122914285D01*
X167787142Y-122961904D01*
X167834761Y-123009523D01*
X167882380Y-123104761D01*
X167882380Y-123342857D01*
X167834761Y-123438095D01*
X167787142Y-123485714D01*
X174187142Y-123866666D02*
X174234761Y-123914285D01*
X174282380Y-124057142D01*
X174282380Y-124152380D01*
X174234761Y-124295238D01*
X174139523Y-124390476D01*
X174044285Y-124438095D01*
X173853809Y-124485714D01*
X173710952Y-124485714D01*
X173520476Y-124438095D01*
X173425238Y-124390476D01*
X173330000Y-124295238D01*
X173282380Y-124152380D01*
X173282380Y-124057142D01*
X173330000Y-123914285D01*
X173377619Y-123866666D01*
X173282380Y-123009523D02*
X173282380Y-123200000D01*
X173330000Y-123295238D01*
X173377619Y-123342857D01*
X173520476Y-123438095D01*
X173710952Y-123485714D01*
X174091904Y-123485714D01*
X174187142Y-123438095D01*
X174234761Y-123390476D01*
X174282380Y-123295238D01*
X174282380Y-123104761D01*
X174234761Y-123009523D01*
X174187142Y-122961904D01*
X174091904Y-122914285D01*
X173853809Y-122914285D01*
X173758571Y-122961904D01*
X173710952Y-123009523D01*
X173663333Y-123104761D01*
X173663333Y-123295238D01*
X173710952Y-123390476D01*
X173758571Y-123438095D01*
X173853809Y-123485714D01*
X133483333Y-141007142D02*
X133435714Y-141054761D01*
X133292857Y-141102380D01*
X133197619Y-141102380D01*
X133054761Y-141054761D01*
X132959523Y-140959523D01*
X132911904Y-140864285D01*
X132864285Y-140673809D01*
X132864285Y-140530952D01*
X132911904Y-140340476D01*
X132959523Y-140245238D01*
X133054761Y-140150000D01*
X133197619Y-140102380D01*
X133292857Y-140102380D01*
X133435714Y-140150000D01*
X133483333Y-140197619D01*
X134483333Y-141102380D02*
X134150000Y-140626190D01*
X133911904Y-141102380D02*
X133911904Y-140102380D01*
X134292857Y-140102380D01*
X134388095Y-140150000D01*
X134435714Y-140197619D01*
X134483333Y-140292857D01*
X134483333Y-140435714D01*
X134435714Y-140530952D01*
X134388095Y-140578571D01*
X134292857Y-140626190D01*
X133911904Y-140626190D01*
X134911904Y-141102380D02*
X134911904Y-140102380D01*
X135150000Y-140102380D01*
X135292857Y-140150000D01*
X135388095Y-140245238D01*
X135435714Y-140340476D01*
X135483333Y-140530952D01*
X135483333Y-140673809D01*
X135435714Y-140864285D01*
X135388095Y-140959523D01*
X135292857Y-141054761D01*
X135150000Y-141102380D01*
X134911904Y-141102380D01*
X136435714Y-141102380D02*
X135864285Y-141102380D01*
X136150000Y-141102380D02*
X136150000Y-140102380D01*
X136054761Y-140245238D01*
X135959523Y-140340476D01*
X135864285Y-140388095D01*
X124261904Y-136652380D02*
X124261904Y-135652380D01*
X124500000Y-135652380D01*
X124642857Y-135700000D01*
X124738095Y-135795238D01*
X124785714Y-135890476D01*
X124833333Y-136080952D01*
X124833333Y-136223809D01*
X124785714Y-136414285D01*
X124738095Y-136509523D01*
X124642857Y-136604761D01*
X124500000Y-136652380D01*
X124261904Y-136652380D01*
X125785714Y-136652380D02*
X125214285Y-136652380D01*
X125500000Y-136652380D02*
X125500000Y-135652380D01*
X125404761Y-135795238D01*
X125309523Y-135890476D01*
X125214285Y-135938095D01*
X146161904Y-101328571D02*
X145828571Y-101328571D01*
X145828571Y-101852380D02*
X145828571Y-100852380D01*
X146304761Y-100852380D01*
X147161904Y-101852380D02*
X146685714Y-101852380D01*
X146685714Y-100852380D01*
X148019047Y-101852380D02*
X147447619Y-101852380D01*
X147733333Y-101852380D02*
X147733333Y-100852380D01*
X147638095Y-100995238D01*
X147542857Y-101090476D01*
X147447619Y-101138095D01*
X135166666Y-99152380D02*
X135166666Y-99866666D01*
X135119047Y-100009523D01*
X135023809Y-100104761D01*
X134880952Y-100152380D01*
X134785714Y-100152380D01*
X136166666Y-100152380D02*
X135595238Y-100152380D01*
X135880952Y-100152380D02*
X135880952Y-99152380D01*
X135785714Y-99295238D01*
X135690476Y-99390476D01*
X135595238Y-99438095D01*
D17*
X154375000Y-104139285D02*
X154125000Y-103782142D01*
X153946428Y-104139285D02*
X153946428Y-103389285D01*
X154232142Y-103389285D01*
X154303571Y-103425000D01*
X154339285Y-103460714D01*
X154375000Y-103532142D01*
X154375000Y-103639285D01*
X154339285Y-103710714D01*
X154303571Y-103746428D01*
X154232142Y-103782142D01*
X153946428Y-103782142D01*
X154660714Y-103460714D02*
X154696428Y-103425000D01*
X154767857Y-103389285D01*
X154946428Y-103389285D01*
X155017857Y-103425000D01*
X155053571Y-103460714D01*
X155089285Y-103532142D01*
X155089285Y-103603571D01*
X155053571Y-103710714D01*
X154625000Y-104139285D01*
X155089285Y-104139285D01*
X154375000Y-107439285D02*
X154125000Y-107082142D01*
X153946428Y-107439285D02*
X153946428Y-106689285D01*
X154232142Y-106689285D01*
X154303571Y-106725000D01*
X154339285Y-106760714D01*
X154375000Y-106832142D01*
X154375000Y-106939285D01*
X154339285Y-107010714D01*
X154303571Y-107046428D01*
X154232142Y-107082142D01*
X153946428Y-107082142D01*
X154625000Y-106689285D02*
X155089285Y-106689285D01*
X154839285Y-106975000D01*
X154946428Y-106975000D01*
X155017857Y-107010714D01*
X155053571Y-107046428D01*
X155089285Y-107117857D01*
X155089285Y-107296428D01*
X155053571Y-107367857D01*
X155017857Y-107403571D01*
X154946428Y-107439285D01*
X154732142Y-107439285D01*
X154660714Y-107403571D01*
X154625000Y-107367857D01*
D11*
X170222380Y-120866666D02*
X169746190Y-121200000D01*
X170222380Y-121438095D02*
X169222380Y-121438095D01*
X169222380Y-121057142D01*
X169270000Y-120961904D01*
X169317619Y-120914285D01*
X169412857Y-120866666D01*
X169555714Y-120866666D01*
X169650952Y-120914285D01*
X169698571Y-120961904D01*
X169746190Y-121057142D01*
X169746190Y-121438095D01*
X169555714Y-120009523D02*
X170222380Y-120009523D01*
X169174761Y-120247619D02*
X169889047Y-120485714D01*
X169889047Y-119866666D01*
X176622380Y-120866666D02*
X176146190Y-121200000D01*
X176622380Y-121438095D02*
X175622380Y-121438095D01*
X175622380Y-121057142D01*
X175670000Y-120961904D01*
X175717619Y-120914285D01*
X175812857Y-120866666D01*
X175955714Y-120866666D01*
X176050952Y-120914285D01*
X176098571Y-120961904D01*
X176146190Y-121057142D01*
X176146190Y-121438095D01*
X175622380Y-119961904D02*
X175622380Y-120438095D01*
X176098571Y-120485714D01*
X176050952Y-120438095D01*
X176003333Y-120342857D01*
X176003333Y-120104761D01*
X176050952Y-120009523D01*
X176098571Y-119961904D01*
X176193809Y-119914285D01*
X176431904Y-119914285D01*
X176527142Y-119961904D01*
X176574761Y-120009523D01*
X176622380Y-120104761D01*
X176622380Y-120342857D01*
X176574761Y-120438095D01*
X176527142Y-120485714D01*
X165882380Y-120851666D02*
X165406190Y-121185000D01*
X165882380Y-121423095D02*
X164882380Y-121423095D01*
X164882380Y-121042142D01*
X164930000Y-120946904D01*
X164977619Y-120899285D01*
X165072857Y-120851666D01*
X165215714Y-120851666D01*
X165310952Y-120899285D01*
X165358571Y-120946904D01*
X165406190Y-121042142D01*
X165406190Y-121423095D01*
X164882380Y-119994523D02*
X164882380Y-120185000D01*
X164930000Y-120280238D01*
X164977619Y-120327857D01*
X165120476Y-120423095D01*
X165310952Y-120470714D01*
X165691904Y-120470714D01*
X165787142Y-120423095D01*
X165834761Y-120375476D01*
X165882380Y-120280238D01*
X165882380Y-120089761D01*
X165834761Y-119994523D01*
X165787142Y-119946904D01*
X165691904Y-119899285D01*
X165453809Y-119899285D01*
X165358571Y-119946904D01*
X165310952Y-119994523D01*
X165263333Y-120089761D01*
X165263333Y-120280238D01*
X165310952Y-120375476D01*
X165358571Y-120423095D01*
X165453809Y-120470714D01*
X176282380Y-120851666D02*
X175806190Y-121185000D01*
X176282380Y-121423095D02*
X175282380Y-121423095D01*
X175282380Y-121042142D01*
X175330000Y-120946904D01*
X175377619Y-120899285D01*
X175472857Y-120851666D01*
X175615714Y-120851666D01*
X175710952Y-120899285D01*
X175758571Y-120946904D01*
X175806190Y-121042142D01*
X175806190Y-121423095D01*
X175282380Y-120518333D02*
X175282380Y-119851666D01*
X176282380Y-120280238D01*
X129533333Y-136732380D02*
X129200000Y-136256190D01*
X128961904Y-136732380D02*
X128961904Y-135732380D01*
X129342857Y-135732380D01*
X129438095Y-135780000D01*
X129485714Y-135827619D01*
X129533333Y-135922857D01*
X129533333Y-136065714D01*
X129485714Y-136160952D01*
X129438095Y-136208571D01*
X129342857Y-136256190D01*
X128961904Y-136256190D01*
X130104761Y-136160952D02*
X130009523Y-136113333D01*
X129961904Y-136065714D01*
X129914285Y-135970476D01*
X129914285Y-135922857D01*
X129961904Y-135827619D01*
X130009523Y-135780000D01*
X130104761Y-135732380D01*
X130295238Y-135732380D01*
X130390476Y-135780000D01*
X130438095Y-135827619D01*
X130485714Y-135922857D01*
X130485714Y-135970476D01*
X130438095Y-136065714D01*
X130390476Y-136113333D01*
X130295238Y-136160952D01*
X130104761Y-136160952D01*
X130009523Y-136208571D01*
X129961904Y-136256190D01*
X129914285Y-136351428D01*
X129914285Y-136541904D01*
X129961904Y-136637142D01*
X130009523Y-136684761D01*
X130104761Y-136732380D01*
X130295238Y-136732380D01*
X130390476Y-136684761D01*
X130438095Y-136637142D01*
X130485714Y-136541904D01*
X130485714Y-136351428D01*
X130438095Y-136256190D01*
X130390476Y-136208571D01*
X130295238Y-136160952D01*
X157638095Y-102052380D02*
X157638095Y-102861904D01*
X157685714Y-102957142D01*
X157733333Y-103004761D01*
X157828571Y-103052380D01*
X158019047Y-103052380D01*
X158114285Y-103004761D01*
X158161904Y-102957142D01*
X158209523Y-102861904D01*
X158209523Y-102052380D01*
X159209523Y-103052380D02*
X158638095Y-103052380D01*
X158923809Y-103052380D02*
X158923809Y-102052380D01*
X158828571Y-102195238D01*
X158733333Y-102290476D01*
X158638095Y-102338095D01*
D17*
X167616518Y-123062020D02*
X168426208Y-123062020D01*
X168521466Y-123014392D01*
X168569094Y-122966763D01*
X168616723Y-122871505D01*
X168616723Y-122680990D01*
X168569094Y-122585732D01*
X168521466Y-122538104D01*
X168426208Y-122490475D01*
X167616518Y-122490475D01*
X167711776Y-122061815D02*
X167664147Y-122014187D01*
X167616518Y-121918929D01*
X167616518Y-121680785D01*
X167664147Y-121585527D01*
X167711776Y-121537899D01*
X167807033Y-121490270D01*
X167902291Y-121490270D01*
X168045177Y-121537899D01*
X168616723Y-122109444D01*
X168616723Y-121490270D01*
X142967857Y-117425000D02*
X143003571Y-117460714D01*
X143039285Y-117567857D01*
X143039285Y-117639285D01*
X143003571Y-117746428D01*
X142932142Y-117817857D01*
X142860714Y-117853571D01*
X142717857Y-117889285D01*
X142610714Y-117889285D01*
X142467857Y-117853571D01*
X142396428Y-117817857D01*
X142325000Y-117746428D01*
X142289285Y-117639285D01*
X142289285Y-117567857D01*
X142325000Y-117460714D01*
X142360714Y-117425000D01*
X142289285Y-117175000D02*
X142289285Y-116675000D01*
X143039285Y-116996428D01*
X152667857Y-126725000D02*
X152703571Y-126760714D01*
X152739285Y-126867857D01*
X152739285Y-126939285D01*
X152703571Y-127046428D01*
X152632142Y-127117857D01*
X152560714Y-127153571D01*
X152417857Y-127189285D01*
X152310714Y-127189285D01*
X152167857Y-127153571D01*
X152096428Y-127117857D01*
X152025000Y-127046428D01*
X151989285Y-126939285D01*
X151989285Y-126867857D01*
X152025000Y-126760714D01*
X152060714Y-126725000D01*
X152310714Y-126296428D02*
X152275000Y-126367857D01*
X152239285Y-126403571D01*
X152167857Y-126439285D01*
X152132142Y-126439285D01*
X152060714Y-126403571D01*
X152025000Y-126367857D01*
X151989285Y-126296428D01*
X151989285Y-126153571D01*
X152025000Y-126082142D01*
X152060714Y-126046428D01*
X152132142Y-126010714D01*
X152167857Y-126010714D01*
X152239285Y-126046428D01*
X152275000Y-126082142D01*
X152310714Y-126153571D01*
X152310714Y-126296428D01*
X152346428Y-126367857D01*
X152382142Y-126403571D01*
X152453571Y-126439285D01*
X152596428Y-126439285D01*
X152667857Y-126403571D01*
X152703571Y-126367857D01*
X152739285Y-126296428D01*
X152739285Y-126153571D01*
X152703571Y-126082142D01*
X152667857Y-126046428D01*
X152596428Y-126010714D01*
X152453571Y-126010714D01*
X152382142Y-126046428D01*
X152346428Y-126082142D01*
X152310714Y-126153571D01*
D11*
X145961904Y-120628571D02*
X145628571Y-120628571D01*
X145628571Y-121152380D02*
X145628571Y-120152380D01*
X146104761Y-120152380D01*
X146961904Y-121152380D02*
X146485714Y-121152380D01*
X146485714Y-120152380D01*
X147247619Y-120247619D02*
X147295238Y-120200000D01*
X147390476Y-120152380D01*
X147628571Y-120152380D01*
X147723809Y-120200000D01*
X147771428Y-120247619D01*
X147819047Y-120342857D01*
X147819047Y-120438095D01*
X147771428Y-120580952D01*
X147200000Y-121152380D01*
X147819047Y-121152380D01*
X134366666Y-113152380D02*
X134366666Y-113866666D01*
X134319047Y-114009523D01*
X134223809Y-114104761D01*
X134080952Y-114152380D01*
X133985714Y-114152380D01*
X134795238Y-113247619D02*
X134842857Y-113200000D01*
X134938095Y-113152380D01*
X135176190Y-113152380D01*
X135271428Y-113200000D01*
X135319047Y-113247619D01*
X135366666Y-113342857D01*
X135366666Y-113438095D01*
X135319047Y-113580952D01*
X134747619Y-114152380D01*
X135366666Y-114152380D01*
D17*
X144639285Y-119825000D02*
X144282142Y-120075000D01*
X144639285Y-120253571D02*
X143889285Y-120253571D01*
X143889285Y-119967857D01*
X143925000Y-119896428D01*
X143960714Y-119860714D01*
X144032142Y-119825000D01*
X144139285Y-119825000D01*
X144210714Y-119860714D01*
X144246428Y-119896428D01*
X144282142Y-119967857D01*
X144282142Y-120253571D01*
X144639285Y-119467857D02*
X144639285Y-119325000D01*
X144603571Y-119253571D01*
X144567857Y-119217857D01*
X144460714Y-119146428D01*
X144317857Y-119110714D01*
X144032142Y-119110714D01*
X143960714Y-119146428D01*
X143925000Y-119182142D01*
X143889285Y-119253571D01*
X143889285Y-119396428D01*
X143925000Y-119467857D01*
X143960714Y-119503571D01*
X144032142Y-119539285D01*
X144210714Y-119539285D01*
X144282142Y-119503571D01*
X144317857Y-119467857D01*
X144353571Y-119396428D01*
X144353571Y-119253571D01*
X144317857Y-119182142D01*
X144282142Y-119146428D01*
X144210714Y-119110714D01*
X143317857Y-115639285D02*
X143067857Y-115282142D01*
X142889285Y-115639285D02*
X142889285Y-114889285D01*
X143175000Y-114889285D01*
X143246428Y-114925000D01*
X143282142Y-114960714D01*
X143317857Y-115032142D01*
X143317857Y-115139285D01*
X143282142Y-115210714D01*
X143246428Y-115246428D01*
X143175000Y-115282142D01*
X142889285Y-115282142D01*
X144032142Y-115639285D02*
X143603571Y-115639285D01*
X143817857Y-115639285D02*
X143817857Y-114889285D01*
X143746428Y-114996428D01*
X143675000Y-115067857D01*
X143603571Y-115103571D01*
X144496428Y-114889285D02*
X144567857Y-114889285D01*
X144639285Y-114925000D01*
X144675000Y-114960714D01*
X144710714Y-115032142D01*
X144746428Y-115175000D01*
X144746428Y-115353571D01*
X144710714Y-115496428D01*
X144675000Y-115567857D01*
X144639285Y-115603571D01*
X144567857Y-115639285D01*
X144496428Y-115639285D01*
X144425000Y-115603571D01*
X144389285Y-115567857D01*
X144353571Y-115496428D01*
X144317857Y-115353571D01*
X144317857Y-115175000D01*
X144353571Y-115032142D01*
X144389285Y-114960714D01*
X144425000Y-114925000D01*
X144496428Y-114889285D01*
X144639285Y-117682142D02*
X144282142Y-117932142D01*
X144639285Y-118110714D02*
X143889285Y-118110714D01*
X143889285Y-117825000D01*
X143925000Y-117753571D01*
X143960714Y-117717857D01*
X144032142Y-117682142D01*
X144139285Y-117682142D01*
X144210714Y-117717857D01*
X144246428Y-117753571D01*
X144282142Y-117825000D01*
X144282142Y-118110714D01*
X144639285Y-116967857D02*
X144639285Y-117396428D01*
X144639285Y-117182142D02*
X143889285Y-117182142D01*
X143996428Y-117253571D01*
X144067857Y-117325000D01*
X144103571Y-117396428D01*
X144639285Y-116253571D02*
X144639285Y-116682142D01*
X144639285Y-116467857D02*
X143889285Y-116467857D01*
X143996428Y-116539285D01*
X144067857Y-116610714D01*
X144103571Y-116682142D01*
X153817857Y-123439285D02*
X153567857Y-123082142D01*
X153389285Y-123439285D02*
X153389285Y-122689285D01*
X153675000Y-122689285D01*
X153746428Y-122725000D01*
X153782142Y-122760714D01*
X153817857Y-122832142D01*
X153817857Y-122939285D01*
X153782142Y-123010714D01*
X153746428Y-123046428D01*
X153675000Y-123082142D01*
X153389285Y-123082142D01*
X154532142Y-123439285D02*
X154103571Y-123439285D01*
X154317857Y-123439285D02*
X154317857Y-122689285D01*
X154246428Y-122796428D01*
X154175000Y-122867857D01*
X154103571Y-122903571D01*
X154817857Y-122760714D02*
X154853571Y-122725000D01*
X154925000Y-122689285D01*
X155103571Y-122689285D01*
X155175000Y-122725000D01*
X155210714Y-122760714D01*
X155246428Y-122832142D01*
X155246428Y-122903571D01*
X155210714Y-123010714D01*
X154782142Y-123439285D01*
X155246428Y-123439285D01*
X153717857Y-126739285D02*
X153467857Y-126382142D01*
X153289285Y-126739285D02*
X153289285Y-125989285D01*
X153575000Y-125989285D01*
X153646428Y-126025000D01*
X153682142Y-126060714D01*
X153717857Y-126132142D01*
X153717857Y-126239285D01*
X153682142Y-126310714D01*
X153646428Y-126346428D01*
X153575000Y-126382142D01*
X153289285Y-126382142D01*
X154432142Y-126739285D02*
X154003571Y-126739285D01*
X154217857Y-126739285D02*
X154217857Y-125989285D01*
X154146428Y-126096428D01*
X154075000Y-126167857D01*
X154003571Y-126203571D01*
X154682142Y-125989285D02*
X155146428Y-125989285D01*
X154896428Y-126275000D01*
X155003571Y-126275000D01*
X155075000Y-126310714D01*
X155110714Y-126346428D01*
X155146428Y-126417857D01*
X155146428Y-126596428D01*
X155110714Y-126667857D01*
X155075000Y-126703571D01*
X155003571Y-126739285D01*
X154789285Y-126739285D01*
X154717857Y-126703571D01*
X154682142Y-126667857D01*
D11*
X157438095Y-121352380D02*
X157438095Y-122161904D01*
X157485714Y-122257142D01*
X157533333Y-122304761D01*
X157628571Y-122352380D01*
X157819047Y-122352380D01*
X157914285Y-122304761D01*
X157961904Y-122257142D01*
X158009523Y-122161904D01*
X158009523Y-121352380D01*
X158390476Y-121352380D02*
X159009523Y-121352380D01*
X158676190Y-121733333D01*
X158819047Y-121733333D01*
X158914285Y-121780952D01*
X158961904Y-121828571D01*
X159009523Y-121923809D01*
X159009523Y-122161904D01*
X158961904Y-122257142D01*
X158914285Y-122304761D01*
X158819047Y-122352380D01*
X158533333Y-122352380D01*
X158438095Y-122304761D01*
X158390476Y-122257142D01*
X168387142Y-103366666D02*
X168434761Y-103414285D01*
X168482380Y-103557142D01*
X168482380Y-103652380D01*
X168434761Y-103795238D01*
X168339523Y-103890476D01*
X168244285Y-103938095D01*
X168053809Y-103985714D01*
X167910952Y-103985714D01*
X167720476Y-103938095D01*
X167625238Y-103890476D01*
X167530000Y-103795238D01*
X167482380Y-103652380D01*
X167482380Y-103557142D01*
X167530000Y-103414285D01*
X167577619Y-103366666D01*
X168482380Y-102890476D02*
X168482380Y-102700000D01*
X168434761Y-102604761D01*
X168387142Y-102557142D01*
X168244285Y-102461904D01*
X168053809Y-102414285D01*
X167672857Y-102414285D01*
X167577619Y-102461904D01*
X167530000Y-102509523D01*
X167482380Y-102604761D01*
X167482380Y-102795238D01*
X167530000Y-102890476D01*
X167577619Y-102938095D01*
X167672857Y-102985714D01*
X167910952Y-102985714D01*
X168006190Y-102938095D01*
X168053809Y-102890476D01*
X168101428Y-102795238D01*
X168101428Y-102604761D01*
X168053809Y-102509523D01*
X168006190Y-102461904D01*
X167910952Y-102414285D01*
X168592380Y-107061904D02*
X169401904Y-107061904D01*
X169497142Y-107014285D01*
X169544761Y-106966666D01*
X169592380Y-106871428D01*
X169592380Y-106680952D01*
X169544761Y-106585714D01*
X169497142Y-106538095D01*
X169401904Y-106490476D01*
X168592380Y-106490476D01*
X168925714Y-105585714D02*
X169592380Y-105585714D01*
X168544761Y-105823809D02*
X169259047Y-106061904D01*
X169259047Y-105442857D01*
X160627142Y-123642857D02*
X160674761Y-123690476D01*
X160722380Y-123833333D01*
X160722380Y-123928571D01*
X160674761Y-124071428D01*
X160579523Y-124166666D01*
X160484285Y-124214285D01*
X160293809Y-124261904D01*
X160150952Y-124261904D01*
X159960476Y-124214285D01*
X159865238Y-124166666D01*
X159770000Y-124071428D01*
X159722380Y-123928571D01*
X159722380Y-123833333D01*
X159770000Y-123690476D01*
X159817619Y-123642857D01*
X160722380Y-122690476D02*
X160722380Y-123261904D01*
X160722380Y-122976190D02*
X159722380Y-122976190D01*
X159865238Y-123071428D01*
X159960476Y-123166666D01*
X160008095Y-123261904D01*
X159722380Y-122071428D02*
X159722380Y-121976190D01*
X159770000Y-121880952D01*
X159817619Y-121833333D01*
X159912857Y-121785714D01*
X160103333Y-121738095D01*
X160341428Y-121738095D01*
X160531904Y-121785714D01*
X160627142Y-121833333D01*
X160674761Y-121880952D01*
X160722380Y-121976190D01*
X160722380Y-122071428D01*
X160674761Y-122166666D01*
X160627142Y-122214285D01*
X160531904Y-122261904D01*
X160341428Y-122309523D01*
X160103333Y-122309523D01*
X159912857Y-122261904D01*
X159817619Y-122214285D01*
X159770000Y-122166666D01*
X159722380Y-122071428D01*
X160827142Y-104342857D02*
X160874761Y-104390476D01*
X160922380Y-104533333D01*
X160922380Y-104628571D01*
X160874761Y-104771428D01*
X160779523Y-104866666D01*
X160684285Y-104914285D01*
X160493809Y-104961904D01*
X160350952Y-104961904D01*
X160160476Y-104914285D01*
X160065238Y-104866666D01*
X159970000Y-104771428D01*
X159922380Y-104628571D01*
X159922380Y-104533333D01*
X159970000Y-104390476D01*
X160017619Y-104342857D01*
X160922380Y-103390476D02*
X160922380Y-103961904D01*
X160922380Y-103676190D02*
X159922380Y-103676190D01*
X160065238Y-103771428D01*
X160160476Y-103866666D01*
X160208095Y-103961904D01*
X160922380Y-102438095D02*
X160922380Y-103009523D01*
X160922380Y-102723809D02*
X159922380Y-102723809D01*
X160065238Y-102819047D01*
X160160476Y-102914285D01*
X160208095Y-103009523D01*
X162107142Y-123442857D02*
X162154761Y-123490476D01*
X162202380Y-123633333D01*
X162202380Y-123728571D01*
X162154761Y-123871428D01*
X162059523Y-123966666D01*
X161964285Y-124014285D01*
X161773809Y-124061904D01*
X161630952Y-124061904D01*
X161440476Y-124014285D01*
X161345238Y-123966666D01*
X161250000Y-123871428D01*
X161202380Y-123728571D01*
X161202380Y-123633333D01*
X161250000Y-123490476D01*
X161297619Y-123442857D01*
X162202380Y-122490476D02*
X162202380Y-123061904D01*
X162202380Y-122776190D02*
X161202380Y-122776190D01*
X161345238Y-122871428D01*
X161440476Y-122966666D01*
X161488095Y-123061904D01*
X161297619Y-122109523D02*
X161250000Y-122061904D01*
X161202380Y-121966666D01*
X161202380Y-121728571D01*
X161250000Y-121633333D01*
X161297619Y-121585714D01*
X161392857Y-121538095D01*
X161488095Y-121538095D01*
X161630952Y-121585714D01*
X162202380Y-122157142D01*
X162202380Y-121538095D01*
X162307142Y-104142857D02*
X162354761Y-104190476D01*
X162402380Y-104333333D01*
X162402380Y-104428571D01*
X162354761Y-104571428D01*
X162259523Y-104666666D01*
X162164285Y-104714285D01*
X161973809Y-104761904D01*
X161830952Y-104761904D01*
X161640476Y-104714285D01*
X161545238Y-104666666D01*
X161450000Y-104571428D01*
X161402380Y-104428571D01*
X161402380Y-104333333D01*
X161450000Y-104190476D01*
X161497619Y-104142857D01*
X162402380Y-103190476D02*
X162402380Y-103761904D01*
X162402380Y-103476190D02*
X161402380Y-103476190D01*
X161545238Y-103571428D01*
X161640476Y-103666666D01*
X161688095Y-103761904D01*
X161402380Y-102857142D02*
X161402380Y-102238095D01*
X161783333Y-102571428D01*
X161783333Y-102428571D01*
X161830952Y-102333333D01*
X161878571Y-102285714D01*
X161973809Y-102238095D01*
X162211904Y-102238095D01*
X162307142Y-102285714D01*
X162354761Y-102333333D01*
X162402380Y-102428571D01*
X162402380Y-102714285D01*
X162354761Y-102809523D01*
X162307142Y-102857142D01*
X158557142Y-120307142D02*
X158509523Y-120354761D01*
X158366666Y-120402380D01*
X158271428Y-120402380D01*
X158128571Y-120354761D01*
X158033333Y-120259523D01*
X157985714Y-120164285D01*
X157938095Y-119973809D01*
X157938095Y-119830952D01*
X157985714Y-119640476D01*
X158033333Y-119545238D01*
X158128571Y-119450000D01*
X158271428Y-119402380D01*
X158366666Y-119402380D01*
X158509523Y-119450000D01*
X158557142Y-119497619D01*
X159509523Y-120402380D02*
X158938095Y-120402380D01*
X159223809Y-120402380D02*
X159223809Y-119402380D01*
X159128571Y-119545238D01*
X159033333Y-119640476D01*
X158938095Y-119688095D01*
X160366666Y-119735714D02*
X160366666Y-120402380D01*
X160128571Y-119354761D02*
X159890476Y-120069047D01*
X160509523Y-120069047D01*
X158757142Y-101007142D02*
X158709523Y-101054761D01*
X158566666Y-101102380D01*
X158471428Y-101102380D01*
X158328571Y-101054761D01*
X158233333Y-100959523D01*
X158185714Y-100864285D01*
X158138095Y-100673809D01*
X158138095Y-100530952D01*
X158185714Y-100340476D01*
X158233333Y-100245238D01*
X158328571Y-100150000D01*
X158471428Y-100102380D01*
X158566666Y-100102380D01*
X158709523Y-100150000D01*
X158757142Y-100197619D01*
X159709523Y-101102380D02*
X159138095Y-101102380D01*
X159423809Y-101102380D02*
X159423809Y-100102380D01*
X159328571Y-100245238D01*
X159233333Y-100340476D01*
X159138095Y-100388095D01*
X160614285Y-100102380D02*
X160138095Y-100102380D01*
X160090476Y-100578571D01*
X160138095Y-100530952D01*
X160233333Y-100483333D01*
X160471428Y-100483333D01*
X160566666Y-100530952D01*
X160614285Y-100578571D01*
X160661904Y-100673809D01*
X160661904Y-100911904D01*
X160614285Y-101007142D01*
X160566666Y-101054761D01*
X160471428Y-101102380D01*
X160233333Y-101102380D01*
X160138095Y-101054761D01*
X160090476Y-101007142D01*
X153207142Y-121780357D02*
X153254761Y-121827976D01*
X153302380Y-121970833D01*
X153302380Y-122066071D01*
X153254761Y-122208928D01*
X153159523Y-122304166D01*
X153064285Y-122351785D01*
X152873809Y-122399404D01*
X152730952Y-122399404D01*
X152540476Y-122351785D01*
X152445238Y-122304166D01*
X152350000Y-122208928D01*
X152302380Y-122066071D01*
X152302380Y-121970833D01*
X152350000Y-121827976D01*
X152397619Y-121780357D01*
X153302380Y-120827976D02*
X153302380Y-121399404D01*
X153302380Y-121113690D02*
X152302380Y-121113690D01*
X152445238Y-121208928D01*
X152540476Y-121304166D01*
X152588095Y-121399404D01*
X152302380Y-119970833D02*
X152302380Y-120161309D01*
X152350000Y-120256547D01*
X152397619Y-120304166D01*
X152540476Y-120399404D01*
X152730952Y-120447023D01*
X153111904Y-120447023D01*
X153207142Y-120399404D01*
X153254761Y-120351785D01*
X153302380Y-120256547D01*
X153302380Y-120066071D01*
X153254761Y-119970833D01*
X153207142Y-119923214D01*
X153111904Y-119875595D01*
X152873809Y-119875595D01*
X152778571Y-119923214D01*
X152730952Y-119970833D01*
X152683333Y-120066071D01*
X152683333Y-120256547D01*
X152730952Y-120351785D01*
X152778571Y-120399404D01*
X152873809Y-120447023D01*
X153407142Y-102242857D02*
X153454761Y-102290476D01*
X153502380Y-102433333D01*
X153502380Y-102528571D01*
X153454761Y-102671428D01*
X153359523Y-102766666D01*
X153264285Y-102814285D01*
X153073809Y-102861904D01*
X152930952Y-102861904D01*
X152740476Y-102814285D01*
X152645238Y-102766666D01*
X152550000Y-102671428D01*
X152502380Y-102528571D01*
X152502380Y-102433333D01*
X152550000Y-102290476D01*
X152597619Y-102242857D01*
X153502380Y-101290476D02*
X153502380Y-101861904D01*
X153502380Y-101576190D02*
X152502380Y-101576190D01*
X152645238Y-101671428D01*
X152740476Y-101766666D01*
X152788095Y-101861904D01*
X152502380Y-100957142D02*
X152502380Y-100290476D01*
X153502380Y-100719047D01*
X155127142Y-121730357D02*
X155174761Y-121777976D01*
X155222380Y-121920833D01*
X155222380Y-122016071D01*
X155174761Y-122158928D01*
X155079523Y-122254166D01*
X154984285Y-122301785D01*
X154793809Y-122349404D01*
X154650952Y-122349404D01*
X154460476Y-122301785D01*
X154365238Y-122254166D01*
X154270000Y-122158928D01*
X154222380Y-122016071D01*
X154222380Y-121920833D01*
X154270000Y-121777976D01*
X154317619Y-121730357D01*
X155222380Y-120777976D02*
X155222380Y-121349404D01*
X155222380Y-121063690D02*
X154222380Y-121063690D01*
X154365238Y-121158928D01*
X154460476Y-121254166D01*
X154508095Y-121349404D01*
X154650952Y-120206547D02*
X154603333Y-120301785D01*
X154555714Y-120349404D01*
X154460476Y-120397023D01*
X154412857Y-120397023D01*
X154317619Y-120349404D01*
X154270000Y-120301785D01*
X154222380Y-120206547D01*
X154222380Y-120016071D01*
X154270000Y-119920833D01*
X154317619Y-119873214D01*
X154412857Y-119825595D01*
X154460476Y-119825595D01*
X154555714Y-119873214D01*
X154603333Y-119920833D01*
X154650952Y-120016071D01*
X154650952Y-120206547D01*
X154698571Y-120301785D01*
X154746190Y-120349404D01*
X154841428Y-120397023D01*
X155031904Y-120397023D01*
X155127142Y-120349404D01*
X155174761Y-120301785D01*
X155222380Y-120206547D01*
X155222380Y-120016071D01*
X155174761Y-119920833D01*
X155127142Y-119873214D01*
X155031904Y-119825595D01*
X154841428Y-119825595D01*
X154746190Y-119873214D01*
X154698571Y-119920833D01*
X154650952Y-120016071D01*
X155327142Y-102442857D02*
X155374761Y-102490476D01*
X155422380Y-102633333D01*
X155422380Y-102728571D01*
X155374761Y-102871428D01*
X155279523Y-102966666D01*
X155184285Y-103014285D01*
X154993809Y-103061904D01*
X154850952Y-103061904D01*
X154660476Y-103014285D01*
X154565238Y-102966666D01*
X154470000Y-102871428D01*
X154422380Y-102728571D01*
X154422380Y-102633333D01*
X154470000Y-102490476D01*
X154517619Y-102442857D01*
X155422380Y-101490476D02*
X155422380Y-102061904D01*
X155422380Y-101776190D02*
X154422380Y-101776190D01*
X154565238Y-101871428D01*
X154660476Y-101966666D01*
X154708095Y-102061904D01*
X155422380Y-101014285D02*
X155422380Y-100823809D01*
X155374761Y-100728571D01*
X155327142Y-100680952D01*
X155184285Y-100585714D01*
X154993809Y-100538095D01*
X154612857Y-100538095D01*
X154517619Y-100585714D01*
X154470000Y-100633333D01*
X154422380Y-100728571D01*
X154422380Y-100919047D01*
X154470000Y-101014285D01*
X154517619Y-101061904D01*
X154612857Y-101109523D01*
X154850952Y-101109523D01*
X154946190Y-101061904D01*
X154993809Y-101014285D01*
X155041428Y-100919047D01*
X155041428Y-100728571D01*
X154993809Y-100633333D01*
X154946190Y-100585714D01*
X154850952Y-100538095D01*
X163487142Y-127642857D02*
X163534761Y-127690476D01*
X163582380Y-127833333D01*
X163582380Y-127928571D01*
X163534761Y-128071428D01*
X163439523Y-128166666D01*
X163344285Y-128214285D01*
X163153809Y-128261904D01*
X163010952Y-128261904D01*
X162820476Y-128214285D01*
X162725238Y-128166666D01*
X162630000Y-128071428D01*
X162582380Y-127928571D01*
X162582380Y-127833333D01*
X162630000Y-127690476D01*
X162677619Y-127642857D01*
X162677619Y-127261904D02*
X162630000Y-127214285D01*
X162582380Y-127119047D01*
X162582380Y-126880952D01*
X162630000Y-126785714D01*
X162677619Y-126738095D01*
X162772857Y-126690476D01*
X162868095Y-126690476D01*
X163010952Y-126738095D01*
X163582380Y-127309523D01*
X163582380Y-126690476D01*
X162582380Y-126071428D02*
X162582380Y-125976190D01*
X162630000Y-125880952D01*
X162677619Y-125833333D01*
X162772857Y-125785714D01*
X162963333Y-125738095D01*
X163201428Y-125738095D01*
X163391904Y-125785714D01*
X163487142Y-125833333D01*
X163534761Y-125880952D01*
X163582380Y-125976190D01*
X163582380Y-126071428D01*
X163534761Y-126166666D01*
X163487142Y-126214285D01*
X163391904Y-126261904D01*
X163201428Y-126309523D01*
X162963333Y-126309523D01*
X162772857Y-126261904D01*
X162677619Y-126214285D01*
X162630000Y-126166666D01*
X162582380Y-126071428D01*
X163687142Y-108342857D02*
X163734761Y-108390476D01*
X163782380Y-108533333D01*
X163782380Y-108628571D01*
X163734761Y-108771428D01*
X163639523Y-108866666D01*
X163544285Y-108914285D01*
X163353809Y-108961904D01*
X163210952Y-108961904D01*
X163020476Y-108914285D01*
X162925238Y-108866666D01*
X162830000Y-108771428D01*
X162782380Y-108628571D01*
X162782380Y-108533333D01*
X162830000Y-108390476D01*
X162877619Y-108342857D01*
X162877619Y-107961904D02*
X162830000Y-107914285D01*
X162782380Y-107819047D01*
X162782380Y-107580952D01*
X162830000Y-107485714D01*
X162877619Y-107438095D01*
X162972857Y-107390476D01*
X163068095Y-107390476D01*
X163210952Y-107438095D01*
X163782380Y-108009523D01*
X163782380Y-107390476D01*
X163782380Y-106438095D02*
X163782380Y-107009523D01*
X163782380Y-106723809D02*
X162782380Y-106723809D01*
X162925238Y-106819047D01*
X163020476Y-106914285D01*
X163068095Y-107009523D01*
X165407142Y-127842857D02*
X165454761Y-127890476D01*
X165502380Y-128033333D01*
X165502380Y-128128571D01*
X165454761Y-128271428D01*
X165359523Y-128366666D01*
X165264285Y-128414285D01*
X165073809Y-128461904D01*
X164930952Y-128461904D01*
X164740476Y-128414285D01*
X164645238Y-128366666D01*
X164550000Y-128271428D01*
X164502380Y-128128571D01*
X164502380Y-128033333D01*
X164550000Y-127890476D01*
X164597619Y-127842857D01*
X164597619Y-127461904D02*
X164550000Y-127414285D01*
X164502380Y-127319047D01*
X164502380Y-127080952D01*
X164550000Y-126985714D01*
X164597619Y-126938095D01*
X164692857Y-126890476D01*
X164788095Y-126890476D01*
X164930952Y-126938095D01*
X165502380Y-127509523D01*
X165502380Y-126890476D01*
X164597619Y-126509523D02*
X164550000Y-126461904D01*
X164502380Y-126366666D01*
X164502380Y-126128571D01*
X164550000Y-126033333D01*
X164597619Y-125985714D01*
X164692857Y-125938095D01*
X164788095Y-125938095D01*
X164930952Y-125985714D01*
X165502380Y-126557142D01*
X165502380Y-125938095D01*
X165607142Y-108542857D02*
X165654761Y-108590476D01*
X165702380Y-108733333D01*
X165702380Y-108828571D01*
X165654761Y-108971428D01*
X165559523Y-109066666D01*
X165464285Y-109114285D01*
X165273809Y-109161904D01*
X165130952Y-109161904D01*
X164940476Y-109114285D01*
X164845238Y-109066666D01*
X164750000Y-108971428D01*
X164702380Y-108828571D01*
X164702380Y-108733333D01*
X164750000Y-108590476D01*
X164797619Y-108542857D01*
X164797619Y-108161904D02*
X164750000Y-108114285D01*
X164702380Y-108019047D01*
X164702380Y-107780952D01*
X164750000Y-107685714D01*
X164797619Y-107638095D01*
X164892857Y-107590476D01*
X164988095Y-107590476D01*
X165130952Y-107638095D01*
X165702380Y-108209523D01*
X165702380Y-107590476D01*
X164702380Y-107257142D02*
X164702380Y-106638095D01*
X165083333Y-106971428D01*
X165083333Y-106828571D01*
X165130952Y-106733333D01*
X165178571Y-106685714D01*
X165273809Y-106638095D01*
X165511904Y-106638095D01*
X165607142Y-106685714D01*
X165654761Y-106733333D01*
X165702380Y-106828571D01*
X165702380Y-107114285D01*
X165654761Y-107209523D01*
X165607142Y-107257142D01*
X176352380Y-110861904D02*
X177352380Y-110623809D01*
X176638095Y-110433333D01*
X177352380Y-110242857D01*
X176352380Y-110004761D01*
X177352380Y-109623809D02*
X176685714Y-109623809D01*
X176876190Y-109623809D02*
X176780952Y-109576190D01*
X176733333Y-109528571D01*
X176685714Y-109433333D01*
X176685714Y-109338095D01*
X177352380Y-109004761D02*
X176685714Y-109004761D01*
X176352380Y-109004761D02*
X176400000Y-109052380D01*
X176447619Y-109004761D01*
X176400000Y-108957142D01*
X176352380Y-109004761D01*
X176447619Y-109004761D01*
X176685714Y-108671428D02*
X176685714Y-108290476D01*
X176352380Y-108528571D02*
X177209523Y-108528571D01*
X177304761Y-108480952D01*
X177352380Y-108385714D01*
X177352380Y-108290476D01*
X177304761Y-107576190D02*
X177352380Y-107671428D01*
X177352380Y-107861904D01*
X177304761Y-107957142D01*
X177209523Y-108004761D01*
X176828571Y-108004761D01*
X176733333Y-107957142D01*
X176685714Y-107861904D01*
X176685714Y-107671428D01*
X176733333Y-107576190D01*
X176828571Y-107528571D01*
X176923809Y-107528571D01*
X177019047Y-108004761D01*
X177352380Y-106338095D02*
X176352380Y-106338095D01*
X176352380Y-105957142D01*
X176400000Y-105861904D01*
X176447619Y-105814285D01*
X176542857Y-105766666D01*
X176685714Y-105766666D01*
X176780952Y-105814285D01*
X176828571Y-105861904D01*
X176876190Y-105957142D01*
X176876190Y-106338095D01*
X177352380Y-105338095D02*
X176685714Y-105338095D01*
X176876190Y-105338095D02*
X176780952Y-105290476D01*
X176733333Y-105242857D01*
X176685714Y-105147619D01*
X176685714Y-105052380D01*
X177352380Y-104576190D02*
X177304761Y-104671428D01*
X177257142Y-104719047D01*
X177161904Y-104766666D01*
X176876190Y-104766666D01*
X176780952Y-104719047D01*
X176733333Y-104671428D01*
X176685714Y-104576190D01*
X176685714Y-104433333D01*
X176733333Y-104338095D01*
X176780952Y-104290476D01*
X176876190Y-104242857D01*
X177161904Y-104242857D01*
X177257142Y-104290476D01*
X177304761Y-104338095D01*
X177352380Y-104433333D01*
X177352380Y-104576190D01*
X176685714Y-103957142D02*
X176685714Y-103576190D01*
X176352380Y-103814285D02*
X177209523Y-103814285D01*
X177304761Y-103766666D01*
X177352380Y-103671428D01*
X177352380Y-103576190D01*
X177304761Y-102861904D02*
X177352380Y-102957142D01*
X177352380Y-103147619D01*
X177304761Y-103242857D01*
X177209523Y-103290476D01*
X176828571Y-103290476D01*
X176733333Y-103242857D01*
X176685714Y-103147619D01*
X176685714Y-102957142D01*
X176733333Y-102861904D01*
X176828571Y-102814285D01*
X176923809Y-102814285D01*
X177019047Y-103290476D01*
X177304761Y-101957142D02*
X177352380Y-102052380D01*
X177352380Y-102242857D01*
X177304761Y-102338095D01*
X177257142Y-102385714D01*
X177161904Y-102433333D01*
X176876190Y-102433333D01*
X176780952Y-102385714D01*
X176733333Y-102338095D01*
X176685714Y-102242857D01*
X176685714Y-102052380D01*
X176733333Y-101957142D01*
X176685714Y-101671428D02*
X176685714Y-101290476D01*
X176352380Y-101528571D02*
X177209523Y-101528571D01*
X177304761Y-101480952D01*
X177352380Y-101385714D01*
X177352380Y-101290476D01*
X172582380Y-113027857D02*
X172106190Y-113361190D01*
X172582380Y-113599285D02*
X171582380Y-113599285D01*
X171582380Y-113218333D01*
X171630000Y-113123095D01*
X171677619Y-113075476D01*
X171772857Y-113027857D01*
X171915714Y-113027857D01*
X172010952Y-113075476D01*
X172058571Y-113123095D01*
X172106190Y-113218333D01*
X172106190Y-113599285D01*
X172582380Y-112075476D02*
X172582380Y-112646904D01*
X172582380Y-112361190D02*
X171582380Y-112361190D01*
X171725238Y-112456428D01*
X171820476Y-112551666D01*
X171868095Y-112646904D01*
X171915714Y-111218333D02*
X172582380Y-111218333D01*
X171534761Y-111456428D02*
X172249047Y-111694523D01*
X172249047Y-111075476D01*
X166787142Y-121342857D02*
X166834761Y-121390476D01*
X166882380Y-121533333D01*
X166882380Y-121628571D01*
X166834761Y-121771428D01*
X166739523Y-121866666D01*
X166644285Y-121914285D01*
X166453809Y-121961904D01*
X166310952Y-121961904D01*
X166120476Y-121914285D01*
X166025238Y-121866666D01*
X165930000Y-121771428D01*
X165882380Y-121628571D01*
X165882380Y-121533333D01*
X165930000Y-121390476D01*
X165977619Y-121342857D01*
X165977619Y-120961904D02*
X165930000Y-120914285D01*
X165882380Y-120819047D01*
X165882380Y-120580952D01*
X165930000Y-120485714D01*
X165977619Y-120438095D01*
X166072857Y-120390476D01*
X166168095Y-120390476D01*
X166310952Y-120438095D01*
X166882380Y-121009523D01*
X166882380Y-120390476D01*
X166215714Y-119533333D02*
X166882380Y-119533333D01*
X165834761Y-119771428D02*
X166549047Y-120009523D01*
X166549047Y-119390476D01*
X175187142Y-121342857D02*
X175234761Y-121390476D01*
X175282380Y-121533333D01*
X175282380Y-121628571D01*
X175234761Y-121771428D01*
X175139523Y-121866666D01*
X175044285Y-121914285D01*
X174853809Y-121961904D01*
X174710952Y-121961904D01*
X174520476Y-121914285D01*
X174425238Y-121866666D01*
X174330000Y-121771428D01*
X174282380Y-121628571D01*
X174282380Y-121533333D01*
X174330000Y-121390476D01*
X174377619Y-121342857D01*
X174377619Y-120961904D02*
X174330000Y-120914285D01*
X174282380Y-120819047D01*
X174282380Y-120580952D01*
X174330000Y-120485714D01*
X174377619Y-120438095D01*
X174472857Y-120390476D01*
X174568095Y-120390476D01*
X174710952Y-120438095D01*
X175282380Y-121009523D01*
X175282380Y-120390476D01*
X174282380Y-119485714D02*
X174282380Y-119961904D01*
X174758571Y-120009523D01*
X174710952Y-119961904D01*
X174663333Y-119866666D01*
X174663333Y-119628571D01*
X174710952Y-119533333D01*
X174758571Y-119485714D01*
X174853809Y-119438095D01*
X175091904Y-119438095D01*
X175187142Y-119485714D01*
X175234761Y-119533333D01*
X175282380Y-119628571D01*
X175282380Y-119866666D01*
X175234761Y-119961904D01*
X175187142Y-120009523D01*
X173857142Y-125037142D02*
X173809523Y-125084761D01*
X173666666Y-125132380D01*
X173571428Y-125132380D01*
X173428571Y-125084761D01*
X173333333Y-124989523D01*
X173285714Y-124894285D01*
X173238095Y-124703809D01*
X173238095Y-124560952D01*
X173285714Y-124370476D01*
X173333333Y-124275238D01*
X173428571Y-124180000D01*
X173571428Y-124132380D01*
X173666666Y-124132380D01*
X173809523Y-124180000D01*
X173857142Y-124227619D01*
X174238095Y-124227619D02*
X174285714Y-124180000D01*
X174380952Y-124132380D01*
X174619047Y-124132380D01*
X174714285Y-124180000D01*
X174761904Y-124227619D01*
X174809523Y-124322857D01*
X174809523Y-124418095D01*
X174761904Y-124560952D01*
X174190476Y-125132380D01*
X174809523Y-125132380D01*
X175666666Y-124132380D02*
X175476190Y-124132380D01*
X175380952Y-124180000D01*
X175333333Y-124227619D01*
X175238095Y-124370476D01*
X175190476Y-124560952D01*
X175190476Y-124941904D01*
X175238095Y-125037142D01*
X175285714Y-125084761D01*
X175380952Y-125132380D01*
X175571428Y-125132380D01*
X175666666Y-125084761D01*
X175714285Y-125037142D01*
X175761904Y-124941904D01*
X175761904Y-124703809D01*
X175714285Y-124608571D01*
X175666666Y-124560952D01*
X175571428Y-124513333D01*
X175380952Y-124513333D01*
X175285714Y-124560952D01*
X175238095Y-124608571D01*
X175190476Y-124703809D01*
X168457142Y-128677142D02*
X168409523Y-128724761D01*
X168266666Y-128772380D01*
X168171428Y-128772380D01*
X168028571Y-128724761D01*
X167933333Y-128629523D01*
X167885714Y-128534285D01*
X167838095Y-128343809D01*
X167838095Y-128200952D01*
X167885714Y-128010476D01*
X167933333Y-127915238D01*
X168028571Y-127820000D01*
X168171428Y-127772380D01*
X168266666Y-127772380D01*
X168409523Y-127820000D01*
X168457142Y-127867619D01*
X168838095Y-127867619D02*
X168885714Y-127820000D01*
X168980952Y-127772380D01*
X169219047Y-127772380D01*
X169314285Y-127820000D01*
X169361904Y-127867619D01*
X169409523Y-127962857D01*
X169409523Y-128058095D01*
X169361904Y-128200952D01*
X168790476Y-128772380D01*
X169409523Y-128772380D01*
X169742857Y-127772380D02*
X170409523Y-127772380D01*
X169980952Y-128772380D01*
X169757142Y-131677142D02*
X169709523Y-131724761D01*
X169566666Y-131772380D01*
X169471428Y-131772380D01*
X169328571Y-131724761D01*
X169233333Y-131629523D01*
X169185714Y-131534285D01*
X169138095Y-131343809D01*
X169138095Y-131200952D01*
X169185714Y-131010476D01*
X169233333Y-130915238D01*
X169328571Y-130820000D01*
X169471428Y-130772380D01*
X169566666Y-130772380D01*
X169709523Y-130820000D01*
X169757142Y-130867619D01*
X170138095Y-130867619D02*
X170185714Y-130820000D01*
X170280952Y-130772380D01*
X170519047Y-130772380D01*
X170614285Y-130820000D01*
X170661904Y-130867619D01*
X170709523Y-130962857D01*
X170709523Y-131058095D01*
X170661904Y-131200952D01*
X170090476Y-131772380D01*
X170709523Y-131772380D01*
X171280952Y-131200952D02*
X171185714Y-131153333D01*
X171138095Y-131105714D01*
X171090476Y-131010476D01*
X171090476Y-130962857D01*
X171138095Y-130867619D01*
X171185714Y-130820000D01*
X171280952Y-130772380D01*
X171471428Y-130772380D01*
X171566666Y-130820000D01*
X171614285Y-130867619D01*
X171661904Y-130962857D01*
X171661904Y-131010476D01*
X171614285Y-131105714D01*
X171566666Y-131153333D01*
X171471428Y-131200952D01*
X171280952Y-131200952D01*
X171185714Y-131248571D01*
X171138095Y-131296190D01*
X171090476Y-131391428D01*
X171090476Y-131581904D01*
X171138095Y-131677142D01*
X171185714Y-131724761D01*
X171280952Y-131772380D01*
X171471428Y-131772380D01*
X171566666Y-131724761D01*
X171614285Y-131677142D01*
X171661904Y-131581904D01*
X171661904Y-131391428D01*
X171614285Y-131296190D01*
X171566666Y-131248571D01*
X171471428Y-131200952D01*
X149877142Y-138742857D02*
X149924761Y-138790476D01*
X149972380Y-138933333D01*
X149972380Y-139028571D01*
X149924761Y-139171428D01*
X149829523Y-139266666D01*
X149734285Y-139314285D01*
X149543809Y-139361904D01*
X149400952Y-139361904D01*
X149210476Y-139314285D01*
X149115238Y-139266666D01*
X149020000Y-139171428D01*
X148972380Y-139028571D01*
X148972380Y-138933333D01*
X149020000Y-138790476D01*
X149067619Y-138742857D01*
X149067619Y-138361904D02*
X149020000Y-138314285D01*
X148972380Y-138219047D01*
X148972380Y-137980952D01*
X149020000Y-137885714D01*
X149067619Y-137838095D01*
X149162857Y-137790476D01*
X149258095Y-137790476D01*
X149400952Y-137838095D01*
X149972380Y-138409523D01*
X149972380Y-137790476D01*
X149972380Y-137314285D02*
X149972380Y-137123809D01*
X149924761Y-137028571D01*
X149877142Y-136980952D01*
X149734285Y-136885714D01*
X149543809Y-136838095D01*
X149162857Y-136838095D01*
X149067619Y-136885714D01*
X149020000Y-136933333D01*
X148972380Y-137028571D01*
X148972380Y-137219047D01*
X149020000Y-137314285D01*
X149067619Y-137361904D01*
X149162857Y-137409523D01*
X149400952Y-137409523D01*
X149496190Y-137361904D01*
X149543809Y-137314285D01*
X149591428Y-137219047D01*
X149591428Y-137028571D01*
X149543809Y-136933333D01*
X149496190Y-136885714D01*
X149400952Y-136838095D01*
X166482380Y-133842857D02*
X166006190Y-134176190D01*
X166482380Y-134414285D02*
X165482380Y-134414285D01*
X165482380Y-134033333D01*
X165530000Y-133938095D01*
X165577619Y-133890476D01*
X165672857Y-133842857D01*
X165815714Y-133842857D01*
X165910952Y-133890476D01*
X165958571Y-133938095D01*
X166006190Y-134033333D01*
X166006190Y-134414285D01*
X166482380Y-132890476D02*
X166482380Y-133461904D01*
X166482380Y-133176190D02*
X165482380Y-133176190D01*
X165625238Y-133271428D01*
X165720476Y-133366666D01*
X165768095Y-133461904D01*
X165482380Y-131985714D02*
X165482380Y-132461904D01*
X165958571Y-132509523D01*
X165910952Y-132461904D01*
X165863333Y-132366666D01*
X165863333Y-132128571D01*
X165910952Y-132033333D01*
X165958571Y-131985714D01*
X166053809Y-131938095D01*
X166291904Y-131938095D01*
X166387142Y-131985714D01*
X166434761Y-132033333D01*
X166482380Y-132128571D01*
X166482380Y-132366666D01*
X166434761Y-132461904D01*
X166387142Y-132509523D01*
X166482380Y-131842857D02*
X166006190Y-132176190D01*
X166482380Y-132414285D02*
X165482380Y-132414285D01*
X165482380Y-132033333D01*
X165530000Y-131938095D01*
X165577619Y-131890476D01*
X165672857Y-131842857D01*
X165815714Y-131842857D01*
X165910952Y-131890476D01*
X165958571Y-131938095D01*
X166006190Y-132033333D01*
X166006190Y-132414285D01*
X166482380Y-130890476D02*
X166482380Y-131461904D01*
X166482380Y-131176190D02*
X165482380Y-131176190D01*
X165625238Y-131271428D01*
X165720476Y-131366666D01*
X165768095Y-131461904D01*
X165482380Y-130033333D02*
X165482380Y-130223809D01*
X165530000Y-130319047D01*
X165577619Y-130366666D01*
X165720476Y-130461904D01*
X165910952Y-130509523D01*
X166291904Y-130509523D01*
X166387142Y-130461904D01*
X166434761Y-130414285D01*
X166482380Y-130319047D01*
X166482380Y-130128571D01*
X166434761Y-130033333D01*
X166387142Y-129985714D01*
X166291904Y-129938095D01*
X166053809Y-129938095D01*
X165958571Y-129985714D01*
X165910952Y-130033333D01*
X165863333Y-130128571D01*
X165863333Y-130319047D01*
X165910952Y-130414285D01*
X165958571Y-130461904D01*
X166053809Y-130509523D01*
X171538095Y-129352380D02*
X171538095Y-130161904D01*
X171585714Y-130257142D01*
X171633333Y-130304761D01*
X171728571Y-130352380D01*
X171919047Y-130352380D01*
X172014285Y-130304761D01*
X172061904Y-130257142D01*
X172109523Y-130161904D01*
X172109523Y-129352380D01*
X173061904Y-129352380D02*
X172585714Y-129352380D01*
X172538095Y-129828571D01*
X172585714Y-129780952D01*
X172680952Y-129733333D01*
X172919047Y-129733333D01*
X173014285Y-129780952D01*
X173061904Y-129828571D01*
X173109523Y-129923809D01*
X173109523Y-130161904D01*
X173061904Y-130257142D01*
X173014285Y-130304761D01*
X172919047Y-130352380D01*
X172680952Y-130352380D01*
X172585714Y-130304761D01*
X172538095Y-130257142D01*
X141808571Y-138433333D02*
X141808571Y-138766666D01*
X142332380Y-138766666D02*
X141332380Y-138766666D01*
X141332380Y-138290476D01*
X142332380Y-137385714D02*
X142332380Y-137957142D01*
X142332380Y-137671428D02*
X141332380Y-137671428D01*
X141475238Y-137766666D01*
X141570476Y-137861904D01*
X141618095Y-137957142D01*
X146833333Y-113772380D02*
X146500000Y-113296190D01*
X146261904Y-113772380D02*
X146261904Y-112772380D01*
X146642857Y-112772380D01*
X146738095Y-112820000D01*
X146785714Y-112867619D01*
X146833333Y-112962857D01*
X146833333Y-113105714D01*
X146785714Y-113200952D01*
X146738095Y-113248571D01*
X146642857Y-113296190D01*
X146261904Y-113296190D01*
X147785714Y-113772380D02*
X147214285Y-113772380D01*
X147500000Y-113772380D02*
X147500000Y-112772380D01*
X147404761Y-112915238D01*
X147309523Y-113010476D01*
X147214285Y-113058095D01*
X163766666Y-98898571D02*
X163433333Y-98898571D01*
X163433333Y-99422380D02*
X163433333Y-98422380D01*
X163909523Y-98422380D01*
X164623809Y-98898571D02*
X164766666Y-98946190D01*
X164814285Y-98993809D01*
X164861904Y-99089047D01*
X164861904Y-99231904D01*
X164814285Y-99327142D01*
X164766666Y-99374761D01*
X164671428Y-99422380D01*
X164290476Y-99422380D01*
X164290476Y-98422380D01*
X164623809Y-98422380D01*
X164719047Y-98470000D01*
X164766666Y-98517619D01*
X164814285Y-98612857D01*
X164814285Y-98708095D01*
X164766666Y-98803333D01*
X164719047Y-98850952D01*
X164623809Y-98898571D01*
X164290476Y-98898571D01*
X165814285Y-99422380D02*
X165242857Y-99422380D01*
X165528571Y-99422380D02*
X165528571Y-98422380D01*
X165433333Y-98565238D01*
X165338095Y-98660476D01*
X165242857Y-98708095D01*
X160498571Y-119433333D02*
X160498571Y-119766666D01*
X161022380Y-119766666D02*
X160022380Y-119766666D01*
X160022380Y-119290476D01*
X160498571Y-118576190D02*
X160546190Y-118433333D01*
X160593809Y-118385714D01*
X160689047Y-118338095D01*
X160831904Y-118338095D01*
X160927142Y-118385714D01*
X160974761Y-118433333D01*
X161022380Y-118528571D01*
X161022380Y-118909523D01*
X160022380Y-118909523D01*
X160022380Y-118576190D01*
X160070000Y-118480952D01*
X160117619Y-118433333D01*
X160212857Y-118385714D01*
X160308095Y-118385714D01*
X160403333Y-118433333D01*
X160450952Y-118480952D01*
X160498571Y-118576190D01*
X160498571Y-118909523D01*
X160117619Y-117957142D02*
X160070000Y-117909523D01*
X160022380Y-117814285D01*
X160022380Y-117576190D01*
X160070000Y-117480952D01*
X160117619Y-117433333D01*
X160212857Y-117385714D01*
X160308095Y-117385714D01*
X160450952Y-117433333D01*
X161022380Y-118004761D01*
X161022380Y-117385714D01*
M02*
