G04 #@! TF.GenerationSoftware,KiCad,Pcbnew,(5.1.5)-3*
G04 #@! TF.CreationDate,2020-03-14T15:21:50+00:00*
G04 #@! TF.ProjectId,VC-01 Card,56432d30-3120-4436-9172-642e6b696361,DRAFT WIP*
G04 #@! TF.SameCoordinates,Original*
G04 #@! TF.FileFunction,Profile,NP*
%FSLAX46Y46*%
G04 Gerber Fmt 4.6, Leading zero omitted, Abs format (unit mm)*
G04 Created by KiCad (PCBNEW (5.1.5)-3) date 2020-03-14 15:21:50*
%MOMM*%
%LPD*%
G04 APERTURE LIST*
%ADD10C,0.050000*%
%ADD11C,0.100000*%
G04 APERTURE END LIST*
D10*
X177000000Y-98200000D02*
G75*
G02X179000000Y-100200000I0J-2000000D01*
G01*
X179000000Y-137200000D02*
G75*
G02X177000000Y-139200000I-2000000J0D01*
G01*
X126000000Y-139200000D02*
G75*
G02X124000000Y-137200000I0J2000000D01*
G01*
X124000000Y-100200000D02*
G75*
G02X126000000Y-98200000I2000000J0D01*
G01*
X177000000Y-139200000D02*
X149300000Y-139200000D01*
X179000000Y-100200000D02*
X179000000Y-137200000D01*
X126000000Y-98200000D02*
X177000000Y-98200000D01*
X124000000Y-137200000D02*
X124000000Y-100200000D01*
X129000000Y-139200000D02*
X126000000Y-139200000D01*
D11*
X140200000Y-140150000D02*
X140200000Y-147100000D01*
X142100000Y-140150000D02*
X142100000Y-147100000D01*
X129000000Y-139200000D02*
X129000000Y-147100000D01*
X129500000Y-147600000D02*
X139700000Y-147600000D01*
X149300000Y-139200000D02*
X149300000Y-147100000D01*
X142600000Y-147600000D02*
X148800000Y-147600000D01*
X129000000Y-147100000D02*
X129500000Y-147600000D01*
X140200000Y-147100000D02*
X139700000Y-147600000D01*
X142100000Y-147100000D02*
X142600000Y-147600000D01*
X149300000Y-147100000D02*
X148800000Y-147600000D01*
X140200000Y-140150000D02*
G75*
G02X142100000Y-140150000I950000J0D01*
G01*
M02*
