G04 #@! TF.GenerationSoftware,KiCad,Pcbnew,(5.1.5)-3*
G04 #@! TF.CreationDate,2020-03-14T15:21:50+00:00*
G04 #@! TF.ProjectId,VC-01 Card,56432d30-3120-4436-9172-642e6b696361,DRAFT WIP*
G04 #@! TF.SameCoordinates,Original*
G04 #@! TF.FileFunction,Legend,Top*
G04 #@! TF.FilePolarity,Positive*
%FSLAX46Y46*%
G04 Gerber Fmt 4.6, Leading zero omitted, Abs format (unit mm)*
G04 Created by KiCad (PCBNEW (5.1.5)-3) date 2020-03-14 15:21:50*
%MOMM*%
%LPD*%
G04 APERTURE LIST*
%ADD10C,0.120000*%
%ADD11C,0.200000*%
%ADD12C,0.127000*%
%ADD13C,0.153000*%
%ADD14C,0.150000*%
G04 APERTURE END LIST*
D10*
X168000000Y-122100000D02*
X168500000Y-121700000D01*
X175500000Y-122200000D02*
X175100000Y-121700000D01*
X176900000Y-133600000D02*
X178400000Y-133600000D01*
X176900000Y-125600000D02*
X176900000Y-133600000D01*
X178400000Y-124500000D02*
X178400000Y-133600000D01*
X176900000Y-124500000D02*
X178400000Y-124500000D01*
X176900000Y-125600000D02*
X176900000Y-124500000D01*
X176900000Y-124900000D02*
X173800000Y-124500000D01*
X141600000Y-125700000D02*
X140300000Y-125700000D01*
X140300000Y-125700000D02*
X141600000Y-125700000D01*
X126550000Y-123700000D02*
X123000000Y-123700000D01*
X123000000Y-123700000D02*
X123000000Y-114500000D01*
X123000000Y-114500000D02*
X126550000Y-114500000D01*
X133250000Y-114500000D02*
X135700000Y-114500000D01*
X135700000Y-114500000D02*
X135700000Y-114900000D01*
X135700000Y-114900000D02*
X137700000Y-114900000D01*
X137700000Y-114900000D02*
X137700000Y-117900000D01*
X137700000Y-121700000D02*
X137700000Y-123300000D01*
X137700000Y-123300000D02*
X135700000Y-123300000D01*
X135700000Y-123300000D02*
X135700000Y-123700000D01*
X135700000Y-123700000D02*
X133250000Y-123700000D01*
X139600000Y-117910000D02*
X141340000Y-117910000D01*
X141340000Y-117910000D02*
X141340000Y-119650000D01*
X155410000Y-101858578D02*
X155410000Y-101341422D01*
X153990000Y-101858578D02*
X153990000Y-101341422D01*
X173341422Y-119010000D02*
X173858578Y-119010000D01*
X173341422Y-117590000D02*
X173858578Y-117590000D01*
X170258578Y-119010000D02*
X169741422Y-119010000D01*
X170258578Y-117590000D02*
X169741422Y-117590000D01*
X118530000Y-134930000D02*
G75*
G02X118530000Y-129810000I0J2560000D01*
G01*
X124690000Y-129810000D02*
X118530000Y-129810000D01*
X124690000Y-134930000D02*
X118530000Y-134930000D01*
X124690000Y-129810000D02*
X124690000Y-134930000D01*
X124690000Y-135330000D02*
X123570000Y-135330000D01*
X123570000Y-135330000D02*
X123570000Y-134930000D01*
X123570000Y-134930000D02*
X124690000Y-134930000D01*
X124690000Y-134930000D02*
X124690000Y-135330000D01*
X124820000Y-131100000D02*
X124690000Y-131100000D01*
X124690000Y-131100000D02*
X124690000Y-131100000D01*
X124690000Y-131100000D02*
X124820000Y-131100000D01*
X124820000Y-131100000D02*
X124820000Y-131100000D01*
X124820000Y-133640000D02*
X124690000Y-133640000D01*
X124690000Y-133640000D02*
X124690000Y-133640000D01*
X124690000Y-133640000D02*
X124820000Y-133640000D01*
X124820000Y-133640000D02*
X124820000Y-133640000D01*
X151700000Y-102200000D02*
X142100000Y-102200000D01*
X151700000Y-103200000D02*
X151700000Y-102200000D01*
X151700000Y-108600000D02*
X151700000Y-107600000D01*
X142100000Y-108600000D02*
X151700000Y-108600000D01*
X142100000Y-107600000D02*
X142100000Y-108600000D01*
X142100000Y-105000000D02*
X142100000Y-105800000D01*
X151700000Y-105000000D02*
X151700000Y-105800000D01*
X126800000Y-107400000D02*
X125600000Y-107400000D01*
X125600000Y-107400000D02*
X125600000Y-106900000D01*
X125600000Y-106900000D02*
X123100000Y-106900000D01*
X123100000Y-106900000D02*
X123100000Y-101700000D01*
X123100000Y-101700000D02*
X125600000Y-101700000D01*
X125600000Y-101700000D02*
X125600000Y-101200000D01*
X125600000Y-101200000D02*
X128800000Y-101200000D01*
X131400000Y-101200000D02*
X140300000Y-101200000D01*
X140300000Y-101200000D02*
X140300000Y-107400000D01*
X140300000Y-107400000D02*
X139100000Y-107400000D01*
X135900000Y-107400000D02*
X129400000Y-107400000D01*
X126800000Y-107400000D02*
X126800000Y-109400000D01*
X129400000Y-107400000D02*
X129400000Y-109400000D01*
X130302064Y-135360000D02*
X129097936Y-135360000D01*
X130302064Y-132640000D02*
X129097936Y-132640000D01*
X160510000Y-107385000D02*
X160510000Y-108110000D01*
X160510000Y-108110000D02*
X159785000Y-108110000D01*
X156290000Y-104615000D02*
X156290000Y-103890000D01*
X156290000Y-103890000D02*
X157015000Y-103890000D01*
X156290000Y-107385000D02*
X156290000Y-108110000D01*
X156290000Y-108110000D02*
X157015000Y-108110000D01*
X160510000Y-104615000D02*
X160510000Y-103890000D01*
D11*
X170640000Y-125335000D02*
G75*
G03X170640000Y-125335000I-100000J0D01*
G01*
D12*
X173800000Y-120500000D02*
X173800000Y-121150000D01*
X169800000Y-120500000D02*
X169800000Y-121150000D01*
X173800000Y-124500000D02*
X173800000Y-123850000D01*
X169800000Y-124500000D02*
X169800000Y-123850000D01*
X173800000Y-120500000D02*
X173150000Y-120500000D01*
X169800000Y-120500000D02*
X170450000Y-120500000D01*
X173800000Y-124500000D02*
X173150000Y-124500000D01*
X169800000Y-124500000D02*
X170450000Y-124500000D01*
D10*
X151500000Y-121500000D02*
X141900000Y-121500000D01*
X151500000Y-122500000D02*
X151500000Y-121500000D01*
X151500000Y-127900000D02*
X151500000Y-126900000D01*
X141900000Y-127900000D02*
X151500000Y-127900000D01*
X141900000Y-126900000D02*
X141900000Y-127900000D01*
X141900000Y-124300000D02*
X141900000Y-125100000D01*
X151500000Y-124300000D02*
X151500000Y-125100000D01*
X160310000Y-126685000D02*
X160310000Y-127410000D01*
X160310000Y-127410000D02*
X159585000Y-127410000D01*
X156090000Y-123915000D02*
X156090000Y-123190000D01*
X156090000Y-123190000D02*
X156815000Y-123190000D01*
X156090000Y-126685000D02*
X156090000Y-127410000D01*
X156090000Y-127410000D02*
X156815000Y-127410000D01*
X160310000Y-123915000D02*
X160310000Y-123190000D01*
X175425000Y-106300000D02*
X175425000Y-103575000D01*
X175425000Y-103575000D02*
X175165000Y-103575000D01*
X175425000Y-106300000D02*
X175425000Y-109025000D01*
X175425000Y-109025000D02*
X175165000Y-109025000D01*
X169975000Y-106300000D02*
X169975000Y-103575000D01*
X169975000Y-103575000D02*
X170235000Y-103575000D01*
X169975000Y-106300000D02*
X169975000Y-109025000D01*
X169975000Y-109025000D02*
X170235000Y-109025000D01*
X170235000Y-109025000D02*
X170235000Y-110700000D01*
X162210000Y-123162779D02*
X162210000Y-122837221D01*
X161190000Y-123162779D02*
X161190000Y-122837221D01*
X161390000Y-103862779D02*
X161390000Y-103537221D01*
X162410000Y-103862779D02*
X162410000Y-103537221D01*
X162690000Y-123058578D02*
X162690000Y-122541422D01*
X164110000Y-123058578D02*
X164110000Y-122541422D01*
X164310000Y-103758578D02*
X164310000Y-103241422D01*
X162890000Y-103758578D02*
X162890000Y-103241422D01*
X158941422Y-120890000D02*
X159458578Y-120890000D01*
X158941422Y-122310000D02*
X159458578Y-122310000D01*
X159141422Y-103010000D02*
X159658578Y-103010000D01*
X159141422Y-101590000D02*
X159658578Y-101590000D01*
X155210000Y-121396078D02*
X155210000Y-120878922D01*
X153790000Y-121396078D02*
X153790000Y-120878922D01*
X155690000Y-121250279D02*
X155690000Y-120924721D01*
X156710000Y-121250279D02*
X156710000Y-120924721D01*
X156910000Y-101962779D02*
X156910000Y-101637221D01*
X155890000Y-101962779D02*
X155890000Y-101637221D01*
X161190000Y-126837221D02*
X161190000Y-127162779D01*
X162210000Y-126837221D02*
X162210000Y-127162779D01*
X162410000Y-107537221D02*
X162410000Y-107862779D01*
X161390000Y-107537221D02*
X161390000Y-107862779D01*
X162690000Y-126941422D02*
X162690000Y-127458578D01*
X164110000Y-126941422D02*
X164110000Y-127458578D01*
X164310000Y-107641422D02*
X164310000Y-108158578D01*
X162890000Y-107641422D02*
X162890000Y-108158578D01*
X175900000Y-111950000D02*
G75*
G02X176600000Y-111250000I700000J0D01*
G01*
X177200000Y-111250000D02*
G75*
G02X177900000Y-111950000I0J-700000D01*
G01*
X177900000Y-113350000D02*
G75*
G02X177200000Y-114050000I-700000J0D01*
G01*
X176600000Y-114050000D02*
G75*
G02X175900000Y-113350000I0J700000D01*
G01*
X177200000Y-114050000D02*
X176600000Y-114050000D01*
X177900000Y-111950000D02*
X177900000Y-113350000D01*
X176600000Y-111250000D02*
X177200000Y-111250000D01*
X175900000Y-113350000D02*
X175900000Y-111950000D01*
X171002064Y-130410000D02*
X169797936Y-130410000D01*
X171002064Y-128590000D02*
X169797936Y-128590000D01*
X174210000Y-137810000D02*
X174210000Y-136550000D01*
X174210000Y-130990000D02*
X174210000Y-132250000D01*
X170450000Y-137810000D02*
X174210000Y-137810000D01*
X168200000Y-130990000D02*
X174210000Y-130990000D01*
X142790000Y-138702064D02*
X142790000Y-137497936D01*
X144610000Y-138702064D02*
X144610000Y-137497936D01*
X164437221Y-99890000D02*
X164762779Y-99890000D01*
X164437221Y-100910000D02*
X164762779Y-100910000D01*
X161990000Y-118762779D02*
X161990000Y-118437221D01*
X163010000Y-118762779D02*
X163010000Y-118437221D01*
X145510000Y-99841422D02*
X145510000Y-100358578D01*
X144090000Y-99841422D02*
X144090000Y-100358578D01*
X146830000Y-98870000D02*
X146830000Y-101530000D01*
X149430000Y-98870000D02*
X146830000Y-98870000D01*
X149430000Y-101530000D02*
X146830000Y-101530000D01*
X149430000Y-98870000D02*
X149430000Y-101530000D01*
X150700000Y-98870000D02*
X152030000Y-98870000D01*
X152030000Y-98870000D02*
X152030000Y-100200000D01*
X173641422Y-125790000D02*
X174158578Y-125790000D01*
X173641422Y-127210000D02*
X174158578Y-127210000D01*
X169958578Y-125790000D02*
X169441422Y-125790000D01*
X169958578Y-127210000D02*
X169441422Y-127210000D01*
X148010000Y-137341422D02*
X148010000Y-137858578D01*
X146590000Y-137341422D02*
X146590000Y-137858578D01*
D13*
X134767857Y-113739285D02*
X134767857Y-112989285D01*
X135053571Y-112989285D01*
X135125000Y-113025000D01*
X135160714Y-113060714D01*
X135196428Y-113132142D01*
X135196428Y-113239285D01*
X135160714Y-113310714D01*
X135125000Y-113346428D01*
X135053571Y-113382142D01*
X134767857Y-113382142D01*
X135732142Y-112989285D02*
X135732142Y-113525000D01*
X135696428Y-113632142D01*
X135625000Y-113703571D01*
X135517857Y-113739285D01*
X135446428Y-113739285D01*
X136089285Y-113453571D02*
X136660714Y-113453571D01*
X137160714Y-112989285D02*
X137232142Y-112989285D01*
X137303571Y-113025000D01*
X137339285Y-113060714D01*
X137375000Y-113132142D01*
X137410714Y-113275000D01*
X137410714Y-113453571D01*
X137375000Y-113596428D01*
X137339285Y-113667857D01*
X137303571Y-113703571D01*
X137232142Y-113739285D01*
X137160714Y-113739285D01*
X137089285Y-113703571D01*
X137053571Y-113667857D01*
X137017857Y-113596428D01*
X136982142Y-113453571D01*
X136982142Y-113275000D01*
X137017857Y-113132142D01*
X137053571Y-113060714D01*
X137089285Y-113025000D01*
X137160714Y-112989285D01*
X137660714Y-112989285D02*
X138125000Y-112989285D01*
X137875000Y-113275000D01*
X137982142Y-113275000D01*
X138053571Y-113310714D01*
X138089285Y-113346428D01*
X138125000Y-113417857D01*
X138125000Y-113596428D01*
X138089285Y-113667857D01*
X138053571Y-113703571D01*
X137982142Y-113739285D01*
X137767857Y-113739285D01*
X137696428Y-113703571D01*
X137660714Y-113667857D01*
X138767857Y-112989285D02*
X138625000Y-112989285D01*
X138553571Y-113025000D01*
X138517857Y-113060714D01*
X138446428Y-113167857D01*
X138410714Y-113310714D01*
X138410714Y-113596428D01*
X138446428Y-113667857D01*
X138482142Y-113703571D01*
X138553571Y-113739285D01*
X138696428Y-113739285D01*
X138767857Y-113703571D01*
X138803571Y-113667857D01*
X138839285Y-113596428D01*
X138839285Y-113417857D01*
X138803571Y-113346428D01*
X138767857Y-113310714D01*
X138696428Y-113275000D01*
X138553571Y-113275000D01*
X138482142Y-113310714D01*
X138446428Y-113346428D01*
X138410714Y-113417857D01*
X139125000Y-113525000D02*
X139482142Y-113525000D01*
X139053571Y-113739285D02*
X139303571Y-112989285D01*
X139553571Y-113739285D01*
X139803571Y-113739285D02*
X139803571Y-112989285D01*
X139803571Y-113346428D02*
X140232142Y-113346428D01*
X140232142Y-113739285D02*
X140232142Y-112989285D01*
X153539285Y-102403571D02*
X153539285Y-102832142D01*
X153539285Y-102617857D02*
X152789285Y-102617857D01*
X152896428Y-102689285D01*
X152967857Y-102760714D01*
X153003571Y-102832142D01*
X152789285Y-101939285D02*
X152789285Y-101867857D01*
X152825000Y-101796428D01*
X152860714Y-101760714D01*
X152932142Y-101725000D01*
X153075000Y-101689285D01*
X153253571Y-101689285D01*
X153396428Y-101725000D01*
X153467857Y-101760714D01*
X153503571Y-101796428D01*
X153539285Y-101867857D01*
X153539285Y-101939285D01*
X153503571Y-102010714D01*
X153467857Y-102046428D01*
X153396428Y-102082142D01*
X153253571Y-102117857D01*
X153075000Y-102117857D01*
X152932142Y-102082142D01*
X152860714Y-102046428D01*
X152825000Y-102010714D01*
X152789285Y-101939285D01*
X153039285Y-101046428D02*
X153539285Y-101046428D01*
X153039285Y-101367857D02*
X153432142Y-101367857D01*
X153503571Y-101332142D01*
X153539285Y-101260714D01*
X153539285Y-101153571D01*
X153503571Y-101082142D01*
X153467857Y-101046428D01*
X153146428Y-100439285D02*
X153146428Y-100689285D01*
X153539285Y-100689285D02*
X152789285Y-100689285D01*
X152789285Y-100332142D01*
X141639285Y-103703571D02*
X141639285Y-104132142D01*
X141639285Y-103917857D02*
X140889285Y-103917857D01*
X140996428Y-103989285D01*
X141067857Y-104060714D01*
X141103571Y-104132142D01*
X140960714Y-103417857D02*
X140925000Y-103382142D01*
X140889285Y-103310714D01*
X140889285Y-103132142D01*
X140925000Y-103060714D01*
X140960714Y-103025000D01*
X141032142Y-102989285D01*
X141103571Y-102989285D01*
X141210714Y-103025000D01*
X141639285Y-103453571D01*
X141639285Y-102989285D01*
X141139285Y-102667857D02*
X141889285Y-102667857D01*
X141175000Y-102667857D02*
X141139285Y-102596428D01*
X141139285Y-102453571D01*
X141175000Y-102382142D01*
X141210714Y-102346428D01*
X141282142Y-102310714D01*
X141496428Y-102310714D01*
X141567857Y-102346428D01*
X141603571Y-102382142D01*
X141639285Y-102453571D01*
X141639285Y-102596428D01*
X141603571Y-102667857D01*
X141246428Y-101739285D02*
X141246428Y-101989285D01*
X141639285Y-101989285D02*
X140889285Y-101989285D01*
X140889285Y-101632142D01*
X152939285Y-108503571D02*
X152939285Y-108932142D01*
X152939285Y-108717857D02*
X152189285Y-108717857D01*
X152296428Y-108789285D01*
X152367857Y-108860714D01*
X152403571Y-108932142D01*
X152260714Y-108217857D02*
X152225000Y-108182142D01*
X152189285Y-108110714D01*
X152189285Y-107932142D01*
X152225000Y-107860714D01*
X152260714Y-107825000D01*
X152332142Y-107789285D01*
X152403571Y-107789285D01*
X152510714Y-107825000D01*
X152939285Y-108253571D01*
X152939285Y-107789285D01*
X152439285Y-107467857D02*
X153189285Y-107467857D01*
X152475000Y-107467857D02*
X152439285Y-107396428D01*
X152439285Y-107253571D01*
X152475000Y-107182142D01*
X152510714Y-107146428D01*
X152582142Y-107110714D01*
X152796428Y-107110714D01*
X152867857Y-107146428D01*
X152903571Y-107182142D01*
X152939285Y-107253571D01*
X152939285Y-107396428D01*
X152903571Y-107467857D01*
X152546428Y-106539285D02*
X152546428Y-106789285D01*
X152939285Y-106789285D02*
X152189285Y-106789285D01*
X152189285Y-106432142D01*
X172796428Y-117139285D02*
X172367857Y-117139285D01*
X172582142Y-117139285D02*
X172582142Y-116389285D01*
X172510714Y-116496428D01*
X172439285Y-116567857D01*
X172367857Y-116603571D01*
X173260714Y-116389285D02*
X173332142Y-116389285D01*
X173403571Y-116425000D01*
X173439285Y-116460714D01*
X173475000Y-116532142D01*
X173510714Y-116675000D01*
X173510714Y-116853571D01*
X173475000Y-116996428D01*
X173439285Y-117067857D01*
X173403571Y-117103571D01*
X173332142Y-117139285D01*
X173260714Y-117139285D01*
X173189285Y-117103571D01*
X173153571Y-117067857D01*
X173117857Y-116996428D01*
X173082142Y-116853571D01*
X173082142Y-116675000D01*
X173117857Y-116532142D01*
X173153571Y-116460714D01*
X173189285Y-116425000D01*
X173260714Y-116389285D01*
X174153571Y-116639285D02*
X174153571Y-117139285D01*
X173832142Y-116639285D02*
X173832142Y-117032142D01*
X173867857Y-117103571D01*
X173939285Y-117139285D01*
X174046428Y-117139285D01*
X174117857Y-117103571D01*
X174153571Y-117067857D01*
X174760714Y-116746428D02*
X174510714Y-116746428D01*
X174510714Y-117139285D02*
X174510714Y-116389285D01*
X174867857Y-116389285D01*
X169196428Y-117139285D02*
X168767857Y-117139285D01*
X168982142Y-117139285D02*
X168982142Y-116389285D01*
X168910714Y-116496428D01*
X168839285Y-116567857D01*
X168767857Y-116603571D01*
X169660714Y-116389285D02*
X169732142Y-116389285D01*
X169803571Y-116425000D01*
X169839285Y-116460714D01*
X169875000Y-116532142D01*
X169910714Y-116675000D01*
X169910714Y-116853571D01*
X169875000Y-116996428D01*
X169839285Y-117067857D01*
X169803571Y-117103571D01*
X169732142Y-117139285D01*
X169660714Y-117139285D01*
X169589285Y-117103571D01*
X169553571Y-117067857D01*
X169517857Y-116996428D01*
X169482142Y-116853571D01*
X169482142Y-116675000D01*
X169517857Y-116532142D01*
X169553571Y-116460714D01*
X169589285Y-116425000D01*
X169660714Y-116389285D01*
X170553571Y-116639285D02*
X170553571Y-117139285D01*
X170232142Y-116639285D02*
X170232142Y-117032142D01*
X170267857Y-117103571D01*
X170339285Y-117139285D01*
X170446428Y-117139285D01*
X170517857Y-117103571D01*
X170553571Y-117067857D01*
X171160714Y-116746428D02*
X170910714Y-116746428D01*
X170910714Y-117139285D02*
X170910714Y-116389285D01*
X171267857Y-116389285D01*
X165239285Y-124639285D02*
X164810714Y-124639285D01*
X165025000Y-124639285D02*
X165025000Y-123889285D01*
X164953571Y-123996428D01*
X164882142Y-124067857D01*
X164810714Y-124103571D01*
X165703571Y-123889285D02*
X165775000Y-123889285D01*
X165846428Y-123925000D01*
X165882142Y-123960714D01*
X165917857Y-124032142D01*
X165953571Y-124175000D01*
X165953571Y-124353571D01*
X165917857Y-124496428D01*
X165882142Y-124567857D01*
X165846428Y-124603571D01*
X165775000Y-124639285D01*
X165703571Y-124639285D01*
X165632142Y-124603571D01*
X165596428Y-124567857D01*
X165560714Y-124496428D01*
X165525000Y-124353571D01*
X165525000Y-124175000D01*
X165560714Y-124032142D01*
X165596428Y-123960714D01*
X165632142Y-123925000D01*
X165703571Y-123889285D01*
X166417857Y-123889285D02*
X166489285Y-123889285D01*
X166560714Y-123925000D01*
X166596428Y-123960714D01*
X166632142Y-124032142D01*
X166667857Y-124175000D01*
X166667857Y-124353571D01*
X166632142Y-124496428D01*
X166596428Y-124567857D01*
X166560714Y-124603571D01*
X166489285Y-124639285D01*
X166417857Y-124639285D01*
X166346428Y-124603571D01*
X166310714Y-124567857D01*
X166275000Y-124496428D01*
X166239285Y-124353571D01*
X166239285Y-124175000D01*
X166275000Y-124032142D01*
X166310714Y-123960714D01*
X166346428Y-123925000D01*
X166417857Y-123889285D01*
X166989285Y-124139285D02*
X166989285Y-124639285D01*
X166989285Y-124210714D02*
X167025000Y-124175000D01*
X167096428Y-124139285D01*
X167203571Y-124139285D01*
X167275000Y-124175000D01*
X167310714Y-124246428D01*
X167310714Y-124639285D01*
X167917857Y-124246428D02*
X167667857Y-124246428D01*
X167667857Y-124639285D02*
X167667857Y-123889285D01*
X168025000Y-123889285D01*
X176039285Y-123939285D02*
X175610714Y-123939285D01*
X175825000Y-123939285D02*
X175825000Y-123189285D01*
X175753571Y-123296428D01*
X175682142Y-123367857D01*
X175610714Y-123403571D01*
X176503571Y-123189285D02*
X176575000Y-123189285D01*
X176646428Y-123225000D01*
X176682142Y-123260714D01*
X176717857Y-123332142D01*
X176753571Y-123475000D01*
X176753571Y-123653571D01*
X176717857Y-123796428D01*
X176682142Y-123867857D01*
X176646428Y-123903571D01*
X176575000Y-123939285D01*
X176503571Y-123939285D01*
X176432142Y-123903571D01*
X176396428Y-123867857D01*
X176360714Y-123796428D01*
X176325000Y-123653571D01*
X176325000Y-123475000D01*
X176360714Y-123332142D01*
X176396428Y-123260714D01*
X176432142Y-123225000D01*
X176503571Y-123189285D01*
X177217857Y-123189285D02*
X177289285Y-123189285D01*
X177360714Y-123225000D01*
X177396428Y-123260714D01*
X177432142Y-123332142D01*
X177467857Y-123475000D01*
X177467857Y-123653571D01*
X177432142Y-123796428D01*
X177396428Y-123867857D01*
X177360714Y-123903571D01*
X177289285Y-123939285D01*
X177217857Y-123939285D01*
X177146428Y-123903571D01*
X177110714Y-123867857D01*
X177075000Y-123796428D01*
X177039285Y-123653571D01*
X177039285Y-123475000D01*
X177075000Y-123332142D01*
X177110714Y-123260714D01*
X177146428Y-123225000D01*
X177217857Y-123189285D01*
X177789285Y-123439285D02*
X177789285Y-123939285D01*
X177789285Y-123510714D02*
X177825000Y-123475000D01*
X177896428Y-123439285D01*
X178003571Y-123439285D01*
X178075000Y-123475000D01*
X178110714Y-123546428D01*
X178110714Y-123939285D01*
X178717857Y-123546428D02*
X178467857Y-123546428D01*
X178467857Y-123939285D02*
X178467857Y-123189285D01*
X178825000Y-123189285D01*
D14*
X124261904Y-136652380D02*
X124261904Y-135652380D01*
X124500000Y-135652380D01*
X124642857Y-135700000D01*
X124738095Y-135795238D01*
X124785714Y-135890476D01*
X124833333Y-136080952D01*
X124833333Y-136223809D01*
X124785714Y-136414285D01*
X124738095Y-136509523D01*
X124642857Y-136604761D01*
X124500000Y-136652380D01*
X124261904Y-136652380D01*
X125785714Y-136652380D02*
X125214285Y-136652380D01*
X125500000Y-136652380D02*
X125500000Y-135652380D01*
X125404761Y-135795238D01*
X125309523Y-135890476D01*
X125214285Y-135938095D01*
D13*
X142382142Y-109703571D02*
X142489285Y-109739285D01*
X142667857Y-109739285D01*
X142739285Y-109703571D01*
X142775000Y-109667857D01*
X142810714Y-109596428D01*
X142810714Y-109525000D01*
X142775000Y-109453571D01*
X142739285Y-109417857D01*
X142667857Y-109382142D01*
X142525000Y-109346428D01*
X142453571Y-109310714D01*
X142417857Y-109275000D01*
X142382142Y-109203571D01*
X142382142Y-109132142D01*
X142417857Y-109060714D01*
X142453571Y-109025000D01*
X142525000Y-108989285D01*
X142703571Y-108989285D01*
X142810714Y-109025000D01*
X143560714Y-109739285D02*
X143310714Y-109382142D01*
X143132142Y-109739285D02*
X143132142Y-108989285D01*
X143417857Y-108989285D01*
X143489285Y-109025000D01*
X143525000Y-109060714D01*
X143560714Y-109132142D01*
X143560714Y-109239285D01*
X143525000Y-109310714D01*
X143489285Y-109346428D01*
X143417857Y-109382142D01*
X143132142Y-109382142D01*
X144132142Y-109346428D02*
X143882142Y-109346428D01*
X143882142Y-109739285D02*
X143882142Y-108989285D01*
X144239285Y-108989285D01*
X144667857Y-108989285D02*
X144739285Y-108989285D01*
X144810714Y-109025000D01*
X144846428Y-109060714D01*
X144882142Y-109132142D01*
X144917857Y-109275000D01*
X144917857Y-109453571D01*
X144882142Y-109596428D01*
X144846428Y-109667857D01*
X144810714Y-109703571D01*
X144739285Y-109739285D01*
X144667857Y-109739285D01*
X144596428Y-109703571D01*
X144560714Y-109667857D01*
X144525000Y-109596428D01*
X144489285Y-109453571D01*
X144489285Y-109275000D01*
X144525000Y-109132142D01*
X144560714Y-109060714D01*
X144596428Y-109025000D01*
X144667857Y-108989285D01*
X145275000Y-109739285D02*
X145417857Y-109739285D01*
X145489285Y-109703571D01*
X145525000Y-109667857D01*
X145596428Y-109560714D01*
X145632142Y-109417857D01*
X145632142Y-109132142D01*
X145596428Y-109060714D01*
X145560714Y-109025000D01*
X145489285Y-108989285D01*
X145346428Y-108989285D01*
X145275000Y-109025000D01*
X145239285Y-109060714D01*
X145203571Y-109132142D01*
X145203571Y-109310714D01*
X145239285Y-109382142D01*
X145275000Y-109417857D01*
X145346428Y-109453571D01*
X145489285Y-109453571D01*
X145560714Y-109417857D01*
X145596428Y-109382142D01*
X145632142Y-109310714D01*
X146096428Y-108989285D02*
X146167857Y-108989285D01*
X146239285Y-109025000D01*
X146275000Y-109060714D01*
X146310714Y-109132142D01*
X146346428Y-109275000D01*
X146346428Y-109453571D01*
X146310714Y-109596428D01*
X146275000Y-109667857D01*
X146239285Y-109703571D01*
X146167857Y-109739285D01*
X146096428Y-109739285D01*
X146025000Y-109703571D01*
X145989285Y-109667857D01*
X145953571Y-109596428D01*
X145917857Y-109453571D01*
X145917857Y-109275000D01*
X145953571Y-109132142D01*
X145989285Y-109060714D01*
X146025000Y-109025000D01*
X146096428Y-108989285D01*
X147025000Y-108989285D02*
X146667857Y-108989285D01*
X146632142Y-109346428D01*
X146667857Y-109310714D01*
X146739285Y-109275000D01*
X146917857Y-109275000D01*
X146989285Y-109310714D01*
X147025000Y-109346428D01*
X147060714Y-109417857D01*
X147060714Y-109596428D01*
X147025000Y-109667857D01*
X146989285Y-109703571D01*
X146917857Y-109739285D01*
X146739285Y-109739285D01*
X146667857Y-109703571D01*
X146632142Y-109667857D01*
X147346428Y-109525000D02*
X147703571Y-109525000D01*
X147275000Y-109739285D02*
X147525000Y-108989285D01*
X147775000Y-109739285D01*
X148025000Y-109453571D02*
X148596428Y-109453571D01*
X149346428Y-109739285D02*
X148917857Y-109739285D01*
X149132142Y-109739285D02*
X149132142Y-108989285D01*
X149060714Y-109096428D01*
X148989285Y-109167857D01*
X148917857Y-109203571D01*
X149810714Y-108989285D02*
X149882142Y-108989285D01*
X149953571Y-109025000D01*
X149989285Y-109060714D01*
X150025000Y-109132142D01*
X150060714Y-109275000D01*
X150060714Y-109453571D01*
X150025000Y-109596428D01*
X149989285Y-109667857D01*
X149953571Y-109703571D01*
X149882142Y-109739285D01*
X149810714Y-109739285D01*
X149739285Y-109703571D01*
X149703571Y-109667857D01*
X149667857Y-109596428D01*
X149632142Y-109453571D01*
X149632142Y-109275000D01*
X149667857Y-109132142D01*
X149703571Y-109060714D01*
X149739285Y-109025000D01*
X149810714Y-108989285D01*
X150346428Y-109060714D02*
X150382142Y-109025000D01*
X150453571Y-108989285D01*
X150632142Y-108989285D01*
X150703571Y-109025000D01*
X150739285Y-109060714D01*
X150775000Y-109132142D01*
X150775000Y-109203571D01*
X150739285Y-109310714D01*
X150310714Y-109739285D01*
X150775000Y-109739285D01*
X151239285Y-109382142D02*
X151239285Y-109739285D01*
X150989285Y-108989285D02*
X151239285Y-109382142D01*
X151489285Y-108989285D01*
X134007142Y-100403571D02*
X134114285Y-100439285D01*
X134292857Y-100439285D01*
X134364285Y-100403571D01*
X134400000Y-100367857D01*
X134435714Y-100296428D01*
X134435714Y-100225000D01*
X134400000Y-100153571D01*
X134364285Y-100117857D01*
X134292857Y-100082142D01*
X134150000Y-100046428D01*
X134078571Y-100010714D01*
X134042857Y-99975000D01*
X134007142Y-99903571D01*
X134007142Y-99832142D01*
X134042857Y-99760714D01*
X134078571Y-99725000D01*
X134150000Y-99689285D01*
X134328571Y-99689285D01*
X134435714Y-99725000D01*
X134971428Y-99689285D02*
X134971428Y-100225000D01*
X134935714Y-100332142D01*
X134864285Y-100403571D01*
X134757142Y-100439285D01*
X134685714Y-100439285D01*
X135328571Y-100153571D02*
X135900000Y-100153571D01*
X136185714Y-99689285D02*
X136650000Y-99689285D01*
X136400000Y-99975000D01*
X136507142Y-99975000D01*
X136578571Y-100010714D01*
X136614285Y-100046428D01*
X136650000Y-100117857D01*
X136650000Y-100296428D01*
X136614285Y-100367857D01*
X136578571Y-100403571D01*
X136507142Y-100439285D01*
X136292857Y-100439285D01*
X136221428Y-100403571D01*
X136185714Y-100367857D01*
X137328571Y-99689285D02*
X136971428Y-99689285D01*
X136935714Y-100046428D01*
X136971428Y-100010714D01*
X137042857Y-99975000D01*
X137221428Y-99975000D01*
X137292857Y-100010714D01*
X137328571Y-100046428D01*
X137364285Y-100117857D01*
X137364285Y-100296428D01*
X137328571Y-100367857D01*
X137292857Y-100403571D01*
X137221428Y-100439285D01*
X137042857Y-100439285D01*
X136971428Y-100403571D01*
X136935714Y-100367857D01*
X137650000Y-99760714D02*
X137685714Y-99725000D01*
X137757142Y-99689285D01*
X137935714Y-99689285D01*
X138007142Y-99725000D01*
X138042857Y-99760714D01*
X138078571Y-99832142D01*
X138078571Y-99903571D01*
X138042857Y-100010714D01*
X137614285Y-100439285D01*
X138078571Y-100439285D01*
X138328571Y-99689285D02*
X138792857Y-99689285D01*
X138542857Y-99975000D01*
X138650000Y-99975000D01*
X138721428Y-100010714D01*
X138757142Y-100046428D01*
X138792857Y-100117857D01*
X138792857Y-100296428D01*
X138757142Y-100367857D01*
X138721428Y-100403571D01*
X138650000Y-100439285D01*
X138435714Y-100439285D01*
X138364285Y-100403571D01*
X138328571Y-100367857D01*
X153895714Y-103560714D02*
X153931428Y-103525000D01*
X154002857Y-103489285D01*
X154181428Y-103489285D01*
X154252857Y-103525000D01*
X154288571Y-103560714D01*
X154324285Y-103632142D01*
X154324285Y-103703571D01*
X154288571Y-103810714D01*
X153860000Y-104239285D01*
X154324285Y-104239285D01*
X154645714Y-104239285D02*
X154645714Y-103489285D01*
X155074285Y-104239285D02*
X154752857Y-103810714D01*
X155074285Y-103489285D02*
X154645714Y-103917857D01*
X153810714Y-106560714D02*
X153846428Y-106525000D01*
X153917857Y-106489285D01*
X154096428Y-106489285D01*
X154167857Y-106525000D01*
X154203571Y-106560714D01*
X154239285Y-106632142D01*
X154239285Y-106703571D01*
X154203571Y-106810714D01*
X153775000Y-107239285D01*
X154239285Y-107239285D01*
X154560714Y-107239285D02*
X154560714Y-106489285D01*
X154989285Y-107239285D02*
X154667857Y-106810714D01*
X154989285Y-106489285D02*
X154560714Y-106917857D01*
X165625000Y-122539285D02*
X165196428Y-122539285D01*
X165410714Y-122539285D02*
X165410714Y-121789285D01*
X165339285Y-121896428D01*
X165267857Y-121967857D01*
X165196428Y-122003571D01*
X166089285Y-121789285D02*
X166160714Y-121789285D01*
X166232142Y-121825000D01*
X166267857Y-121860714D01*
X166303571Y-121932142D01*
X166339285Y-122075000D01*
X166339285Y-122253571D01*
X166303571Y-122396428D01*
X166267857Y-122467857D01*
X166232142Y-122503571D01*
X166160714Y-122539285D01*
X166089285Y-122539285D01*
X166017857Y-122503571D01*
X165982142Y-122467857D01*
X165946428Y-122396428D01*
X165910714Y-122253571D01*
X165910714Y-122075000D01*
X165946428Y-121932142D01*
X165982142Y-121860714D01*
X166017857Y-121825000D01*
X166089285Y-121789285D01*
X166660714Y-122539285D02*
X166660714Y-121789285D01*
X167089285Y-122539285D02*
X166767857Y-122110714D01*
X167089285Y-121789285D02*
X166660714Y-122217857D01*
X167767857Y-121789285D02*
X167410714Y-121789285D01*
X167375000Y-122146428D01*
X167410714Y-122110714D01*
X167482142Y-122075000D01*
X167660714Y-122075000D01*
X167732142Y-122110714D01*
X167767857Y-122146428D01*
X167803571Y-122217857D01*
X167803571Y-122396428D01*
X167767857Y-122467857D01*
X167732142Y-122503571D01*
X167660714Y-122539285D01*
X167482142Y-122539285D01*
X167410714Y-122503571D01*
X167375000Y-122467857D01*
X175660714Y-121889285D02*
X176125000Y-121889285D01*
X175875000Y-122175000D01*
X175982142Y-122175000D01*
X176053571Y-122210714D01*
X176089285Y-122246428D01*
X176125000Y-122317857D01*
X176125000Y-122496428D01*
X176089285Y-122567857D01*
X176053571Y-122603571D01*
X175982142Y-122639285D01*
X175767857Y-122639285D01*
X175696428Y-122603571D01*
X175660714Y-122567857D01*
X176446428Y-122639285D02*
X176446428Y-121889285D01*
X176875000Y-122639285D02*
X176553571Y-122210714D01*
X176875000Y-121889285D02*
X176446428Y-122317857D01*
X177553571Y-121889285D02*
X177196428Y-121889285D01*
X177160714Y-122246428D01*
X177196428Y-122210714D01*
X177267857Y-122175000D01*
X177446428Y-122175000D01*
X177517857Y-122210714D01*
X177553571Y-122246428D01*
X177589285Y-122317857D01*
X177589285Y-122496428D01*
X177553571Y-122567857D01*
X177517857Y-122603571D01*
X177446428Y-122639285D01*
X177267857Y-122639285D01*
X177196428Y-122603571D01*
X177160714Y-122567857D01*
X177839285Y-121889285D02*
X178339285Y-121889285D01*
X178017857Y-122639285D01*
X165260714Y-121189285D02*
X165225000Y-121153571D01*
X165189285Y-121082142D01*
X165189285Y-120903571D01*
X165225000Y-120832142D01*
X165260714Y-120796428D01*
X165332142Y-120760714D01*
X165403571Y-120760714D01*
X165510714Y-120796428D01*
X165939285Y-121225000D01*
X165939285Y-120760714D01*
X165939285Y-120439285D02*
X165189285Y-120439285D01*
X165939285Y-120010714D02*
X165510714Y-120332142D01*
X165189285Y-120010714D02*
X165617857Y-120439285D01*
X178439285Y-121075000D02*
X178439285Y-121503571D01*
X178439285Y-121289285D02*
X177689285Y-121289285D01*
X177796428Y-121360714D01*
X177867857Y-121432142D01*
X177903571Y-121503571D01*
X178439285Y-120753571D02*
X177689285Y-120753571D01*
X178439285Y-120325000D02*
X178010714Y-120646428D01*
X177689285Y-120325000D02*
X178117857Y-120753571D01*
X178439285Y-119610714D02*
X178439285Y-120039285D01*
X178439285Y-119825000D02*
X177689285Y-119825000D01*
X177796428Y-119896428D01*
X177867857Y-119967857D01*
X177903571Y-120039285D01*
X177689285Y-118932142D02*
X177689285Y-119289285D01*
X178046428Y-119325000D01*
X178010714Y-119289285D01*
X177975000Y-119217857D01*
X177975000Y-119039285D01*
X178010714Y-118967857D01*
X178046428Y-118932142D01*
X178117857Y-118896428D01*
X178296428Y-118896428D01*
X178367857Y-118932142D01*
X178403571Y-118967857D01*
X178439285Y-119039285D01*
X178439285Y-119217857D01*
X178403571Y-119289285D01*
X178367857Y-119325000D01*
D14*
X129533333Y-136732380D02*
X129200000Y-136256190D01*
X128961904Y-136732380D02*
X128961904Y-135732380D01*
X129342857Y-135732380D01*
X129438095Y-135780000D01*
X129485714Y-135827619D01*
X129533333Y-135922857D01*
X129533333Y-136065714D01*
X129485714Y-136160952D01*
X129438095Y-136208571D01*
X129342857Y-136256190D01*
X128961904Y-136256190D01*
X130104761Y-136160952D02*
X130009523Y-136113333D01*
X129961904Y-136065714D01*
X129914285Y-135970476D01*
X129914285Y-135922857D01*
X129961904Y-135827619D01*
X130009523Y-135780000D01*
X130104761Y-135732380D01*
X130295238Y-135732380D01*
X130390476Y-135780000D01*
X130438095Y-135827619D01*
X130485714Y-135922857D01*
X130485714Y-135970476D01*
X130438095Y-136065714D01*
X130390476Y-136113333D01*
X130295238Y-136160952D01*
X130104761Y-136160952D01*
X130009523Y-136208571D01*
X129961904Y-136256190D01*
X129914285Y-136351428D01*
X129914285Y-136541904D01*
X129961904Y-136637142D01*
X130009523Y-136684761D01*
X130104761Y-136732380D01*
X130295238Y-136732380D01*
X130390476Y-136684761D01*
X130438095Y-136637142D01*
X130485714Y-136541904D01*
X130485714Y-136351428D01*
X130438095Y-136256190D01*
X130390476Y-136208571D01*
X130295238Y-136160952D01*
D13*
X154164285Y-109225000D02*
X154521428Y-109225000D01*
X154092857Y-109439285D02*
X154342857Y-108689285D01*
X154592857Y-109439285D01*
X154842857Y-109439285D02*
X154842857Y-108689285D01*
X155021428Y-108689285D01*
X155128571Y-108725000D01*
X155200000Y-108796428D01*
X155235714Y-108867857D01*
X155271428Y-109010714D01*
X155271428Y-109117857D01*
X155235714Y-109260714D01*
X155200000Y-109332142D01*
X155128571Y-109403571D01*
X155021428Y-109439285D01*
X154842857Y-109439285D01*
X155557142Y-109403571D02*
X155664285Y-109439285D01*
X155842857Y-109439285D01*
X155914285Y-109403571D01*
X155950000Y-109367857D01*
X155985714Y-109296428D01*
X155985714Y-109225000D01*
X155950000Y-109153571D01*
X155914285Y-109117857D01*
X155842857Y-109082142D01*
X155700000Y-109046428D01*
X155628571Y-109010714D01*
X155592857Y-108975000D01*
X155557142Y-108903571D01*
X155557142Y-108832142D01*
X155592857Y-108760714D01*
X155628571Y-108725000D01*
X155700000Y-108689285D01*
X155878571Y-108689285D01*
X155985714Y-108725000D01*
X156414285Y-109010714D02*
X156342857Y-108975000D01*
X156307142Y-108939285D01*
X156271428Y-108867857D01*
X156271428Y-108832142D01*
X156307142Y-108760714D01*
X156342857Y-108725000D01*
X156414285Y-108689285D01*
X156557142Y-108689285D01*
X156628571Y-108725000D01*
X156664285Y-108760714D01*
X156700000Y-108832142D01*
X156700000Y-108867857D01*
X156664285Y-108939285D01*
X156628571Y-108975000D01*
X156557142Y-109010714D01*
X156414285Y-109010714D01*
X156342857Y-109046428D01*
X156307142Y-109082142D01*
X156271428Y-109153571D01*
X156271428Y-109296428D01*
X156307142Y-109367857D01*
X156342857Y-109403571D01*
X156414285Y-109439285D01*
X156557142Y-109439285D01*
X156628571Y-109403571D01*
X156664285Y-109367857D01*
X156700000Y-109296428D01*
X156700000Y-109153571D01*
X156664285Y-109082142D01*
X156628571Y-109046428D01*
X156557142Y-109010714D01*
X157342857Y-108689285D02*
X157200000Y-108689285D01*
X157128571Y-108725000D01*
X157092857Y-108760714D01*
X157021428Y-108867857D01*
X156985714Y-109010714D01*
X156985714Y-109296428D01*
X157021428Y-109367857D01*
X157057142Y-109403571D01*
X157128571Y-109439285D01*
X157271428Y-109439285D01*
X157342857Y-109403571D01*
X157378571Y-109367857D01*
X157414285Y-109296428D01*
X157414285Y-109117857D01*
X157378571Y-109046428D01*
X157342857Y-109010714D01*
X157271428Y-108975000D01*
X157128571Y-108975000D01*
X157057142Y-109010714D01*
X157021428Y-109046428D01*
X156985714Y-109117857D01*
X157842857Y-109010714D02*
X157771428Y-108975000D01*
X157735714Y-108939285D01*
X157700000Y-108867857D01*
X157700000Y-108832142D01*
X157735714Y-108760714D01*
X157771428Y-108725000D01*
X157842857Y-108689285D01*
X157985714Y-108689285D01*
X158057142Y-108725000D01*
X158092857Y-108760714D01*
X158128571Y-108832142D01*
X158128571Y-108867857D01*
X158092857Y-108939285D01*
X158057142Y-108975000D01*
X157985714Y-109010714D01*
X157842857Y-109010714D01*
X157771428Y-109046428D01*
X157735714Y-109082142D01*
X157700000Y-109153571D01*
X157700000Y-109296428D01*
X157735714Y-109367857D01*
X157771428Y-109403571D01*
X157842857Y-109439285D01*
X157985714Y-109439285D01*
X158057142Y-109403571D01*
X158092857Y-109367857D01*
X158128571Y-109296428D01*
X158128571Y-109153571D01*
X158092857Y-109082142D01*
X158057142Y-109046428D01*
X157985714Y-109010714D01*
X158842857Y-109439285D02*
X158414285Y-109439285D01*
X158628571Y-109439285D02*
X158628571Y-108689285D01*
X158557142Y-108796428D01*
X158485714Y-108867857D01*
X158414285Y-108903571D01*
X159592857Y-109439285D02*
X159342857Y-109082142D01*
X159164285Y-109439285D02*
X159164285Y-108689285D01*
X159450000Y-108689285D01*
X159521428Y-108725000D01*
X159557142Y-108760714D01*
X159592857Y-108832142D01*
X159592857Y-108939285D01*
X159557142Y-109010714D01*
X159521428Y-109046428D01*
X159450000Y-109082142D01*
X159164285Y-109082142D01*
X159914285Y-108689285D02*
X159914285Y-109296428D01*
X159950000Y-109367857D01*
X159985714Y-109403571D01*
X160057142Y-109439285D01*
X160200000Y-109439285D01*
X160271428Y-109403571D01*
X160307142Y-109367857D01*
X160342857Y-109296428D01*
X160342857Y-108689285D01*
X160700000Y-109439285D02*
X160700000Y-108689285D01*
X160950000Y-109225000D01*
X161200000Y-108689285D01*
X161200000Y-109439285D01*
X177289285Y-133385714D02*
X177289285Y-132957142D01*
X178039285Y-133171428D02*
X177289285Y-133171428D01*
X178039285Y-132707142D02*
X177289285Y-132707142D01*
X177289285Y-132421428D01*
X177325000Y-132350000D01*
X177360714Y-132314285D01*
X177432142Y-132278571D01*
X177539285Y-132278571D01*
X177610714Y-132314285D01*
X177646428Y-132350000D01*
X177682142Y-132421428D01*
X177682142Y-132707142D01*
X178003571Y-131992857D02*
X178039285Y-131885714D01*
X178039285Y-131707142D01*
X178003571Y-131635714D01*
X177967857Y-131600000D01*
X177896428Y-131564285D01*
X177825000Y-131564285D01*
X177753571Y-131600000D01*
X177717857Y-131635714D01*
X177682142Y-131707142D01*
X177646428Y-131850000D01*
X177610714Y-131921428D01*
X177575000Y-131957142D01*
X177503571Y-131992857D01*
X177432142Y-131992857D01*
X177360714Y-131957142D01*
X177325000Y-131921428D01*
X177289285Y-131850000D01*
X177289285Y-131671428D01*
X177325000Y-131564285D01*
X177289285Y-131314285D02*
X177289285Y-130814285D01*
X178039285Y-131135714D01*
X177825000Y-130564285D02*
X177825000Y-130207142D01*
X178039285Y-130635714D02*
X177289285Y-130385714D01*
X178039285Y-130135714D01*
X177610714Y-129778571D02*
X177575000Y-129850000D01*
X177539285Y-129885714D01*
X177467857Y-129921428D01*
X177432142Y-129921428D01*
X177360714Y-129885714D01*
X177325000Y-129850000D01*
X177289285Y-129778571D01*
X177289285Y-129635714D01*
X177325000Y-129564285D01*
X177360714Y-129528571D01*
X177432142Y-129492857D01*
X177467857Y-129492857D01*
X177539285Y-129528571D01*
X177575000Y-129564285D01*
X177610714Y-129635714D01*
X177610714Y-129778571D01*
X177646428Y-129850000D01*
X177682142Y-129885714D01*
X177753571Y-129921428D01*
X177896428Y-129921428D01*
X177967857Y-129885714D01*
X178003571Y-129850000D01*
X178039285Y-129778571D01*
X178039285Y-129635714D01*
X178003571Y-129564285D01*
X177967857Y-129528571D01*
X177896428Y-129492857D01*
X177753571Y-129492857D01*
X177682142Y-129528571D01*
X177646428Y-129564285D01*
X177610714Y-129635714D01*
X177610714Y-129064285D02*
X177575000Y-129135714D01*
X177539285Y-129171428D01*
X177467857Y-129207142D01*
X177432142Y-129207142D01*
X177360714Y-129171428D01*
X177325000Y-129135714D01*
X177289285Y-129064285D01*
X177289285Y-128921428D01*
X177325000Y-128850000D01*
X177360714Y-128814285D01*
X177432142Y-128778571D01*
X177467857Y-128778571D01*
X177539285Y-128814285D01*
X177575000Y-128850000D01*
X177610714Y-128921428D01*
X177610714Y-129064285D01*
X177646428Y-129135714D01*
X177682142Y-129171428D01*
X177753571Y-129207142D01*
X177896428Y-129207142D01*
X177967857Y-129171428D01*
X178003571Y-129135714D01*
X178039285Y-129064285D01*
X178039285Y-128921428D01*
X178003571Y-128850000D01*
X177967857Y-128814285D01*
X177896428Y-128778571D01*
X177753571Y-128778571D01*
X177682142Y-128814285D01*
X177646428Y-128850000D01*
X177610714Y-128921428D01*
X177289285Y-128314285D02*
X177289285Y-128242857D01*
X177325000Y-128171428D01*
X177360714Y-128135714D01*
X177432142Y-128100000D01*
X177575000Y-128064285D01*
X177753571Y-128064285D01*
X177896428Y-128100000D01*
X177967857Y-128135714D01*
X178003571Y-128171428D01*
X178039285Y-128242857D01*
X178039285Y-128314285D01*
X178003571Y-128385714D01*
X177967857Y-128421428D01*
X177896428Y-128457142D01*
X177753571Y-128492857D01*
X177575000Y-128492857D01*
X177432142Y-128457142D01*
X177360714Y-128421428D01*
X177325000Y-128385714D01*
X177289285Y-128314285D01*
X178039285Y-127350000D02*
X178039285Y-127778571D01*
X178039285Y-127564285D02*
X177289285Y-127564285D01*
X177396428Y-127635714D01*
X177467857Y-127707142D01*
X177503571Y-127778571D01*
X178039285Y-126600000D02*
X177682142Y-126850000D01*
X178039285Y-127028571D02*
X177289285Y-127028571D01*
X177289285Y-126742857D01*
X177325000Y-126671428D01*
X177360714Y-126635714D01*
X177432142Y-126600000D01*
X177539285Y-126600000D01*
X177610714Y-126635714D01*
X177646428Y-126671428D01*
X177682142Y-126742857D01*
X177682142Y-127028571D01*
X177289285Y-126385714D02*
X177289285Y-125957142D01*
X178039285Y-126171428D02*
X177289285Y-126171428D01*
X177289285Y-125492857D02*
X177825000Y-125492857D01*
X177932142Y-125528571D01*
X178003571Y-125600000D01*
X178039285Y-125707142D01*
X178039285Y-125778571D01*
X177289285Y-125242857D02*
X177289285Y-124814285D01*
X178039285Y-125028571D02*
X177289285Y-125028571D01*
X137769285Y-125603571D02*
X137769285Y-126032142D01*
X137769285Y-125817857D02*
X137019285Y-125817857D01*
X137126428Y-125889285D01*
X137197857Y-125960714D01*
X137233571Y-126032142D01*
X137090714Y-125317857D02*
X137055000Y-125282142D01*
X137019285Y-125210714D01*
X137019285Y-125032142D01*
X137055000Y-124960714D01*
X137090714Y-124925000D01*
X137162142Y-124889285D01*
X137233571Y-124889285D01*
X137340714Y-124925000D01*
X137769285Y-125353571D01*
X137769285Y-124889285D01*
X137269285Y-124567857D02*
X138019285Y-124567857D01*
X137305000Y-124567857D02*
X137269285Y-124496428D01*
X137269285Y-124353571D01*
X137305000Y-124282142D01*
X137340714Y-124246428D01*
X137412142Y-124210714D01*
X137626428Y-124210714D01*
X137697857Y-124246428D01*
X137733571Y-124282142D01*
X137769285Y-124353571D01*
X137769285Y-124496428D01*
X137733571Y-124567857D01*
X137376428Y-123639285D02*
X137376428Y-123889285D01*
X137769285Y-123889285D02*
X137019285Y-123889285D01*
X137019285Y-123532142D01*
X152739285Y-127803571D02*
X152739285Y-128232142D01*
X152739285Y-128017857D02*
X151989285Y-128017857D01*
X152096428Y-128089285D01*
X152167857Y-128160714D01*
X152203571Y-128232142D01*
X152060714Y-127517857D02*
X152025000Y-127482142D01*
X151989285Y-127410714D01*
X151989285Y-127232142D01*
X152025000Y-127160714D01*
X152060714Y-127125000D01*
X152132142Y-127089285D01*
X152203571Y-127089285D01*
X152310714Y-127125000D01*
X152739285Y-127553571D01*
X152739285Y-127089285D01*
X152239285Y-126767857D02*
X152989285Y-126767857D01*
X152275000Y-126767857D02*
X152239285Y-126696428D01*
X152239285Y-126553571D01*
X152275000Y-126482142D01*
X152310714Y-126446428D01*
X152382142Y-126410714D01*
X152596428Y-126410714D01*
X152667857Y-126446428D01*
X152703571Y-126482142D01*
X152739285Y-126553571D01*
X152739285Y-126696428D01*
X152703571Y-126767857D01*
X152346428Y-125839285D02*
X152346428Y-126089285D01*
X152739285Y-126089285D02*
X151989285Y-126089285D01*
X151989285Y-125732142D01*
X142182142Y-129003571D02*
X142289285Y-129039285D01*
X142467857Y-129039285D01*
X142539285Y-129003571D01*
X142575000Y-128967857D01*
X142610714Y-128896428D01*
X142610714Y-128825000D01*
X142575000Y-128753571D01*
X142539285Y-128717857D01*
X142467857Y-128682142D01*
X142325000Y-128646428D01*
X142253571Y-128610714D01*
X142217857Y-128575000D01*
X142182142Y-128503571D01*
X142182142Y-128432142D01*
X142217857Y-128360714D01*
X142253571Y-128325000D01*
X142325000Y-128289285D01*
X142503571Y-128289285D01*
X142610714Y-128325000D01*
X143360714Y-129039285D02*
X143110714Y-128682142D01*
X142932142Y-129039285D02*
X142932142Y-128289285D01*
X143217857Y-128289285D01*
X143289285Y-128325000D01*
X143325000Y-128360714D01*
X143360714Y-128432142D01*
X143360714Y-128539285D01*
X143325000Y-128610714D01*
X143289285Y-128646428D01*
X143217857Y-128682142D01*
X142932142Y-128682142D01*
X143932142Y-128646428D02*
X143682142Y-128646428D01*
X143682142Y-129039285D02*
X143682142Y-128289285D01*
X144039285Y-128289285D01*
X144467857Y-128289285D02*
X144539285Y-128289285D01*
X144610714Y-128325000D01*
X144646428Y-128360714D01*
X144682142Y-128432142D01*
X144717857Y-128575000D01*
X144717857Y-128753571D01*
X144682142Y-128896428D01*
X144646428Y-128967857D01*
X144610714Y-129003571D01*
X144539285Y-129039285D01*
X144467857Y-129039285D01*
X144396428Y-129003571D01*
X144360714Y-128967857D01*
X144325000Y-128896428D01*
X144289285Y-128753571D01*
X144289285Y-128575000D01*
X144325000Y-128432142D01*
X144360714Y-128360714D01*
X144396428Y-128325000D01*
X144467857Y-128289285D01*
X145075000Y-129039285D02*
X145217857Y-129039285D01*
X145289285Y-129003571D01*
X145325000Y-128967857D01*
X145396428Y-128860714D01*
X145432142Y-128717857D01*
X145432142Y-128432142D01*
X145396428Y-128360714D01*
X145360714Y-128325000D01*
X145289285Y-128289285D01*
X145146428Y-128289285D01*
X145075000Y-128325000D01*
X145039285Y-128360714D01*
X145003571Y-128432142D01*
X145003571Y-128610714D01*
X145039285Y-128682142D01*
X145075000Y-128717857D01*
X145146428Y-128753571D01*
X145289285Y-128753571D01*
X145360714Y-128717857D01*
X145396428Y-128682142D01*
X145432142Y-128610714D01*
X145896428Y-128289285D02*
X145967857Y-128289285D01*
X146039285Y-128325000D01*
X146075000Y-128360714D01*
X146110714Y-128432142D01*
X146146428Y-128575000D01*
X146146428Y-128753571D01*
X146110714Y-128896428D01*
X146075000Y-128967857D01*
X146039285Y-129003571D01*
X145967857Y-129039285D01*
X145896428Y-129039285D01*
X145825000Y-129003571D01*
X145789285Y-128967857D01*
X145753571Y-128896428D01*
X145717857Y-128753571D01*
X145717857Y-128575000D01*
X145753571Y-128432142D01*
X145789285Y-128360714D01*
X145825000Y-128325000D01*
X145896428Y-128289285D01*
X146825000Y-128289285D02*
X146467857Y-128289285D01*
X146432142Y-128646428D01*
X146467857Y-128610714D01*
X146539285Y-128575000D01*
X146717857Y-128575000D01*
X146789285Y-128610714D01*
X146825000Y-128646428D01*
X146860714Y-128717857D01*
X146860714Y-128896428D01*
X146825000Y-128967857D01*
X146789285Y-129003571D01*
X146717857Y-129039285D01*
X146539285Y-129039285D01*
X146467857Y-129003571D01*
X146432142Y-128967857D01*
X147146428Y-128825000D02*
X147503571Y-128825000D01*
X147075000Y-129039285D02*
X147325000Y-128289285D01*
X147575000Y-129039285D01*
X147825000Y-128753571D02*
X148396428Y-128753571D01*
X149146428Y-129039285D02*
X148717857Y-129039285D01*
X148932142Y-129039285D02*
X148932142Y-128289285D01*
X148860714Y-128396428D01*
X148789285Y-128467857D01*
X148717857Y-128503571D01*
X149610714Y-128289285D02*
X149682142Y-128289285D01*
X149753571Y-128325000D01*
X149789285Y-128360714D01*
X149825000Y-128432142D01*
X149860714Y-128575000D01*
X149860714Y-128753571D01*
X149825000Y-128896428D01*
X149789285Y-128967857D01*
X149753571Y-129003571D01*
X149682142Y-129039285D01*
X149610714Y-129039285D01*
X149539285Y-129003571D01*
X149503571Y-128967857D01*
X149467857Y-128896428D01*
X149432142Y-128753571D01*
X149432142Y-128575000D01*
X149467857Y-128432142D01*
X149503571Y-128360714D01*
X149539285Y-128325000D01*
X149610714Y-128289285D01*
X150146428Y-128360714D02*
X150182142Y-128325000D01*
X150253571Y-128289285D01*
X150432142Y-128289285D01*
X150503571Y-128325000D01*
X150539285Y-128360714D01*
X150575000Y-128432142D01*
X150575000Y-128503571D01*
X150539285Y-128610714D01*
X150110714Y-129039285D01*
X150575000Y-129039285D01*
X151039285Y-128682142D02*
X151039285Y-129039285D01*
X150789285Y-128289285D02*
X151039285Y-128682142D01*
X151289285Y-128289285D01*
X138489285Y-128310714D02*
X138489285Y-128667857D01*
X138846428Y-128703571D01*
X138810714Y-128667857D01*
X138775000Y-128596428D01*
X138775000Y-128417857D01*
X138810714Y-128346428D01*
X138846428Y-128310714D01*
X138917857Y-128275000D01*
X139096428Y-128275000D01*
X139167857Y-128310714D01*
X139203571Y-128346428D01*
X139239285Y-128417857D01*
X139239285Y-128596428D01*
X139203571Y-128667857D01*
X139167857Y-128703571D01*
X138489285Y-127632142D02*
X138489285Y-127775000D01*
X138525000Y-127846428D01*
X138560714Y-127882142D01*
X138667857Y-127953571D01*
X138810714Y-127989285D01*
X139096428Y-127989285D01*
X139167857Y-127953571D01*
X139203571Y-127917857D01*
X139239285Y-127846428D01*
X139239285Y-127703571D01*
X139203571Y-127632142D01*
X139167857Y-127596428D01*
X139096428Y-127560714D01*
X138917857Y-127560714D01*
X138846428Y-127596428D01*
X138810714Y-127632142D01*
X138775000Y-127703571D01*
X138775000Y-127846428D01*
X138810714Y-127917857D01*
X138846428Y-127953571D01*
X138917857Y-127989285D01*
X138489285Y-127096428D02*
X138489285Y-127025000D01*
X138525000Y-126953571D01*
X138560714Y-126917857D01*
X138632142Y-126882142D01*
X138775000Y-126846428D01*
X138953571Y-126846428D01*
X139096428Y-126882142D01*
X139167857Y-126917857D01*
X139203571Y-126953571D01*
X139239285Y-127025000D01*
X139239285Y-127096428D01*
X139203571Y-127167857D01*
X139167857Y-127203571D01*
X139096428Y-127239285D01*
X138953571Y-127275000D01*
X138775000Y-127275000D01*
X138632142Y-127239285D01*
X138560714Y-127203571D01*
X138525000Y-127167857D01*
X138489285Y-127096428D01*
X139239285Y-126096428D02*
X138882142Y-126346428D01*
X139239285Y-126525000D02*
X138489285Y-126525000D01*
X138489285Y-126239285D01*
X138525000Y-126167857D01*
X138560714Y-126132142D01*
X138632142Y-126096428D01*
X138739285Y-126096428D01*
X138810714Y-126132142D01*
X138846428Y-126167857D01*
X138882142Y-126239285D01*
X138882142Y-126525000D01*
X138489285Y-121589285D02*
X138132142Y-121589285D01*
X138096428Y-121946428D01*
X138132142Y-121910714D01*
X138203571Y-121875000D01*
X138382142Y-121875000D01*
X138453571Y-121910714D01*
X138489285Y-121946428D01*
X138525000Y-122017857D01*
X138525000Y-122196428D01*
X138489285Y-122267857D01*
X138453571Y-122303571D01*
X138382142Y-122339285D01*
X138203571Y-122339285D01*
X138132142Y-122303571D01*
X138096428Y-122267857D01*
X139167857Y-121589285D02*
X139025000Y-121589285D01*
X138953571Y-121625000D01*
X138917857Y-121660714D01*
X138846428Y-121767857D01*
X138810714Y-121910714D01*
X138810714Y-122196428D01*
X138846428Y-122267857D01*
X138882142Y-122303571D01*
X138953571Y-122339285D01*
X139096428Y-122339285D01*
X139167857Y-122303571D01*
X139203571Y-122267857D01*
X139239285Y-122196428D01*
X139239285Y-122017857D01*
X139203571Y-121946428D01*
X139167857Y-121910714D01*
X139096428Y-121875000D01*
X138953571Y-121875000D01*
X138882142Y-121910714D01*
X138846428Y-121946428D01*
X138810714Y-122017857D01*
X139703571Y-121589285D02*
X139775000Y-121589285D01*
X139846428Y-121625000D01*
X139882142Y-121660714D01*
X139917857Y-121732142D01*
X139953571Y-121875000D01*
X139953571Y-122053571D01*
X139917857Y-122196428D01*
X139882142Y-122267857D01*
X139846428Y-122303571D01*
X139775000Y-122339285D01*
X139703571Y-122339285D01*
X139632142Y-122303571D01*
X139596428Y-122267857D01*
X139560714Y-122196428D01*
X139525000Y-122053571D01*
X139525000Y-121875000D01*
X139560714Y-121732142D01*
X139596428Y-121660714D01*
X139632142Y-121625000D01*
X139703571Y-121589285D01*
X140703571Y-122339285D02*
X140453571Y-121982142D01*
X140275000Y-122339285D02*
X140275000Y-121589285D01*
X140560714Y-121589285D01*
X140632142Y-121625000D01*
X140667857Y-121660714D01*
X140703571Y-121732142D01*
X140703571Y-121839285D01*
X140667857Y-121910714D01*
X140632142Y-121946428D01*
X140560714Y-121982142D01*
X140275000Y-121982142D01*
X140660714Y-125089285D02*
X140625000Y-125053571D01*
X140589285Y-124982142D01*
X140589285Y-124803571D01*
X140625000Y-124732142D01*
X140660714Y-124696428D01*
X140732142Y-124660714D01*
X140803571Y-124660714D01*
X140910714Y-124696428D01*
X141339285Y-125125000D01*
X141339285Y-124660714D01*
X141339285Y-124339285D02*
X140589285Y-124339285D01*
X141339285Y-123910714D02*
X140910714Y-124232142D01*
X140589285Y-123910714D02*
X141017857Y-124339285D01*
X153710714Y-122860714D02*
X153746428Y-122825000D01*
X153817857Y-122789285D01*
X153996428Y-122789285D01*
X154067857Y-122825000D01*
X154103571Y-122860714D01*
X154139285Y-122932142D01*
X154139285Y-123003571D01*
X154103571Y-123110714D01*
X153675000Y-123539285D01*
X154139285Y-123539285D01*
X154460714Y-123539285D02*
X154460714Y-122789285D01*
X154889285Y-123539285D02*
X154567857Y-123110714D01*
X154889285Y-122789285D02*
X154460714Y-123217857D01*
X153710714Y-125860714D02*
X153746428Y-125825000D01*
X153817857Y-125789285D01*
X153996428Y-125789285D01*
X154067857Y-125825000D01*
X154103571Y-125860714D01*
X154139285Y-125932142D01*
X154139285Y-126003571D01*
X154103571Y-126110714D01*
X153675000Y-126539285D01*
X154139285Y-126539285D01*
X154460714Y-126539285D02*
X154460714Y-125789285D01*
X154889285Y-126539285D02*
X154567857Y-126110714D01*
X154889285Y-125789285D02*
X154460714Y-126217857D01*
X153964285Y-128525000D02*
X154321428Y-128525000D01*
X153892857Y-128739285D02*
X154142857Y-127989285D01*
X154392857Y-128739285D01*
X154642857Y-128739285D02*
X154642857Y-127989285D01*
X154821428Y-127989285D01*
X154928571Y-128025000D01*
X155000000Y-128096428D01*
X155035714Y-128167857D01*
X155071428Y-128310714D01*
X155071428Y-128417857D01*
X155035714Y-128560714D01*
X155000000Y-128632142D01*
X154928571Y-128703571D01*
X154821428Y-128739285D01*
X154642857Y-128739285D01*
X155357142Y-128703571D02*
X155464285Y-128739285D01*
X155642857Y-128739285D01*
X155714285Y-128703571D01*
X155750000Y-128667857D01*
X155785714Y-128596428D01*
X155785714Y-128525000D01*
X155750000Y-128453571D01*
X155714285Y-128417857D01*
X155642857Y-128382142D01*
X155500000Y-128346428D01*
X155428571Y-128310714D01*
X155392857Y-128275000D01*
X155357142Y-128203571D01*
X155357142Y-128132142D01*
X155392857Y-128060714D01*
X155428571Y-128025000D01*
X155500000Y-127989285D01*
X155678571Y-127989285D01*
X155785714Y-128025000D01*
X156214285Y-128310714D02*
X156142857Y-128275000D01*
X156107142Y-128239285D01*
X156071428Y-128167857D01*
X156071428Y-128132142D01*
X156107142Y-128060714D01*
X156142857Y-128025000D01*
X156214285Y-127989285D01*
X156357142Y-127989285D01*
X156428571Y-128025000D01*
X156464285Y-128060714D01*
X156500000Y-128132142D01*
X156500000Y-128167857D01*
X156464285Y-128239285D01*
X156428571Y-128275000D01*
X156357142Y-128310714D01*
X156214285Y-128310714D01*
X156142857Y-128346428D01*
X156107142Y-128382142D01*
X156071428Y-128453571D01*
X156071428Y-128596428D01*
X156107142Y-128667857D01*
X156142857Y-128703571D01*
X156214285Y-128739285D01*
X156357142Y-128739285D01*
X156428571Y-128703571D01*
X156464285Y-128667857D01*
X156500000Y-128596428D01*
X156500000Y-128453571D01*
X156464285Y-128382142D01*
X156428571Y-128346428D01*
X156357142Y-128310714D01*
X157142857Y-127989285D02*
X157000000Y-127989285D01*
X156928571Y-128025000D01*
X156892857Y-128060714D01*
X156821428Y-128167857D01*
X156785714Y-128310714D01*
X156785714Y-128596428D01*
X156821428Y-128667857D01*
X156857142Y-128703571D01*
X156928571Y-128739285D01*
X157071428Y-128739285D01*
X157142857Y-128703571D01*
X157178571Y-128667857D01*
X157214285Y-128596428D01*
X157214285Y-128417857D01*
X157178571Y-128346428D01*
X157142857Y-128310714D01*
X157071428Y-128275000D01*
X156928571Y-128275000D01*
X156857142Y-128310714D01*
X156821428Y-128346428D01*
X156785714Y-128417857D01*
X157642857Y-128310714D02*
X157571428Y-128275000D01*
X157535714Y-128239285D01*
X157500000Y-128167857D01*
X157500000Y-128132142D01*
X157535714Y-128060714D01*
X157571428Y-128025000D01*
X157642857Y-127989285D01*
X157785714Y-127989285D01*
X157857142Y-128025000D01*
X157892857Y-128060714D01*
X157928571Y-128132142D01*
X157928571Y-128167857D01*
X157892857Y-128239285D01*
X157857142Y-128275000D01*
X157785714Y-128310714D01*
X157642857Y-128310714D01*
X157571428Y-128346428D01*
X157535714Y-128382142D01*
X157500000Y-128453571D01*
X157500000Y-128596428D01*
X157535714Y-128667857D01*
X157571428Y-128703571D01*
X157642857Y-128739285D01*
X157785714Y-128739285D01*
X157857142Y-128703571D01*
X157892857Y-128667857D01*
X157928571Y-128596428D01*
X157928571Y-128453571D01*
X157892857Y-128382142D01*
X157857142Y-128346428D01*
X157785714Y-128310714D01*
X158642857Y-128739285D02*
X158214285Y-128739285D01*
X158428571Y-128739285D02*
X158428571Y-127989285D01*
X158357142Y-128096428D01*
X158285714Y-128167857D01*
X158214285Y-128203571D01*
X159392857Y-128739285D02*
X159142857Y-128382142D01*
X158964285Y-128739285D02*
X158964285Y-127989285D01*
X159250000Y-127989285D01*
X159321428Y-128025000D01*
X159357142Y-128060714D01*
X159392857Y-128132142D01*
X159392857Y-128239285D01*
X159357142Y-128310714D01*
X159321428Y-128346428D01*
X159250000Y-128382142D01*
X158964285Y-128382142D01*
X159714285Y-127989285D02*
X159714285Y-128596428D01*
X159750000Y-128667857D01*
X159785714Y-128703571D01*
X159857142Y-128739285D01*
X160000000Y-128739285D01*
X160071428Y-128703571D01*
X160107142Y-128667857D01*
X160142857Y-128596428D01*
X160142857Y-127989285D01*
X160500000Y-128739285D02*
X160500000Y-127989285D01*
X160750000Y-128525000D01*
X161000000Y-127989285D01*
X161000000Y-128739285D01*
X168539285Y-104260714D02*
X168539285Y-104689285D01*
X168539285Y-104475000D02*
X167789285Y-104475000D01*
X167896428Y-104546428D01*
X167967857Y-104617857D01*
X168003571Y-104689285D01*
X167789285Y-103796428D02*
X167789285Y-103725000D01*
X167825000Y-103653571D01*
X167860714Y-103617857D01*
X167932142Y-103582142D01*
X168075000Y-103546428D01*
X168253571Y-103546428D01*
X168396428Y-103582142D01*
X168467857Y-103617857D01*
X168503571Y-103653571D01*
X168539285Y-103725000D01*
X168539285Y-103796428D01*
X168503571Y-103867857D01*
X168467857Y-103903571D01*
X168396428Y-103939285D01*
X168253571Y-103975000D01*
X168075000Y-103975000D01*
X167932142Y-103939285D01*
X167860714Y-103903571D01*
X167825000Y-103867857D01*
X167789285Y-103796428D01*
X167789285Y-103082142D02*
X167789285Y-103010714D01*
X167825000Y-102939285D01*
X167860714Y-102903571D01*
X167932142Y-102867857D01*
X168075000Y-102832142D01*
X168253571Y-102832142D01*
X168396428Y-102867857D01*
X168467857Y-102903571D01*
X168503571Y-102939285D01*
X168539285Y-103010714D01*
X168539285Y-103082142D01*
X168503571Y-103153571D01*
X168467857Y-103189285D01*
X168396428Y-103225000D01*
X168253571Y-103260714D01*
X168075000Y-103260714D01*
X167932142Y-103225000D01*
X167860714Y-103189285D01*
X167825000Y-103153571D01*
X167789285Y-103082142D01*
X168039285Y-102510714D02*
X168539285Y-102510714D01*
X168110714Y-102510714D02*
X168075000Y-102475000D01*
X168039285Y-102403571D01*
X168039285Y-102296428D01*
X168075000Y-102225000D01*
X168146428Y-102189285D01*
X168539285Y-102189285D01*
X168146428Y-101582142D02*
X168146428Y-101832142D01*
X168539285Y-101832142D02*
X167789285Y-101832142D01*
X167789285Y-101475000D01*
X175849285Y-109564285D02*
X176599285Y-109385714D01*
X176063571Y-109242857D01*
X176599285Y-109100000D01*
X175849285Y-108921428D01*
X175920714Y-108671428D02*
X175885000Y-108635714D01*
X175849285Y-108564285D01*
X175849285Y-108385714D01*
X175885000Y-108314285D01*
X175920714Y-108278571D01*
X175992142Y-108242857D01*
X176063571Y-108242857D01*
X176170714Y-108278571D01*
X176599285Y-108707142D01*
X176599285Y-108242857D01*
X175849285Y-107564285D02*
X175849285Y-107921428D01*
X176206428Y-107957142D01*
X176170714Y-107921428D01*
X176135000Y-107850000D01*
X176135000Y-107671428D01*
X176170714Y-107600000D01*
X176206428Y-107564285D01*
X176277857Y-107528571D01*
X176456428Y-107528571D01*
X176527857Y-107564285D01*
X176563571Y-107600000D01*
X176599285Y-107671428D01*
X176599285Y-107850000D01*
X176563571Y-107921428D01*
X176527857Y-107957142D01*
X176670714Y-106707142D02*
X176635000Y-106778571D01*
X176563571Y-106850000D01*
X176456428Y-106957142D01*
X176420714Y-107028571D01*
X176420714Y-107100000D01*
X176599285Y-107064285D02*
X176563571Y-107135714D01*
X176492142Y-107207142D01*
X176349285Y-107242857D01*
X176099285Y-107242857D01*
X175956428Y-107207142D01*
X175885000Y-107135714D01*
X175849285Y-107064285D01*
X175849285Y-106921428D01*
X175885000Y-106850000D01*
X175956428Y-106778571D01*
X176099285Y-106742857D01*
X176349285Y-106742857D01*
X176492142Y-106778571D01*
X176563571Y-106850000D01*
X176599285Y-106921428D01*
X176599285Y-107064285D01*
X175849285Y-106492857D02*
X175849285Y-106028571D01*
X176135000Y-106278571D01*
X176135000Y-106171428D01*
X176170714Y-106100000D01*
X176206428Y-106064285D01*
X176277857Y-106028571D01*
X176456428Y-106028571D01*
X176527857Y-106064285D01*
X176563571Y-106100000D01*
X176599285Y-106171428D01*
X176599285Y-106385714D01*
X176563571Y-106457142D01*
X176527857Y-106492857D01*
X175920714Y-105742857D02*
X175885000Y-105707142D01*
X175849285Y-105635714D01*
X175849285Y-105457142D01*
X175885000Y-105385714D01*
X175920714Y-105350000D01*
X175992142Y-105314285D01*
X176063571Y-105314285D01*
X176170714Y-105350000D01*
X176599285Y-105778571D01*
X176599285Y-105314285D01*
X175849285Y-104778571D02*
X176385000Y-104778571D01*
X176492142Y-104814285D01*
X176563571Y-104885714D01*
X176599285Y-104992857D01*
X176599285Y-105064285D01*
X175849285Y-104528571D02*
X176599285Y-104278571D01*
X175849285Y-104028571D01*
X176563571Y-103814285D02*
X176599285Y-103707142D01*
X176599285Y-103528571D01*
X176563571Y-103457142D01*
X176527857Y-103421428D01*
X176456428Y-103385714D01*
X176385000Y-103385714D01*
X176313571Y-103421428D01*
X176277857Y-103457142D01*
X176242142Y-103528571D01*
X176206428Y-103671428D01*
X176170714Y-103742857D01*
X176135000Y-103778571D01*
X176063571Y-103814285D01*
X175992142Y-103814285D01*
X175920714Y-103778571D01*
X175885000Y-103742857D01*
X175849285Y-103671428D01*
X175849285Y-103492857D01*
X175885000Y-103385714D01*
X176563571Y-103100000D02*
X176599285Y-102992857D01*
X176599285Y-102814285D01*
X176563571Y-102742857D01*
X176527857Y-102707142D01*
X176456428Y-102671428D01*
X176385000Y-102671428D01*
X176313571Y-102707142D01*
X176277857Y-102742857D01*
X176242142Y-102814285D01*
X176206428Y-102957142D01*
X176170714Y-103028571D01*
X176135000Y-103064285D01*
X176063571Y-103100000D01*
X175992142Y-103100000D01*
X175920714Y-103064285D01*
X175885000Y-103028571D01*
X175849285Y-102957142D01*
X175849285Y-102778571D01*
X175885000Y-102671428D01*
X162039285Y-121046428D02*
X162039285Y-121475000D01*
X162039285Y-121260714D02*
X161289285Y-121260714D01*
X161396428Y-121332142D01*
X161467857Y-121403571D01*
X161503571Y-121475000D01*
X161539285Y-120403571D02*
X162039285Y-120403571D01*
X161539285Y-120725000D02*
X161932142Y-120725000D01*
X162003571Y-120689285D01*
X162039285Y-120617857D01*
X162039285Y-120510714D01*
X162003571Y-120439285D01*
X161967857Y-120403571D01*
X161646428Y-119796428D02*
X161646428Y-120046428D01*
X162039285Y-120046428D02*
X161289285Y-120046428D01*
X161289285Y-119689285D01*
X162239285Y-101646428D02*
X162239285Y-102075000D01*
X162239285Y-101860714D02*
X161489285Y-101860714D01*
X161596428Y-101932142D01*
X161667857Y-102003571D01*
X161703571Y-102075000D01*
X161739285Y-101003571D02*
X162239285Y-101003571D01*
X161739285Y-101325000D02*
X162132142Y-101325000D01*
X162203571Y-101289285D01*
X162239285Y-101217857D01*
X162239285Y-101110714D01*
X162203571Y-101039285D01*
X162167857Y-101003571D01*
X161846428Y-100396428D02*
X161846428Y-100646428D01*
X162239285Y-100646428D02*
X161489285Y-100646428D01*
X161489285Y-100289285D01*
X164339285Y-120703571D02*
X164339285Y-121132142D01*
X164339285Y-120917857D02*
X163589285Y-120917857D01*
X163696428Y-120989285D01*
X163767857Y-121060714D01*
X163803571Y-121132142D01*
X163589285Y-120239285D02*
X163589285Y-120167857D01*
X163625000Y-120096428D01*
X163660714Y-120060714D01*
X163732142Y-120025000D01*
X163875000Y-119989285D01*
X164053571Y-119989285D01*
X164196428Y-120025000D01*
X164267857Y-120060714D01*
X164303571Y-120096428D01*
X164339285Y-120167857D01*
X164339285Y-120239285D01*
X164303571Y-120310714D01*
X164267857Y-120346428D01*
X164196428Y-120382142D01*
X164053571Y-120417857D01*
X163875000Y-120417857D01*
X163732142Y-120382142D01*
X163660714Y-120346428D01*
X163625000Y-120310714D01*
X163589285Y-120239285D01*
X163839285Y-119346428D02*
X164339285Y-119346428D01*
X163839285Y-119667857D02*
X164232142Y-119667857D01*
X164303571Y-119632142D01*
X164339285Y-119560714D01*
X164339285Y-119453571D01*
X164303571Y-119382142D01*
X164267857Y-119346428D01*
X163946428Y-118739285D02*
X163946428Y-118989285D01*
X164339285Y-118989285D02*
X163589285Y-118989285D01*
X163589285Y-118632142D01*
X165539285Y-104303571D02*
X165539285Y-104732142D01*
X165539285Y-104517857D02*
X164789285Y-104517857D01*
X164896428Y-104589285D01*
X164967857Y-104660714D01*
X165003571Y-104732142D01*
X164789285Y-103839285D02*
X164789285Y-103767857D01*
X164825000Y-103696428D01*
X164860714Y-103660714D01*
X164932142Y-103625000D01*
X165075000Y-103589285D01*
X165253571Y-103589285D01*
X165396428Y-103625000D01*
X165467857Y-103660714D01*
X165503571Y-103696428D01*
X165539285Y-103767857D01*
X165539285Y-103839285D01*
X165503571Y-103910714D01*
X165467857Y-103946428D01*
X165396428Y-103982142D01*
X165253571Y-104017857D01*
X165075000Y-104017857D01*
X164932142Y-103982142D01*
X164860714Y-103946428D01*
X164825000Y-103910714D01*
X164789285Y-103839285D01*
X165039285Y-102946428D02*
X165539285Y-102946428D01*
X165039285Y-103267857D02*
X165432142Y-103267857D01*
X165503571Y-103232142D01*
X165539285Y-103160714D01*
X165539285Y-103053571D01*
X165503571Y-102982142D01*
X165467857Y-102946428D01*
X165146428Y-102339285D02*
X165146428Y-102589285D01*
X165539285Y-102589285D02*
X164789285Y-102589285D01*
X164789285Y-102232142D01*
X158346428Y-120039285D02*
X158346428Y-120539285D01*
X158167857Y-119753571D02*
X157989285Y-120289285D01*
X158453571Y-120289285D01*
X158739285Y-120467857D02*
X158775000Y-120503571D01*
X158739285Y-120539285D01*
X158703571Y-120503571D01*
X158739285Y-120467857D01*
X158739285Y-120539285D01*
X159025000Y-119789285D02*
X159525000Y-119789285D01*
X159203571Y-120539285D01*
X160132142Y-120039285D02*
X160132142Y-120539285D01*
X159810714Y-120039285D02*
X159810714Y-120432142D01*
X159846428Y-120503571D01*
X159917857Y-120539285D01*
X160025000Y-120539285D01*
X160096428Y-120503571D01*
X160132142Y-120467857D01*
X160739285Y-120146428D02*
X160489285Y-120146428D01*
X160489285Y-120539285D02*
X160489285Y-119789285D01*
X160846428Y-119789285D01*
X158446428Y-100639285D02*
X158446428Y-101139285D01*
X158267857Y-100353571D02*
X158089285Y-100889285D01*
X158553571Y-100889285D01*
X158839285Y-101067857D02*
X158875000Y-101103571D01*
X158839285Y-101139285D01*
X158803571Y-101103571D01*
X158839285Y-101067857D01*
X158839285Y-101139285D01*
X159125000Y-100389285D02*
X159625000Y-100389285D01*
X159303571Y-101139285D01*
X160232142Y-100639285D02*
X160232142Y-101139285D01*
X159910714Y-100639285D02*
X159910714Y-101032142D01*
X159946428Y-101103571D01*
X160017857Y-101139285D01*
X160125000Y-101139285D01*
X160196428Y-101103571D01*
X160232142Y-101067857D01*
X160839285Y-100746428D02*
X160589285Y-100746428D01*
X160589285Y-101139285D02*
X160589285Y-100389285D01*
X160946428Y-100389285D01*
X153439285Y-122003571D02*
X153439285Y-122432142D01*
X153439285Y-122217857D02*
X152689285Y-122217857D01*
X152796428Y-122289285D01*
X152867857Y-122360714D01*
X152903571Y-122432142D01*
X152689285Y-121539285D02*
X152689285Y-121467857D01*
X152725000Y-121396428D01*
X152760714Y-121360714D01*
X152832142Y-121325000D01*
X152975000Y-121289285D01*
X153153571Y-121289285D01*
X153296428Y-121325000D01*
X153367857Y-121360714D01*
X153403571Y-121396428D01*
X153439285Y-121467857D01*
X153439285Y-121539285D01*
X153403571Y-121610714D01*
X153367857Y-121646428D01*
X153296428Y-121682142D01*
X153153571Y-121717857D01*
X152975000Y-121717857D01*
X152832142Y-121682142D01*
X152760714Y-121646428D01*
X152725000Y-121610714D01*
X152689285Y-121539285D01*
X152939285Y-120646428D02*
X153439285Y-120646428D01*
X152939285Y-120967857D02*
X153332142Y-120967857D01*
X153403571Y-120932142D01*
X153439285Y-120860714D01*
X153439285Y-120753571D01*
X153403571Y-120682142D01*
X153367857Y-120646428D01*
X153046428Y-120039285D02*
X153046428Y-120289285D01*
X153439285Y-120289285D02*
X152689285Y-120289285D01*
X152689285Y-119932142D01*
X156253571Y-119439285D02*
X155825000Y-119439285D01*
X156039285Y-119439285D02*
X156039285Y-118689285D01*
X155967857Y-118796428D01*
X155896428Y-118867857D01*
X155825000Y-118903571D01*
X156896428Y-118939285D02*
X156896428Y-119439285D01*
X156575000Y-118939285D02*
X156575000Y-119332142D01*
X156610714Y-119403571D01*
X156682142Y-119439285D01*
X156789285Y-119439285D01*
X156860714Y-119403571D01*
X156896428Y-119367857D01*
X157503571Y-119046428D02*
X157253571Y-119046428D01*
X157253571Y-119439285D02*
X157253571Y-118689285D01*
X157610714Y-118689285D01*
X156553571Y-100139285D02*
X156125000Y-100139285D01*
X156339285Y-100139285D02*
X156339285Y-99389285D01*
X156267857Y-99496428D01*
X156196428Y-99567857D01*
X156125000Y-99603571D01*
X157196428Y-99639285D02*
X157196428Y-100139285D01*
X156875000Y-99639285D02*
X156875000Y-100032142D01*
X156910714Y-100103571D01*
X156982142Y-100139285D01*
X157089285Y-100139285D01*
X157160714Y-100103571D01*
X157196428Y-100067857D01*
X157803571Y-99746428D02*
X157553571Y-99746428D01*
X157553571Y-100139285D02*
X157553571Y-99389285D01*
X157910714Y-99389285D01*
X162139285Y-129946428D02*
X162139285Y-130375000D01*
X162139285Y-130160714D02*
X161389285Y-130160714D01*
X161496428Y-130232142D01*
X161567857Y-130303571D01*
X161603571Y-130375000D01*
X161639285Y-129303571D02*
X162139285Y-129303571D01*
X161639285Y-129625000D02*
X162032142Y-129625000D01*
X162103571Y-129589285D01*
X162139285Y-129517857D01*
X162139285Y-129410714D01*
X162103571Y-129339285D01*
X162067857Y-129303571D01*
X161746428Y-128696428D02*
X161746428Y-128946428D01*
X162139285Y-128946428D02*
X161389285Y-128946428D01*
X161389285Y-128589285D01*
X162339285Y-110746428D02*
X162339285Y-111175000D01*
X162339285Y-110960714D02*
X161589285Y-110960714D01*
X161696428Y-111032142D01*
X161767857Y-111103571D01*
X161803571Y-111175000D01*
X161839285Y-110103571D02*
X162339285Y-110103571D01*
X161839285Y-110425000D02*
X162232142Y-110425000D01*
X162303571Y-110389285D01*
X162339285Y-110317857D01*
X162339285Y-110210714D01*
X162303571Y-110139285D01*
X162267857Y-110103571D01*
X161946428Y-109496428D02*
X161946428Y-109746428D01*
X162339285Y-109746428D02*
X161589285Y-109746428D01*
X161589285Y-109389285D01*
X165339285Y-128003571D02*
X165339285Y-128432142D01*
X165339285Y-128217857D02*
X164589285Y-128217857D01*
X164696428Y-128289285D01*
X164767857Y-128360714D01*
X164803571Y-128432142D01*
X164589285Y-127539285D02*
X164589285Y-127467857D01*
X164625000Y-127396428D01*
X164660714Y-127360714D01*
X164732142Y-127325000D01*
X164875000Y-127289285D01*
X165053571Y-127289285D01*
X165196428Y-127325000D01*
X165267857Y-127360714D01*
X165303571Y-127396428D01*
X165339285Y-127467857D01*
X165339285Y-127539285D01*
X165303571Y-127610714D01*
X165267857Y-127646428D01*
X165196428Y-127682142D01*
X165053571Y-127717857D01*
X164875000Y-127717857D01*
X164732142Y-127682142D01*
X164660714Y-127646428D01*
X164625000Y-127610714D01*
X164589285Y-127539285D01*
X164839285Y-126646428D02*
X165339285Y-126646428D01*
X164839285Y-126967857D02*
X165232142Y-126967857D01*
X165303571Y-126932142D01*
X165339285Y-126860714D01*
X165339285Y-126753571D01*
X165303571Y-126682142D01*
X165267857Y-126646428D01*
X164946428Y-126039285D02*
X164946428Y-126289285D01*
X165339285Y-126289285D02*
X164589285Y-126289285D01*
X164589285Y-125932142D01*
X165539285Y-108803571D02*
X165539285Y-109232142D01*
X165539285Y-109017857D02*
X164789285Y-109017857D01*
X164896428Y-109089285D01*
X164967857Y-109160714D01*
X165003571Y-109232142D01*
X164789285Y-108339285D02*
X164789285Y-108267857D01*
X164825000Y-108196428D01*
X164860714Y-108160714D01*
X164932142Y-108125000D01*
X165075000Y-108089285D01*
X165253571Y-108089285D01*
X165396428Y-108125000D01*
X165467857Y-108160714D01*
X165503571Y-108196428D01*
X165539285Y-108267857D01*
X165539285Y-108339285D01*
X165503571Y-108410714D01*
X165467857Y-108446428D01*
X165396428Y-108482142D01*
X165253571Y-108517857D01*
X165075000Y-108517857D01*
X164932142Y-108482142D01*
X164860714Y-108446428D01*
X164825000Y-108410714D01*
X164789285Y-108339285D01*
X165039285Y-107446428D02*
X165539285Y-107446428D01*
X165039285Y-107767857D02*
X165432142Y-107767857D01*
X165503571Y-107732142D01*
X165539285Y-107660714D01*
X165539285Y-107553571D01*
X165503571Y-107482142D01*
X165467857Y-107446428D01*
X165146428Y-106839285D02*
X165146428Y-107089285D01*
X165539285Y-107089285D02*
X164789285Y-107089285D01*
X164789285Y-106732142D01*
X177089285Y-109971428D02*
X177839285Y-109792857D01*
X177303571Y-109650000D01*
X177839285Y-109507142D01*
X177089285Y-109328571D01*
X177839285Y-109042857D02*
X177339285Y-109042857D01*
X177482142Y-109042857D02*
X177410714Y-109007142D01*
X177375000Y-108971428D01*
X177339285Y-108900000D01*
X177339285Y-108828571D01*
X177839285Y-108578571D02*
X177339285Y-108578571D01*
X177089285Y-108578571D02*
X177125000Y-108614285D01*
X177160714Y-108578571D01*
X177125000Y-108542857D01*
X177089285Y-108578571D01*
X177160714Y-108578571D01*
X177339285Y-108328571D02*
X177339285Y-108042857D01*
X177089285Y-108221428D02*
X177732142Y-108221428D01*
X177803571Y-108185714D01*
X177839285Y-108114285D01*
X177839285Y-108042857D01*
X177803571Y-107507142D02*
X177839285Y-107578571D01*
X177839285Y-107721428D01*
X177803571Y-107792857D01*
X177732142Y-107828571D01*
X177446428Y-107828571D01*
X177375000Y-107792857D01*
X177339285Y-107721428D01*
X177339285Y-107578571D01*
X177375000Y-107507142D01*
X177446428Y-107471428D01*
X177517857Y-107471428D01*
X177589285Y-107828571D01*
X177839285Y-106578571D02*
X177089285Y-106578571D01*
X177089285Y-106292857D01*
X177125000Y-106221428D01*
X177160714Y-106185714D01*
X177232142Y-106150000D01*
X177339285Y-106150000D01*
X177410714Y-106185714D01*
X177446428Y-106221428D01*
X177482142Y-106292857D01*
X177482142Y-106578571D01*
X177839285Y-105828571D02*
X177339285Y-105828571D01*
X177482142Y-105828571D02*
X177410714Y-105792857D01*
X177375000Y-105757142D01*
X177339285Y-105685714D01*
X177339285Y-105614285D01*
X177839285Y-105257142D02*
X177803571Y-105328571D01*
X177767857Y-105364285D01*
X177696428Y-105400000D01*
X177482142Y-105400000D01*
X177410714Y-105364285D01*
X177375000Y-105328571D01*
X177339285Y-105257142D01*
X177339285Y-105150000D01*
X177375000Y-105078571D01*
X177410714Y-105042857D01*
X177482142Y-105007142D01*
X177696428Y-105007142D01*
X177767857Y-105042857D01*
X177803571Y-105078571D01*
X177839285Y-105150000D01*
X177839285Y-105257142D01*
X177339285Y-104792857D02*
X177339285Y-104507142D01*
X177089285Y-104685714D02*
X177732142Y-104685714D01*
X177803571Y-104650000D01*
X177839285Y-104578571D01*
X177839285Y-104507142D01*
X177803571Y-103971428D02*
X177839285Y-104042857D01*
X177839285Y-104185714D01*
X177803571Y-104257142D01*
X177732142Y-104292857D01*
X177446428Y-104292857D01*
X177375000Y-104257142D01*
X177339285Y-104185714D01*
X177339285Y-104042857D01*
X177375000Y-103971428D01*
X177446428Y-103935714D01*
X177517857Y-103935714D01*
X177589285Y-104292857D01*
X177803571Y-103292857D02*
X177839285Y-103364285D01*
X177839285Y-103507142D01*
X177803571Y-103578571D01*
X177767857Y-103614285D01*
X177696428Y-103650000D01*
X177482142Y-103650000D01*
X177410714Y-103614285D01*
X177375000Y-103578571D01*
X177339285Y-103507142D01*
X177339285Y-103364285D01*
X177375000Y-103292857D01*
X177339285Y-103078571D02*
X177339285Y-102792857D01*
X177089285Y-102971428D02*
X177732142Y-102971428D01*
X177803571Y-102935714D01*
X177839285Y-102864285D01*
X177839285Y-102792857D01*
X174809285Y-112902857D02*
X174809285Y-113331428D01*
X174809285Y-113117142D02*
X174059285Y-113117142D01*
X174166428Y-113188571D01*
X174237857Y-113260000D01*
X174273571Y-113331428D01*
X174059285Y-112438571D02*
X174059285Y-112367142D01*
X174095000Y-112295714D01*
X174130714Y-112260000D01*
X174202142Y-112224285D01*
X174345000Y-112188571D01*
X174523571Y-112188571D01*
X174666428Y-112224285D01*
X174737857Y-112260000D01*
X174773571Y-112295714D01*
X174809285Y-112367142D01*
X174809285Y-112438571D01*
X174773571Y-112510000D01*
X174737857Y-112545714D01*
X174666428Y-112581428D01*
X174523571Y-112617142D01*
X174345000Y-112617142D01*
X174202142Y-112581428D01*
X174130714Y-112545714D01*
X174095000Y-112510000D01*
X174059285Y-112438571D01*
X174809285Y-111867142D02*
X174059285Y-111867142D01*
X174809285Y-111438571D02*
X174380714Y-111760000D01*
X174059285Y-111438571D02*
X174487857Y-111867142D01*
X167939285Y-119303571D02*
X167939285Y-119732142D01*
X167939285Y-119517857D02*
X167189285Y-119517857D01*
X167296428Y-119589285D01*
X167367857Y-119660714D01*
X167403571Y-119732142D01*
X167189285Y-118839285D02*
X167189285Y-118767857D01*
X167225000Y-118696428D01*
X167260714Y-118660714D01*
X167332142Y-118625000D01*
X167475000Y-118589285D01*
X167653571Y-118589285D01*
X167796428Y-118625000D01*
X167867857Y-118660714D01*
X167903571Y-118696428D01*
X167939285Y-118767857D01*
X167939285Y-118839285D01*
X167903571Y-118910714D01*
X167867857Y-118946428D01*
X167796428Y-118982142D01*
X167653571Y-119017857D01*
X167475000Y-119017857D01*
X167332142Y-118982142D01*
X167260714Y-118946428D01*
X167225000Y-118910714D01*
X167189285Y-118839285D01*
X167439285Y-118267857D02*
X167939285Y-118267857D01*
X167510714Y-118267857D02*
X167475000Y-118232142D01*
X167439285Y-118160714D01*
X167439285Y-118053571D01*
X167475000Y-117982142D01*
X167546428Y-117946428D01*
X167939285Y-117946428D01*
X167546428Y-117339285D02*
X167546428Y-117589285D01*
X167939285Y-117589285D02*
X167189285Y-117589285D01*
X167189285Y-117232142D01*
X176339285Y-119203571D02*
X176339285Y-119632142D01*
X176339285Y-119417857D02*
X175589285Y-119417857D01*
X175696428Y-119489285D01*
X175767857Y-119560714D01*
X175803571Y-119632142D01*
X175589285Y-118739285D02*
X175589285Y-118667857D01*
X175625000Y-118596428D01*
X175660714Y-118560714D01*
X175732142Y-118525000D01*
X175875000Y-118489285D01*
X176053571Y-118489285D01*
X176196428Y-118525000D01*
X176267857Y-118560714D01*
X176303571Y-118596428D01*
X176339285Y-118667857D01*
X176339285Y-118739285D01*
X176303571Y-118810714D01*
X176267857Y-118846428D01*
X176196428Y-118882142D01*
X176053571Y-118917857D01*
X175875000Y-118917857D01*
X175732142Y-118882142D01*
X175660714Y-118846428D01*
X175625000Y-118810714D01*
X175589285Y-118739285D01*
X175839285Y-118167857D02*
X176339285Y-118167857D01*
X175910714Y-118167857D02*
X175875000Y-118132142D01*
X175839285Y-118060714D01*
X175839285Y-117953571D01*
X175875000Y-117882142D01*
X175946428Y-117846428D01*
X176339285Y-117846428D01*
X175946428Y-117239285D02*
X175946428Y-117489285D01*
X176339285Y-117489285D02*
X175589285Y-117489285D01*
X175589285Y-117132142D01*
X173239285Y-129939285D02*
X172810714Y-129939285D01*
X173025000Y-129939285D02*
X173025000Y-129189285D01*
X172953571Y-129296428D01*
X172882142Y-129367857D01*
X172810714Y-129403571D01*
X173703571Y-129189285D02*
X173775000Y-129189285D01*
X173846428Y-129225000D01*
X173882142Y-129260714D01*
X173917857Y-129332142D01*
X173953571Y-129475000D01*
X173953571Y-129653571D01*
X173917857Y-129796428D01*
X173882142Y-129867857D01*
X173846428Y-129903571D01*
X173775000Y-129939285D01*
X173703571Y-129939285D01*
X173632142Y-129903571D01*
X173596428Y-129867857D01*
X173560714Y-129796428D01*
X173525000Y-129653571D01*
X173525000Y-129475000D01*
X173560714Y-129332142D01*
X173596428Y-129260714D01*
X173632142Y-129225000D01*
X173703571Y-129189285D01*
X174417857Y-129189285D02*
X174489285Y-129189285D01*
X174560714Y-129225000D01*
X174596428Y-129260714D01*
X174632142Y-129332142D01*
X174667857Y-129475000D01*
X174667857Y-129653571D01*
X174632142Y-129796428D01*
X174596428Y-129867857D01*
X174560714Y-129903571D01*
X174489285Y-129939285D01*
X174417857Y-129939285D01*
X174346428Y-129903571D01*
X174310714Y-129867857D01*
X174275000Y-129796428D01*
X174239285Y-129653571D01*
X174239285Y-129475000D01*
X174275000Y-129332142D01*
X174310714Y-129260714D01*
X174346428Y-129225000D01*
X174417857Y-129189285D01*
X175310714Y-129439285D02*
X175310714Y-129939285D01*
X174989285Y-129439285D02*
X174989285Y-129832142D01*
X175025000Y-129903571D01*
X175096428Y-129939285D01*
X175203571Y-129939285D01*
X175275000Y-129903571D01*
X175310714Y-129867857D01*
X175917857Y-129546428D02*
X175667857Y-129546428D01*
X175667857Y-129939285D02*
X175667857Y-129189285D01*
X176025000Y-129189285D01*
X165760714Y-135103571D02*
X165725000Y-135067857D01*
X165689285Y-134996428D01*
X165689285Y-134817857D01*
X165725000Y-134746428D01*
X165760714Y-134710714D01*
X165832142Y-134675000D01*
X165903571Y-134675000D01*
X166010714Y-134710714D01*
X166439285Y-135139285D01*
X166439285Y-134675000D01*
X165939285Y-134032142D02*
X166439285Y-134032142D01*
X165653571Y-134210714D02*
X166189285Y-134389285D01*
X166189285Y-133925000D01*
X165689285Y-133496428D02*
X165689285Y-133425000D01*
X165725000Y-133353571D01*
X165760714Y-133317857D01*
X165832142Y-133282142D01*
X165975000Y-133246428D01*
X166153571Y-133246428D01*
X166296428Y-133282142D01*
X166367857Y-133317857D01*
X166403571Y-133353571D01*
X166439285Y-133425000D01*
X166439285Y-133496428D01*
X166403571Y-133567857D01*
X166367857Y-133603571D01*
X166296428Y-133639285D01*
X166153571Y-133675000D01*
X165975000Y-133675000D01*
X165832142Y-133639285D01*
X165760714Y-133603571D01*
X165725000Y-133567857D01*
X165689285Y-133496428D01*
X166439285Y-132496428D02*
X166082142Y-132746428D01*
X166439285Y-132925000D02*
X165689285Y-132925000D01*
X165689285Y-132639285D01*
X165725000Y-132567857D01*
X165760714Y-132532142D01*
X165832142Y-132496428D01*
X165939285Y-132496428D01*
X166010714Y-132532142D01*
X166046428Y-132567857D01*
X166082142Y-132639285D01*
X166082142Y-132925000D01*
X166439285Y-131632142D02*
X166439285Y-131489285D01*
X166403571Y-131417857D01*
X166367857Y-131382142D01*
X166260714Y-131310714D01*
X166117857Y-131275000D01*
X165832142Y-131275000D01*
X165760714Y-131310714D01*
X165725000Y-131346428D01*
X165689285Y-131417857D01*
X165689285Y-131560714D01*
X165725000Y-131632142D01*
X165760714Y-131667857D01*
X165832142Y-131703571D01*
X166010714Y-131703571D01*
X166082142Y-131667857D01*
X166117857Y-131632142D01*
X166153571Y-131560714D01*
X166153571Y-131417857D01*
X166117857Y-131346428D01*
X166082142Y-131310714D01*
X166010714Y-131275000D01*
X166439285Y-130560714D02*
X166439285Y-130989285D01*
X166439285Y-130775000D02*
X165689285Y-130775000D01*
X165796428Y-130846428D01*
X165867857Y-130917857D01*
X165903571Y-130989285D01*
X165689285Y-130096428D02*
X165689285Y-130025000D01*
X165725000Y-129953571D01*
X165760714Y-129917857D01*
X165832142Y-129882142D01*
X165975000Y-129846428D01*
X166153571Y-129846428D01*
X166296428Y-129882142D01*
X166367857Y-129917857D01*
X166403571Y-129953571D01*
X166439285Y-130025000D01*
X166439285Y-130096428D01*
X166403571Y-130167857D01*
X166367857Y-130203571D01*
X166296428Y-130239285D01*
X166153571Y-130275000D01*
X165975000Y-130275000D01*
X165832142Y-130239285D01*
X165760714Y-130203571D01*
X165725000Y-130167857D01*
X165689285Y-130096428D01*
X166439285Y-129096428D02*
X166082142Y-129346428D01*
X166439285Y-129525000D02*
X165689285Y-129525000D01*
X165689285Y-129239285D01*
X165725000Y-129167857D01*
X165760714Y-129132142D01*
X165832142Y-129096428D01*
X165939285Y-129096428D01*
X166010714Y-129132142D01*
X166046428Y-129167857D01*
X166082142Y-129239285D01*
X166082142Y-129525000D01*
X169028571Y-138839285D02*
X168671428Y-138839285D01*
X168671428Y-138089285D01*
X169278571Y-138839285D02*
X169278571Y-138089285D01*
X169528571Y-138625000D01*
X169778571Y-138089285D01*
X169778571Y-138839285D01*
X170528571Y-138839285D02*
X170100000Y-138839285D01*
X170314285Y-138839285D02*
X170314285Y-138089285D01*
X170242857Y-138196428D01*
X170171428Y-138267857D01*
X170100000Y-138303571D01*
X171242857Y-138839285D02*
X170814285Y-138839285D01*
X171028571Y-138839285D02*
X171028571Y-138089285D01*
X170957142Y-138196428D01*
X170885714Y-138267857D01*
X170814285Y-138303571D01*
X171957142Y-138839285D02*
X171528571Y-138839285D01*
X171742857Y-138839285D02*
X171742857Y-138089285D01*
X171671428Y-138196428D01*
X171600000Y-138267857D01*
X171528571Y-138303571D01*
X172207142Y-138089285D02*
X172707142Y-138089285D01*
X172385714Y-138839285D01*
X172992857Y-138553571D02*
X173564285Y-138553571D01*
X173885714Y-138625000D02*
X174242857Y-138625000D01*
X173814285Y-138839285D02*
X174064285Y-138089285D01*
X174314285Y-138839285D01*
X174564285Y-138839285D02*
X174564285Y-138089285D01*
X174742857Y-138089285D01*
X174850000Y-138125000D01*
X174921428Y-138196428D01*
X174957142Y-138267857D01*
X174992857Y-138410714D01*
X174992857Y-138517857D01*
X174957142Y-138660714D01*
X174921428Y-138732142D01*
X174850000Y-138803571D01*
X174742857Y-138839285D01*
X174564285Y-138839285D01*
X175528571Y-138089285D02*
X175528571Y-138625000D01*
X175492857Y-138732142D01*
X175421428Y-138803571D01*
X175314285Y-138839285D01*
X175242857Y-138839285D01*
X142150000Y-134960714D02*
X142185714Y-134925000D01*
X142257142Y-134889285D01*
X142435714Y-134889285D01*
X142507142Y-134925000D01*
X142542857Y-134960714D01*
X142578571Y-135032142D01*
X142578571Y-135103571D01*
X142542857Y-135210714D01*
X142114285Y-135639285D01*
X142578571Y-135639285D01*
X143257142Y-134889285D02*
X142900000Y-134889285D01*
X142864285Y-135246428D01*
X142900000Y-135210714D01*
X142971428Y-135175000D01*
X143150000Y-135175000D01*
X143221428Y-135210714D01*
X143257142Y-135246428D01*
X143292857Y-135317857D01*
X143292857Y-135496428D01*
X143257142Y-135567857D01*
X143221428Y-135603571D01*
X143150000Y-135639285D01*
X142971428Y-135639285D01*
X142900000Y-135603571D01*
X142864285Y-135567857D01*
X143757142Y-134889285D02*
X143828571Y-134889285D01*
X143900000Y-134925000D01*
X143935714Y-134960714D01*
X143971428Y-135032142D01*
X144007142Y-135175000D01*
X144007142Y-135353571D01*
X143971428Y-135496428D01*
X143935714Y-135567857D01*
X143900000Y-135603571D01*
X143828571Y-135639285D01*
X143757142Y-135639285D01*
X143685714Y-135603571D01*
X143650000Y-135567857D01*
X143614285Y-135496428D01*
X143578571Y-135353571D01*
X143578571Y-135175000D01*
X143614285Y-135032142D01*
X143650000Y-134960714D01*
X143685714Y-134925000D01*
X143757142Y-134889285D01*
X144328571Y-135639285D02*
X144328571Y-135139285D01*
X144328571Y-135210714D02*
X144364285Y-135175000D01*
X144435714Y-135139285D01*
X144542857Y-135139285D01*
X144614285Y-135175000D01*
X144650000Y-135246428D01*
X144650000Y-135639285D01*
X144650000Y-135246428D02*
X144685714Y-135175000D01*
X144757142Y-135139285D01*
X144864285Y-135139285D01*
X144935714Y-135175000D01*
X144971428Y-135246428D01*
X144971428Y-135639285D01*
X145292857Y-135425000D02*
X145650000Y-135425000D01*
X145221428Y-135639285D02*
X145471428Y-134889285D01*
X145721428Y-135639285D01*
X161046428Y-99339285D02*
X160617857Y-99339285D01*
X160832142Y-99339285D02*
X160832142Y-98589285D01*
X160760714Y-98696428D01*
X160689285Y-98767857D01*
X160617857Y-98803571D01*
X161510714Y-98589285D02*
X161582142Y-98589285D01*
X161653571Y-98625000D01*
X161689285Y-98660714D01*
X161725000Y-98732142D01*
X161760714Y-98875000D01*
X161760714Y-99053571D01*
X161725000Y-99196428D01*
X161689285Y-99267857D01*
X161653571Y-99303571D01*
X161582142Y-99339285D01*
X161510714Y-99339285D01*
X161439285Y-99303571D01*
X161403571Y-99267857D01*
X161367857Y-99196428D01*
X161332142Y-99053571D01*
X161332142Y-98875000D01*
X161367857Y-98732142D01*
X161403571Y-98660714D01*
X161439285Y-98625000D01*
X161510714Y-98589285D01*
X162225000Y-98589285D02*
X162296428Y-98589285D01*
X162367857Y-98625000D01*
X162403571Y-98660714D01*
X162439285Y-98732142D01*
X162475000Y-98875000D01*
X162475000Y-99053571D01*
X162439285Y-99196428D01*
X162403571Y-99267857D01*
X162367857Y-99303571D01*
X162296428Y-99339285D01*
X162225000Y-99339285D01*
X162153571Y-99303571D01*
X162117857Y-99267857D01*
X162082142Y-99196428D01*
X162046428Y-99053571D01*
X162046428Y-98875000D01*
X162082142Y-98732142D01*
X162117857Y-98660714D01*
X162153571Y-98625000D01*
X162225000Y-98589285D01*
X163225000Y-99339285D02*
X162975000Y-98982142D01*
X162796428Y-99339285D02*
X162796428Y-98589285D01*
X163082142Y-98589285D01*
X163153571Y-98625000D01*
X163189285Y-98660714D01*
X163225000Y-98732142D01*
X163225000Y-98839285D01*
X163189285Y-98910714D01*
X163153571Y-98946428D01*
X163082142Y-98982142D01*
X162796428Y-98982142D01*
X164010714Y-98982142D02*
X163975000Y-98946428D01*
X163903571Y-98910714D01*
X163832142Y-98910714D01*
X163760714Y-98946428D01*
X163725000Y-98982142D01*
X163689285Y-99053571D01*
X163689285Y-99125000D01*
X163725000Y-99196428D01*
X163760714Y-99232142D01*
X163832142Y-99267857D01*
X163903571Y-99267857D01*
X163975000Y-99232142D01*
X164010714Y-99196428D01*
X164010714Y-98910714D02*
X164010714Y-99196428D01*
X164046428Y-99232142D01*
X164082142Y-99232142D01*
X164153571Y-99196428D01*
X164189285Y-99125000D01*
X164189285Y-98946428D01*
X164117857Y-98839285D01*
X164010714Y-98767857D01*
X163867857Y-98732142D01*
X163725000Y-98767857D01*
X163617857Y-98839285D01*
X163546428Y-98946428D01*
X163510714Y-99089285D01*
X163546428Y-99232142D01*
X163617857Y-99339285D01*
X163725000Y-99410714D01*
X163867857Y-99446428D01*
X164010714Y-99410714D01*
X164117857Y-99339285D01*
X164903571Y-99339285D02*
X164475000Y-99339285D01*
X164689285Y-99339285D02*
X164689285Y-98589285D01*
X164617857Y-98696428D01*
X164546428Y-98767857D01*
X164475000Y-98803571D01*
X165367857Y-98589285D02*
X165439285Y-98589285D01*
X165510714Y-98625000D01*
X165546428Y-98660714D01*
X165582142Y-98732142D01*
X165617857Y-98875000D01*
X165617857Y-99053571D01*
X165582142Y-99196428D01*
X165546428Y-99267857D01*
X165510714Y-99303571D01*
X165439285Y-99339285D01*
X165367857Y-99339285D01*
X165296428Y-99303571D01*
X165260714Y-99267857D01*
X165225000Y-99196428D01*
X165189285Y-99053571D01*
X165189285Y-98875000D01*
X165225000Y-98732142D01*
X165260714Y-98660714D01*
X165296428Y-98625000D01*
X165367857Y-98589285D01*
X166082142Y-98589285D02*
X166153571Y-98589285D01*
X166225000Y-98625000D01*
X166260714Y-98660714D01*
X166296428Y-98732142D01*
X166332142Y-98875000D01*
X166332142Y-99053571D01*
X166296428Y-99196428D01*
X166260714Y-99267857D01*
X166225000Y-99303571D01*
X166153571Y-99339285D01*
X166082142Y-99339285D01*
X166010714Y-99303571D01*
X165975000Y-99267857D01*
X165939285Y-99196428D01*
X165903571Y-99053571D01*
X165903571Y-98875000D01*
X165939285Y-98732142D01*
X165975000Y-98660714D01*
X166010714Y-98625000D01*
X166082142Y-98589285D01*
X166653571Y-99339285D02*
X166653571Y-98589285D01*
X166903571Y-99125000D01*
X167153571Y-98589285D01*
X167153571Y-99339285D01*
X167510714Y-99339285D02*
X167510714Y-98589285D01*
X167510714Y-98946428D02*
X167939285Y-98946428D01*
X167939285Y-99339285D02*
X167939285Y-98589285D01*
X168225000Y-98839285D02*
X168617857Y-98839285D01*
X168225000Y-99339285D01*
X168617857Y-99339285D01*
X158746428Y-116839285D02*
X158317857Y-116839285D01*
X158532142Y-116839285D02*
X158532142Y-116089285D01*
X158460714Y-116196428D01*
X158389285Y-116267857D01*
X158317857Y-116303571D01*
X159210714Y-116089285D02*
X159282142Y-116089285D01*
X159353571Y-116125000D01*
X159389285Y-116160714D01*
X159425000Y-116232142D01*
X159460714Y-116375000D01*
X159460714Y-116553571D01*
X159425000Y-116696428D01*
X159389285Y-116767857D01*
X159353571Y-116803571D01*
X159282142Y-116839285D01*
X159210714Y-116839285D01*
X159139285Y-116803571D01*
X159103571Y-116767857D01*
X159067857Y-116696428D01*
X159032142Y-116553571D01*
X159032142Y-116375000D01*
X159067857Y-116232142D01*
X159103571Y-116160714D01*
X159139285Y-116125000D01*
X159210714Y-116089285D01*
X159925000Y-116089285D02*
X159996428Y-116089285D01*
X160067857Y-116125000D01*
X160103571Y-116160714D01*
X160139285Y-116232142D01*
X160175000Y-116375000D01*
X160175000Y-116553571D01*
X160139285Y-116696428D01*
X160103571Y-116767857D01*
X160067857Y-116803571D01*
X159996428Y-116839285D01*
X159925000Y-116839285D01*
X159853571Y-116803571D01*
X159817857Y-116767857D01*
X159782142Y-116696428D01*
X159746428Y-116553571D01*
X159746428Y-116375000D01*
X159782142Y-116232142D01*
X159817857Y-116160714D01*
X159853571Y-116125000D01*
X159925000Y-116089285D01*
X160925000Y-116839285D02*
X160675000Y-116482142D01*
X160496428Y-116839285D02*
X160496428Y-116089285D01*
X160782142Y-116089285D01*
X160853571Y-116125000D01*
X160889285Y-116160714D01*
X160925000Y-116232142D01*
X160925000Y-116339285D01*
X160889285Y-116410714D01*
X160853571Y-116446428D01*
X160782142Y-116482142D01*
X160496428Y-116482142D01*
X161710714Y-116482142D02*
X161675000Y-116446428D01*
X161603571Y-116410714D01*
X161532142Y-116410714D01*
X161460714Y-116446428D01*
X161425000Y-116482142D01*
X161389285Y-116553571D01*
X161389285Y-116625000D01*
X161425000Y-116696428D01*
X161460714Y-116732142D01*
X161532142Y-116767857D01*
X161603571Y-116767857D01*
X161675000Y-116732142D01*
X161710714Y-116696428D01*
X161710714Y-116410714D02*
X161710714Y-116696428D01*
X161746428Y-116732142D01*
X161782142Y-116732142D01*
X161853571Y-116696428D01*
X161889285Y-116625000D01*
X161889285Y-116446428D01*
X161817857Y-116339285D01*
X161710714Y-116267857D01*
X161567857Y-116232142D01*
X161425000Y-116267857D01*
X161317857Y-116339285D01*
X161246428Y-116446428D01*
X161210714Y-116589285D01*
X161246428Y-116732142D01*
X161317857Y-116839285D01*
X161425000Y-116910714D01*
X161567857Y-116946428D01*
X161710714Y-116910714D01*
X161817857Y-116839285D01*
X162603571Y-116839285D02*
X162175000Y-116839285D01*
X162389285Y-116839285D02*
X162389285Y-116089285D01*
X162317857Y-116196428D01*
X162246428Y-116267857D01*
X162175000Y-116303571D01*
X163067857Y-116089285D02*
X163139285Y-116089285D01*
X163210714Y-116125000D01*
X163246428Y-116160714D01*
X163282142Y-116232142D01*
X163317857Y-116375000D01*
X163317857Y-116553571D01*
X163282142Y-116696428D01*
X163246428Y-116767857D01*
X163210714Y-116803571D01*
X163139285Y-116839285D01*
X163067857Y-116839285D01*
X162996428Y-116803571D01*
X162960714Y-116767857D01*
X162925000Y-116696428D01*
X162889285Y-116553571D01*
X162889285Y-116375000D01*
X162925000Y-116232142D01*
X162960714Y-116160714D01*
X162996428Y-116125000D01*
X163067857Y-116089285D01*
X163782142Y-116089285D02*
X163853571Y-116089285D01*
X163925000Y-116125000D01*
X163960714Y-116160714D01*
X163996428Y-116232142D01*
X164032142Y-116375000D01*
X164032142Y-116553571D01*
X163996428Y-116696428D01*
X163960714Y-116767857D01*
X163925000Y-116803571D01*
X163853571Y-116839285D01*
X163782142Y-116839285D01*
X163710714Y-116803571D01*
X163675000Y-116767857D01*
X163639285Y-116696428D01*
X163603571Y-116553571D01*
X163603571Y-116375000D01*
X163639285Y-116232142D01*
X163675000Y-116160714D01*
X163710714Y-116125000D01*
X163782142Y-116089285D01*
X164353571Y-116839285D02*
X164353571Y-116089285D01*
X164603571Y-116625000D01*
X164853571Y-116089285D01*
X164853571Y-116839285D01*
X165210714Y-116839285D02*
X165210714Y-116089285D01*
X165210714Y-116446428D02*
X165639285Y-116446428D01*
X165639285Y-116839285D02*
X165639285Y-116089285D01*
X165925000Y-116339285D02*
X166317857Y-116339285D01*
X165925000Y-116839285D01*
X166317857Y-116839285D01*
X143060714Y-100903571D02*
X143025000Y-100975000D01*
X142989285Y-101010714D01*
X142917857Y-101046428D01*
X142882142Y-101046428D01*
X142810714Y-101010714D01*
X142775000Y-100975000D01*
X142739285Y-100903571D01*
X142739285Y-100760714D01*
X142775000Y-100689285D01*
X142810714Y-100653571D01*
X142882142Y-100617857D01*
X142917857Y-100617857D01*
X142989285Y-100653571D01*
X143025000Y-100689285D01*
X143060714Y-100760714D01*
X143060714Y-100903571D01*
X143096428Y-100975000D01*
X143132142Y-101010714D01*
X143203571Y-101046428D01*
X143346428Y-101046428D01*
X143417857Y-101010714D01*
X143453571Y-100975000D01*
X143489285Y-100903571D01*
X143489285Y-100760714D01*
X143453571Y-100689285D01*
X143417857Y-100653571D01*
X143346428Y-100617857D01*
X143203571Y-100617857D01*
X143132142Y-100653571D01*
X143096428Y-100689285D01*
X143060714Y-100760714D01*
X142810714Y-100332142D02*
X142775000Y-100296428D01*
X142739285Y-100225000D01*
X142739285Y-100046428D01*
X142775000Y-99975000D01*
X142810714Y-99939285D01*
X142882142Y-99903571D01*
X142953571Y-99903571D01*
X143060714Y-99939285D01*
X143489285Y-100367857D01*
X143489285Y-99903571D01*
X143489285Y-99153571D02*
X143132142Y-99403571D01*
X143489285Y-99582142D02*
X142739285Y-99582142D01*
X142739285Y-99296428D01*
X142775000Y-99225000D01*
X142810714Y-99189285D01*
X142882142Y-99153571D01*
X142989285Y-99153571D01*
X143060714Y-99189285D01*
X143096428Y-99225000D01*
X143132142Y-99296428D01*
X143132142Y-99582142D01*
D14*
X152647619Y-98928571D02*
X152790476Y-98976190D01*
X152838095Y-99023809D01*
X152885714Y-99119047D01*
X152885714Y-99261904D01*
X152838095Y-99357142D01*
X152790476Y-99404761D01*
X152695238Y-99452380D01*
X152314285Y-99452380D01*
X152314285Y-98452380D01*
X152647619Y-98452380D01*
X152742857Y-98500000D01*
X152790476Y-98547619D01*
X152838095Y-98642857D01*
X152838095Y-98738095D01*
X152790476Y-98833333D01*
X152742857Y-98880952D01*
X152647619Y-98928571D01*
X152314285Y-98928571D01*
X153885714Y-99452380D02*
X153552380Y-98976190D01*
X153314285Y-99452380D02*
X153314285Y-98452380D01*
X153695238Y-98452380D01*
X153790476Y-98500000D01*
X153838095Y-98547619D01*
X153885714Y-98642857D01*
X153885714Y-98785714D01*
X153838095Y-98880952D01*
X153790476Y-98928571D01*
X153695238Y-98976190D01*
X153314285Y-98976190D01*
X154314285Y-99452380D02*
X154314285Y-98452380D01*
X154552380Y-98452380D01*
X154695238Y-98500000D01*
X154790476Y-98595238D01*
X154838095Y-98690476D01*
X154885714Y-98880952D01*
X154885714Y-99023809D01*
X154838095Y-99214285D01*
X154790476Y-99309523D01*
X154695238Y-99404761D01*
X154552380Y-99452380D01*
X154314285Y-99452380D01*
X155314285Y-99452380D02*
X155314285Y-98452380D01*
X155885714Y-99452380D01*
X155885714Y-98452380D01*
D13*
X173096428Y-128239285D02*
X172667857Y-128239285D01*
X172882142Y-128239285D02*
X172882142Y-127489285D01*
X172810714Y-127596428D01*
X172739285Y-127667857D01*
X172667857Y-127703571D01*
X173560714Y-127489285D02*
X173632142Y-127489285D01*
X173703571Y-127525000D01*
X173739285Y-127560714D01*
X173775000Y-127632142D01*
X173810714Y-127775000D01*
X173810714Y-127953571D01*
X173775000Y-128096428D01*
X173739285Y-128167857D01*
X173703571Y-128203571D01*
X173632142Y-128239285D01*
X173560714Y-128239285D01*
X173489285Y-128203571D01*
X173453571Y-128167857D01*
X173417857Y-128096428D01*
X173382142Y-127953571D01*
X173382142Y-127775000D01*
X173417857Y-127632142D01*
X173453571Y-127560714D01*
X173489285Y-127525000D01*
X173560714Y-127489285D01*
X174453571Y-127739285D02*
X174453571Y-128239285D01*
X174132142Y-127739285D02*
X174132142Y-128132142D01*
X174167857Y-128203571D01*
X174239285Y-128239285D01*
X174346428Y-128239285D01*
X174417857Y-128203571D01*
X174453571Y-128167857D01*
X175060714Y-127846428D02*
X174810714Y-127846428D01*
X174810714Y-128239285D02*
X174810714Y-127489285D01*
X175167857Y-127489285D01*
X168896428Y-128239285D02*
X168467857Y-128239285D01*
X168682142Y-128239285D02*
X168682142Y-127489285D01*
X168610714Y-127596428D01*
X168539285Y-127667857D01*
X168467857Y-127703571D01*
X169360714Y-127489285D02*
X169432142Y-127489285D01*
X169503571Y-127525000D01*
X169539285Y-127560714D01*
X169575000Y-127632142D01*
X169610714Y-127775000D01*
X169610714Y-127953571D01*
X169575000Y-128096428D01*
X169539285Y-128167857D01*
X169503571Y-128203571D01*
X169432142Y-128239285D01*
X169360714Y-128239285D01*
X169289285Y-128203571D01*
X169253571Y-128167857D01*
X169217857Y-128096428D01*
X169182142Y-127953571D01*
X169182142Y-127775000D01*
X169217857Y-127632142D01*
X169253571Y-127560714D01*
X169289285Y-127525000D01*
X169360714Y-127489285D01*
X170253571Y-127739285D02*
X170253571Y-128239285D01*
X169932142Y-127739285D02*
X169932142Y-128132142D01*
X169967857Y-128203571D01*
X170039285Y-128239285D01*
X170146428Y-128239285D01*
X170217857Y-128203571D01*
X170253571Y-128167857D01*
X170860714Y-127846428D02*
X170610714Y-127846428D01*
X170610714Y-128239285D02*
X170610714Y-127489285D01*
X170967857Y-127489285D01*
X146596428Y-135639285D02*
X146167857Y-135639285D01*
X146382142Y-135639285D02*
X146382142Y-134889285D01*
X146310714Y-134996428D01*
X146239285Y-135067857D01*
X146167857Y-135103571D01*
X147060714Y-134889285D02*
X147132142Y-134889285D01*
X147203571Y-134925000D01*
X147239285Y-134960714D01*
X147275000Y-135032142D01*
X147310714Y-135175000D01*
X147310714Y-135353571D01*
X147275000Y-135496428D01*
X147239285Y-135567857D01*
X147203571Y-135603571D01*
X147132142Y-135639285D01*
X147060714Y-135639285D01*
X146989285Y-135603571D01*
X146953571Y-135567857D01*
X146917857Y-135496428D01*
X146882142Y-135353571D01*
X146882142Y-135175000D01*
X146917857Y-135032142D01*
X146953571Y-134960714D01*
X146989285Y-134925000D01*
X147060714Y-134889285D01*
X147953571Y-135139285D02*
X147953571Y-135639285D01*
X147632142Y-135139285D02*
X147632142Y-135532142D01*
X147667857Y-135603571D01*
X147739285Y-135639285D01*
X147846428Y-135639285D01*
X147917857Y-135603571D01*
X147953571Y-135567857D01*
X148560714Y-135246428D02*
X148310714Y-135246428D01*
X148310714Y-135639285D02*
X148310714Y-134889285D01*
X148667857Y-134889285D01*
M02*
