M48
; DRILL file {KiCad (5.1.5)-3} date 14/03/2020 15:21:51
; FORMAT={-:-/ absolute / inch / decimal}
; #@! TF.CreationDate,2020-03-14T15:21:51+00:00
; #@! TF.GenerationSoftware,Kicad,Pcbnew,(5.1.5)-3
; #@! TF.FileFunction,Plated,1,2,PTH
FMAT,2
INCH
T1C0.0157
T2C0.0354
T3C0.0394
%
G90
G05
T1
X5.0394Y-5.126
X5.0787Y-5.126
X5.1181Y-5.126
X5.1575Y-5.126
X5.1969Y-5.126
X5.2165Y-5.2756
X5.2224Y-5.5886
X5.2362Y-5.126
X5.2618Y-5.5886
X5.2756Y-5.126
X5.3012Y-5.5886
X5.315Y-5.126
X5.3406Y-5.5886
X5.3543Y-5.126
X5.3799Y-5.5886
X5.3937Y-5.126
X5.4193Y-5.5886
X5.4331Y-5.126
X5.4587Y-5.5886
X5.4724Y-5.126
X5.498Y-5.5886
X5.5118Y-5.126
X5.5512Y-5.126
X5.5787Y-5.4291
X5.5906Y-5.126
X5.6299Y-5.126
X5.6555Y-5.5374
X5.6693Y-5.126
X5.7087Y-5.126
X5.7323Y-5.3819
X5.7343Y-5.5886
X5.7362Y-5.4291
X5.748Y-5.126
X5.7736Y-5.5886
X5.7874Y-5.126
X5.813Y-5.5886
X5.8268Y-5.126
X5.8524Y-5.5886
X5.8661Y-5.126
X5.9016Y-5.4331
X5.9055Y-5.126
X5.9055Y-5.3465
X5.9449Y-5.126
X5.9843Y-5.126
X6.0236Y-5.0866
X6.0472Y-4.2992
X6.0472Y-5.0315
X6.0591Y-5.185
X6.0984Y-5.1496
X6.1024Y-4.3386
X6.1063Y-5.1969
X6.1181Y-4.2283
X6.1181Y-5.0551
X6.1393Y-5.1274
X6.1417Y-4.378
X6.1417Y-4.4173
X6.1417Y-4.4567
X6.1417Y-4.4961
X6.1417Y-4.5354
X6.1417Y-4.5748
X6.1417Y-4.6142
X6.1535Y-5.0315
X6.1614Y-4.2598
X6.1695Y-5.1541
X6.1811Y-5.0827
X6.2157Y-5.1074
X6.2165Y-5.2795
X6.225Y-4.3235
X6.251Y-5.0871
X6.2717Y-4.3307
X6.2913Y-4.3701
X6.3386Y-4.3425
X6.3425Y-5.1142
X6.3723Y-4.9197
X6.4724Y-4.3661
X6.4764Y-4.1614
X6.4882Y-4.9291
X6.5669Y-4.5039
X6.5787Y-4.1929
X6.5984Y-5.1024
X6.6063Y-4.689
X6.6416Y-4.8144
X6.6614Y-4.9331
X6.689Y-4.8976
X6.7244Y-4.2283
X6.7244Y-4.4016
X6.7637Y-4.6995
X6.7638Y-4.9488
X6.7717Y-3.9803
X6.7756Y-4.3937
X6.8228Y-4.1063
X6.8386Y-4.8976
X6.8661Y-4.9331
X6.8701Y-3.9803
X6.8859Y-4.8144
X6.9213Y-4.689
T2
X4.9567Y-5.1614
X4.9567Y-5.2614
T3
X5.8331Y-3.9449
X5.9331Y-3.9449
T0
M30
