G04 #@! TF.GenerationSoftware,KiCad,Pcbnew,(5.1.5)-3*
G04 #@! TF.CreationDate,2020-03-08T21:12:26+00:00*
G04 #@! TF.ProjectId,Hat,4861742e-6b69-4636-9164-5f7063625858,A*
G04 #@! TF.SameCoordinates,Original*
G04 #@! TF.FileFunction,Legend,Top*
G04 #@! TF.FilePolarity,Positive*
%FSLAX46Y46*%
G04 Gerber Fmt 4.6, Leading zero omitted, Abs format (unit mm)*
G04 Created by KiCad (PCBNEW (5.1.5)-3) date 2020-03-08 21:12:26*
%MOMM*%
%LPD*%
G04 APERTURE LIST*
%ADD10C,0.100000*%
%ADD11C,0.150000*%
%ADD12C,0.300000*%
%ADD13C,0.400000*%
%ADD14C,0.250000*%
%ADD15C,0.153000*%
%ADD16C,0.120000*%
%ADD17C,0.127000*%
%ADD18C,0.152400*%
%ADD19C,0.200000*%
G04 APERTURE END LIST*
D10*
D11*
X177002200Y-166007200D02*
X177002200Y-198007200D01*
X285002200Y-198007200D01*
X285002200Y-166007200D01*
X177002200Y-166007200D01*
D10*
D11*
X10000000Y-10000000D02*
X10000000Y-200007200D01*
X287002200Y-200007200D01*
X287002200Y-10000000D01*
X10000000Y-10000000D01*
D10*
D11*
X12000000Y-12000000D02*
X12000000Y-198007200D01*
X285002200Y-198007200D01*
X285002200Y-12000000D01*
X12000000Y-12000000D01*
D10*
D11*
X60000000Y-12000000D02*
X60000000Y-10000000D01*
D10*
D11*
X110000000Y-12000000D02*
X110000000Y-10000000D01*
D10*
D11*
X160000000Y-12000000D02*
X160000000Y-10000000D01*
D10*
D11*
X210000000Y-12000000D02*
X210000000Y-10000000D01*
D10*
D11*
X260000000Y-12000000D02*
X260000000Y-10000000D01*
D10*
D11*
X36065476Y-11588095D02*
X35322619Y-11588095D01*
X35694047Y-11588095D02*
X35694047Y-10288095D01*
X35570238Y-10473809D01*
X35446428Y-10597619D01*
X35322619Y-10659523D01*
D10*
D11*
X85322619Y-10411904D02*
X85384523Y-10350000D01*
X85508333Y-10288095D01*
X85817857Y-10288095D01*
X85941666Y-10350000D01*
X86003571Y-10411904D01*
X86065476Y-10535714D01*
X86065476Y-10659523D01*
X86003571Y-10845238D01*
X85260714Y-11588095D01*
X86065476Y-11588095D01*
D10*
D11*
X135260714Y-10288095D02*
X136065476Y-10288095D01*
X135632142Y-10783333D01*
X135817857Y-10783333D01*
X135941666Y-10845238D01*
X136003571Y-10907142D01*
X136065476Y-11030952D01*
X136065476Y-11340476D01*
X136003571Y-11464285D01*
X135941666Y-11526190D01*
X135817857Y-11588095D01*
X135446428Y-11588095D01*
X135322619Y-11526190D01*
X135260714Y-11464285D01*
D10*
D11*
X185941666Y-10721428D02*
X185941666Y-11588095D01*
X185632142Y-10226190D02*
X185322619Y-11154761D01*
X186127380Y-11154761D01*
D10*
D11*
X236003571Y-10288095D02*
X235384523Y-10288095D01*
X235322619Y-10907142D01*
X235384523Y-10845238D01*
X235508333Y-10783333D01*
X235817857Y-10783333D01*
X235941666Y-10845238D01*
X236003571Y-10907142D01*
X236065476Y-11030952D01*
X236065476Y-11340476D01*
X236003571Y-11464285D01*
X235941666Y-11526190D01*
X235817857Y-11588095D01*
X235508333Y-11588095D01*
X235384523Y-11526190D01*
X235322619Y-11464285D01*
D10*
D11*
X285941666Y-10288095D02*
X285694047Y-10288095D01*
X285570238Y-10350000D01*
X285508333Y-10411904D01*
X285384523Y-10597619D01*
X285322619Y-10845238D01*
X285322619Y-11340476D01*
X285384523Y-11464285D01*
X285446428Y-11526190D01*
X285570238Y-11588095D01*
X285817857Y-11588095D01*
X285941666Y-11526190D01*
X286003571Y-11464285D01*
X286065476Y-11340476D01*
X286065476Y-11030952D01*
X286003571Y-10907142D01*
X285941666Y-10845238D01*
X285817857Y-10783333D01*
X285570238Y-10783333D01*
X285446428Y-10845238D01*
X285384523Y-10907142D01*
X285322619Y-11030952D01*
D10*
D11*
X60000000Y-198007200D02*
X60000000Y-200007200D01*
D10*
D11*
X110000000Y-198007200D02*
X110000000Y-200007200D01*
D10*
D11*
X160000000Y-198007200D02*
X160000000Y-200007200D01*
D10*
D11*
X210000000Y-198007200D02*
X210000000Y-200007200D01*
D10*
D11*
X260000000Y-198007200D02*
X260000000Y-200007200D01*
D10*
D11*
X36065476Y-199595295D02*
X35322619Y-199595295D01*
X35694047Y-199595295D02*
X35694047Y-198295295D01*
X35570238Y-198481009D01*
X35446428Y-198604819D01*
X35322619Y-198666723D01*
D10*
D11*
X85322619Y-198419104D02*
X85384523Y-198357200D01*
X85508333Y-198295295D01*
X85817857Y-198295295D01*
X85941666Y-198357200D01*
X86003571Y-198419104D01*
X86065476Y-198542914D01*
X86065476Y-198666723D01*
X86003571Y-198852438D01*
X85260714Y-199595295D01*
X86065476Y-199595295D01*
D10*
D11*
X135260714Y-198295295D02*
X136065476Y-198295295D01*
X135632142Y-198790533D01*
X135817857Y-198790533D01*
X135941666Y-198852438D01*
X136003571Y-198914342D01*
X136065476Y-199038152D01*
X136065476Y-199347676D01*
X136003571Y-199471485D01*
X135941666Y-199533390D01*
X135817857Y-199595295D01*
X135446428Y-199595295D01*
X135322619Y-199533390D01*
X135260714Y-199471485D01*
D10*
D11*
X185941666Y-198728628D02*
X185941666Y-199595295D01*
X185632142Y-198233390D02*
X185322619Y-199161961D01*
X186127380Y-199161961D01*
D10*
D11*
X236003571Y-198295295D02*
X235384523Y-198295295D01*
X235322619Y-198914342D01*
X235384523Y-198852438D01*
X235508333Y-198790533D01*
X235817857Y-198790533D01*
X235941666Y-198852438D01*
X236003571Y-198914342D01*
X236065476Y-199038152D01*
X236065476Y-199347676D01*
X236003571Y-199471485D01*
X235941666Y-199533390D01*
X235817857Y-199595295D01*
X235508333Y-199595295D01*
X235384523Y-199533390D01*
X235322619Y-199471485D01*
D10*
D11*
X285941666Y-198295295D02*
X285694047Y-198295295D01*
X285570238Y-198357200D01*
X285508333Y-198419104D01*
X285384523Y-198604819D01*
X285322619Y-198852438D01*
X285322619Y-199347676D01*
X285384523Y-199471485D01*
X285446428Y-199533390D01*
X285570238Y-199595295D01*
X285817857Y-199595295D01*
X285941666Y-199533390D01*
X286003571Y-199471485D01*
X286065476Y-199347676D01*
X286065476Y-199038152D01*
X286003571Y-198914342D01*
X285941666Y-198852438D01*
X285817857Y-198790533D01*
X285570238Y-198790533D01*
X285446428Y-198852438D01*
X285384523Y-198914342D01*
X285322619Y-199038152D01*
D10*
D11*
X10000000Y-60000000D02*
X12000000Y-60000000D01*
D10*
D11*
X10000000Y-110000000D02*
X12000000Y-110000000D01*
D10*
D11*
X10000000Y-160000000D02*
X12000000Y-160000000D01*
D10*
D11*
X10690476Y-35216666D02*
X11309523Y-35216666D01*
X10566666Y-35588095D02*
X11000000Y-34288095D01*
X11433333Y-35588095D01*
D10*
D11*
X11092857Y-84907142D02*
X11278571Y-84969047D01*
X11340476Y-85030952D01*
X11402380Y-85154761D01*
X11402380Y-85340476D01*
X11340476Y-85464285D01*
X11278571Y-85526190D01*
X11154761Y-85588095D01*
X10659523Y-85588095D01*
X10659523Y-84288095D01*
X11092857Y-84288095D01*
X11216666Y-84350000D01*
X11278571Y-84411904D01*
X11340476Y-84535714D01*
X11340476Y-84659523D01*
X11278571Y-84783333D01*
X11216666Y-84845238D01*
X11092857Y-84907142D01*
X10659523Y-84907142D01*
D10*
D11*
X11402380Y-135464285D02*
X11340476Y-135526190D01*
X11154761Y-135588095D01*
X11030952Y-135588095D01*
X10845238Y-135526190D01*
X10721428Y-135402380D01*
X10659523Y-135278571D01*
X10597619Y-135030952D01*
X10597619Y-134845238D01*
X10659523Y-134597619D01*
X10721428Y-134473809D01*
X10845238Y-134350000D01*
X11030952Y-134288095D01*
X11154761Y-134288095D01*
X11340476Y-134350000D01*
X11402380Y-134411904D01*
D10*
D11*
X10659523Y-185588095D02*
X10659523Y-184288095D01*
X10969047Y-184288095D01*
X11154761Y-184350000D01*
X11278571Y-184473809D01*
X11340476Y-184597619D01*
X11402380Y-184845238D01*
X11402380Y-185030952D01*
X11340476Y-185278571D01*
X11278571Y-185402380D01*
X11154761Y-185526190D01*
X10969047Y-185588095D01*
X10659523Y-185588095D01*
D10*
D11*
X287002200Y-60000000D02*
X285002200Y-60000000D01*
D10*
D11*
X287002200Y-110000000D02*
X285002200Y-110000000D01*
D10*
D11*
X287002200Y-160000000D02*
X285002200Y-160000000D01*
D10*
D11*
X285692676Y-35216666D02*
X286311723Y-35216666D01*
X285568866Y-35588095D02*
X286002200Y-34288095D01*
X286435533Y-35588095D01*
D10*
D11*
X286095057Y-84907142D02*
X286280771Y-84969047D01*
X286342676Y-85030952D01*
X286404580Y-85154761D01*
X286404580Y-85340476D01*
X286342676Y-85464285D01*
X286280771Y-85526190D01*
X286156961Y-85588095D01*
X285661723Y-85588095D01*
X285661723Y-84288095D01*
X286095057Y-84288095D01*
X286218866Y-84350000D01*
X286280771Y-84411904D01*
X286342676Y-84535714D01*
X286342676Y-84659523D01*
X286280771Y-84783333D01*
X286218866Y-84845238D01*
X286095057Y-84907142D01*
X285661723Y-84907142D01*
D10*
D11*
X286404580Y-135464285D02*
X286342676Y-135526190D01*
X286156961Y-135588095D01*
X286033152Y-135588095D01*
X285847438Y-135526190D01*
X285723628Y-135402380D01*
X285661723Y-135278571D01*
X285599819Y-135030952D01*
X285599819Y-134845238D01*
X285661723Y-134597619D01*
X285723628Y-134473809D01*
X285847438Y-134350000D01*
X286033152Y-134288095D01*
X286156961Y-134288095D01*
X286342676Y-134350000D01*
X286404580Y-134411904D01*
D10*
D11*
X285661723Y-185588095D02*
X285661723Y-184288095D01*
X285971247Y-184288095D01*
X286156961Y-184350000D01*
X286280771Y-184473809D01*
X286342676Y-184597619D01*
X286404580Y-184845238D01*
X286404580Y-185030952D01*
X286342676Y-185278571D01*
X286280771Y-185402380D01*
X286156961Y-185526190D01*
X285971247Y-185588095D01*
X285661723Y-185588095D01*
D10*
D11*
X200434342Y-193785771D02*
X200434342Y-192285771D01*
X200791485Y-192285771D01*
X201005771Y-192357200D01*
X201148628Y-192500057D01*
X201220057Y-192642914D01*
X201291485Y-192928628D01*
X201291485Y-193142914D01*
X201220057Y-193428628D01*
X201148628Y-193571485D01*
X201005771Y-193714342D01*
X200791485Y-193785771D01*
X200434342Y-193785771D01*
X202577200Y-193785771D02*
X202577200Y-193000057D01*
X202505771Y-192857200D01*
X202362914Y-192785771D01*
X202077200Y-192785771D01*
X201934342Y-192857200D01*
X202577200Y-193714342D02*
X202434342Y-193785771D01*
X202077200Y-193785771D01*
X201934342Y-193714342D01*
X201862914Y-193571485D01*
X201862914Y-193428628D01*
X201934342Y-193285771D01*
X202077200Y-193214342D01*
X202434342Y-193214342D01*
X202577200Y-193142914D01*
X203077200Y-192785771D02*
X203648628Y-192785771D01*
X203291485Y-192285771D02*
X203291485Y-193571485D01*
X203362914Y-193714342D01*
X203505771Y-193785771D01*
X203648628Y-193785771D01*
X204720057Y-193714342D02*
X204577200Y-193785771D01*
X204291485Y-193785771D01*
X204148628Y-193714342D01*
X204077200Y-193571485D01*
X204077200Y-193000057D01*
X204148628Y-192857200D01*
X204291485Y-192785771D01*
X204577200Y-192785771D01*
X204720057Y-192857200D01*
X204791485Y-193000057D01*
X204791485Y-193142914D01*
X204077200Y-193285771D01*
X205434342Y-193642914D02*
X205505771Y-193714342D01*
X205434342Y-193785771D01*
X205362914Y-193714342D01*
X205434342Y-193642914D01*
X205434342Y-193785771D01*
X205434342Y-192857200D02*
X205505771Y-192928628D01*
X205434342Y-193000057D01*
X205362914Y-192928628D01*
X205434342Y-192857200D01*
X205434342Y-193000057D01*
X207220057Y-192428628D02*
X207291485Y-192357200D01*
X207434342Y-192285771D01*
X207791485Y-192285771D01*
X207934342Y-192357200D01*
X208005771Y-192428628D01*
X208077200Y-192571485D01*
X208077200Y-192714342D01*
X208005771Y-192928628D01*
X207148628Y-193785771D01*
X208077200Y-193785771D01*
X209005771Y-192285771D02*
X209148628Y-192285771D01*
X209291485Y-192357200D01*
X209362914Y-192428628D01*
X209434342Y-192571485D01*
X209505771Y-192857200D01*
X209505771Y-193214342D01*
X209434342Y-193500057D01*
X209362914Y-193642914D01*
X209291485Y-193714342D01*
X209148628Y-193785771D01*
X209005771Y-193785771D01*
X208862914Y-193714342D01*
X208791485Y-193642914D01*
X208720057Y-193500057D01*
X208648628Y-193214342D01*
X208648628Y-192857200D01*
X208720057Y-192571485D01*
X208791485Y-192428628D01*
X208862914Y-192357200D01*
X209005771Y-192285771D01*
X210077200Y-192428628D02*
X210148628Y-192357200D01*
X210291485Y-192285771D01*
X210648628Y-192285771D01*
X210791485Y-192357200D01*
X210862914Y-192428628D01*
X210934342Y-192571485D01*
X210934342Y-192714342D01*
X210862914Y-192928628D01*
X210005771Y-193785771D01*
X210934342Y-193785771D01*
X211862914Y-192285771D02*
X212005771Y-192285771D01*
X212148628Y-192357200D01*
X212220057Y-192428628D01*
X212291485Y-192571485D01*
X212362914Y-192857200D01*
X212362914Y-193214342D01*
X212291485Y-193500057D01*
X212220057Y-193642914D01*
X212148628Y-193714342D01*
X212005771Y-193785771D01*
X211862914Y-193785771D01*
X211720057Y-193714342D01*
X211648628Y-193642914D01*
X211577200Y-193500057D01*
X211505771Y-193214342D01*
X211505771Y-192857200D01*
X211577200Y-192571485D01*
X211648628Y-192428628D01*
X211720057Y-192357200D01*
X211862914Y-192285771D01*
X213005771Y-193214342D02*
X214148628Y-193214342D01*
X215148628Y-192285771D02*
X215291485Y-192285771D01*
X215434342Y-192357200D01*
X215505771Y-192428628D01*
X215577200Y-192571485D01*
X215648628Y-192857200D01*
X215648628Y-193214342D01*
X215577200Y-193500057D01*
X215505771Y-193642914D01*
X215434342Y-193714342D01*
X215291485Y-193785771D01*
X215148628Y-193785771D01*
X215005771Y-193714342D01*
X214934342Y-193642914D01*
X214862914Y-193500057D01*
X214791485Y-193214342D01*
X214791485Y-192857200D01*
X214862914Y-192571485D01*
X214934342Y-192428628D01*
X215005771Y-192357200D01*
X215148628Y-192285771D01*
X216148628Y-192285771D02*
X217077200Y-192285771D01*
X216577200Y-192857200D01*
X216791485Y-192857200D01*
X216934342Y-192928628D01*
X217005771Y-193000057D01*
X217077200Y-193142914D01*
X217077200Y-193500057D01*
X217005771Y-193642914D01*
X216934342Y-193714342D01*
X216791485Y-193785771D01*
X216362914Y-193785771D01*
X216220057Y-193714342D01*
X216148628Y-193642914D01*
X217720057Y-193214342D02*
X218862914Y-193214342D01*
X219862914Y-192285771D02*
X220005771Y-192285771D01*
X220148628Y-192357200D01*
X220220057Y-192428628D01*
X220291485Y-192571485D01*
X220362914Y-192857200D01*
X220362914Y-193214342D01*
X220291485Y-193500057D01*
X220220057Y-193642914D01*
X220148628Y-193714342D01*
X220005771Y-193785771D01*
X219862914Y-193785771D01*
X219720057Y-193714342D01*
X219648628Y-193642914D01*
X219577200Y-193500057D01*
X219505771Y-193214342D01*
X219505771Y-192857200D01*
X219577200Y-192571485D01*
X219648628Y-192428628D01*
X219720057Y-192357200D01*
X219862914Y-192285771D01*
X221220057Y-192928628D02*
X221077200Y-192857200D01*
X221005771Y-192785771D01*
X220934342Y-192642914D01*
X220934342Y-192571485D01*
X221005771Y-192428628D01*
X221077200Y-192357200D01*
X221220057Y-192285771D01*
X221505771Y-192285771D01*
X221648628Y-192357200D01*
X221720057Y-192428628D01*
X221791485Y-192571485D01*
X221791485Y-192642914D01*
X221720057Y-192785771D01*
X221648628Y-192857200D01*
X221505771Y-192928628D01*
X221220057Y-192928628D01*
X221077200Y-193000057D01*
X221005771Y-193071485D01*
X220934342Y-193214342D01*
X220934342Y-193500057D01*
X221005771Y-193642914D01*
X221077200Y-193714342D01*
X221220057Y-193785771D01*
X221505771Y-193785771D01*
X221648628Y-193714342D01*
X221720057Y-193642914D01*
X221791485Y-193500057D01*
X221791485Y-193214342D01*
X221720057Y-193071485D01*
X221648628Y-193000057D01*
X221505771Y-192928628D01*
D10*
D11*
X177002200Y-194507200D02*
X285002200Y-194507200D01*
D10*
D11*
X178434342Y-196585771D02*
X178434342Y-195085771D01*
X179291485Y-196585771D02*
X178648628Y-195728628D01*
X179291485Y-195085771D02*
X178434342Y-195942914D01*
X179934342Y-196585771D02*
X179934342Y-195585771D01*
X179934342Y-195085771D02*
X179862914Y-195157200D01*
X179934342Y-195228628D01*
X180005771Y-195157200D01*
X179934342Y-195085771D01*
X179934342Y-195228628D01*
X181505771Y-196442914D02*
X181434342Y-196514342D01*
X181220057Y-196585771D01*
X181077200Y-196585771D01*
X180862914Y-196514342D01*
X180720057Y-196371485D01*
X180648628Y-196228628D01*
X180577200Y-195942914D01*
X180577200Y-195728628D01*
X180648628Y-195442914D01*
X180720057Y-195300057D01*
X180862914Y-195157200D01*
X181077200Y-195085771D01*
X181220057Y-195085771D01*
X181434342Y-195157200D01*
X181505771Y-195228628D01*
X182791485Y-196585771D02*
X182791485Y-195800057D01*
X182720057Y-195657200D01*
X182577200Y-195585771D01*
X182291485Y-195585771D01*
X182148628Y-195657200D01*
X182791485Y-196514342D02*
X182648628Y-196585771D01*
X182291485Y-196585771D01*
X182148628Y-196514342D01*
X182077200Y-196371485D01*
X182077200Y-196228628D01*
X182148628Y-196085771D01*
X182291485Y-196014342D01*
X182648628Y-196014342D01*
X182791485Y-195942914D01*
X184148628Y-196585771D02*
X184148628Y-195085771D01*
X184148628Y-196514342D02*
X184005771Y-196585771D01*
X183720057Y-196585771D01*
X183577200Y-196514342D01*
X183505771Y-196442914D01*
X183434342Y-196300057D01*
X183434342Y-195871485D01*
X183505771Y-195728628D01*
X183577200Y-195657200D01*
X183720057Y-195585771D01*
X184005771Y-195585771D01*
X184148628Y-195657200D01*
X186005771Y-195800057D02*
X186505771Y-195800057D01*
X186720057Y-196585771D02*
X186005771Y-196585771D01*
X186005771Y-195085771D01*
X186720057Y-195085771D01*
X187362914Y-196442914D02*
X187434342Y-196514342D01*
X187362914Y-196585771D01*
X187291485Y-196514342D01*
X187362914Y-196442914D01*
X187362914Y-196585771D01*
X188077200Y-196585771D02*
X188077200Y-195085771D01*
X188434342Y-195085771D01*
X188648628Y-195157200D01*
X188791485Y-195300057D01*
X188862914Y-195442914D01*
X188934342Y-195728628D01*
X188934342Y-195942914D01*
X188862914Y-196228628D01*
X188791485Y-196371485D01*
X188648628Y-196514342D01*
X188434342Y-196585771D01*
X188077200Y-196585771D01*
X189577200Y-196442914D02*
X189648628Y-196514342D01*
X189577200Y-196585771D01*
X189505771Y-196514342D01*
X189577200Y-196442914D01*
X189577200Y-196585771D01*
X190220057Y-196157200D02*
X190934342Y-196157200D01*
X190077200Y-196585771D02*
X190577200Y-195085771D01*
X191077200Y-196585771D01*
X191577200Y-196442914D02*
X191648628Y-196514342D01*
X191577200Y-196585771D01*
X191505771Y-196514342D01*
X191577200Y-196442914D01*
X191577200Y-196585771D01*
X194577200Y-196585771D02*
X194577200Y-195085771D01*
X194720057Y-196014342D02*
X195148628Y-196585771D01*
X195148628Y-195585771D02*
X194577200Y-196157200D01*
X195791485Y-196585771D02*
X195791485Y-195585771D01*
X195791485Y-195085771D02*
X195720057Y-195157200D01*
X195791485Y-195228628D01*
X195862914Y-195157200D01*
X195791485Y-195085771D01*
X195791485Y-195228628D01*
X197148628Y-196514342D02*
X197005771Y-196585771D01*
X196720057Y-196585771D01*
X196577200Y-196514342D01*
X196505771Y-196442914D01*
X196434342Y-196300057D01*
X196434342Y-195871485D01*
X196505771Y-195728628D01*
X196577200Y-195657200D01*
X196720057Y-195585771D01*
X197005771Y-195585771D01*
X197148628Y-195657200D01*
X198434342Y-196585771D02*
X198434342Y-195800057D01*
X198362914Y-195657200D01*
X198220057Y-195585771D01*
X197934342Y-195585771D01*
X197791485Y-195657200D01*
X198434342Y-196514342D02*
X198291485Y-196585771D01*
X197934342Y-196585771D01*
X197791485Y-196514342D01*
X197720057Y-196371485D01*
X197720057Y-196228628D01*
X197791485Y-196085771D01*
X197934342Y-196014342D01*
X198291485Y-196014342D01*
X198434342Y-195942914D01*
X199791485Y-196585771D02*
X199791485Y-195085771D01*
X199791485Y-196514342D02*
X199648628Y-196585771D01*
X199362914Y-196585771D01*
X199220057Y-196514342D01*
X199148628Y-196442914D01*
X199077200Y-196300057D01*
X199077200Y-195871485D01*
X199148628Y-195728628D01*
X199220057Y-195657200D01*
X199362914Y-195585771D01*
X199648628Y-195585771D01*
X199791485Y-195657200D01*
X202077200Y-197157200D02*
X202005771Y-197085771D01*
X201862914Y-196871485D01*
X201791485Y-196728628D01*
X201720057Y-196514342D01*
X201648628Y-196157200D01*
X201648628Y-195871485D01*
X201720057Y-195514342D01*
X201791485Y-195300057D01*
X201862914Y-195157200D01*
X202005771Y-194942914D01*
X202077200Y-194871485D01*
X203362914Y-195085771D02*
X202648628Y-195085771D01*
X202577200Y-195800057D01*
X202648628Y-195728628D01*
X202791485Y-195657200D01*
X203148628Y-195657200D01*
X203291485Y-195728628D01*
X203362914Y-195800057D01*
X203434342Y-195942914D01*
X203434342Y-196300057D01*
X203362914Y-196442914D01*
X203291485Y-196514342D01*
X203148628Y-196585771D01*
X202791485Y-196585771D01*
X202648628Y-196514342D01*
X202577200Y-196442914D01*
X204077200Y-196442914D02*
X204148628Y-196514342D01*
X204077200Y-196585771D01*
X204005771Y-196514342D01*
X204077200Y-196442914D01*
X204077200Y-196585771D01*
X205577200Y-196585771D02*
X204720057Y-196585771D01*
X205148628Y-196585771D02*
X205148628Y-195085771D01*
X205005771Y-195300057D01*
X204862914Y-195442914D01*
X204720057Y-195514342D01*
X206220057Y-196442914D02*
X206291485Y-196514342D01*
X206220057Y-196585771D01*
X206148628Y-196514342D01*
X206220057Y-196442914D01*
X206220057Y-196585771D01*
X207648628Y-195085771D02*
X206934342Y-195085771D01*
X206862914Y-195800057D01*
X206934342Y-195728628D01*
X207077200Y-195657200D01*
X207434342Y-195657200D01*
X207577200Y-195728628D01*
X207648628Y-195800057D01*
X207720057Y-195942914D01*
X207720057Y-196300057D01*
X207648628Y-196442914D01*
X207577200Y-196514342D01*
X207434342Y-196585771D01*
X207077200Y-196585771D01*
X206934342Y-196514342D01*
X206862914Y-196442914D01*
X208220057Y-197157200D02*
X208291485Y-197085771D01*
X208434342Y-196871485D01*
X208505771Y-196728628D01*
X208577200Y-196514342D01*
X208648628Y-196157200D01*
X208648628Y-195871485D01*
X208577200Y-195514342D01*
X208505771Y-195300057D01*
X208434342Y-195157200D01*
X208291485Y-194942914D01*
X208220057Y-194871485D01*
X209362914Y-196014342D02*
X210505771Y-196014342D01*
X211077200Y-195085771D02*
X212005771Y-195085771D01*
X211505771Y-195657200D01*
X211720057Y-195657200D01*
X211862914Y-195728628D01*
X211934342Y-195800057D01*
X212005771Y-195942914D01*
X212005771Y-196300057D01*
X211934342Y-196442914D01*
X211862914Y-196514342D01*
X211720057Y-196585771D01*
X211291485Y-196585771D01*
X211148628Y-196514342D01*
X211077200Y-196442914D01*
D10*
D11*
X177002200Y-191507200D02*
X285002200Y-191507200D01*
D10*
D12*
X264411485Y-193785771D02*
X263911485Y-193071485D01*
X263554342Y-193785771D02*
X263554342Y-192285771D01*
X264125771Y-192285771D01*
X264268628Y-192357200D01*
X264340057Y-192428628D01*
X264411485Y-192571485D01*
X264411485Y-192785771D01*
X264340057Y-192928628D01*
X264268628Y-193000057D01*
X264125771Y-193071485D01*
X263554342Y-193071485D01*
X265625771Y-193714342D02*
X265482914Y-193785771D01*
X265197200Y-193785771D01*
X265054342Y-193714342D01*
X264982914Y-193571485D01*
X264982914Y-193000057D01*
X265054342Y-192857200D01*
X265197200Y-192785771D01*
X265482914Y-192785771D01*
X265625771Y-192857200D01*
X265697200Y-193000057D01*
X265697200Y-193142914D01*
X264982914Y-193285771D01*
X266197200Y-192785771D02*
X266554342Y-193785771D01*
X266911485Y-192785771D01*
X267482914Y-193642914D02*
X267554342Y-193714342D01*
X267482914Y-193785771D01*
X267411485Y-193714342D01*
X267482914Y-193642914D01*
X267482914Y-193785771D01*
X267482914Y-192857200D02*
X267554342Y-192928628D01*
X267482914Y-193000057D01*
X267411485Y-192928628D01*
X267482914Y-192857200D01*
X267482914Y-193000057D01*
X269268628Y-193357200D02*
X269982914Y-193357200D01*
X269125771Y-193785771D02*
X269625771Y-192285771D01*
X270125771Y-193785771D01*
D10*
D11*
X178362914Y-193714342D02*
X178577200Y-193785771D01*
X178934342Y-193785771D01*
X179077200Y-193714342D01*
X179148628Y-193642914D01*
X179220057Y-193500057D01*
X179220057Y-193357200D01*
X179148628Y-193214342D01*
X179077200Y-193142914D01*
X178934342Y-193071485D01*
X178648628Y-193000057D01*
X178505771Y-192928628D01*
X178434342Y-192857200D01*
X178362914Y-192714342D01*
X178362914Y-192571485D01*
X178434342Y-192428628D01*
X178505771Y-192357200D01*
X178648628Y-192285771D01*
X179005771Y-192285771D01*
X179220057Y-192357200D01*
X179862914Y-193785771D02*
X179862914Y-192785771D01*
X179862914Y-192285771D02*
X179791485Y-192357200D01*
X179862914Y-192428628D01*
X179934342Y-192357200D01*
X179862914Y-192285771D01*
X179862914Y-192428628D01*
X180434342Y-192785771D02*
X181220057Y-192785771D01*
X180434342Y-193785771D01*
X181220057Y-193785771D01*
X182362914Y-193714342D02*
X182220057Y-193785771D01*
X181934342Y-193785771D01*
X181791485Y-193714342D01*
X181720057Y-193571485D01*
X181720057Y-193000057D01*
X181791485Y-192857200D01*
X181934342Y-192785771D01*
X182220057Y-192785771D01*
X182362914Y-192857200D01*
X182434342Y-193000057D01*
X182434342Y-193142914D01*
X181720057Y-193285771D01*
X183077200Y-193642914D02*
X183148628Y-193714342D01*
X183077200Y-193785771D01*
X183005771Y-193714342D01*
X183077200Y-193642914D01*
X183077200Y-193785771D01*
X183077200Y-192857200D02*
X183148628Y-192928628D01*
X183077200Y-193000057D01*
X183005771Y-192928628D01*
X183077200Y-192857200D01*
X183077200Y-193000057D01*
X184862914Y-193357200D02*
X185577200Y-193357200D01*
X184720057Y-193785771D02*
X185220057Y-192285771D01*
X185720057Y-193785771D01*
X186862914Y-192785771D02*
X186862914Y-193785771D01*
X186505771Y-192214342D02*
X186148628Y-193285771D01*
X187077200Y-193285771D01*
D10*
D11*
X263434342Y-196585771D02*
X263434342Y-195085771D01*
X264791485Y-196585771D02*
X264791485Y-195085771D01*
X264791485Y-196514342D02*
X264648628Y-196585771D01*
X264362914Y-196585771D01*
X264220057Y-196514342D01*
X264148628Y-196442914D01*
X264077200Y-196300057D01*
X264077200Y-195871485D01*
X264148628Y-195728628D01*
X264220057Y-195657200D01*
X264362914Y-195585771D01*
X264648628Y-195585771D01*
X264791485Y-195657200D01*
X265505771Y-196442914D02*
X265577200Y-196514342D01*
X265505771Y-196585771D01*
X265434342Y-196514342D01*
X265505771Y-196442914D01*
X265505771Y-196585771D01*
X265505771Y-195657200D02*
X265577200Y-195728628D01*
X265505771Y-195800057D01*
X265434342Y-195728628D01*
X265505771Y-195657200D01*
X265505771Y-195800057D01*
X268148628Y-196585771D02*
X267291485Y-196585771D01*
X267720057Y-196585771D02*
X267720057Y-195085771D01*
X267577200Y-195300057D01*
X267434342Y-195442914D01*
X267291485Y-195514342D01*
X269862914Y-195014342D02*
X268577200Y-196942914D01*
X271148628Y-196585771D02*
X270291485Y-196585771D01*
X270720057Y-196585771D02*
X270720057Y-195085771D01*
X270577200Y-195300057D01*
X270434342Y-195442914D01*
X270291485Y-195514342D01*
D10*
D11*
X177002200Y-187507200D02*
X285002200Y-187507200D01*
D10*
D13*
X178714580Y-188211961D02*
X179857438Y-188211961D01*
X179036009Y-190211961D02*
X179286009Y-188211961D01*
X180274104Y-190211961D02*
X180440771Y-188878628D01*
X180524104Y-188211961D02*
X180416961Y-188307200D01*
X180500295Y-188402438D01*
X180607438Y-188307200D01*
X180524104Y-188211961D01*
X180500295Y-188402438D01*
X181107438Y-188878628D02*
X181869342Y-188878628D01*
X181476485Y-188211961D02*
X181262200Y-189926247D01*
X181333628Y-190116723D01*
X181512200Y-190211961D01*
X181702676Y-190211961D01*
X182655057Y-190211961D02*
X182476485Y-190116723D01*
X182405057Y-189926247D01*
X182619342Y-188211961D01*
X184190771Y-190116723D02*
X183988390Y-190211961D01*
X183607438Y-190211961D01*
X183428866Y-190116723D01*
X183357438Y-189926247D01*
X183452676Y-189164342D01*
X183571723Y-188973866D01*
X183774104Y-188878628D01*
X184155057Y-188878628D01*
X184333628Y-188973866D01*
X184405057Y-189164342D01*
X184381247Y-189354819D01*
X183405057Y-189545295D01*
X185155057Y-190021485D02*
X185238390Y-190116723D01*
X185131247Y-190211961D01*
X185047914Y-190116723D01*
X185155057Y-190021485D01*
X185131247Y-190211961D01*
X185286009Y-188973866D02*
X185369342Y-189069104D01*
X185262200Y-189164342D01*
X185178866Y-189069104D01*
X185286009Y-188973866D01*
X185262200Y-189164342D01*
X187607438Y-190211961D02*
X187857438Y-188211961D01*
X188476485Y-190116723D02*
X188655057Y-190211961D01*
X189036009Y-190211961D01*
X189238390Y-190116723D01*
X189357438Y-189926247D01*
X189369342Y-189831009D01*
X189297914Y-189640533D01*
X189119342Y-189545295D01*
X188833628Y-189545295D01*
X188655057Y-189450057D01*
X188583628Y-189259580D01*
X188595533Y-189164342D01*
X188714580Y-188973866D01*
X188916961Y-188878628D01*
X189202676Y-188878628D01*
X189381247Y-188973866D01*
X190464580Y-190211961D02*
X190286009Y-190116723D01*
X190202676Y-190021485D01*
X190131247Y-189831009D01*
X190202676Y-189259580D01*
X190321723Y-189069104D01*
X190428866Y-188973866D01*
X190631247Y-188878628D01*
X190916961Y-188878628D01*
X191095533Y-188973866D01*
X191178866Y-189069104D01*
X191250295Y-189259580D01*
X191178866Y-189831009D01*
X191059819Y-190021485D01*
X190952676Y-190116723D01*
X190750295Y-190211961D01*
X190464580Y-190211961D01*
X193155057Y-190021485D02*
X193047914Y-190116723D01*
X192750295Y-190211961D01*
X192559819Y-190211961D01*
X192286009Y-190116723D01*
X192119342Y-189926247D01*
X192047914Y-189735771D01*
X192000295Y-189354819D01*
X192036009Y-189069104D01*
X192178866Y-188688152D01*
X192297914Y-188497676D01*
X192512200Y-188307200D01*
X192809819Y-188211961D01*
X193000295Y-188211961D01*
X193274104Y-188307200D01*
X193357438Y-188402438D01*
X194845533Y-190211961D02*
X194976485Y-189164342D01*
X194905057Y-188973866D01*
X194726485Y-188878628D01*
X194345533Y-188878628D01*
X194143152Y-188973866D01*
X194857438Y-190116723D02*
X194655057Y-190211961D01*
X194178866Y-190211961D01*
X194000295Y-190116723D01*
X193928866Y-189926247D01*
X193952676Y-189735771D01*
X194071723Y-189545295D01*
X194274104Y-189450057D01*
X194750295Y-189450057D01*
X194952676Y-189354819D01*
X195797914Y-190211961D02*
X195964580Y-188878628D01*
X195916961Y-189259580D02*
X196036009Y-189069104D01*
X196143152Y-188973866D01*
X196345533Y-188878628D01*
X196536009Y-188878628D01*
X197893152Y-190211961D02*
X198143152Y-188211961D01*
X197905057Y-190116723D02*
X197702676Y-190211961D01*
X197321723Y-190211961D01*
X197143152Y-190116723D01*
X197059819Y-190021485D01*
X196988390Y-189831009D01*
X197059819Y-189259580D01*
X197178866Y-189069104D01*
X197286009Y-188973866D01*
X197488390Y-188878628D01*
X197869342Y-188878628D01*
X198047914Y-188973866D01*
X200345533Y-189640533D02*
X201297914Y-189640533D01*
X200083628Y-190211961D02*
X201000295Y-188211961D01*
X201416961Y-190211961D01*
X202881247Y-189164342D02*
X202214580Y-189164342D01*
X202083628Y-190211961D02*
X202333628Y-188211961D01*
X203286009Y-188211961D01*
X203928866Y-189164342D02*
X204595533Y-189164342D01*
X204750295Y-190211961D02*
X203797914Y-190211961D01*
X204047914Y-188211961D01*
X205000295Y-188211961D01*
X207131247Y-190211961D02*
X207381247Y-188211961D01*
X207262200Y-189164342D02*
X208405057Y-189164342D01*
X208274104Y-190211961D02*
X208524104Y-188211961D01*
X209202676Y-189640533D02*
X210155057Y-189640533D01*
X208940771Y-190211961D02*
X209857438Y-188211961D01*
X210274104Y-190211961D01*
X210905057Y-188211961D02*
X212047914Y-188211961D01*
X211226485Y-190211961D02*
X211476485Y-188211961D01*
D10*
D11*
X178934342Y-185600057D02*
X178434342Y-185600057D01*
X178434342Y-186385771D02*
X178434342Y-184885771D01*
X179148628Y-184885771D01*
X179720057Y-186385771D02*
X179720057Y-185385771D01*
X179720057Y-184885771D02*
X179648628Y-184957200D01*
X179720057Y-185028628D01*
X179791485Y-184957200D01*
X179720057Y-184885771D01*
X179720057Y-185028628D01*
X180648628Y-186385771D02*
X180505771Y-186314342D01*
X180434342Y-186171485D01*
X180434342Y-184885771D01*
X181791485Y-186314342D02*
X181648628Y-186385771D01*
X181362914Y-186385771D01*
X181220057Y-186314342D01*
X181148628Y-186171485D01*
X181148628Y-185600057D01*
X181220057Y-185457200D01*
X181362914Y-185385771D01*
X181648628Y-185385771D01*
X181791485Y-185457200D01*
X181862914Y-185600057D01*
X181862914Y-185742914D01*
X181148628Y-185885771D01*
X182505771Y-186242914D02*
X182577200Y-186314342D01*
X182505771Y-186385771D01*
X182434342Y-186314342D01*
X182505771Y-186242914D01*
X182505771Y-186385771D01*
X182505771Y-185457200D02*
X182577200Y-185528628D01*
X182505771Y-185600057D01*
X182434342Y-185528628D01*
X182505771Y-185457200D01*
X182505771Y-185600057D01*
X184362914Y-186385771D02*
X184362914Y-184885771D01*
X184362914Y-185600057D02*
X185220057Y-185600057D01*
X185220057Y-186385771D02*
X185220057Y-184885771D01*
X186577200Y-186385771D02*
X186577200Y-185600057D01*
X186505771Y-185457200D01*
X186362914Y-185385771D01*
X186077200Y-185385771D01*
X185934342Y-185457200D01*
X186577200Y-186314342D02*
X186434342Y-186385771D01*
X186077200Y-186385771D01*
X185934342Y-186314342D01*
X185862914Y-186171485D01*
X185862914Y-186028628D01*
X185934342Y-185885771D01*
X186077200Y-185814342D01*
X186434342Y-185814342D01*
X186577200Y-185742914D01*
X187077200Y-185385771D02*
X187648628Y-185385771D01*
X187291485Y-184885771D02*
X187291485Y-186171485D01*
X187362914Y-186314342D01*
X187505771Y-186385771D01*
X187648628Y-186385771D01*
X188148628Y-186242914D02*
X188220057Y-186314342D01*
X188148628Y-186385771D01*
X188077200Y-186314342D01*
X188148628Y-186242914D01*
X188148628Y-186385771D01*
X188862914Y-186385771D02*
X188862914Y-184885771D01*
X189005771Y-185814342D02*
X189434342Y-186385771D01*
X189434342Y-185385771D02*
X188862914Y-185957200D01*
X190077200Y-186385771D02*
X190077200Y-185385771D01*
X190077200Y-184885771D02*
X190005771Y-184957200D01*
X190077200Y-185028628D01*
X190148628Y-184957200D01*
X190077200Y-184885771D01*
X190077200Y-185028628D01*
X191434342Y-186314342D02*
X191291485Y-186385771D01*
X191005771Y-186385771D01*
X190862914Y-186314342D01*
X190791485Y-186242914D01*
X190720057Y-186100057D01*
X190720057Y-185671485D01*
X190791485Y-185528628D01*
X190862914Y-185457200D01*
X191005771Y-185385771D01*
X191291485Y-185385771D01*
X191434342Y-185457200D01*
X192720057Y-186385771D02*
X192720057Y-185600057D01*
X192648628Y-185457200D01*
X192505771Y-185385771D01*
X192220057Y-185385771D01*
X192077200Y-185457200D01*
X192720057Y-186314342D02*
X192577200Y-186385771D01*
X192220057Y-186385771D01*
X192077200Y-186314342D01*
X192005771Y-186171485D01*
X192005771Y-186028628D01*
X192077200Y-185885771D01*
X192220057Y-185814342D01*
X192577200Y-185814342D01*
X192720057Y-185742914D01*
X194077200Y-186385771D02*
X194077200Y-184885771D01*
X194077200Y-186314342D02*
X193934342Y-186385771D01*
X193648628Y-186385771D01*
X193505771Y-186314342D01*
X193434342Y-186242914D01*
X193362914Y-186100057D01*
X193362914Y-185671485D01*
X193434342Y-185528628D01*
X193505771Y-185457200D01*
X193648628Y-185385771D01*
X193934342Y-185385771D01*
X194077200Y-185457200D01*
X194434342Y-186528628D02*
X195577200Y-186528628D01*
X195934342Y-185385771D02*
X195934342Y-186885771D01*
X195934342Y-185457200D02*
X196077200Y-185385771D01*
X196362914Y-185385771D01*
X196505771Y-185457200D01*
X196577200Y-185528628D01*
X196648628Y-185671485D01*
X196648628Y-186100057D01*
X196577200Y-186242914D01*
X196505771Y-186314342D01*
X196362914Y-186385771D01*
X196077200Y-186385771D01*
X195934342Y-186314342D01*
X197934342Y-186314342D02*
X197791485Y-186385771D01*
X197505771Y-186385771D01*
X197362914Y-186314342D01*
X197291485Y-186242914D01*
X197220057Y-186100057D01*
X197220057Y-185671485D01*
X197291485Y-185528628D01*
X197362914Y-185457200D01*
X197505771Y-185385771D01*
X197791485Y-185385771D01*
X197934342Y-185457200D01*
X198577200Y-186385771D02*
X198577200Y-184885771D01*
X198577200Y-185457200D02*
X198720057Y-185385771D01*
X199005771Y-185385771D01*
X199148628Y-185457200D01*
X199220057Y-185528628D01*
X199291485Y-185671485D01*
X199291485Y-186100057D01*
X199220057Y-186242914D01*
X199148628Y-186314342D01*
X199005771Y-186385771D01*
X198720057Y-186385771D01*
X198577200Y-186314342D01*
D10*
D11*
X177002200Y-181507200D02*
X285002200Y-181507200D01*
D10*
D11*
X178362914Y-183614342D02*
X178577200Y-183685771D01*
X178934342Y-183685771D01*
X179077200Y-183614342D01*
X179148628Y-183542914D01*
X179220057Y-183400057D01*
X179220057Y-183257200D01*
X179148628Y-183114342D01*
X179077200Y-183042914D01*
X178934342Y-182971485D01*
X178648628Y-182900057D01*
X178505771Y-182828628D01*
X178434342Y-182757200D01*
X178362914Y-182614342D01*
X178362914Y-182471485D01*
X178434342Y-182328628D01*
X178505771Y-182257200D01*
X178648628Y-182185771D01*
X179005771Y-182185771D01*
X179220057Y-182257200D01*
X179862914Y-183685771D02*
X179862914Y-182185771D01*
X180505771Y-183685771D02*
X180505771Y-182900057D01*
X180434342Y-182757200D01*
X180291485Y-182685771D01*
X180077200Y-182685771D01*
X179934342Y-182757200D01*
X179862914Y-182828628D01*
X181791485Y-183614342D02*
X181648628Y-183685771D01*
X181362914Y-183685771D01*
X181220057Y-183614342D01*
X181148628Y-183471485D01*
X181148628Y-182900057D01*
X181220057Y-182757200D01*
X181362914Y-182685771D01*
X181648628Y-182685771D01*
X181791485Y-182757200D01*
X181862914Y-182900057D01*
X181862914Y-183042914D01*
X181148628Y-183185771D01*
X183077200Y-183614342D02*
X182934342Y-183685771D01*
X182648628Y-183685771D01*
X182505771Y-183614342D01*
X182434342Y-183471485D01*
X182434342Y-182900057D01*
X182505771Y-182757200D01*
X182648628Y-182685771D01*
X182934342Y-182685771D01*
X183077200Y-182757200D01*
X183148628Y-182900057D01*
X183148628Y-183042914D01*
X182434342Y-183185771D01*
X183577200Y-182685771D02*
X184148628Y-182685771D01*
X183791485Y-182185771D02*
X183791485Y-183471485D01*
X183862914Y-183614342D01*
X184005771Y-183685771D01*
X184148628Y-183685771D01*
X184648628Y-183542914D02*
X184720057Y-183614342D01*
X184648628Y-183685771D01*
X184577200Y-183614342D01*
X184648628Y-183542914D01*
X184648628Y-183685771D01*
X184648628Y-182757200D02*
X184720057Y-182828628D01*
X184648628Y-182900057D01*
X184577200Y-182828628D01*
X184648628Y-182757200D01*
X184648628Y-182900057D01*
D10*
D12*
X178554342Y-180685771D02*
X178554342Y-179185771D01*
X179054342Y-180257200D01*
X179554342Y-179185771D01*
X179554342Y-180685771D01*
X180911485Y-180685771D02*
X180911485Y-179900057D01*
X180840057Y-179757200D01*
X180697200Y-179685771D01*
X180411485Y-179685771D01*
X180268628Y-179757200D01*
X180911485Y-180614342D02*
X180768628Y-180685771D01*
X180411485Y-180685771D01*
X180268628Y-180614342D01*
X180197200Y-180471485D01*
X180197200Y-180328628D01*
X180268628Y-180185771D01*
X180411485Y-180114342D01*
X180768628Y-180114342D01*
X180911485Y-180042914D01*
X181411485Y-179685771D02*
X181982914Y-179685771D01*
X181625771Y-179185771D02*
X181625771Y-180471485D01*
X181697200Y-180614342D01*
X181840057Y-180685771D01*
X181982914Y-180685771D01*
X182268628Y-179685771D02*
X182840057Y-179685771D01*
X182482914Y-179185771D02*
X182482914Y-180471485D01*
X182554342Y-180614342D01*
X182697200Y-180685771D01*
X182840057Y-180685771D01*
X184340057Y-179185771D02*
X184697200Y-180685771D01*
X184982914Y-179614342D01*
X185268628Y-180685771D01*
X185625771Y-179185771D01*
X186411485Y-180685771D02*
X186268628Y-180614342D01*
X186197200Y-180542914D01*
X186125771Y-180400057D01*
X186125771Y-179971485D01*
X186197200Y-179828628D01*
X186268628Y-179757200D01*
X186411485Y-179685771D01*
X186625771Y-179685771D01*
X186768628Y-179757200D01*
X186840057Y-179828628D01*
X186911485Y-179971485D01*
X186911485Y-180400057D01*
X186840057Y-180542914D01*
X186768628Y-180614342D01*
X186625771Y-180685771D01*
X186411485Y-180685771D01*
X187768628Y-180685771D02*
X187625771Y-180614342D01*
X187554342Y-180542914D01*
X187482914Y-180400057D01*
X187482914Y-179971485D01*
X187554342Y-179828628D01*
X187625771Y-179757200D01*
X187768628Y-179685771D01*
X187982914Y-179685771D01*
X188125771Y-179757200D01*
X188197200Y-179828628D01*
X188268628Y-179971485D01*
X188268628Y-180400057D01*
X188197200Y-180542914D01*
X188125771Y-180614342D01*
X187982914Y-180685771D01*
X187768628Y-180685771D01*
X189554342Y-180685771D02*
X189554342Y-179185771D01*
X189554342Y-180614342D02*
X189411485Y-180685771D01*
X189125771Y-180685771D01*
X188982914Y-180614342D01*
X188911485Y-180542914D01*
X188840057Y-180400057D01*
X188840057Y-179971485D01*
X188911485Y-179828628D01*
X188982914Y-179757200D01*
X189125771Y-179685771D01*
X189411485Y-179685771D01*
X189554342Y-179757200D01*
D10*
D11*
X197002200Y-191507200D02*
X197002200Y-194507200D01*
D10*
D11*
X261002200Y-191507200D02*
X261002200Y-198007200D01*
X163178571Y-110364404D02*
X163178571Y-109602500D01*
X163464285Y-109602500D02*
X163464285Y-110364404D01*
X163178571Y-108364404D02*
X163178571Y-108031071D01*
X163702380Y-107888214D02*
X163702380Y-108364404D01*
X162702380Y-108364404D01*
X162702380Y-107888214D01*
X163702380Y-107459642D02*
X163035714Y-107459642D01*
X163226190Y-107459642D02*
X163130952Y-107412023D01*
X163083333Y-107364404D01*
X163035714Y-107269166D01*
X163035714Y-107173928D01*
X163702380Y-106840595D02*
X163035714Y-106840595D01*
X163226190Y-106840595D02*
X163130952Y-106792976D01*
X163083333Y-106745357D01*
X163035714Y-106650119D01*
X163035714Y-106554880D01*
X163702380Y-106078690D02*
X163654761Y-106173928D01*
X163607142Y-106221547D01*
X163511904Y-106269166D01*
X163226190Y-106269166D01*
X163130952Y-106221547D01*
X163083333Y-106173928D01*
X163035714Y-106078690D01*
X163035714Y-105935833D01*
X163083333Y-105840595D01*
X163130952Y-105792976D01*
X163226190Y-105745357D01*
X163511904Y-105745357D01*
X163607142Y-105792976D01*
X163654761Y-105840595D01*
X163702380Y-105935833D01*
X163702380Y-106078690D01*
X163702380Y-105316785D02*
X163035714Y-105316785D01*
X163226190Y-105316785D02*
X163130952Y-105269166D01*
X163083333Y-105221547D01*
X163035714Y-105126309D01*
X163035714Y-105031071D01*
X164828571Y-110364404D02*
X164828571Y-109602500D01*
X165114285Y-109602500D02*
X165114285Y-110364404D01*
X164352380Y-108173928D02*
X164352380Y-107983452D01*
X164400000Y-107888214D01*
X164495238Y-107792976D01*
X164685714Y-107745357D01*
X165019047Y-107745357D01*
X165209523Y-107792976D01*
X165304761Y-107888214D01*
X165352380Y-107983452D01*
X165352380Y-108173928D01*
X165304761Y-108269166D01*
X165209523Y-108364404D01*
X165019047Y-108412023D01*
X164685714Y-108412023D01*
X164495238Y-108364404D01*
X164400000Y-108269166D01*
X164352380Y-108173928D01*
X165352380Y-107316785D02*
X164352380Y-107316785D01*
X165352380Y-106745357D02*
X164780952Y-107173928D01*
X164352380Y-106745357D02*
X164923809Y-107316785D01*
X166478571Y-110364404D02*
X166478571Y-109602500D01*
X166764285Y-109602500D02*
X166764285Y-110364404D01*
X167002380Y-107792976D02*
X166526190Y-108126309D01*
X167002380Y-108364404D02*
X166002380Y-108364404D01*
X166002380Y-107983452D01*
X166050000Y-107888214D01*
X166097619Y-107840595D01*
X166192857Y-107792976D01*
X166335714Y-107792976D01*
X166430952Y-107840595D01*
X166478571Y-107888214D01*
X166526190Y-107983452D01*
X166526190Y-108364404D01*
X166954761Y-106983452D02*
X167002380Y-107078690D01*
X167002380Y-107269166D01*
X166954761Y-107364404D01*
X166859523Y-107412023D01*
X166478571Y-107412023D01*
X166383333Y-107364404D01*
X166335714Y-107269166D01*
X166335714Y-107078690D01*
X166383333Y-106983452D01*
X166478571Y-106935833D01*
X166573809Y-106935833D01*
X166669047Y-107412023D01*
X166335714Y-106078690D02*
X167335714Y-106078690D01*
X166954761Y-106078690D02*
X167002380Y-106173928D01*
X167002380Y-106364404D01*
X166954761Y-106459642D01*
X166907142Y-106507261D01*
X166811904Y-106554880D01*
X166526190Y-106554880D01*
X166430952Y-106507261D01*
X166383333Y-106459642D01*
X166335714Y-106364404D01*
X166335714Y-106173928D01*
X166383333Y-106078690D01*
X166335714Y-105173928D02*
X167002380Y-105173928D01*
X166335714Y-105602500D02*
X166859523Y-105602500D01*
X166954761Y-105554880D01*
X167002380Y-105459642D01*
X167002380Y-105316785D01*
X166954761Y-105221547D01*
X166907142Y-105173928D01*
X167002380Y-104697738D02*
X166335714Y-104697738D01*
X166002380Y-104697738D02*
X166050000Y-104745357D01*
X166097619Y-104697738D01*
X166050000Y-104650119D01*
X166002380Y-104697738D01*
X166097619Y-104697738D01*
X167002380Y-104221547D02*
X166335714Y-104221547D01*
X166526190Y-104221547D02*
X166430952Y-104173928D01*
X166383333Y-104126309D01*
X166335714Y-104031071D01*
X166335714Y-103935833D01*
X166954761Y-103221547D02*
X167002380Y-103316785D01*
X167002380Y-103507261D01*
X166954761Y-103602500D01*
X166859523Y-103650119D01*
X166478571Y-103650119D01*
X166383333Y-103602500D01*
X166335714Y-103507261D01*
X166335714Y-103316785D01*
X166383333Y-103221547D01*
X166478571Y-103173928D01*
X166573809Y-103173928D01*
X166669047Y-103650119D01*
X166954761Y-102792976D02*
X167002380Y-102697738D01*
X167002380Y-102507261D01*
X166954761Y-102412023D01*
X166859523Y-102364404D01*
X166811904Y-102364404D01*
X166716666Y-102412023D01*
X166669047Y-102507261D01*
X166669047Y-102650119D01*
X166621428Y-102745357D01*
X166526190Y-102792976D01*
X166478571Y-102792976D01*
X166383333Y-102745357D01*
X166335714Y-102650119D01*
X166335714Y-102507261D01*
X166383333Y-102412023D01*
X166954761Y-101221547D02*
X167002380Y-101078690D01*
X167002380Y-100840595D01*
X166954761Y-100745357D01*
X166907142Y-100697738D01*
X166811904Y-100650119D01*
X166716666Y-100650119D01*
X166621428Y-100697738D01*
X166573809Y-100745357D01*
X166526190Y-100840595D01*
X166478571Y-101031071D01*
X166430952Y-101126309D01*
X166383333Y-101173928D01*
X166288095Y-101221547D01*
X166192857Y-101221547D01*
X166097619Y-101173928D01*
X166050000Y-101126309D01*
X166002380Y-101031071D01*
X166002380Y-100792976D01*
X166050000Y-100650119D01*
X166954761Y-99840595D02*
X167002380Y-99935833D01*
X167002380Y-100126309D01*
X166954761Y-100221547D01*
X166859523Y-100269166D01*
X166478571Y-100269166D01*
X166383333Y-100221547D01*
X166335714Y-100126309D01*
X166335714Y-99935833D01*
X166383333Y-99840595D01*
X166478571Y-99792976D01*
X166573809Y-99792976D01*
X166669047Y-100269166D01*
X166335714Y-99507261D02*
X166335714Y-99126309D01*
X166002380Y-99364404D02*
X166859523Y-99364404D01*
X166954761Y-99316785D01*
X167002380Y-99221547D01*
X167002380Y-99126309D01*
X166335714Y-98364404D02*
X167002380Y-98364404D01*
X166335714Y-98792976D02*
X166859523Y-98792976D01*
X166954761Y-98745357D01*
X167002380Y-98650119D01*
X167002380Y-98507261D01*
X166954761Y-98412023D01*
X166907142Y-98364404D01*
X166335714Y-97888214D02*
X167335714Y-97888214D01*
X166383333Y-97888214D02*
X166335714Y-97792976D01*
X166335714Y-97602500D01*
X166383333Y-97507261D01*
X166430952Y-97459642D01*
X166526190Y-97412023D01*
X166811904Y-97412023D01*
X166907142Y-97459642D01*
X166954761Y-97507261D01*
X167002380Y-97602500D01*
X167002380Y-97792976D01*
X166954761Y-97888214D01*
D14*
X184652380Y-112185714D02*
X185652380Y-111685714D01*
X184652380Y-111185714D01*
X185557142Y-108685714D02*
X185604761Y-108757142D01*
X185652380Y-108971428D01*
X185652380Y-109114285D01*
X185604761Y-109328571D01*
X185509523Y-109471428D01*
X185414285Y-109542857D01*
X185223809Y-109614285D01*
X185080952Y-109614285D01*
X184890476Y-109542857D01*
X184795238Y-109471428D01*
X184700000Y-109328571D01*
X184652380Y-109114285D01*
X184652380Y-108971428D01*
X184700000Y-108757142D01*
X184747619Y-108685714D01*
X184700000Y-106114285D02*
X184652380Y-106257142D01*
X184652380Y-106471428D01*
X184700000Y-106685714D01*
X184795238Y-106828571D01*
X184890476Y-106900000D01*
X185080952Y-106971428D01*
X185223809Y-106971428D01*
X185414285Y-106900000D01*
X185509523Y-106828571D01*
X185604761Y-106685714D01*
X185652380Y-106471428D01*
X185652380Y-106328571D01*
X185604761Y-106114285D01*
X185557142Y-106042857D01*
X185223809Y-106042857D01*
X185223809Y-106328571D01*
X185652380Y-104257142D02*
X184652380Y-104257142D01*
X184652380Y-103900000D01*
X184700000Y-103685714D01*
X184795238Y-103542857D01*
X184890476Y-103471428D01*
X185080952Y-103400000D01*
X185223809Y-103400000D01*
X185414285Y-103471428D01*
X185509523Y-103542857D01*
X185604761Y-103685714D01*
X185652380Y-103900000D01*
X185652380Y-104257142D01*
X185652380Y-100757142D02*
X185176190Y-101257142D01*
X185652380Y-101614285D02*
X184652380Y-101614285D01*
X184652380Y-101042857D01*
X184700000Y-100900000D01*
X184747619Y-100828571D01*
X184842857Y-100757142D01*
X184985714Y-100757142D01*
X185080952Y-100828571D01*
X185128571Y-100900000D01*
X185176190Y-101042857D01*
X185176190Y-101614285D01*
D15*
X160028571Y-74125000D02*
X159957142Y-74089285D01*
X159850000Y-74089285D01*
X159742857Y-74125000D01*
X159671428Y-74196428D01*
X159635714Y-74267857D01*
X159600000Y-74410714D01*
X159600000Y-74517857D01*
X159635714Y-74660714D01*
X159671428Y-74732142D01*
X159742857Y-74803571D01*
X159850000Y-74839285D01*
X159921428Y-74839285D01*
X160028571Y-74803571D01*
X160064285Y-74767857D01*
X160064285Y-74517857D01*
X159921428Y-74517857D01*
X160385714Y-74839285D02*
X160385714Y-74089285D01*
X160814285Y-74839285D01*
X160814285Y-74089285D01*
X161171428Y-74839285D02*
X161171428Y-74089285D01*
X161350000Y-74089285D01*
X161457142Y-74125000D01*
X161528571Y-74196428D01*
X161564285Y-74267857D01*
X161600000Y-74410714D01*
X161600000Y-74517857D01*
X161564285Y-74660714D01*
X161528571Y-74732142D01*
X161457142Y-74803571D01*
X161350000Y-74839285D01*
X161171428Y-74839285D01*
X160128571Y-82825000D02*
X160057142Y-82789285D01*
X159950000Y-82789285D01*
X159842857Y-82825000D01*
X159771428Y-82896428D01*
X159735714Y-82967857D01*
X159700000Y-83110714D01*
X159700000Y-83217857D01*
X159735714Y-83360714D01*
X159771428Y-83432142D01*
X159842857Y-83503571D01*
X159950000Y-83539285D01*
X160021428Y-83539285D01*
X160128571Y-83503571D01*
X160164285Y-83467857D01*
X160164285Y-83217857D01*
X160021428Y-83217857D01*
X160485714Y-83539285D02*
X160485714Y-82789285D01*
X160914285Y-83539285D01*
X160914285Y-82789285D01*
X161271428Y-83539285D02*
X161271428Y-82789285D01*
X161450000Y-82789285D01*
X161557142Y-82825000D01*
X161628571Y-82896428D01*
X161664285Y-82967857D01*
X161700000Y-83110714D01*
X161700000Y-83217857D01*
X161664285Y-83360714D01*
X161628571Y-83432142D01*
X161557142Y-83503571D01*
X161450000Y-83539285D01*
X161271428Y-83539285D01*
X160271428Y-78489285D02*
X160735714Y-78489285D01*
X160485714Y-78775000D01*
X160592857Y-78775000D01*
X160664285Y-78810714D01*
X160700000Y-78846428D01*
X160735714Y-78917857D01*
X160735714Y-79096428D01*
X160700000Y-79167857D01*
X160664285Y-79203571D01*
X160592857Y-79239285D01*
X160378571Y-79239285D01*
X160307142Y-79203571D01*
X160271428Y-79167857D01*
X160950000Y-78489285D02*
X161200000Y-79239285D01*
X161450000Y-78489285D01*
X161628571Y-78489285D02*
X162092857Y-78489285D01*
X161842857Y-78775000D01*
X161950000Y-78775000D01*
X162021428Y-78810714D01*
X162057142Y-78846428D01*
X162092857Y-78917857D01*
X162092857Y-79096428D01*
X162057142Y-79167857D01*
X162021428Y-79203571D01*
X161950000Y-79239285D01*
X161735714Y-79239285D01*
X161664285Y-79203571D01*
X161628571Y-79167857D01*
D16*
X181600000Y-76400000D02*
G75*
G03X181600000Y-76400000I-200000J0D01*
G01*
X178500000Y-70000000D02*
G75*
G03X178500000Y-70000000I-200000J0D01*
G01*
D11*
X163602380Y-114092976D02*
X163126190Y-114426309D01*
X163602380Y-114664404D02*
X162602380Y-114664404D01*
X162602380Y-114283452D01*
X162650000Y-114188214D01*
X162697619Y-114140595D01*
X162792857Y-114092976D01*
X162935714Y-114092976D01*
X163030952Y-114140595D01*
X163078571Y-114188214D01*
X163126190Y-114283452D01*
X163126190Y-114664404D01*
X163554761Y-113283452D02*
X163602380Y-113378690D01*
X163602380Y-113569166D01*
X163554761Y-113664404D01*
X163459523Y-113712023D01*
X163078571Y-113712023D01*
X162983333Y-113664404D01*
X162935714Y-113569166D01*
X162935714Y-113378690D01*
X162983333Y-113283452D01*
X163078571Y-113235833D01*
X163173809Y-113235833D01*
X163269047Y-113712023D01*
X163602380Y-112378690D02*
X162602380Y-112378690D01*
X163554761Y-112378690D02*
X163602380Y-112473928D01*
X163602380Y-112664404D01*
X163554761Y-112759642D01*
X163507142Y-112807261D01*
X163411904Y-112854880D01*
X163126190Y-112854880D01*
X163030952Y-112807261D01*
X162983333Y-112759642D01*
X162935714Y-112664404D01*
X162935714Y-112473928D01*
X162983333Y-112378690D01*
X164300000Y-114140595D02*
X164252380Y-114235833D01*
X164252380Y-114378690D01*
X164300000Y-114521547D01*
X164395238Y-114616785D01*
X164490476Y-114664404D01*
X164680952Y-114712023D01*
X164823809Y-114712023D01*
X165014285Y-114664404D01*
X165109523Y-114616785D01*
X165204761Y-114521547D01*
X165252380Y-114378690D01*
X165252380Y-114283452D01*
X165204761Y-114140595D01*
X165157142Y-114092976D01*
X164823809Y-114092976D01*
X164823809Y-114283452D01*
X165252380Y-113664404D02*
X164585714Y-113664404D01*
X164776190Y-113664404D02*
X164680952Y-113616785D01*
X164633333Y-113569166D01*
X164585714Y-113473928D01*
X164585714Y-113378690D01*
X165204761Y-112664404D02*
X165252380Y-112759642D01*
X165252380Y-112950119D01*
X165204761Y-113045357D01*
X165109523Y-113092976D01*
X164728571Y-113092976D01*
X164633333Y-113045357D01*
X164585714Y-112950119D01*
X164585714Y-112759642D01*
X164633333Y-112664404D01*
X164728571Y-112616785D01*
X164823809Y-112616785D01*
X164919047Y-113092976D01*
X165204761Y-111807261D02*
X165252380Y-111902500D01*
X165252380Y-112092976D01*
X165204761Y-112188214D01*
X165109523Y-112235833D01*
X164728571Y-112235833D01*
X164633333Y-112188214D01*
X164585714Y-112092976D01*
X164585714Y-111902500D01*
X164633333Y-111807261D01*
X164728571Y-111759642D01*
X164823809Y-111759642D01*
X164919047Y-112235833D01*
X164585714Y-111331071D02*
X165252380Y-111331071D01*
X164680952Y-111331071D02*
X164633333Y-111283452D01*
X164585714Y-111188214D01*
X164585714Y-111045357D01*
X164633333Y-110950119D01*
X164728571Y-110902500D01*
X165252380Y-110902500D01*
X166378571Y-114331071D02*
X166426190Y-114188214D01*
X166473809Y-114140595D01*
X166569047Y-114092976D01*
X166711904Y-114092976D01*
X166807142Y-114140595D01*
X166854761Y-114188214D01*
X166902380Y-114283452D01*
X166902380Y-114664404D01*
X165902380Y-114664404D01*
X165902380Y-114331071D01*
X165950000Y-114235833D01*
X165997619Y-114188214D01*
X166092857Y-114140595D01*
X166188095Y-114140595D01*
X166283333Y-114188214D01*
X166330952Y-114235833D01*
X166378571Y-114331071D01*
X166378571Y-114664404D01*
X166902380Y-113521547D02*
X166854761Y-113616785D01*
X166759523Y-113664404D01*
X165902380Y-113664404D01*
X166235714Y-112712023D02*
X166902380Y-112712023D01*
X166235714Y-113140595D02*
X166759523Y-113140595D01*
X166854761Y-113092976D01*
X166902380Y-112997738D01*
X166902380Y-112854880D01*
X166854761Y-112759642D01*
X166807142Y-112712023D01*
X166854761Y-111854880D02*
X166902380Y-111950119D01*
X166902380Y-112140595D01*
X166854761Y-112235833D01*
X166759523Y-112283452D01*
X166378571Y-112283452D01*
X166283333Y-112235833D01*
X166235714Y-112140595D01*
X166235714Y-111950119D01*
X166283333Y-111854880D01*
X166378571Y-111807261D01*
X166473809Y-111807261D01*
X166569047Y-112283452D01*
D14*
X181314285Y-110652380D02*
X181409523Y-110747619D01*
X181504761Y-111033333D01*
X181504761Y-111223809D01*
X181409523Y-111509523D01*
X181219047Y-111700000D01*
X181028571Y-111795238D01*
X180647619Y-111890476D01*
X180361904Y-111890476D01*
X179980952Y-111795238D01*
X179790476Y-111700000D01*
X179600000Y-111509523D01*
X179504761Y-111223809D01*
X179504761Y-111033333D01*
X179600000Y-110747619D01*
X179695238Y-110652380D01*
X180933333Y-109890476D02*
X180933333Y-108938095D01*
X181504761Y-110080952D02*
X179504761Y-109414285D01*
X181504761Y-108747619D01*
X181504761Y-106938095D02*
X180552380Y-107604761D01*
X181504761Y-108080952D02*
X179504761Y-108080952D01*
X179504761Y-107319047D01*
X179600000Y-107128571D01*
X179695238Y-107033333D01*
X179885714Y-106938095D01*
X180171428Y-106938095D01*
X180361904Y-107033333D01*
X180457142Y-107128571D01*
X180552380Y-107319047D01*
X180552380Y-108080952D01*
X181504761Y-106080952D02*
X179504761Y-106080952D01*
X179504761Y-105604761D01*
X179600000Y-105319047D01*
X179790476Y-105128571D01*
X179980952Y-105033333D01*
X180361904Y-104938095D01*
X180647619Y-104938095D01*
X181028571Y-105033333D01*
X181219047Y-105128571D01*
X181409523Y-105319047D01*
X181504761Y-105604761D01*
X181504761Y-106080952D01*
X180171428Y-101700000D02*
X181504761Y-101700000D01*
X179409523Y-102176190D02*
X180838095Y-102652380D01*
X180838095Y-101414285D01*
X177714285Y-110652380D02*
X177809523Y-110747619D01*
X177904761Y-111033333D01*
X177904761Y-111223809D01*
X177809523Y-111509523D01*
X177619047Y-111700000D01*
X177428571Y-111795238D01*
X177047619Y-111890476D01*
X176761904Y-111890476D01*
X176380952Y-111795238D01*
X176190476Y-111700000D01*
X176000000Y-111509523D01*
X175904761Y-111223809D01*
X175904761Y-111033333D01*
X176000000Y-110747619D01*
X176095238Y-110652380D01*
X177333333Y-109890476D02*
X177333333Y-108938095D01*
X177904761Y-110080952D02*
X175904761Y-109414285D01*
X177904761Y-108747619D01*
X177904761Y-106938095D02*
X176952380Y-107604761D01*
X177904761Y-108080952D02*
X175904761Y-108080952D01*
X175904761Y-107319047D01*
X176000000Y-107128571D01*
X176095238Y-107033333D01*
X176285714Y-106938095D01*
X176571428Y-106938095D01*
X176761904Y-107033333D01*
X176857142Y-107128571D01*
X176952380Y-107319047D01*
X176952380Y-108080952D01*
X177904761Y-106080952D02*
X175904761Y-106080952D01*
X175904761Y-105604761D01*
X176000000Y-105319047D01*
X176190476Y-105128571D01*
X176380952Y-105033333D01*
X176761904Y-104938095D01*
X177047619Y-104938095D01*
X177428571Y-105033333D01*
X177619047Y-105128571D01*
X177809523Y-105319047D01*
X177904761Y-105604761D01*
X177904761Y-106080952D01*
X175904761Y-102747619D02*
X175904761Y-101509523D01*
X176666666Y-102176190D01*
X176666666Y-101890476D01*
X176761904Y-101700000D01*
X176857142Y-101604761D01*
X177047619Y-101509523D01*
X177523809Y-101509523D01*
X177714285Y-101604761D01*
X177809523Y-101700000D01*
X177904761Y-101890476D01*
X177904761Y-102461904D01*
X177809523Y-102652380D01*
X177714285Y-102747619D01*
X173914285Y-110652380D02*
X174009523Y-110747619D01*
X174104761Y-111033333D01*
X174104761Y-111223809D01*
X174009523Y-111509523D01*
X173819047Y-111700000D01*
X173628571Y-111795238D01*
X173247619Y-111890476D01*
X172961904Y-111890476D01*
X172580952Y-111795238D01*
X172390476Y-111700000D01*
X172200000Y-111509523D01*
X172104761Y-111223809D01*
X172104761Y-111033333D01*
X172200000Y-110747619D01*
X172295238Y-110652380D01*
X173533333Y-109890476D02*
X173533333Y-108938095D01*
X174104761Y-110080952D02*
X172104761Y-109414285D01*
X174104761Y-108747619D01*
X174104761Y-106938095D02*
X173152380Y-107604761D01*
X174104761Y-108080952D02*
X172104761Y-108080952D01*
X172104761Y-107319047D01*
X172200000Y-107128571D01*
X172295238Y-107033333D01*
X172485714Y-106938095D01*
X172771428Y-106938095D01*
X172961904Y-107033333D01*
X173057142Y-107128571D01*
X173152380Y-107319047D01*
X173152380Y-108080952D01*
X174104761Y-106080952D02*
X172104761Y-106080952D01*
X172104761Y-105604761D01*
X172200000Y-105319047D01*
X172390476Y-105128571D01*
X172580952Y-105033333D01*
X172961904Y-104938095D01*
X173247619Y-104938095D01*
X173628571Y-105033333D01*
X173819047Y-105128571D01*
X174009523Y-105319047D01*
X174104761Y-105604761D01*
X174104761Y-106080952D01*
X172295238Y-102652380D02*
X172200000Y-102557142D01*
X172104761Y-102366666D01*
X172104761Y-101890476D01*
X172200000Y-101700000D01*
X172295238Y-101604761D01*
X172485714Y-101509523D01*
X172676190Y-101509523D01*
X172961904Y-101604761D01*
X174104761Y-102747619D01*
X174104761Y-101509523D01*
X170214285Y-110652380D02*
X170309523Y-110747619D01*
X170404761Y-111033333D01*
X170404761Y-111223809D01*
X170309523Y-111509523D01*
X170119047Y-111700000D01*
X169928571Y-111795238D01*
X169547619Y-111890476D01*
X169261904Y-111890476D01*
X168880952Y-111795238D01*
X168690476Y-111700000D01*
X168500000Y-111509523D01*
X168404761Y-111223809D01*
X168404761Y-111033333D01*
X168500000Y-110747619D01*
X168595238Y-110652380D01*
X169833333Y-109890476D02*
X169833333Y-108938095D01*
X170404761Y-110080952D02*
X168404761Y-109414285D01*
X170404761Y-108747619D01*
X170404761Y-106938095D02*
X169452380Y-107604761D01*
X170404761Y-108080952D02*
X168404761Y-108080952D01*
X168404761Y-107319047D01*
X168500000Y-107128571D01*
X168595238Y-107033333D01*
X168785714Y-106938095D01*
X169071428Y-106938095D01*
X169261904Y-107033333D01*
X169357142Y-107128571D01*
X169452380Y-107319047D01*
X169452380Y-108080952D01*
X170404761Y-106080952D02*
X168404761Y-106080952D01*
X168404761Y-105604761D01*
X168500000Y-105319047D01*
X168690476Y-105128571D01*
X168880952Y-105033333D01*
X169261904Y-104938095D01*
X169547619Y-104938095D01*
X169928571Y-105033333D01*
X170119047Y-105128571D01*
X170309523Y-105319047D01*
X170404761Y-105604761D01*
X170404761Y-106080952D01*
X170404761Y-101509523D02*
X170404761Y-102652380D01*
X170404761Y-102080952D02*
X168404761Y-102080952D01*
X168690476Y-102271428D01*
X168880952Y-102461904D01*
X168976190Y-102652380D01*
D16*
X134920000Y-94000000D02*
X134920000Y-120000000D01*
D17*
X134920000Y-94000000D02*
X144860000Y-94000000D01*
X144860000Y-94000000D02*
X144860000Y-120000000D01*
X144860000Y-120000000D02*
X134920000Y-120000000D01*
D16*
X108920000Y-94000000D02*
X108920000Y-120000000D01*
D17*
X108920000Y-94000000D02*
X118860000Y-94000000D01*
X118860000Y-94000000D02*
X118860000Y-120000000D01*
X118860000Y-120000000D02*
X108920000Y-120000000D01*
D16*
X121920000Y-94000000D02*
X121920000Y-120000000D01*
D17*
X121920000Y-94000000D02*
X131860000Y-94000000D01*
X131860000Y-94000000D02*
X131860000Y-120000000D01*
X131860000Y-120000000D02*
X121920000Y-120000000D01*
D16*
X147920000Y-93960000D02*
X147920000Y-119960000D01*
D17*
X147920000Y-93960000D02*
X157860000Y-93960000D01*
X157860000Y-93960000D02*
X157860000Y-119960000D01*
X157860000Y-119960000D02*
X147920000Y-119960000D01*
X101000000Y-70000000D02*
X101000000Y-120000000D01*
X101000000Y-120000000D02*
G75*
G03X104000000Y-123000000I3000000J0D01*
G01*
X104000000Y-123000000D02*
X183000000Y-123000000D01*
X183000000Y-123000000D02*
G75*
G03X186000000Y-120000000I0J3000000D01*
G01*
X186000000Y-120000000D02*
X186000000Y-70000000D01*
X186000000Y-70000000D02*
G75*
G03X183000000Y-67000000I-3000000J0D01*
G01*
X183000000Y-67000000D02*
X104000000Y-67000000D01*
X104000000Y-67000000D02*
G75*
G03X101000000Y-70000000I0J-3000000D01*
G01*
X133500000Y-69000000D02*
X133500000Y-72000000D01*
X132000000Y-70500000D02*
X135000000Y-70500000D01*
D18*
X108735000Y-67960000D02*
X110005000Y-67960000D01*
X110005000Y-67960000D02*
X110640000Y-68595000D01*
X110640000Y-68595000D02*
X111275000Y-67960000D01*
X111275000Y-67960000D02*
X112545000Y-67960000D01*
X112545000Y-67960000D02*
X113180000Y-68595000D01*
X108735000Y-67960000D02*
X108100000Y-68595000D01*
X113180000Y-68595000D02*
X113815000Y-67960000D01*
X113815000Y-67960000D02*
X115085000Y-67960000D01*
X115085000Y-67960000D02*
X115720000Y-68595000D01*
X116355000Y-67960000D02*
X117625000Y-67960000D01*
X117625000Y-67960000D02*
X118260000Y-68595000D01*
X118260000Y-68595000D02*
X118895000Y-67960000D01*
X118895000Y-67960000D02*
X120165000Y-67960000D01*
X120165000Y-67960000D02*
X120800000Y-68595000D01*
X116355000Y-67960000D02*
X115720000Y-68595000D01*
X120800000Y-68595000D02*
X121435000Y-67960000D01*
X121435000Y-67960000D02*
X122705000Y-67960000D01*
X122705000Y-67960000D02*
X123340000Y-68595000D01*
X110640000Y-72405000D02*
X110005000Y-73040000D01*
X113180000Y-72405000D02*
X112545000Y-73040000D01*
X112545000Y-73040000D02*
X111275000Y-73040000D01*
X111275000Y-73040000D02*
X110640000Y-72405000D01*
X108100000Y-68595000D02*
X108100000Y-72405000D01*
X108100000Y-72405000D02*
X108735000Y-73040000D01*
X110005000Y-73040000D02*
X108735000Y-73040000D01*
X115720000Y-72405000D02*
X115085000Y-73040000D01*
X115085000Y-73040000D02*
X113815000Y-73040000D01*
X113815000Y-73040000D02*
X113180000Y-72405000D01*
X118260000Y-72405000D02*
X117625000Y-73040000D01*
X120800000Y-72405000D02*
X120165000Y-73040000D01*
X120165000Y-73040000D02*
X118895000Y-73040000D01*
X118895000Y-73040000D02*
X118260000Y-72405000D01*
X115720000Y-72405000D02*
X116355000Y-73040000D01*
X117625000Y-73040000D02*
X116355000Y-73040000D01*
X123340000Y-72405000D02*
X122705000Y-73040000D01*
X122705000Y-73040000D02*
X121435000Y-73040000D01*
X121435000Y-73040000D02*
X120800000Y-72405000D01*
X125245000Y-67960000D02*
X125880000Y-68595000D01*
X123975000Y-67960000D02*
X125245000Y-67960000D01*
X123340000Y-68595000D02*
X123975000Y-67960000D01*
X123975000Y-73040000D02*
X123340000Y-72405000D01*
X125245000Y-73040000D02*
X123975000Y-73040000D01*
X125880000Y-72405000D02*
X125245000Y-73040000D01*
X126515000Y-67960000D02*
X127785000Y-67960000D01*
X127785000Y-67960000D02*
X128420000Y-68595000D01*
X128420000Y-68595000D02*
X129055000Y-67960000D01*
X129055000Y-67960000D02*
X130325000Y-67960000D01*
X130325000Y-67960000D02*
X130960000Y-68595000D01*
X126515000Y-67960000D02*
X125880000Y-68595000D01*
X130960000Y-68595000D02*
X131595000Y-67960000D01*
X131595000Y-67960000D02*
X132865000Y-67960000D01*
X132865000Y-67960000D02*
X133500000Y-68595000D01*
X134135000Y-67960000D02*
X135405000Y-67960000D01*
X135405000Y-67960000D02*
X136040000Y-68595000D01*
X136040000Y-68595000D02*
X136675000Y-67960000D01*
X136675000Y-67960000D02*
X137945000Y-67960000D01*
X137945000Y-67960000D02*
X138580000Y-68595000D01*
X134135000Y-67960000D02*
X133500000Y-68595000D01*
X138580000Y-68595000D02*
X139215000Y-67960000D01*
X139215000Y-67960000D02*
X140485000Y-67960000D01*
X140485000Y-67960000D02*
X141120000Y-68595000D01*
X128420000Y-72405000D02*
X127785000Y-73040000D01*
X130960000Y-72405000D02*
X130325000Y-73040000D01*
X130325000Y-73040000D02*
X129055000Y-73040000D01*
X129055000Y-73040000D02*
X128420000Y-72405000D01*
X125880000Y-72405000D02*
X126515000Y-73040000D01*
X127785000Y-73040000D02*
X126515000Y-73040000D01*
X133500000Y-72405000D02*
X132865000Y-73040000D01*
X132865000Y-73040000D02*
X131595000Y-73040000D01*
X131595000Y-73040000D02*
X130960000Y-72405000D01*
X136040000Y-72405000D02*
X135405000Y-73040000D01*
X138580000Y-72405000D02*
X137945000Y-73040000D01*
X137945000Y-73040000D02*
X136675000Y-73040000D01*
X136675000Y-73040000D02*
X136040000Y-72405000D01*
X133500000Y-72405000D02*
X134135000Y-73040000D01*
X135405000Y-73040000D02*
X134135000Y-73040000D01*
X141120000Y-72405000D02*
X140485000Y-73040000D01*
X140485000Y-73040000D02*
X139215000Y-73040000D01*
X139215000Y-73040000D02*
X138580000Y-72405000D01*
X143025000Y-67960000D02*
X143660000Y-68595000D01*
X141755000Y-67960000D02*
X143025000Y-67960000D01*
X141120000Y-68595000D02*
X141755000Y-67960000D01*
X141755000Y-73040000D02*
X141120000Y-72405000D01*
X143025000Y-73040000D02*
X141755000Y-73040000D01*
X143660000Y-72405000D02*
X143025000Y-73040000D01*
X144295000Y-67960000D02*
X145565000Y-67960000D01*
X145565000Y-67960000D02*
X146200000Y-68595000D01*
X146200000Y-68595000D02*
X146835000Y-67960000D01*
X146835000Y-67960000D02*
X148105000Y-67960000D01*
X148105000Y-67960000D02*
X148740000Y-68595000D01*
X144295000Y-67960000D02*
X143660000Y-68595000D01*
X148740000Y-68595000D02*
X149375000Y-67960000D01*
X149375000Y-67960000D02*
X150645000Y-67960000D01*
X150645000Y-67960000D02*
X151280000Y-68595000D01*
X151915000Y-67960000D02*
X153185000Y-67960000D01*
X153185000Y-67960000D02*
X153820000Y-68595000D01*
X153820000Y-68595000D02*
X154455000Y-67960000D01*
X154455000Y-67960000D02*
X155725000Y-67960000D01*
X155725000Y-67960000D02*
X156360000Y-68595000D01*
X151915000Y-67960000D02*
X151280000Y-68595000D01*
X156360000Y-68595000D02*
X156995000Y-67960000D01*
X156995000Y-67960000D02*
X158265000Y-67960000D01*
X146200000Y-72405000D02*
X145565000Y-73040000D01*
X148740000Y-72405000D02*
X148105000Y-73040000D01*
X148105000Y-73040000D02*
X146835000Y-73040000D01*
X146835000Y-73040000D02*
X146200000Y-72405000D01*
X143660000Y-72405000D02*
X144295000Y-73040000D01*
X145565000Y-73040000D02*
X144295000Y-73040000D01*
X151280000Y-72405000D02*
X150645000Y-73040000D01*
X150645000Y-73040000D02*
X149375000Y-73040000D01*
X149375000Y-73040000D02*
X148740000Y-72405000D01*
X153820000Y-72405000D02*
X153185000Y-73040000D01*
X156360000Y-72405000D02*
X155725000Y-73040000D01*
X155725000Y-73040000D02*
X154455000Y-73040000D01*
X154455000Y-73040000D02*
X153820000Y-72405000D01*
X151280000Y-72405000D02*
X151915000Y-73040000D01*
X153185000Y-73040000D02*
X151915000Y-73040000D01*
X158265000Y-73040000D02*
X156995000Y-73040000D01*
X156995000Y-73040000D02*
X156360000Y-72405000D01*
X158900000Y-68595000D02*
X158900000Y-72405000D01*
X158265000Y-67960000D02*
X158900000Y-68595000D01*
X158900000Y-72405000D02*
X158265000Y-73040000D01*
D17*
X129970000Y-85800000D02*
X130250000Y-85800000D01*
X130250000Y-85800000D02*
X130250000Y-91400000D01*
X130250000Y-91400000D02*
X129970000Y-91400000D01*
X123030000Y-91400000D02*
X122750000Y-91400000D01*
X122750000Y-91400000D02*
X122750000Y-85800000D01*
X122750000Y-85800000D02*
X123030000Y-85800000D01*
D19*
X129500000Y-83500000D02*
G75*
G03X129500000Y-83500000I-100000J0D01*
G01*
X155400000Y-83500000D02*
G75*
G03X155400000Y-83500000I-100000J0D01*
G01*
D17*
X148650000Y-85800000D02*
X148930000Y-85800000D01*
X148650000Y-91400000D02*
X148650000Y-85800000D01*
X148930000Y-91400000D02*
X148650000Y-91400000D01*
X156150000Y-91400000D02*
X155870000Y-91400000D01*
X156150000Y-85800000D02*
X156150000Y-91400000D01*
X155870000Y-85800000D02*
X156150000Y-85800000D01*
D16*
X168290000Y-91810000D02*
X168290000Y-92510000D01*
X168290000Y-92510000D02*
X168990000Y-92510000D01*
X168290000Y-78990000D02*
X168290000Y-78290000D01*
X168290000Y-78290000D02*
X168990000Y-78290000D01*
X182510000Y-91810000D02*
X182510000Y-92510000D01*
X182510000Y-92510000D02*
X181810000Y-92510000D01*
X182510000Y-78990000D02*
X182510000Y-78290000D01*
X182510000Y-78290000D02*
X181810000Y-78290000D01*
X181810000Y-78290000D02*
X181810000Y-76925000D01*
X181137221Y-96010000D02*
X181462779Y-96010000D01*
X181137221Y-94990000D02*
X181462779Y-94990000D01*
X170362779Y-75110000D02*
X170037221Y-75110000D01*
X170362779Y-74090000D02*
X170037221Y-74090000D01*
X168250000Y-118950000D02*
X168250000Y-118350000D01*
X168250000Y-118350000D02*
X171150000Y-118350000D01*
X168250000Y-120650000D02*
X171150000Y-120650000D01*
X171950000Y-118950000D02*
X171950000Y-118350000D01*
X171950000Y-118350000D02*
X174850000Y-118350000D01*
X171950000Y-120650000D02*
X174850000Y-120650000D01*
X175650000Y-120650000D02*
X178550000Y-120650000D01*
X175650000Y-118350000D02*
X178550000Y-118350000D01*
X175650000Y-118950000D02*
X175650000Y-118350000D01*
X179350000Y-120650000D02*
X182250000Y-120650000D01*
X179350000Y-118350000D02*
X182250000Y-118350000D01*
X179350000Y-118950000D02*
X179350000Y-118350000D01*
X161800000Y-80000000D02*
X161500000Y-80300000D01*
X161500000Y-79700000D02*
X161500000Y-80300000D01*
X161800000Y-80000000D02*
X161500000Y-79700000D01*
X162700000Y-79150000D02*
X163300000Y-79150000D01*
X162000000Y-82600000D02*
X162000000Y-79800000D01*
X163300000Y-83250000D02*
X162700000Y-83250000D01*
X164000000Y-79800000D02*
X164000000Y-82600000D01*
X164000000Y-82550000D02*
G75*
G02X163300000Y-83250000I-700000J0D01*
G01*
X162700000Y-83250000D02*
G75*
G02X162000000Y-82550000I0J700000D01*
G01*
X162000000Y-79850000D02*
G75*
G02X162700000Y-79150000I700000J0D01*
G01*
X163300000Y-79150000D02*
G75*
G02X164000000Y-79850000I0J-700000D01*
G01*
X163300000Y-74450000D02*
G75*
G02X164000000Y-75150000I0J-700000D01*
G01*
X162000000Y-75150000D02*
G75*
G02X162700000Y-74450000I700000J0D01*
G01*
X162700000Y-78550000D02*
G75*
G02X162000000Y-77850000I0J700000D01*
G01*
X164000000Y-77850000D02*
G75*
G02X163300000Y-78550000I-700000J0D01*
G01*
X164000000Y-75100000D02*
X164000000Y-77900000D01*
X163300000Y-78550000D02*
X162700000Y-78550000D01*
X162000000Y-77900000D02*
X162000000Y-75100000D01*
X162700000Y-74450000D02*
X163300000Y-74450000D01*
X161800000Y-75300000D02*
X161500000Y-75000000D01*
X161500000Y-75000000D02*
X161500000Y-75600000D01*
X161800000Y-75300000D02*
X161500000Y-75600000D01*
X178000000Y-73550000D02*
X178000000Y-70250000D01*
X178000000Y-70250000D02*
X174000000Y-70250000D01*
X184430000Y-99910000D02*
X181770000Y-99910000D01*
X184430000Y-110130000D02*
X184430000Y-99910000D01*
X181770000Y-110130000D02*
X181770000Y-99910000D01*
X184430000Y-110130000D02*
X181770000Y-110130000D01*
X184430000Y-111400000D02*
X184430000Y-112730000D01*
X184430000Y-112730000D02*
X183100000Y-112730000D01*
D15*
X160082142Y-77839285D02*
X159653571Y-77839285D01*
X159867857Y-77839285D02*
X159867857Y-77089285D01*
X159796428Y-77196428D01*
X159725000Y-77267857D01*
X159653571Y-77303571D01*
X160546428Y-77089285D02*
X160617857Y-77089285D01*
X160689285Y-77125000D01*
X160725000Y-77160714D01*
X160760714Y-77232142D01*
X160796428Y-77375000D01*
X160796428Y-77553571D01*
X160760714Y-77696428D01*
X160725000Y-77767857D01*
X160689285Y-77803571D01*
X160617857Y-77839285D01*
X160546428Y-77839285D01*
X160475000Y-77803571D01*
X160439285Y-77767857D01*
X160403571Y-77696428D01*
X160367857Y-77553571D01*
X160367857Y-77375000D01*
X160403571Y-77232142D01*
X160439285Y-77160714D01*
X160475000Y-77125000D01*
X160546428Y-77089285D01*
X161117857Y-77839285D02*
X161117857Y-77089285D01*
X161546428Y-77839285D02*
X161225000Y-77410714D01*
X161546428Y-77089285D02*
X161117857Y-77517857D01*
X160539285Y-81217857D02*
X160539285Y-81646428D01*
X160539285Y-81432142D02*
X159789285Y-81432142D01*
X159896428Y-81503571D01*
X159967857Y-81575000D01*
X160003571Y-81646428D01*
X159789285Y-80753571D02*
X159789285Y-80682142D01*
X159825000Y-80610714D01*
X159860714Y-80575000D01*
X159932142Y-80539285D01*
X160075000Y-80503571D01*
X160253571Y-80503571D01*
X160396428Y-80539285D01*
X160467857Y-80575000D01*
X160503571Y-80610714D01*
X160539285Y-80682142D01*
X160539285Y-80753571D01*
X160503571Y-80825000D01*
X160467857Y-80860714D01*
X160396428Y-80896428D01*
X160253571Y-80932142D01*
X160075000Y-80932142D01*
X159932142Y-80896428D01*
X159860714Y-80860714D01*
X159825000Y-80825000D01*
X159789285Y-80753571D01*
X160539285Y-80182142D02*
X159789285Y-80182142D01*
X160539285Y-79753571D02*
X160110714Y-80075000D01*
X159789285Y-79753571D02*
X160217857Y-80182142D01*
X169939285Y-115975000D02*
X169939285Y-115832142D01*
X169903571Y-115760714D01*
X169867857Y-115725000D01*
X169760714Y-115653571D01*
X169617857Y-115617857D01*
X169332142Y-115617857D01*
X169260714Y-115653571D01*
X169225000Y-115689285D01*
X169189285Y-115760714D01*
X169189285Y-115903571D01*
X169225000Y-115975000D01*
X169260714Y-116010714D01*
X169332142Y-116046428D01*
X169510714Y-116046428D01*
X169582142Y-116010714D01*
X169617857Y-115975000D01*
X169653571Y-115903571D01*
X169653571Y-115760714D01*
X169617857Y-115689285D01*
X169582142Y-115653571D01*
X169510714Y-115617857D01*
X169939285Y-114903571D02*
X169939285Y-115332142D01*
X169939285Y-115117857D02*
X169189285Y-115117857D01*
X169296428Y-115189285D01*
X169367857Y-115260714D01*
X169403571Y-115332142D01*
X169939285Y-114153571D02*
X169582142Y-114403571D01*
X169939285Y-114582142D02*
X169189285Y-114582142D01*
X169189285Y-114296428D01*
X169225000Y-114225000D01*
X169260714Y-114189285D01*
X169332142Y-114153571D01*
X169439285Y-114153571D01*
X169510714Y-114189285D01*
X169546428Y-114225000D01*
X169582142Y-114296428D01*
X169582142Y-114582142D01*
X173639285Y-115975000D02*
X173639285Y-115832142D01*
X173603571Y-115760714D01*
X173567857Y-115725000D01*
X173460714Y-115653571D01*
X173317857Y-115617857D01*
X173032142Y-115617857D01*
X172960714Y-115653571D01*
X172925000Y-115689285D01*
X172889285Y-115760714D01*
X172889285Y-115903571D01*
X172925000Y-115975000D01*
X172960714Y-116010714D01*
X173032142Y-116046428D01*
X173210714Y-116046428D01*
X173282142Y-116010714D01*
X173317857Y-115975000D01*
X173353571Y-115903571D01*
X173353571Y-115760714D01*
X173317857Y-115689285D01*
X173282142Y-115653571D01*
X173210714Y-115617857D01*
X173639285Y-114903571D02*
X173639285Y-115332142D01*
X173639285Y-115117857D02*
X172889285Y-115117857D01*
X172996428Y-115189285D01*
X173067857Y-115260714D01*
X173103571Y-115332142D01*
X173639285Y-114153571D02*
X173282142Y-114403571D01*
X173639285Y-114582142D02*
X172889285Y-114582142D01*
X172889285Y-114296428D01*
X172925000Y-114225000D01*
X172960714Y-114189285D01*
X173032142Y-114153571D01*
X173139285Y-114153571D01*
X173210714Y-114189285D01*
X173246428Y-114225000D01*
X173282142Y-114296428D01*
X173282142Y-114582142D01*
X177339285Y-115975000D02*
X177339285Y-115832142D01*
X177303571Y-115760714D01*
X177267857Y-115725000D01*
X177160714Y-115653571D01*
X177017857Y-115617857D01*
X176732142Y-115617857D01*
X176660714Y-115653571D01*
X176625000Y-115689285D01*
X176589285Y-115760714D01*
X176589285Y-115903571D01*
X176625000Y-115975000D01*
X176660714Y-116010714D01*
X176732142Y-116046428D01*
X176910714Y-116046428D01*
X176982142Y-116010714D01*
X177017857Y-115975000D01*
X177053571Y-115903571D01*
X177053571Y-115760714D01*
X177017857Y-115689285D01*
X176982142Y-115653571D01*
X176910714Y-115617857D01*
X177339285Y-114903571D02*
X177339285Y-115332142D01*
X177339285Y-115117857D02*
X176589285Y-115117857D01*
X176696428Y-115189285D01*
X176767857Y-115260714D01*
X176803571Y-115332142D01*
X177339285Y-114153571D02*
X176982142Y-114403571D01*
X177339285Y-114582142D02*
X176589285Y-114582142D01*
X176589285Y-114296428D01*
X176625000Y-114225000D01*
X176660714Y-114189285D01*
X176732142Y-114153571D01*
X176839285Y-114153571D01*
X176910714Y-114189285D01*
X176946428Y-114225000D01*
X176982142Y-114296428D01*
X176982142Y-114582142D01*
X181039285Y-115975000D02*
X181039285Y-115832142D01*
X181003571Y-115760714D01*
X180967857Y-115725000D01*
X180860714Y-115653571D01*
X180717857Y-115617857D01*
X180432142Y-115617857D01*
X180360714Y-115653571D01*
X180325000Y-115689285D01*
X180289285Y-115760714D01*
X180289285Y-115903571D01*
X180325000Y-115975000D01*
X180360714Y-116010714D01*
X180432142Y-116046428D01*
X180610714Y-116046428D01*
X180682142Y-116010714D01*
X180717857Y-115975000D01*
X180753571Y-115903571D01*
X180753571Y-115760714D01*
X180717857Y-115689285D01*
X180682142Y-115653571D01*
X180610714Y-115617857D01*
X181039285Y-114903571D02*
X181039285Y-115332142D01*
X181039285Y-115117857D02*
X180289285Y-115117857D01*
X180396428Y-115189285D01*
X180467857Y-115260714D01*
X180503571Y-115332142D01*
X181039285Y-114153571D02*
X180682142Y-114403571D01*
X181039285Y-114582142D02*
X180289285Y-114582142D01*
X180289285Y-114296428D01*
X180325000Y-114225000D01*
X180360714Y-114189285D01*
X180432142Y-114153571D01*
X180539285Y-114153571D01*
X180610714Y-114189285D01*
X180646428Y-114225000D01*
X180682142Y-114296428D01*
X180682142Y-114582142D01*
X168189285Y-115689285D02*
X168189285Y-115832142D01*
X168225000Y-115903571D01*
X168260714Y-115939285D01*
X168367857Y-116010714D01*
X168510714Y-116046428D01*
X168796428Y-116046428D01*
X168867857Y-116010714D01*
X168903571Y-115975000D01*
X168939285Y-115903571D01*
X168939285Y-115760714D01*
X168903571Y-115689285D01*
X168867857Y-115653571D01*
X168796428Y-115617857D01*
X168617857Y-115617857D01*
X168546428Y-115653571D01*
X168510714Y-115689285D01*
X168475000Y-115760714D01*
X168475000Y-115903571D01*
X168510714Y-115975000D01*
X168546428Y-116010714D01*
X168617857Y-116046428D01*
X168260714Y-115332142D02*
X168225000Y-115296428D01*
X168189285Y-115225000D01*
X168189285Y-115046428D01*
X168225000Y-114975000D01*
X168260714Y-114939285D01*
X168332142Y-114903571D01*
X168403571Y-114903571D01*
X168510714Y-114939285D01*
X168939285Y-115367857D01*
X168939285Y-114903571D01*
X168939285Y-114153571D02*
X168582142Y-114403571D01*
X168939285Y-114582142D02*
X168189285Y-114582142D01*
X168189285Y-114296428D01*
X168225000Y-114225000D01*
X168260714Y-114189285D01*
X168332142Y-114153571D01*
X168439285Y-114153571D01*
X168510714Y-114189285D01*
X168546428Y-114225000D01*
X168582142Y-114296428D01*
X168582142Y-114582142D01*
X171889285Y-115689285D02*
X171889285Y-115832142D01*
X171925000Y-115903571D01*
X171960714Y-115939285D01*
X172067857Y-116010714D01*
X172210714Y-116046428D01*
X172496428Y-116046428D01*
X172567857Y-116010714D01*
X172603571Y-115975000D01*
X172639285Y-115903571D01*
X172639285Y-115760714D01*
X172603571Y-115689285D01*
X172567857Y-115653571D01*
X172496428Y-115617857D01*
X172317857Y-115617857D01*
X172246428Y-115653571D01*
X172210714Y-115689285D01*
X172175000Y-115760714D01*
X172175000Y-115903571D01*
X172210714Y-115975000D01*
X172246428Y-116010714D01*
X172317857Y-116046428D01*
X171960714Y-115332142D02*
X171925000Y-115296428D01*
X171889285Y-115225000D01*
X171889285Y-115046428D01*
X171925000Y-114975000D01*
X171960714Y-114939285D01*
X172032142Y-114903571D01*
X172103571Y-114903571D01*
X172210714Y-114939285D01*
X172639285Y-115367857D01*
X172639285Y-114903571D01*
X172639285Y-114153571D02*
X172282142Y-114403571D01*
X172639285Y-114582142D02*
X171889285Y-114582142D01*
X171889285Y-114296428D01*
X171925000Y-114225000D01*
X171960714Y-114189285D01*
X172032142Y-114153571D01*
X172139285Y-114153571D01*
X172210714Y-114189285D01*
X172246428Y-114225000D01*
X172282142Y-114296428D01*
X172282142Y-114582142D01*
X175589285Y-115689285D02*
X175589285Y-115832142D01*
X175625000Y-115903571D01*
X175660714Y-115939285D01*
X175767857Y-116010714D01*
X175910714Y-116046428D01*
X176196428Y-116046428D01*
X176267857Y-116010714D01*
X176303571Y-115975000D01*
X176339285Y-115903571D01*
X176339285Y-115760714D01*
X176303571Y-115689285D01*
X176267857Y-115653571D01*
X176196428Y-115617857D01*
X176017857Y-115617857D01*
X175946428Y-115653571D01*
X175910714Y-115689285D01*
X175875000Y-115760714D01*
X175875000Y-115903571D01*
X175910714Y-115975000D01*
X175946428Y-116010714D01*
X176017857Y-116046428D01*
X175660714Y-115332142D02*
X175625000Y-115296428D01*
X175589285Y-115225000D01*
X175589285Y-115046428D01*
X175625000Y-114975000D01*
X175660714Y-114939285D01*
X175732142Y-114903571D01*
X175803571Y-114903571D01*
X175910714Y-114939285D01*
X176339285Y-115367857D01*
X176339285Y-114903571D01*
X176339285Y-114153571D02*
X175982142Y-114403571D01*
X176339285Y-114582142D02*
X175589285Y-114582142D01*
X175589285Y-114296428D01*
X175625000Y-114225000D01*
X175660714Y-114189285D01*
X175732142Y-114153571D01*
X175839285Y-114153571D01*
X175910714Y-114189285D01*
X175946428Y-114225000D01*
X175982142Y-114296428D01*
X175982142Y-114582142D01*
X179289285Y-115689285D02*
X179289285Y-115832142D01*
X179325000Y-115903571D01*
X179360714Y-115939285D01*
X179467857Y-116010714D01*
X179610714Y-116046428D01*
X179896428Y-116046428D01*
X179967857Y-116010714D01*
X180003571Y-115975000D01*
X180039285Y-115903571D01*
X180039285Y-115760714D01*
X180003571Y-115689285D01*
X179967857Y-115653571D01*
X179896428Y-115617857D01*
X179717857Y-115617857D01*
X179646428Y-115653571D01*
X179610714Y-115689285D01*
X179575000Y-115760714D01*
X179575000Y-115903571D01*
X179610714Y-115975000D01*
X179646428Y-116010714D01*
X179717857Y-116046428D01*
X179360714Y-115332142D02*
X179325000Y-115296428D01*
X179289285Y-115225000D01*
X179289285Y-115046428D01*
X179325000Y-114975000D01*
X179360714Y-114939285D01*
X179432142Y-114903571D01*
X179503571Y-114903571D01*
X179610714Y-114939285D01*
X180039285Y-115367857D01*
X180039285Y-114903571D01*
X180039285Y-114153571D02*
X179682142Y-114403571D01*
X180039285Y-114582142D02*
X179289285Y-114582142D01*
X179289285Y-114296428D01*
X179325000Y-114225000D01*
X179360714Y-114189285D01*
X179432142Y-114153571D01*
X179539285Y-114153571D01*
X179610714Y-114189285D01*
X179646428Y-114225000D01*
X179682142Y-114296428D01*
X179682142Y-114582142D01*
X170939285Y-115575000D02*
X170939285Y-116003571D01*
X170939285Y-115789285D02*
X170189285Y-115789285D01*
X170296428Y-115860714D01*
X170367857Y-115932142D01*
X170403571Y-116003571D01*
X170189285Y-115110714D02*
X170189285Y-115039285D01*
X170225000Y-114967857D01*
X170260714Y-114932142D01*
X170332142Y-114896428D01*
X170475000Y-114860714D01*
X170653571Y-114860714D01*
X170796428Y-114896428D01*
X170867857Y-114932142D01*
X170903571Y-114967857D01*
X170939285Y-115039285D01*
X170939285Y-115110714D01*
X170903571Y-115182142D01*
X170867857Y-115217857D01*
X170796428Y-115253571D01*
X170653571Y-115289285D01*
X170475000Y-115289285D01*
X170332142Y-115253571D01*
X170260714Y-115217857D01*
X170225000Y-115182142D01*
X170189285Y-115110714D01*
X170189285Y-114396428D02*
X170189285Y-114325000D01*
X170225000Y-114253571D01*
X170260714Y-114217857D01*
X170332142Y-114182142D01*
X170475000Y-114146428D01*
X170653571Y-114146428D01*
X170796428Y-114182142D01*
X170867857Y-114217857D01*
X170903571Y-114253571D01*
X170939285Y-114325000D01*
X170939285Y-114396428D01*
X170903571Y-114467857D01*
X170867857Y-114503571D01*
X170796428Y-114539285D01*
X170653571Y-114575000D01*
X170475000Y-114575000D01*
X170332142Y-114539285D01*
X170260714Y-114503571D01*
X170225000Y-114467857D01*
X170189285Y-114396428D01*
X170939285Y-113396428D02*
X170582142Y-113646428D01*
X170939285Y-113825000D02*
X170189285Y-113825000D01*
X170189285Y-113539285D01*
X170225000Y-113467857D01*
X170260714Y-113432142D01*
X170332142Y-113396428D01*
X170439285Y-113396428D01*
X170510714Y-113432142D01*
X170546428Y-113467857D01*
X170582142Y-113539285D01*
X170582142Y-113825000D01*
X174639285Y-115575000D02*
X174639285Y-116003571D01*
X174639285Y-115789285D02*
X173889285Y-115789285D01*
X173996428Y-115860714D01*
X174067857Y-115932142D01*
X174103571Y-116003571D01*
X173889285Y-115110714D02*
X173889285Y-115039285D01*
X173925000Y-114967857D01*
X173960714Y-114932142D01*
X174032142Y-114896428D01*
X174175000Y-114860714D01*
X174353571Y-114860714D01*
X174496428Y-114896428D01*
X174567857Y-114932142D01*
X174603571Y-114967857D01*
X174639285Y-115039285D01*
X174639285Y-115110714D01*
X174603571Y-115182142D01*
X174567857Y-115217857D01*
X174496428Y-115253571D01*
X174353571Y-115289285D01*
X174175000Y-115289285D01*
X174032142Y-115253571D01*
X173960714Y-115217857D01*
X173925000Y-115182142D01*
X173889285Y-115110714D01*
X173889285Y-114396428D02*
X173889285Y-114325000D01*
X173925000Y-114253571D01*
X173960714Y-114217857D01*
X174032142Y-114182142D01*
X174175000Y-114146428D01*
X174353571Y-114146428D01*
X174496428Y-114182142D01*
X174567857Y-114217857D01*
X174603571Y-114253571D01*
X174639285Y-114325000D01*
X174639285Y-114396428D01*
X174603571Y-114467857D01*
X174567857Y-114503571D01*
X174496428Y-114539285D01*
X174353571Y-114575000D01*
X174175000Y-114575000D01*
X174032142Y-114539285D01*
X173960714Y-114503571D01*
X173925000Y-114467857D01*
X173889285Y-114396428D01*
X174639285Y-113396428D02*
X174282142Y-113646428D01*
X174639285Y-113825000D02*
X173889285Y-113825000D01*
X173889285Y-113539285D01*
X173925000Y-113467857D01*
X173960714Y-113432142D01*
X174032142Y-113396428D01*
X174139285Y-113396428D01*
X174210714Y-113432142D01*
X174246428Y-113467857D01*
X174282142Y-113539285D01*
X174282142Y-113825000D01*
X178339285Y-115575000D02*
X178339285Y-116003571D01*
X178339285Y-115789285D02*
X177589285Y-115789285D01*
X177696428Y-115860714D01*
X177767857Y-115932142D01*
X177803571Y-116003571D01*
X177589285Y-115110714D02*
X177589285Y-115039285D01*
X177625000Y-114967857D01*
X177660714Y-114932142D01*
X177732142Y-114896428D01*
X177875000Y-114860714D01*
X178053571Y-114860714D01*
X178196428Y-114896428D01*
X178267857Y-114932142D01*
X178303571Y-114967857D01*
X178339285Y-115039285D01*
X178339285Y-115110714D01*
X178303571Y-115182142D01*
X178267857Y-115217857D01*
X178196428Y-115253571D01*
X178053571Y-115289285D01*
X177875000Y-115289285D01*
X177732142Y-115253571D01*
X177660714Y-115217857D01*
X177625000Y-115182142D01*
X177589285Y-115110714D01*
X177589285Y-114396428D02*
X177589285Y-114325000D01*
X177625000Y-114253571D01*
X177660714Y-114217857D01*
X177732142Y-114182142D01*
X177875000Y-114146428D01*
X178053571Y-114146428D01*
X178196428Y-114182142D01*
X178267857Y-114217857D01*
X178303571Y-114253571D01*
X178339285Y-114325000D01*
X178339285Y-114396428D01*
X178303571Y-114467857D01*
X178267857Y-114503571D01*
X178196428Y-114539285D01*
X178053571Y-114575000D01*
X177875000Y-114575000D01*
X177732142Y-114539285D01*
X177660714Y-114503571D01*
X177625000Y-114467857D01*
X177589285Y-114396428D01*
X178339285Y-113396428D02*
X177982142Y-113646428D01*
X178339285Y-113825000D02*
X177589285Y-113825000D01*
X177589285Y-113539285D01*
X177625000Y-113467857D01*
X177660714Y-113432142D01*
X177732142Y-113396428D01*
X177839285Y-113396428D01*
X177910714Y-113432142D01*
X177946428Y-113467857D01*
X177982142Y-113539285D01*
X177982142Y-113825000D01*
X182039285Y-115575000D02*
X182039285Y-116003571D01*
X182039285Y-115789285D02*
X181289285Y-115789285D01*
X181396428Y-115860714D01*
X181467857Y-115932142D01*
X181503571Y-116003571D01*
X181289285Y-115110714D02*
X181289285Y-115039285D01*
X181325000Y-114967857D01*
X181360714Y-114932142D01*
X181432142Y-114896428D01*
X181575000Y-114860714D01*
X181753571Y-114860714D01*
X181896428Y-114896428D01*
X181967857Y-114932142D01*
X182003571Y-114967857D01*
X182039285Y-115039285D01*
X182039285Y-115110714D01*
X182003571Y-115182142D01*
X181967857Y-115217857D01*
X181896428Y-115253571D01*
X181753571Y-115289285D01*
X181575000Y-115289285D01*
X181432142Y-115253571D01*
X181360714Y-115217857D01*
X181325000Y-115182142D01*
X181289285Y-115110714D01*
X181289285Y-114396428D02*
X181289285Y-114325000D01*
X181325000Y-114253571D01*
X181360714Y-114217857D01*
X181432142Y-114182142D01*
X181575000Y-114146428D01*
X181753571Y-114146428D01*
X181896428Y-114182142D01*
X181967857Y-114217857D01*
X182003571Y-114253571D01*
X182039285Y-114325000D01*
X182039285Y-114396428D01*
X182003571Y-114467857D01*
X181967857Y-114503571D01*
X181896428Y-114539285D01*
X181753571Y-114575000D01*
X181575000Y-114575000D01*
X181432142Y-114539285D01*
X181360714Y-114503571D01*
X181325000Y-114467857D01*
X181289285Y-114396428D01*
X182039285Y-113396428D02*
X181682142Y-113646428D01*
X182039285Y-113825000D02*
X181289285Y-113825000D01*
X181289285Y-113539285D01*
X181325000Y-113467857D01*
X181360714Y-113432142D01*
X181432142Y-113396428D01*
X181539285Y-113396428D01*
X181610714Y-113432142D01*
X181646428Y-113467857D01*
X181682142Y-113539285D01*
X181682142Y-113825000D01*
D11*
X109752380Y-80004761D02*
X109895238Y-80052380D01*
X110133333Y-80052380D01*
X110228571Y-80004761D01*
X110276190Y-79957142D01*
X110323809Y-79861904D01*
X110323809Y-79766666D01*
X110276190Y-79671428D01*
X110228571Y-79623809D01*
X110133333Y-79576190D01*
X109942857Y-79528571D01*
X109847619Y-79480952D01*
X109800000Y-79433333D01*
X109752380Y-79338095D01*
X109752380Y-79242857D01*
X109800000Y-79147619D01*
X109847619Y-79100000D01*
X109942857Y-79052380D01*
X110180952Y-79052380D01*
X110323809Y-79100000D01*
X111085714Y-79528571D02*
X110752380Y-79528571D01*
X110752380Y-80052380D02*
X110752380Y-79052380D01*
X111228571Y-79052380D01*
X111466666Y-79052380D02*
X112038095Y-79052380D01*
X111752380Y-80052380D02*
X111752380Y-79052380D01*
X112371428Y-80052380D02*
X112371428Y-79052380D01*
X112942857Y-80052380D01*
X112942857Y-79052380D01*
X113609523Y-79052380D02*
X113704761Y-79052380D01*
X113800000Y-79100000D01*
X113847619Y-79147619D01*
X113895238Y-79242857D01*
X113942857Y-79433333D01*
X113942857Y-79671428D01*
X113895238Y-79861904D01*
X113847619Y-79957142D01*
X113800000Y-80004761D01*
X113704761Y-80052380D01*
X113609523Y-80052380D01*
X113514285Y-80004761D01*
X113466666Y-79957142D01*
X113419047Y-79861904D01*
X113371428Y-79671428D01*
X113371428Y-79433333D01*
X113419047Y-79242857D01*
X113466666Y-79147619D01*
X113514285Y-79100000D01*
X113609523Y-79052380D01*
X114323809Y-79147619D02*
X114371428Y-79100000D01*
X114466666Y-79052380D01*
X114704761Y-79052380D01*
X114800000Y-79100000D01*
X114847619Y-79147619D01*
X114895238Y-79242857D01*
X114895238Y-79338095D01*
X114847619Y-79480952D01*
X114276190Y-80052380D01*
X114895238Y-80052380D01*
X115800000Y-80052380D02*
X115323809Y-80052380D01*
X115323809Y-79052380D01*
X116133333Y-79671428D02*
X116895238Y-79671428D01*
X117895238Y-80052380D02*
X117323809Y-80052380D01*
X117609523Y-80052380D02*
X117609523Y-79052380D01*
X117514285Y-79195238D01*
X117419047Y-79290476D01*
X117323809Y-79338095D01*
X118276190Y-79147619D02*
X118323809Y-79100000D01*
X118419047Y-79052380D01*
X118657142Y-79052380D01*
X118752380Y-79100000D01*
X118800000Y-79147619D01*
X118847619Y-79242857D01*
X118847619Y-79338095D01*
X118800000Y-79480952D01*
X118228571Y-80052380D01*
X118847619Y-80052380D01*
X133552380Y-80704761D02*
X133695238Y-80752380D01*
X133933333Y-80752380D01*
X134028571Y-80704761D01*
X134076190Y-80657142D01*
X134123809Y-80561904D01*
X134123809Y-80466666D01*
X134076190Y-80371428D01*
X134028571Y-80323809D01*
X133933333Y-80276190D01*
X133742857Y-80228571D01*
X133647619Y-80180952D01*
X133600000Y-80133333D01*
X133552380Y-80038095D01*
X133552380Y-79942857D01*
X133600000Y-79847619D01*
X133647619Y-79800000D01*
X133742857Y-79752380D01*
X133980952Y-79752380D01*
X134123809Y-79800000D01*
X134885714Y-80228571D02*
X134552380Y-80228571D01*
X134552380Y-80752380D02*
X134552380Y-79752380D01*
X135028571Y-79752380D01*
X135266666Y-79752380D02*
X135838095Y-79752380D01*
X135552380Y-80752380D02*
X135552380Y-79752380D01*
X136171428Y-80752380D02*
X136171428Y-79752380D01*
X136742857Y-80752380D01*
X136742857Y-79752380D01*
X137409523Y-79752380D02*
X137504761Y-79752380D01*
X137600000Y-79800000D01*
X137647619Y-79847619D01*
X137695238Y-79942857D01*
X137742857Y-80133333D01*
X137742857Y-80371428D01*
X137695238Y-80561904D01*
X137647619Y-80657142D01*
X137600000Y-80704761D01*
X137504761Y-80752380D01*
X137409523Y-80752380D01*
X137314285Y-80704761D01*
X137266666Y-80657142D01*
X137219047Y-80561904D01*
X137171428Y-80371428D01*
X137171428Y-80133333D01*
X137219047Y-79942857D01*
X137266666Y-79847619D01*
X137314285Y-79800000D01*
X137409523Y-79752380D01*
X138123809Y-79847619D02*
X138171428Y-79800000D01*
X138266666Y-79752380D01*
X138504761Y-79752380D01*
X138600000Y-79800000D01*
X138647619Y-79847619D01*
X138695238Y-79942857D01*
X138695238Y-80038095D01*
X138647619Y-80180952D01*
X138076190Y-80752380D01*
X138695238Y-80752380D01*
X139600000Y-80752380D02*
X139123809Y-80752380D01*
X139123809Y-79752380D01*
X139933333Y-80371428D02*
X140695238Y-80371428D01*
X141695238Y-80752380D02*
X141123809Y-80752380D01*
X141409523Y-80752380D02*
X141409523Y-79752380D01*
X141314285Y-79895238D01*
X141219047Y-79990476D01*
X141123809Y-80038095D01*
X142076190Y-79847619D02*
X142123809Y-79800000D01*
X142219047Y-79752380D01*
X142457142Y-79752380D01*
X142552380Y-79800000D01*
X142600000Y-79847619D01*
X142647619Y-79942857D01*
X142647619Y-80038095D01*
X142600000Y-80180952D01*
X142028571Y-80752380D01*
X142647619Y-80752380D01*
D15*
X122166666Y-92338095D02*
X122166666Y-91861904D01*
X122452380Y-92433333D02*
X121452380Y-92100000D01*
X122452380Y-91766666D01*
X122452380Y-91433333D02*
X121452380Y-91433333D01*
X121452380Y-91195238D01*
X121500000Y-91052380D01*
X121595238Y-90957142D01*
X121690476Y-90909523D01*
X121880952Y-90861904D01*
X122023809Y-90861904D01*
X122214285Y-90909523D01*
X122309523Y-90957142D01*
X122404761Y-91052380D01*
X122452380Y-91195238D01*
X122452380Y-91433333D01*
X121452380Y-90433333D02*
X122261904Y-90433333D01*
X122357142Y-90385714D01*
X122404761Y-90338095D01*
X122452380Y-90242857D01*
X122452380Y-90052380D01*
X122404761Y-89957142D01*
X122357142Y-89909523D01*
X122261904Y-89861904D01*
X121452380Y-89861904D01*
X122452380Y-89385714D02*
X121452380Y-89385714D01*
X122166666Y-89052380D01*
X121452380Y-88719047D01*
X122452380Y-88719047D01*
X121452380Y-88338095D02*
X121452380Y-87719047D01*
X121833333Y-88052380D01*
X121833333Y-87909523D01*
X121880952Y-87814285D01*
X121928571Y-87766666D01*
X122023809Y-87719047D01*
X122261904Y-87719047D01*
X122357142Y-87766666D01*
X122404761Y-87814285D01*
X122452380Y-87909523D01*
X122452380Y-88195238D01*
X122404761Y-88290476D01*
X122357142Y-88338095D01*
X122452380Y-86766666D02*
X122452380Y-87338095D01*
X122452380Y-87052380D02*
X121452380Y-87052380D01*
X121595238Y-87147619D01*
X121690476Y-87242857D01*
X121738095Y-87338095D01*
X121452380Y-85861904D02*
X121452380Y-86338095D01*
X121928571Y-86385714D01*
X121880952Y-86338095D01*
X121833333Y-86242857D01*
X121833333Y-86004761D01*
X121880952Y-85909523D01*
X121928571Y-85861904D01*
X122023809Y-85814285D01*
X122261904Y-85814285D01*
X122357142Y-85861904D01*
X122404761Y-85909523D01*
X122452380Y-86004761D01*
X122452380Y-86242857D01*
X122404761Y-86338095D01*
X122357142Y-86385714D01*
X121785714Y-84957142D02*
X122452380Y-84957142D01*
X121404761Y-85195238D02*
X122119047Y-85433333D01*
X122119047Y-84814285D01*
X148166666Y-92338095D02*
X148166666Y-91861904D01*
X148452380Y-92433333D02*
X147452380Y-92100000D01*
X148452380Y-91766666D01*
X148452380Y-91433333D02*
X147452380Y-91433333D01*
X147452380Y-91195238D01*
X147500000Y-91052380D01*
X147595238Y-90957142D01*
X147690476Y-90909523D01*
X147880952Y-90861904D01*
X148023809Y-90861904D01*
X148214285Y-90909523D01*
X148309523Y-90957142D01*
X148404761Y-91052380D01*
X148452380Y-91195238D01*
X148452380Y-91433333D01*
X147452380Y-90433333D02*
X148261904Y-90433333D01*
X148357142Y-90385714D01*
X148404761Y-90338095D01*
X148452380Y-90242857D01*
X148452380Y-90052380D01*
X148404761Y-89957142D01*
X148357142Y-89909523D01*
X148261904Y-89861904D01*
X147452380Y-89861904D01*
X148452380Y-89385714D02*
X147452380Y-89385714D01*
X148166666Y-89052380D01*
X147452380Y-88719047D01*
X148452380Y-88719047D01*
X147452380Y-88338095D02*
X147452380Y-87719047D01*
X147833333Y-88052380D01*
X147833333Y-87909523D01*
X147880952Y-87814285D01*
X147928571Y-87766666D01*
X148023809Y-87719047D01*
X148261904Y-87719047D01*
X148357142Y-87766666D01*
X148404761Y-87814285D01*
X148452380Y-87909523D01*
X148452380Y-88195238D01*
X148404761Y-88290476D01*
X148357142Y-88338095D01*
X148452380Y-86766666D02*
X148452380Y-87338095D01*
X148452380Y-87052380D02*
X147452380Y-87052380D01*
X147595238Y-87147619D01*
X147690476Y-87242857D01*
X147738095Y-87338095D01*
X147452380Y-85861904D02*
X147452380Y-86338095D01*
X147928571Y-86385714D01*
X147880952Y-86338095D01*
X147833333Y-86242857D01*
X147833333Y-86004761D01*
X147880952Y-85909523D01*
X147928571Y-85861904D01*
X148023809Y-85814285D01*
X148261904Y-85814285D01*
X148357142Y-85861904D01*
X148404761Y-85909523D01*
X148452380Y-86004761D01*
X148452380Y-86242857D01*
X148404761Y-86338095D01*
X148357142Y-86385714D01*
X147785714Y-84957142D02*
X148452380Y-84957142D01*
X147404761Y-85195238D02*
X148119047Y-85433333D01*
X148119047Y-84814285D01*
D11*
X185504761Y-92514285D02*
X185552380Y-92371428D01*
X185552380Y-92133333D01*
X185504761Y-92038095D01*
X185457142Y-91990476D01*
X185361904Y-91942857D01*
X185266666Y-91942857D01*
X185171428Y-91990476D01*
X185123809Y-92038095D01*
X185076190Y-92133333D01*
X185028571Y-92323809D01*
X184980952Y-92419047D01*
X184933333Y-92466666D01*
X184838095Y-92514285D01*
X184742857Y-92514285D01*
X184647619Y-92466666D01*
X184600000Y-92419047D01*
X184552380Y-92323809D01*
X184552380Y-92085714D01*
X184600000Y-91942857D01*
X184552380Y-91657142D02*
X184552380Y-91085714D01*
X185552380Y-91371428D02*
X184552380Y-91371428D01*
X185552380Y-90752380D02*
X184552380Y-90752380D01*
X185266666Y-90419047D01*
X184552380Y-90085714D01*
X185552380Y-90085714D01*
X184552380Y-89704761D02*
X184552380Y-89085714D01*
X184933333Y-89419047D01*
X184933333Y-89276190D01*
X184980952Y-89180952D01*
X185028571Y-89133333D01*
X185123809Y-89085714D01*
X185361904Y-89085714D01*
X185457142Y-89133333D01*
X185504761Y-89180952D01*
X185552380Y-89276190D01*
X185552380Y-89561904D01*
X185504761Y-89657142D01*
X185457142Y-89704761D01*
X184647619Y-88704761D02*
X184600000Y-88657142D01*
X184552380Y-88561904D01*
X184552380Y-88323809D01*
X184600000Y-88228571D01*
X184647619Y-88180952D01*
X184742857Y-88133333D01*
X184838095Y-88133333D01*
X184980952Y-88180952D01*
X185552380Y-88752380D01*
X185552380Y-88133333D01*
X185028571Y-87371428D02*
X185028571Y-87704761D01*
X185552380Y-87704761D02*
X184552380Y-87704761D01*
X184552380Y-87228571D01*
X184885714Y-86419047D02*
X185552380Y-86419047D01*
X184504761Y-86657142D02*
X185219047Y-86895238D01*
X185219047Y-86276190D01*
X185552380Y-85371428D02*
X185552380Y-85942857D01*
X185552380Y-85657142D02*
X184552380Y-85657142D01*
X184695238Y-85752380D01*
X184790476Y-85847619D01*
X184838095Y-85942857D01*
X185552380Y-84419047D02*
X185552380Y-84990476D01*
X185552380Y-84704761D02*
X184552380Y-84704761D01*
X184695238Y-84800000D01*
X184790476Y-84895238D01*
X184838095Y-84990476D01*
X184552380Y-84133333D02*
X185552380Y-83800000D01*
X184552380Y-83466666D01*
X185028571Y-83133333D02*
X185028571Y-82800000D01*
X185552380Y-82657142D02*
X185552380Y-83133333D01*
X184552380Y-83133333D01*
X184552380Y-82657142D01*
X184552380Y-82371428D02*
X184552380Y-81800000D01*
X185552380Y-82085714D02*
X184552380Y-82085714D01*
X185552380Y-81561904D02*
X184885714Y-81038095D01*
X184885714Y-81561904D02*
X185552380Y-81038095D01*
X179395238Y-96785714D02*
X179395238Y-97452380D01*
X179157142Y-96404761D02*
X178919047Y-97119047D01*
X179538095Y-97119047D01*
X179919047Y-97357142D02*
X179966666Y-97404761D01*
X179919047Y-97452380D01*
X179871428Y-97404761D01*
X179919047Y-97357142D01*
X179919047Y-97452380D01*
X180300000Y-96452380D02*
X180966666Y-96452380D01*
X180538095Y-97452380D01*
X181776190Y-96785714D02*
X181776190Y-97452380D01*
X181347619Y-96785714D02*
X181347619Y-97309523D01*
X181395238Y-97404761D01*
X181490476Y-97452380D01*
X181633333Y-97452380D01*
X181728571Y-97404761D01*
X181776190Y-97357142D01*
X182585714Y-96928571D02*
X182252380Y-96928571D01*
X182252380Y-97452380D02*
X182252380Y-96452380D01*
X182728571Y-96452380D01*
D15*
X172146428Y-74439285D02*
X172146428Y-74939285D01*
X171967857Y-74153571D02*
X171789285Y-74689285D01*
X172253571Y-74689285D01*
X172539285Y-74867857D02*
X172575000Y-74903571D01*
X172539285Y-74939285D01*
X172503571Y-74903571D01*
X172539285Y-74867857D01*
X172539285Y-74939285D01*
X172825000Y-74189285D02*
X173325000Y-74189285D01*
X173003571Y-74939285D01*
X173932142Y-74439285D02*
X173932142Y-74939285D01*
X173610714Y-74439285D02*
X173610714Y-74832142D01*
X173646428Y-74903571D01*
X173717857Y-74939285D01*
X173825000Y-74939285D01*
X173896428Y-74903571D01*
X173932142Y-74867857D01*
X174539285Y-74546428D02*
X174289285Y-74546428D01*
X174289285Y-74939285D02*
X174289285Y-74189285D01*
X174646428Y-74189285D01*
D11*
X184152380Y-95647619D02*
X184152380Y-96219047D01*
X184152380Y-95933333D02*
X183152380Y-95933333D01*
X183295238Y-96028571D01*
X183390476Y-96123809D01*
X183438095Y-96219047D01*
X183152380Y-95028571D02*
X183152380Y-94933333D01*
X183200000Y-94838095D01*
X183247619Y-94790476D01*
X183342857Y-94742857D01*
X183533333Y-94695238D01*
X183771428Y-94695238D01*
X183961904Y-94742857D01*
X184057142Y-94790476D01*
X184104761Y-94838095D01*
X184152380Y-94933333D01*
X184152380Y-95028571D01*
X184104761Y-95123809D01*
X184057142Y-95171428D01*
X183961904Y-95219047D01*
X183771428Y-95266666D01*
X183533333Y-95266666D01*
X183342857Y-95219047D01*
X183247619Y-95171428D01*
X183200000Y-95123809D01*
X183152380Y-95028571D01*
X183152380Y-94076190D02*
X183152380Y-93980952D01*
X183200000Y-93885714D01*
X183247619Y-93838095D01*
X183342857Y-93790476D01*
X183533333Y-93742857D01*
X183771428Y-93742857D01*
X183961904Y-93790476D01*
X184057142Y-93838095D01*
X184104761Y-93885714D01*
X184152380Y-93980952D01*
X184152380Y-94076190D01*
X184104761Y-94171428D01*
X184057142Y-94219047D01*
X183961904Y-94266666D01*
X183771428Y-94314285D01*
X183533333Y-94314285D01*
X183342857Y-94266666D01*
X183247619Y-94219047D01*
X183200000Y-94171428D01*
X183152380Y-94076190D01*
X183485714Y-93314285D02*
X184152380Y-93314285D01*
X183580952Y-93314285D02*
X183533333Y-93266666D01*
X183485714Y-93171428D01*
X183485714Y-93028571D01*
X183533333Y-92933333D01*
X183628571Y-92885714D01*
X184152380Y-92885714D01*
X183628571Y-92076190D02*
X183628571Y-92409523D01*
X184152380Y-92409523D02*
X183152380Y-92409523D01*
X183152380Y-91933333D01*
D15*
X183639285Y-76460714D02*
X183639285Y-76889285D01*
X183639285Y-76675000D02*
X182889285Y-76675000D01*
X182996428Y-76746428D01*
X183067857Y-76817857D01*
X183103571Y-76889285D01*
X182889285Y-75996428D02*
X182889285Y-75925000D01*
X182925000Y-75853571D01*
X182960714Y-75817857D01*
X183032142Y-75782142D01*
X183175000Y-75746428D01*
X183353571Y-75746428D01*
X183496428Y-75782142D01*
X183567857Y-75817857D01*
X183603571Y-75853571D01*
X183639285Y-75925000D01*
X183639285Y-75996428D01*
X183603571Y-76067857D01*
X183567857Y-76103571D01*
X183496428Y-76139285D01*
X183353571Y-76175000D01*
X183175000Y-76175000D01*
X183032142Y-76139285D01*
X182960714Y-76103571D01*
X182925000Y-76067857D01*
X182889285Y-75996428D01*
X182889285Y-75282142D02*
X182889285Y-75210714D01*
X182925000Y-75139285D01*
X182960714Y-75103571D01*
X183032142Y-75067857D01*
X183175000Y-75032142D01*
X183353571Y-75032142D01*
X183496428Y-75067857D01*
X183567857Y-75103571D01*
X183603571Y-75139285D01*
X183639285Y-75210714D01*
X183639285Y-75282142D01*
X183603571Y-75353571D01*
X183567857Y-75389285D01*
X183496428Y-75425000D01*
X183353571Y-75460714D01*
X183175000Y-75460714D01*
X183032142Y-75425000D01*
X182960714Y-75389285D01*
X182925000Y-75353571D01*
X182889285Y-75282142D01*
X183139285Y-74710714D02*
X183639285Y-74710714D01*
X183210714Y-74710714D02*
X183175000Y-74675000D01*
X183139285Y-74603571D01*
X183139285Y-74496428D01*
X183175000Y-74425000D01*
X183246428Y-74389285D01*
X183639285Y-74389285D01*
X183246428Y-73782142D02*
X183246428Y-74032142D01*
X183639285Y-74032142D02*
X182889285Y-74032142D01*
X182889285Y-73675000D01*
X179739285Y-75939285D02*
X179310714Y-75939285D01*
X179525000Y-75939285D02*
X179525000Y-75189285D01*
X179453571Y-75296428D01*
X179382142Y-75367857D01*
X179310714Y-75403571D01*
X180203571Y-75189285D02*
X180275000Y-75189285D01*
X180346428Y-75225000D01*
X180382142Y-75260714D01*
X180417857Y-75332142D01*
X180453571Y-75475000D01*
X180453571Y-75653571D01*
X180417857Y-75796428D01*
X180382142Y-75867857D01*
X180346428Y-75903571D01*
X180275000Y-75939285D01*
X180203571Y-75939285D01*
X180132142Y-75903571D01*
X180096428Y-75867857D01*
X180060714Y-75796428D01*
X180025000Y-75653571D01*
X180025000Y-75475000D01*
X180060714Y-75332142D01*
X180096428Y-75260714D01*
X180132142Y-75225000D01*
X180203571Y-75189285D01*
X180917857Y-75189285D02*
X180989285Y-75189285D01*
X181060714Y-75225000D01*
X181096428Y-75260714D01*
X181132142Y-75332142D01*
X181167857Y-75475000D01*
X181167857Y-75653571D01*
X181132142Y-75796428D01*
X181096428Y-75867857D01*
X181060714Y-75903571D01*
X180989285Y-75939285D01*
X180917857Y-75939285D01*
X180846428Y-75903571D01*
X180810714Y-75867857D01*
X180775000Y-75796428D01*
X180739285Y-75653571D01*
X180739285Y-75475000D01*
X180775000Y-75332142D01*
X180810714Y-75260714D01*
X180846428Y-75225000D01*
X180917857Y-75189285D01*
X181489285Y-75439285D02*
X181489285Y-75939285D01*
X181489285Y-75510714D02*
X181525000Y-75475000D01*
X181596428Y-75439285D01*
X181703571Y-75439285D01*
X181775000Y-75475000D01*
X181810714Y-75546428D01*
X181810714Y-75939285D01*
X182417857Y-75546428D02*
X182167857Y-75546428D01*
X182167857Y-75939285D02*
X182167857Y-75189285D01*
X182525000Y-75189285D01*
X166139285Y-78360714D02*
X166139285Y-78789285D01*
X166139285Y-78575000D02*
X165389285Y-78575000D01*
X165496428Y-78646428D01*
X165567857Y-78717857D01*
X165603571Y-78789285D01*
X165389285Y-77896428D02*
X165389285Y-77825000D01*
X165425000Y-77753571D01*
X165460714Y-77717857D01*
X165532142Y-77682142D01*
X165675000Y-77646428D01*
X165853571Y-77646428D01*
X165996428Y-77682142D01*
X166067857Y-77717857D01*
X166103571Y-77753571D01*
X166139285Y-77825000D01*
X166139285Y-77896428D01*
X166103571Y-77967857D01*
X166067857Y-78003571D01*
X165996428Y-78039285D01*
X165853571Y-78075000D01*
X165675000Y-78075000D01*
X165532142Y-78039285D01*
X165460714Y-78003571D01*
X165425000Y-77967857D01*
X165389285Y-77896428D01*
X165389285Y-77182142D02*
X165389285Y-77110714D01*
X165425000Y-77039285D01*
X165460714Y-77003571D01*
X165532142Y-76967857D01*
X165675000Y-76932142D01*
X165853571Y-76932142D01*
X165996428Y-76967857D01*
X166067857Y-77003571D01*
X166103571Y-77039285D01*
X166139285Y-77110714D01*
X166139285Y-77182142D01*
X166103571Y-77253571D01*
X166067857Y-77289285D01*
X165996428Y-77325000D01*
X165853571Y-77360714D01*
X165675000Y-77360714D01*
X165532142Y-77325000D01*
X165460714Y-77289285D01*
X165425000Y-77253571D01*
X165389285Y-77182142D01*
X165639285Y-76610714D02*
X166139285Y-76610714D01*
X165710714Y-76610714D02*
X165675000Y-76575000D01*
X165639285Y-76503571D01*
X165639285Y-76396428D01*
X165675000Y-76325000D01*
X165746428Y-76289285D01*
X166139285Y-76289285D01*
X165746428Y-75682142D02*
X165746428Y-75932142D01*
X166139285Y-75932142D02*
X165389285Y-75932142D01*
X165389285Y-75575000D01*
D11*
X165052380Y-92347619D02*
X165052380Y-92919047D01*
X165052380Y-92633333D02*
X164052380Y-92633333D01*
X164195238Y-92728571D01*
X164290476Y-92823809D01*
X164338095Y-92919047D01*
X164052380Y-91728571D02*
X164052380Y-91633333D01*
X164100000Y-91538095D01*
X164147619Y-91490476D01*
X164242857Y-91442857D01*
X164433333Y-91395238D01*
X164671428Y-91395238D01*
X164861904Y-91442857D01*
X164957142Y-91490476D01*
X165004761Y-91538095D01*
X165052380Y-91633333D01*
X165052380Y-91728571D01*
X165004761Y-91823809D01*
X164957142Y-91871428D01*
X164861904Y-91919047D01*
X164671428Y-91966666D01*
X164433333Y-91966666D01*
X164242857Y-91919047D01*
X164147619Y-91871428D01*
X164100000Y-91823809D01*
X164052380Y-91728571D01*
X164052380Y-90776190D02*
X164052380Y-90680952D01*
X164100000Y-90585714D01*
X164147619Y-90538095D01*
X164242857Y-90490476D01*
X164433333Y-90442857D01*
X164671428Y-90442857D01*
X164861904Y-90490476D01*
X164957142Y-90538095D01*
X165004761Y-90585714D01*
X165052380Y-90680952D01*
X165052380Y-90776190D01*
X165004761Y-90871428D01*
X164957142Y-90919047D01*
X164861904Y-90966666D01*
X164671428Y-91014285D01*
X164433333Y-91014285D01*
X164242857Y-90966666D01*
X164147619Y-90919047D01*
X164100000Y-90871428D01*
X164052380Y-90776190D01*
X164385714Y-90014285D02*
X165052380Y-90014285D01*
X164480952Y-90014285D02*
X164433333Y-89966666D01*
X164385714Y-89871428D01*
X164385714Y-89728571D01*
X164433333Y-89633333D01*
X164528571Y-89585714D01*
X165052380Y-89585714D01*
X164528571Y-88776190D02*
X164528571Y-89109523D01*
X165052380Y-89109523D02*
X164052380Y-89109523D01*
X164052380Y-88633333D01*
D15*
X172239285Y-76239285D02*
X171810714Y-76239285D01*
X172025000Y-76239285D02*
X172025000Y-75489285D01*
X171953571Y-75596428D01*
X171882142Y-75667857D01*
X171810714Y-75703571D01*
X172703571Y-75489285D02*
X172775000Y-75489285D01*
X172846428Y-75525000D01*
X172882142Y-75560714D01*
X172917857Y-75632142D01*
X172953571Y-75775000D01*
X172953571Y-75953571D01*
X172917857Y-76096428D01*
X172882142Y-76167857D01*
X172846428Y-76203571D01*
X172775000Y-76239285D01*
X172703571Y-76239285D01*
X172632142Y-76203571D01*
X172596428Y-76167857D01*
X172560714Y-76096428D01*
X172525000Y-75953571D01*
X172525000Y-75775000D01*
X172560714Y-75632142D01*
X172596428Y-75560714D01*
X172632142Y-75525000D01*
X172703571Y-75489285D01*
X173417857Y-75489285D02*
X173489285Y-75489285D01*
X173560714Y-75525000D01*
X173596428Y-75560714D01*
X173632142Y-75632142D01*
X173667857Y-75775000D01*
X173667857Y-75953571D01*
X173632142Y-76096428D01*
X173596428Y-76167857D01*
X173560714Y-76203571D01*
X173489285Y-76239285D01*
X173417857Y-76239285D01*
X173346428Y-76203571D01*
X173310714Y-76167857D01*
X173275000Y-76096428D01*
X173239285Y-75953571D01*
X173239285Y-75775000D01*
X173275000Y-75632142D01*
X173310714Y-75560714D01*
X173346428Y-75525000D01*
X173417857Y-75489285D01*
X173989285Y-75739285D02*
X173989285Y-76239285D01*
X173989285Y-75810714D02*
X174025000Y-75775000D01*
X174096428Y-75739285D01*
X174203571Y-75739285D01*
X174275000Y-75775000D01*
X174310714Y-75846428D01*
X174310714Y-76239285D01*
X174917857Y-75846428D02*
X174667857Y-75846428D01*
X174667857Y-76239285D02*
X174667857Y-75489285D01*
X175025000Y-75489285D01*
X180139285Y-72803571D02*
X180139285Y-73232142D01*
X180139285Y-73017857D02*
X179389285Y-73017857D01*
X179496428Y-73089285D01*
X179567857Y-73160714D01*
X179603571Y-73232142D01*
X179460714Y-72517857D02*
X179425000Y-72482142D01*
X179389285Y-72410714D01*
X179389285Y-72232142D01*
X179425000Y-72160714D01*
X179460714Y-72125000D01*
X179532142Y-72089285D01*
X179603571Y-72089285D01*
X179710714Y-72125000D01*
X180139285Y-72553571D01*
X180139285Y-72089285D01*
X179639285Y-71767857D02*
X180389285Y-71767857D01*
X179675000Y-71767857D02*
X179639285Y-71696428D01*
X179639285Y-71553571D01*
X179675000Y-71482142D01*
X179710714Y-71446428D01*
X179782142Y-71410714D01*
X179996428Y-71410714D01*
X180067857Y-71446428D01*
X180103571Y-71482142D01*
X180139285Y-71553571D01*
X180139285Y-71696428D01*
X180103571Y-71767857D01*
X179746428Y-70839285D02*
X179746428Y-71089285D01*
X180139285Y-71089285D02*
X179389285Y-71089285D01*
X179389285Y-70732142D01*
X172439285Y-72603571D02*
X172439285Y-73032142D01*
X172439285Y-72817857D02*
X171689285Y-72817857D01*
X171796428Y-72889285D01*
X171867857Y-72960714D01*
X171903571Y-73032142D01*
X171760714Y-72317857D02*
X171725000Y-72282142D01*
X171689285Y-72210714D01*
X171689285Y-72032142D01*
X171725000Y-71960714D01*
X171760714Y-71925000D01*
X171832142Y-71889285D01*
X171903571Y-71889285D01*
X172010714Y-71925000D01*
X172439285Y-72353571D01*
X172439285Y-71889285D01*
X171939285Y-71567857D02*
X172689285Y-71567857D01*
X171975000Y-71567857D02*
X171939285Y-71496428D01*
X171939285Y-71353571D01*
X171975000Y-71282142D01*
X172010714Y-71246428D01*
X172082142Y-71210714D01*
X172296428Y-71210714D01*
X172367857Y-71246428D01*
X172403571Y-71282142D01*
X172439285Y-71353571D01*
X172439285Y-71496428D01*
X172403571Y-71567857D01*
X172046428Y-70639285D02*
X172046428Y-70889285D01*
X172439285Y-70889285D02*
X171689285Y-70889285D01*
X171689285Y-70532142D01*
D11*
X168961904Y-117702380D02*
X168961904Y-116702380D01*
X169200000Y-116702380D01*
X169342857Y-116750000D01*
X169438095Y-116845238D01*
X169485714Y-116940476D01*
X169533333Y-117130952D01*
X169533333Y-117273809D01*
X169485714Y-117464285D01*
X169438095Y-117559523D01*
X169342857Y-117654761D01*
X169200000Y-117702380D01*
X168961904Y-117702380D01*
X170485714Y-117702380D02*
X169914285Y-117702380D01*
X170200000Y-117702380D02*
X170200000Y-116702380D01*
X170104761Y-116845238D01*
X170009523Y-116940476D01*
X169914285Y-116988095D01*
X172661904Y-117702380D02*
X172661904Y-116702380D01*
X172900000Y-116702380D01*
X173042857Y-116750000D01*
X173138095Y-116845238D01*
X173185714Y-116940476D01*
X173233333Y-117130952D01*
X173233333Y-117273809D01*
X173185714Y-117464285D01*
X173138095Y-117559523D01*
X173042857Y-117654761D01*
X172900000Y-117702380D01*
X172661904Y-117702380D01*
X173614285Y-116797619D02*
X173661904Y-116750000D01*
X173757142Y-116702380D01*
X173995238Y-116702380D01*
X174090476Y-116750000D01*
X174138095Y-116797619D01*
X174185714Y-116892857D01*
X174185714Y-116988095D01*
X174138095Y-117130952D01*
X173566666Y-117702380D01*
X174185714Y-117702380D01*
X176361904Y-117702380D02*
X176361904Y-116702380D01*
X176600000Y-116702380D01*
X176742857Y-116750000D01*
X176838095Y-116845238D01*
X176885714Y-116940476D01*
X176933333Y-117130952D01*
X176933333Y-117273809D01*
X176885714Y-117464285D01*
X176838095Y-117559523D01*
X176742857Y-117654761D01*
X176600000Y-117702380D01*
X176361904Y-117702380D01*
X177266666Y-116702380D02*
X177885714Y-116702380D01*
X177552380Y-117083333D01*
X177695238Y-117083333D01*
X177790476Y-117130952D01*
X177838095Y-117178571D01*
X177885714Y-117273809D01*
X177885714Y-117511904D01*
X177838095Y-117607142D01*
X177790476Y-117654761D01*
X177695238Y-117702380D01*
X177409523Y-117702380D01*
X177314285Y-117654761D01*
X177266666Y-117607142D01*
X180061904Y-117702380D02*
X180061904Y-116702380D01*
X180300000Y-116702380D01*
X180442857Y-116750000D01*
X180538095Y-116845238D01*
X180585714Y-116940476D01*
X180633333Y-117130952D01*
X180633333Y-117273809D01*
X180585714Y-117464285D01*
X180538095Y-117559523D01*
X180442857Y-117654761D01*
X180300000Y-117702380D01*
X180061904Y-117702380D01*
X181490476Y-117035714D02*
X181490476Y-117702380D01*
X181252380Y-116654761D02*
X181014285Y-117369047D01*
X181633333Y-117369047D01*
D15*
X165139285Y-82128571D02*
X164782142Y-82378571D01*
X165139285Y-82557142D02*
X164389285Y-82557142D01*
X164389285Y-82271428D01*
X164425000Y-82200000D01*
X164460714Y-82164285D01*
X164532142Y-82128571D01*
X164639285Y-82128571D01*
X164710714Y-82164285D01*
X164746428Y-82200000D01*
X164782142Y-82271428D01*
X164782142Y-82557142D01*
X165103571Y-81521428D02*
X165139285Y-81592857D01*
X165139285Y-81735714D01*
X165103571Y-81807142D01*
X165032142Y-81842857D01*
X164746428Y-81842857D01*
X164675000Y-81807142D01*
X164639285Y-81735714D01*
X164639285Y-81592857D01*
X164675000Y-81521428D01*
X164746428Y-81485714D01*
X164817857Y-81485714D01*
X164889285Y-81842857D01*
X165103571Y-81200000D02*
X165139285Y-81128571D01*
X165139285Y-80985714D01*
X165103571Y-80914285D01*
X165032142Y-80878571D01*
X164996428Y-80878571D01*
X164925000Y-80914285D01*
X164889285Y-80985714D01*
X164889285Y-81092857D01*
X164853571Y-81164285D01*
X164782142Y-81200000D01*
X164746428Y-81200000D01*
X164675000Y-81164285D01*
X164639285Y-81092857D01*
X164639285Y-80985714D01*
X164675000Y-80914285D01*
X165103571Y-80271428D02*
X165139285Y-80342857D01*
X165139285Y-80485714D01*
X165103571Y-80557142D01*
X165032142Y-80592857D01*
X164746428Y-80592857D01*
X164675000Y-80557142D01*
X164639285Y-80485714D01*
X164639285Y-80342857D01*
X164675000Y-80271428D01*
X164746428Y-80235714D01*
X164817857Y-80235714D01*
X164889285Y-80592857D01*
X164639285Y-80021428D02*
X164639285Y-79735714D01*
X164389285Y-79914285D02*
X165032142Y-79914285D01*
X165103571Y-79878571D01*
X165139285Y-79807142D01*
X165139285Y-79735714D01*
X164646428Y-77539285D02*
X164682142Y-77432142D01*
X164717857Y-77396428D01*
X164789285Y-77360714D01*
X164896428Y-77360714D01*
X164967857Y-77396428D01*
X165003571Y-77432142D01*
X165039285Y-77503571D01*
X165039285Y-77789285D01*
X164289285Y-77789285D01*
X164289285Y-77539285D01*
X164325000Y-77467857D01*
X164360714Y-77432142D01*
X164432142Y-77396428D01*
X164503571Y-77396428D01*
X164575000Y-77432142D01*
X164610714Y-77467857D01*
X164646428Y-77539285D01*
X164646428Y-77789285D01*
X165039285Y-76932142D02*
X165003571Y-77003571D01*
X164967857Y-77039285D01*
X164896428Y-77075000D01*
X164682142Y-77075000D01*
X164610714Y-77039285D01*
X164575000Y-77003571D01*
X164539285Y-76932142D01*
X164539285Y-76825000D01*
X164575000Y-76753571D01*
X164610714Y-76717857D01*
X164682142Y-76682142D01*
X164896428Y-76682142D01*
X164967857Y-76717857D01*
X165003571Y-76753571D01*
X165039285Y-76825000D01*
X165039285Y-76932142D01*
X165039285Y-76253571D02*
X165003571Y-76325000D01*
X164967857Y-76360714D01*
X164896428Y-76396428D01*
X164682142Y-76396428D01*
X164610714Y-76360714D01*
X164575000Y-76325000D01*
X164539285Y-76253571D01*
X164539285Y-76146428D01*
X164575000Y-76075000D01*
X164610714Y-76039285D01*
X164682142Y-76003571D01*
X164896428Y-76003571D01*
X164967857Y-76039285D01*
X165003571Y-76075000D01*
X165039285Y-76146428D01*
X165039285Y-76253571D01*
X164539285Y-75789285D02*
X164539285Y-75503571D01*
X164289285Y-75682142D02*
X164932142Y-75682142D01*
X165003571Y-75646428D01*
X165039285Y-75575000D01*
X165039285Y-75503571D01*
D11*
X174404761Y-69330952D02*
X174309523Y-69283333D01*
X174261904Y-69235714D01*
X174214285Y-69140476D01*
X174214285Y-69092857D01*
X174261904Y-68997619D01*
X174309523Y-68950000D01*
X174404761Y-68902380D01*
X174595238Y-68902380D01*
X174690476Y-68950000D01*
X174738095Y-68997619D01*
X174785714Y-69092857D01*
X174785714Y-69140476D01*
X174738095Y-69235714D01*
X174690476Y-69283333D01*
X174595238Y-69330952D01*
X174404761Y-69330952D01*
X174309523Y-69378571D01*
X174261904Y-69426190D01*
X174214285Y-69521428D01*
X174214285Y-69711904D01*
X174261904Y-69807142D01*
X174309523Y-69854761D01*
X174404761Y-69902380D01*
X174595238Y-69902380D01*
X174690476Y-69854761D01*
X174738095Y-69807142D01*
X174785714Y-69711904D01*
X174785714Y-69521428D01*
X174738095Y-69426190D01*
X174690476Y-69378571D01*
X174595238Y-69330952D01*
X175214285Y-69902380D02*
X175214285Y-68902380D01*
X175547619Y-69616666D01*
X175880952Y-68902380D01*
X175880952Y-69902380D01*
X176357142Y-69902380D02*
X176357142Y-68902380D01*
X176357142Y-69378571D02*
X176928571Y-69378571D01*
X176928571Y-69902380D02*
X176928571Y-68902380D01*
X177309523Y-69235714D02*
X177833333Y-69235714D01*
X177309523Y-69902380D01*
X177833333Y-69902380D01*
D15*
X129339285Y-82139285D02*
X128910714Y-82139285D01*
X129125000Y-82139285D02*
X129125000Y-81389285D01*
X129053571Y-81496428D01*
X128982142Y-81567857D01*
X128910714Y-81603571D01*
X129803571Y-81389285D02*
X129875000Y-81389285D01*
X129946428Y-81425000D01*
X129982142Y-81460714D01*
X130017857Y-81532142D01*
X130053571Y-81675000D01*
X130053571Y-81853571D01*
X130017857Y-81996428D01*
X129982142Y-82067857D01*
X129946428Y-82103571D01*
X129875000Y-82139285D01*
X129803571Y-82139285D01*
X129732142Y-82103571D01*
X129696428Y-82067857D01*
X129660714Y-81996428D01*
X129625000Y-81853571D01*
X129625000Y-81675000D01*
X129660714Y-81532142D01*
X129696428Y-81460714D01*
X129732142Y-81425000D01*
X129803571Y-81389285D01*
X130517857Y-81389285D02*
X130589285Y-81389285D01*
X130660714Y-81425000D01*
X130696428Y-81460714D01*
X130732142Y-81532142D01*
X130767857Y-81675000D01*
X130767857Y-81853571D01*
X130732142Y-81996428D01*
X130696428Y-82067857D01*
X130660714Y-82103571D01*
X130589285Y-82139285D01*
X130517857Y-82139285D01*
X130446428Y-82103571D01*
X130410714Y-82067857D01*
X130375000Y-81996428D01*
X130339285Y-81853571D01*
X130339285Y-81675000D01*
X130375000Y-81532142D01*
X130410714Y-81460714D01*
X130446428Y-81425000D01*
X130517857Y-81389285D01*
X131089285Y-81639285D02*
X131089285Y-82139285D01*
X131089285Y-81710714D02*
X131125000Y-81675000D01*
X131196428Y-81639285D01*
X131303571Y-81639285D01*
X131375000Y-81675000D01*
X131410714Y-81746428D01*
X131410714Y-82139285D01*
X132017857Y-81746428D02*
X131767857Y-81746428D01*
X131767857Y-82139285D02*
X131767857Y-81389285D01*
X132125000Y-81389285D01*
X154639285Y-82239285D02*
X154210714Y-82239285D01*
X154425000Y-82239285D02*
X154425000Y-81489285D01*
X154353571Y-81596428D01*
X154282142Y-81667857D01*
X154210714Y-81703571D01*
X155103571Y-81489285D02*
X155175000Y-81489285D01*
X155246428Y-81525000D01*
X155282142Y-81560714D01*
X155317857Y-81632142D01*
X155353571Y-81775000D01*
X155353571Y-81953571D01*
X155317857Y-82096428D01*
X155282142Y-82167857D01*
X155246428Y-82203571D01*
X155175000Y-82239285D01*
X155103571Y-82239285D01*
X155032142Y-82203571D01*
X154996428Y-82167857D01*
X154960714Y-82096428D01*
X154925000Y-81953571D01*
X154925000Y-81775000D01*
X154960714Y-81632142D01*
X154996428Y-81560714D01*
X155032142Y-81525000D01*
X155103571Y-81489285D01*
X155817857Y-81489285D02*
X155889285Y-81489285D01*
X155960714Y-81525000D01*
X155996428Y-81560714D01*
X156032142Y-81632142D01*
X156067857Y-81775000D01*
X156067857Y-81953571D01*
X156032142Y-82096428D01*
X155996428Y-82167857D01*
X155960714Y-82203571D01*
X155889285Y-82239285D01*
X155817857Y-82239285D01*
X155746428Y-82203571D01*
X155710714Y-82167857D01*
X155675000Y-82096428D01*
X155639285Y-81953571D01*
X155639285Y-81775000D01*
X155675000Y-81632142D01*
X155710714Y-81560714D01*
X155746428Y-81525000D01*
X155817857Y-81489285D01*
X156389285Y-81739285D02*
X156389285Y-82239285D01*
X156389285Y-81810714D02*
X156425000Y-81775000D01*
X156496428Y-81739285D01*
X156603571Y-81739285D01*
X156675000Y-81775000D01*
X156710714Y-81846428D01*
X156710714Y-82239285D01*
X157317857Y-81846428D02*
X157067857Y-81846428D01*
X157067857Y-82239285D02*
X157067857Y-81489285D01*
X157425000Y-81489285D01*
X182082142Y-99213571D02*
X182189285Y-99249285D01*
X182367857Y-99249285D01*
X182439285Y-99213571D01*
X182475000Y-99177857D01*
X182510714Y-99106428D01*
X182510714Y-99035000D01*
X182475000Y-98963571D01*
X182439285Y-98927857D01*
X182367857Y-98892142D01*
X182225000Y-98856428D01*
X182153571Y-98820714D01*
X182117857Y-98785000D01*
X182082142Y-98713571D01*
X182082142Y-98642142D01*
X182117857Y-98570714D01*
X182153571Y-98535000D01*
X182225000Y-98499285D01*
X182403571Y-98499285D01*
X182510714Y-98535000D01*
X182760714Y-98499285D02*
X182939285Y-99249285D01*
X183082142Y-98713571D01*
X183225000Y-99249285D01*
X183403571Y-98499285D01*
X183689285Y-99249285D02*
X183689285Y-98499285D01*
X183867857Y-98499285D01*
X183975000Y-98535000D01*
X184046428Y-98606428D01*
X184082142Y-98677857D01*
X184117857Y-98820714D01*
X184117857Y-98927857D01*
X184082142Y-99070714D01*
X184046428Y-99142142D01*
X183975000Y-99213571D01*
X183867857Y-99249285D01*
X183689285Y-99249285D01*
M02*
