M48
; DRILL file {KiCad (5.1.5)-3} date 14/03/2020 15:24:07
; FORMAT={-:-/ absolute / inch / decimal}
; #@! TF.CreationDate,2020-03-14T15:24:07+00:00
; #@! TF.GenerationSoftware,Kicad,Pcbnew,(5.1.5)-3
; #@! TF.FileFunction,Plated,1,4,PTH
FMAT,2
INCH
T1C0.0157
T2C0.0276
T3C0.0394
T4C0.0400
T5C0.1083
%
G90
G05
T1
X4.0709Y-3.122
X4.0906Y-2.9409
X4.2835Y-3.122
X4.4213Y-3.1772
X4.4409Y-3.2126
X4.4409Y-3.2598
X4.4528Y-2.9567
X4.4567Y-3.0157
X4.4567Y-3.0709
X4.5039Y-3.4134
X4.5434Y-3.4142
X4.5591Y-3.0157
X4.5828Y-3.4133
X4.6575Y-3.1772
X4.7402Y-3.311
X4.7992Y-3.1772
X4.8504Y-3.0787
X4.8976Y-3.4291
X4.9353Y-3.426
X4.973Y-3.4279
X5.0512Y-3.2717
X5.0529Y-3.2279
X5.0539Y-3.1791
X5.0709Y-3.7953
X5.0945Y-3.1772
X5.1249Y-3.5795
X5.4484Y-3.2908
X5.4561Y-3.253
X5.4722Y-3.2155
X5.5236Y-3.4213
X5.5615Y-3.42
X5.5991Y-3.4165
X5.7638Y-3.315
X5.8926Y-3.1748
X5.9134Y-3.4252
X5.9528Y-3.4252
X5.9906Y-3.4252
X6.0118Y-3.185
X6.0551Y-3.1772
X6.0654Y-3.2638
X6.0945Y-3.7953
X6.1142Y-3.1856
X6.1339Y-2.9173
X6.1732Y-3.563
X6.2263Y-2.9236
X6.4449Y-3.4094
X6.4488Y-3.7126
X6.4528Y-3.8346
X6.4999Y-3.3636
X6.5Y-3.689
X6.5118Y-3.4488
X6.5348Y-3.3215
X6.5377Y-3.3616
X6.5435Y-3.2821
X6.5591Y-2.9331
X6.6142Y-2.9803
X6.6261Y-3.0865
X6.6339Y-3.0433
X6.6614Y-2.8307
X6.6614Y-3.3465
X6.6644Y-3.6049
X6.6654Y-3.4213
X6.6814Y-3.312
X6.685Y-3.3819
X6.6914Y-3.1733
X6.6987Y-3.2107
X6.7008Y-3.5945
X6.7047Y-2.8307
X6.7087Y-3.1339
X6.7092Y-3.2828
X6.7104Y-3.5272
X6.7208Y-3.2444
X6.7244Y-3.4921
X6.7441Y-3.5945
X6.752Y-3.1299
X6.752Y-3.8543
X6.7559Y-4.4449
X6.7756Y-2.7165
X6.7835Y-3.3858
X6.7913Y-3.4882
X6.8293Y-3.4884
X6.8661Y-3.122
X6.8671Y-3.4882
X6.878Y-2.9803
X6.8937Y-3.8543
X6.9016Y-4.437
X6.9094Y-3.4882
X6.9291Y-3.6024
X6.9488Y-3.4882
X6.9724Y-3.3228
X6.9764Y-3.6024
X6.9882Y-3.4882
X6.9961Y-2.937
X7.0213Y-3.5956
X7.0315Y-3.9094
X7.0354Y-3.7402
X7.0472Y-4.4449
X7.0866Y-3.5669
X7.1102Y-3.3937
X7.1181Y-3.1614
X7.1316Y-3.5972
X7.1496Y-3.2441
X7.2047Y-2.8504
X7.2795Y-3.0748
X7.2795Y-3.1181
X7.2795Y-3.1614
T2
X4.8744Y-3.8795
X4.8744Y-3.9583
X4.8744Y-4.037
X4.8744Y-4.1157
X4.8744Y-4.2732
X4.8744Y-4.352
X4.8744Y-4.4307
X4.8744Y-4.5094
X4.8744Y-4.5882
X4.9531Y-3.9189
X4.9531Y-3.9976
X4.9531Y-4.0764
X4.9531Y-4.2339
X4.9531Y-4.3126
X4.9531Y-4.3913
X4.9531Y-4.4701
X4.9531Y-4.5488
X4.9531Y-4.6276
X5.0516Y-3.9189
X5.0516Y-3.9976
X5.0516Y-4.0764
X5.0516Y-4.2339
X5.0516Y-4.3126
X5.0516Y-4.3913
X5.0516Y-4.4701
X5.0516Y-4.5488
X5.0516Y-4.6276
X5.1303Y-3.8795
X5.1303Y-3.9583
X5.1303Y-4.037
X5.1303Y-4.1157
X5.1303Y-4.2732
X5.1303Y-4.352
X5.1303Y-4.4307
X5.1303Y-4.5094
X5.1303Y-4.5882
X4.3626Y-3.8795
X4.3626Y-3.9583
X4.3626Y-4.037
X4.3626Y-4.1157
X4.3626Y-4.2732
X4.3626Y-4.352
X4.3626Y-4.4307
X4.3626Y-4.5094
X4.3626Y-4.5882
X4.4413Y-3.9189
X4.4413Y-3.9976
X4.4413Y-4.0764
X4.4413Y-4.2339
X4.4413Y-4.3126
X4.4413Y-4.3913
X4.4413Y-4.4701
X4.4413Y-4.5488
X4.4413Y-4.6276
X4.5398Y-3.9189
X4.5398Y-3.9976
X4.5398Y-4.0764
X4.5398Y-4.2339
X4.5398Y-4.3126
X4.5398Y-4.3913
X4.5398Y-4.4701
X4.5398Y-4.5488
X4.5398Y-4.6276
X4.6185Y-3.8795
X4.6185Y-3.9583
X4.6185Y-4.037
X4.6185Y-4.1157
X4.6185Y-4.2732
X4.6185Y-4.352
X4.6185Y-4.4307
X4.6185Y-4.5094
X4.6185Y-4.5882
X5.898Y-3.878
X5.898Y-3.9567
X5.898Y-4.0354
X5.898Y-4.1142
X5.898Y-4.2717
X5.898Y-4.3504
X5.898Y-4.4291
X5.898Y-4.5079
X5.898Y-4.5866
X5.9768Y-3.9173
X5.9768Y-3.9961
X5.9768Y-4.0748
X5.9768Y-4.2323
X5.9768Y-4.311
X5.9768Y-4.3898
X5.9768Y-4.4685
X5.9768Y-4.5472
X5.9768Y-4.626
X6.0752Y-3.9173
X6.0752Y-3.9961
X6.0752Y-4.0748
X6.0752Y-4.2323
X6.0752Y-4.311
X6.0752Y-4.3898
X6.0752Y-4.4685
X6.0752Y-4.5472
X6.0752Y-4.626
X6.1539Y-3.878
X6.1539Y-3.9567
X6.1539Y-4.0354
X6.1539Y-4.1142
X6.1539Y-4.2717
X6.1539Y-4.3504
X6.1539Y-4.4291
X6.1539Y-4.5079
X6.1539Y-4.5866
X5.3862Y-3.8795
X5.3862Y-3.9583
X5.3862Y-4.037
X5.3862Y-4.1157
X5.3862Y-4.2732
X5.3862Y-4.352
X5.3862Y-4.4307
X5.3862Y-4.5094
X5.3862Y-4.5882
X5.465Y-3.9189
X5.465Y-3.9976
X5.465Y-4.0764
X5.465Y-4.2339
X5.465Y-4.3126
X5.465Y-4.3913
X5.465Y-4.4701
X5.465Y-4.5488
X5.465Y-4.6276
X5.5634Y-3.9189
X5.5634Y-3.9976
X5.5634Y-4.0764
X5.5634Y-4.2339
X5.5634Y-4.3126
X5.5634Y-4.3913
X5.5634Y-4.4701
X5.5634Y-4.5488
X5.5634Y-4.6276
X5.6421Y-3.8795
X5.6421Y-3.9583
X5.6421Y-4.037
X5.6421Y-4.1157
X5.6421Y-4.2732
X5.6421Y-4.352
X5.6421Y-4.4307
X5.6421Y-4.5094
X5.6421Y-4.5882
T3
X7.2087Y-3.9858
X7.2087Y-4.0858
X7.2087Y-4.1858
X7.2087Y-4.2858
X7.2087Y-4.3858
T4
X4.3059Y-2.7256
X4.3059Y-2.8256
X4.4059Y-2.7256
X4.4059Y-2.8256
X4.5059Y-2.7256
X4.5059Y-2.8256
X4.6059Y-2.7256
X4.6059Y-2.8256
X4.7059Y-2.7256
X4.7059Y-2.8256
X4.8059Y-2.7256
X4.8059Y-2.8256
X4.9059Y-2.7256
X4.9059Y-2.8256
X5.0059Y-2.7256
X5.0059Y-2.8256
X5.1059Y-2.7256
X5.1059Y-2.8256
X5.2059Y-2.7256
X5.2059Y-2.8256
X5.3059Y-2.7256
X5.3059Y-2.8256
X5.4059Y-2.7256
X5.4059Y-2.8256
X5.5059Y-2.7256
X5.5059Y-2.8256
X5.6059Y-2.7256
X5.6059Y-2.8256
X5.7059Y-2.7256
X5.7059Y-2.8256
X5.8059Y-2.7256
X5.8059Y-2.8256
X5.9059Y-2.7256
X5.9059Y-2.8256
X6.0059Y-2.7256
X6.0059Y-2.8256
X6.1059Y-2.7256
X6.1059Y-2.8256
X6.2059Y-2.7256
X6.2059Y-2.8256
T5
X4.1142Y-2.7756
X4.1142Y-4.7047
X6.3976Y-2.7756
X6.3976Y-4.7047
T0
M30
