G04 #@! TF.GenerationSoftware,KiCad,Pcbnew,(5.1.5)-3*
G04 #@! TF.CreationDate,2020-03-14T15:24:04+00:00*
G04 #@! TF.ProjectId,Hat,4861742e-6b69-4636-9164-5f7063625858,A*
G04 #@! TF.SameCoordinates,Original*
G04 #@! TF.FileFunction,Paste,Bot*
G04 #@! TF.FilePolarity,Positive*
%FSLAX46Y46*%
G04 Gerber Fmt 4.6, Leading zero omitted, Abs format (unit mm)*
G04 Created by KiCad (PCBNEW (5.1.5)-3) date 2020-03-14 15:24:04*
%MOMM*%
%LPD*%
G04 APERTURE LIST*
%ADD10R,1.200000X1.800000*%
%ADD11R,0.480000X1.900000*%
%ADD12C,0.100000*%
G04 APERTURE END LIST*
D10*
X121180000Y-92680000D03*
X123720000Y-92680000D03*
X126260000Y-92680000D03*
X131340000Y-92680000D03*
X133880000Y-92680000D03*
X133880000Y-82520000D03*
X131340000Y-82520000D03*
X126260000Y-82520000D03*
X123720000Y-82520000D03*
X121180000Y-82520000D03*
X147180000Y-92580000D03*
X149720000Y-92580000D03*
X152260000Y-92580000D03*
X157340000Y-92580000D03*
X159880000Y-92580000D03*
X159880000Y-82420000D03*
X157340000Y-82420000D03*
X152260000Y-82420000D03*
X149720000Y-82420000D03*
X147180000Y-82420000D03*
D11*
X111475000Y-92105000D03*
X112125000Y-92105000D03*
X112775000Y-92105000D03*
X113425000Y-92105000D03*
X114075000Y-92105000D03*
X114725000Y-92105000D03*
X115375000Y-92105000D03*
X116025000Y-92105000D03*
X116675000Y-92105000D03*
X117325000Y-92105000D03*
X117325000Y-85095000D03*
X116675000Y-85095000D03*
X116025000Y-85095000D03*
X115375000Y-85095000D03*
X114725000Y-85095000D03*
X114075000Y-85095000D03*
X113425000Y-85095000D03*
X112775000Y-85095000D03*
X112125000Y-85095000D03*
X111475000Y-85095000D03*
X137475000Y-85095000D03*
X138125000Y-85095000D03*
X138775000Y-85095000D03*
X139425000Y-85095000D03*
X140075000Y-85095000D03*
X140725000Y-85095000D03*
X141375000Y-85095000D03*
X142025000Y-85095000D03*
X142675000Y-85095000D03*
X143325000Y-85095000D03*
X143325000Y-92105000D03*
X142675000Y-92105000D03*
X142025000Y-92105000D03*
X141375000Y-92105000D03*
X140725000Y-92105000D03*
X140075000Y-92105000D03*
X139425000Y-92105000D03*
X138775000Y-92105000D03*
X138125000Y-92105000D03*
X137475000Y-92105000D03*
D12*
G36*
X110576958Y-82480710D02*
G01*
X110591276Y-82482834D01*
X110605317Y-82486351D01*
X110618946Y-82491228D01*
X110632031Y-82497417D01*
X110644447Y-82504858D01*
X110656073Y-82513481D01*
X110666798Y-82523202D01*
X110676519Y-82533927D01*
X110685142Y-82545553D01*
X110692583Y-82557969D01*
X110698772Y-82571054D01*
X110703649Y-82584683D01*
X110707166Y-82598724D01*
X110709290Y-82613042D01*
X110710000Y-82627500D01*
X110710000Y-82972500D01*
X110709290Y-82986958D01*
X110707166Y-83001276D01*
X110703649Y-83015317D01*
X110698772Y-83028946D01*
X110692583Y-83042031D01*
X110685142Y-83054447D01*
X110676519Y-83066073D01*
X110666798Y-83076798D01*
X110656073Y-83086519D01*
X110644447Y-83095142D01*
X110632031Y-83102583D01*
X110618946Y-83108772D01*
X110605317Y-83113649D01*
X110591276Y-83117166D01*
X110576958Y-83119290D01*
X110562500Y-83120000D01*
X110267500Y-83120000D01*
X110253042Y-83119290D01*
X110238724Y-83117166D01*
X110224683Y-83113649D01*
X110211054Y-83108772D01*
X110197969Y-83102583D01*
X110185553Y-83095142D01*
X110173927Y-83086519D01*
X110163202Y-83076798D01*
X110153481Y-83066073D01*
X110144858Y-83054447D01*
X110137417Y-83042031D01*
X110131228Y-83028946D01*
X110126351Y-83015317D01*
X110122834Y-83001276D01*
X110120710Y-82986958D01*
X110120000Y-82972500D01*
X110120000Y-82627500D01*
X110120710Y-82613042D01*
X110122834Y-82598724D01*
X110126351Y-82584683D01*
X110131228Y-82571054D01*
X110137417Y-82557969D01*
X110144858Y-82545553D01*
X110153481Y-82533927D01*
X110163202Y-82523202D01*
X110173927Y-82513481D01*
X110185553Y-82504858D01*
X110197969Y-82497417D01*
X110211054Y-82491228D01*
X110224683Y-82486351D01*
X110238724Y-82482834D01*
X110253042Y-82480710D01*
X110267500Y-82480000D01*
X110562500Y-82480000D01*
X110576958Y-82480710D01*
G37*
G36*
X111546958Y-82480710D02*
G01*
X111561276Y-82482834D01*
X111575317Y-82486351D01*
X111588946Y-82491228D01*
X111602031Y-82497417D01*
X111614447Y-82504858D01*
X111626073Y-82513481D01*
X111636798Y-82523202D01*
X111646519Y-82533927D01*
X111655142Y-82545553D01*
X111662583Y-82557969D01*
X111668772Y-82571054D01*
X111673649Y-82584683D01*
X111677166Y-82598724D01*
X111679290Y-82613042D01*
X111680000Y-82627500D01*
X111680000Y-82972500D01*
X111679290Y-82986958D01*
X111677166Y-83001276D01*
X111673649Y-83015317D01*
X111668772Y-83028946D01*
X111662583Y-83042031D01*
X111655142Y-83054447D01*
X111646519Y-83066073D01*
X111636798Y-83076798D01*
X111626073Y-83086519D01*
X111614447Y-83095142D01*
X111602031Y-83102583D01*
X111588946Y-83108772D01*
X111575317Y-83113649D01*
X111561276Y-83117166D01*
X111546958Y-83119290D01*
X111532500Y-83120000D01*
X111237500Y-83120000D01*
X111223042Y-83119290D01*
X111208724Y-83117166D01*
X111194683Y-83113649D01*
X111181054Y-83108772D01*
X111167969Y-83102583D01*
X111155553Y-83095142D01*
X111143927Y-83086519D01*
X111133202Y-83076798D01*
X111123481Y-83066073D01*
X111114858Y-83054447D01*
X111107417Y-83042031D01*
X111101228Y-83028946D01*
X111096351Y-83015317D01*
X111092834Y-83001276D01*
X111090710Y-82986958D01*
X111090000Y-82972500D01*
X111090000Y-82627500D01*
X111090710Y-82613042D01*
X111092834Y-82598724D01*
X111096351Y-82584683D01*
X111101228Y-82571054D01*
X111107417Y-82557969D01*
X111114858Y-82545553D01*
X111123481Y-82533927D01*
X111133202Y-82523202D01*
X111143927Y-82513481D01*
X111155553Y-82504858D01*
X111167969Y-82497417D01*
X111181054Y-82491228D01*
X111194683Y-82486351D01*
X111208724Y-82482834D01*
X111223042Y-82480710D01*
X111237500Y-82480000D01*
X111532500Y-82480000D01*
X111546958Y-82480710D01*
G37*
G36*
X137646958Y-82480710D02*
G01*
X137661276Y-82482834D01*
X137675317Y-82486351D01*
X137688946Y-82491228D01*
X137702031Y-82497417D01*
X137714447Y-82504858D01*
X137726073Y-82513481D01*
X137736798Y-82523202D01*
X137746519Y-82533927D01*
X137755142Y-82545553D01*
X137762583Y-82557969D01*
X137768772Y-82571054D01*
X137773649Y-82584683D01*
X137777166Y-82598724D01*
X137779290Y-82613042D01*
X137780000Y-82627500D01*
X137780000Y-82972500D01*
X137779290Y-82986958D01*
X137777166Y-83001276D01*
X137773649Y-83015317D01*
X137768772Y-83028946D01*
X137762583Y-83042031D01*
X137755142Y-83054447D01*
X137746519Y-83066073D01*
X137736798Y-83076798D01*
X137726073Y-83086519D01*
X137714447Y-83095142D01*
X137702031Y-83102583D01*
X137688946Y-83108772D01*
X137675317Y-83113649D01*
X137661276Y-83117166D01*
X137646958Y-83119290D01*
X137632500Y-83120000D01*
X137337500Y-83120000D01*
X137323042Y-83119290D01*
X137308724Y-83117166D01*
X137294683Y-83113649D01*
X137281054Y-83108772D01*
X137267969Y-83102583D01*
X137255553Y-83095142D01*
X137243927Y-83086519D01*
X137233202Y-83076798D01*
X137223481Y-83066073D01*
X137214858Y-83054447D01*
X137207417Y-83042031D01*
X137201228Y-83028946D01*
X137196351Y-83015317D01*
X137192834Y-83001276D01*
X137190710Y-82986958D01*
X137190000Y-82972500D01*
X137190000Y-82627500D01*
X137190710Y-82613042D01*
X137192834Y-82598724D01*
X137196351Y-82584683D01*
X137201228Y-82571054D01*
X137207417Y-82557969D01*
X137214858Y-82545553D01*
X137223481Y-82533927D01*
X137233202Y-82523202D01*
X137243927Y-82513481D01*
X137255553Y-82504858D01*
X137267969Y-82497417D01*
X137281054Y-82491228D01*
X137294683Y-82486351D01*
X137308724Y-82482834D01*
X137323042Y-82480710D01*
X137337500Y-82480000D01*
X137632500Y-82480000D01*
X137646958Y-82480710D01*
G37*
G36*
X136676958Y-82480710D02*
G01*
X136691276Y-82482834D01*
X136705317Y-82486351D01*
X136718946Y-82491228D01*
X136732031Y-82497417D01*
X136744447Y-82504858D01*
X136756073Y-82513481D01*
X136766798Y-82523202D01*
X136776519Y-82533927D01*
X136785142Y-82545553D01*
X136792583Y-82557969D01*
X136798772Y-82571054D01*
X136803649Y-82584683D01*
X136807166Y-82598724D01*
X136809290Y-82613042D01*
X136810000Y-82627500D01*
X136810000Y-82972500D01*
X136809290Y-82986958D01*
X136807166Y-83001276D01*
X136803649Y-83015317D01*
X136798772Y-83028946D01*
X136792583Y-83042031D01*
X136785142Y-83054447D01*
X136776519Y-83066073D01*
X136766798Y-83076798D01*
X136756073Y-83086519D01*
X136744447Y-83095142D01*
X136732031Y-83102583D01*
X136718946Y-83108772D01*
X136705317Y-83113649D01*
X136691276Y-83117166D01*
X136676958Y-83119290D01*
X136662500Y-83120000D01*
X136367500Y-83120000D01*
X136353042Y-83119290D01*
X136338724Y-83117166D01*
X136324683Y-83113649D01*
X136311054Y-83108772D01*
X136297969Y-83102583D01*
X136285553Y-83095142D01*
X136273927Y-83086519D01*
X136263202Y-83076798D01*
X136253481Y-83066073D01*
X136244858Y-83054447D01*
X136237417Y-83042031D01*
X136231228Y-83028946D01*
X136226351Y-83015317D01*
X136222834Y-83001276D01*
X136220710Y-82986958D01*
X136220000Y-82972500D01*
X136220000Y-82627500D01*
X136220710Y-82613042D01*
X136222834Y-82598724D01*
X136226351Y-82584683D01*
X136231228Y-82571054D01*
X136237417Y-82557969D01*
X136244858Y-82545553D01*
X136253481Y-82533927D01*
X136263202Y-82523202D01*
X136273927Y-82513481D01*
X136285553Y-82504858D01*
X136297969Y-82497417D01*
X136311054Y-82491228D01*
X136324683Y-82486351D01*
X136338724Y-82482834D01*
X136353042Y-82480710D01*
X136367500Y-82480000D01*
X136662500Y-82480000D01*
X136676958Y-82480710D01*
G37*
G36*
X111946958Y-94980710D02*
G01*
X111961276Y-94982834D01*
X111975317Y-94986351D01*
X111988946Y-94991228D01*
X112002031Y-94997417D01*
X112014447Y-95004858D01*
X112026073Y-95013481D01*
X112036798Y-95023202D01*
X112046519Y-95033927D01*
X112055142Y-95045553D01*
X112062583Y-95057969D01*
X112068772Y-95071054D01*
X112073649Y-95084683D01*
X112077166Y-95098724D01*
X112079290Y-95113042D01*
X112080000Y-95127500D01*
X112080000Y-95472500D01*
X112079290Y-95486958D01*
X112077166Y-95501276D01*
X112073649Y-95515317D01*
X112068772Y-95528946D01*
X112062583Y-95542031D01*
X112055142Y-95554447D01*
X112046519Y-95566073D01*
X112036798Y-95576798D01*
X112026073Y-95586519D01*
X112014447Y-95595142D01*
X112002031Y-95602583D01*
X111988946Y-95608772D01*
X111975317Y-95613649D01*
X111961276Y-95617166D01*
X111946958Y-95619290D01*
X111932500Y-95620000D01*
X111637500Y-95620000D01*
X111623042Y-95619290D01*
X111608724Y-95617166D01*
X111594683Y-95613649D01*
X111581054Y-95608772D01*
X111567969Y-95602583D01*
X111555553Y-95595142D01*
X111543927Y-95586519D01*
X111533202Y-95576798D01*
X111523481Y-95566073D01*
X111514858Y-95554447D01*
X111507417Y-95542031D01*
X111501228Y-95528946D01*
X111496351Y-95515317D01*
X111492834Y-95501276D01*
X111490710Y-95486958D01*
X111490000Y-95472500D01*
X111490000Y-95127500D01*
X111490710Y-95113042D01*
X111492834Y-95098724D01*
X111496351Y-95084683D01*
X111501228Y-95071054D01*
X111507417Y-95057969D01*
X111514858Y-95045553D01*
X111523481Y-95033927D01*
X111533202Y-95023202D01*
X111543927Y-95013481D01*
X111555553Y-95004858D01*
X111567969Y-94997417D01*
X111581054Y-94991228D01*
X111594683Y-94986351D01*
X111608724Y-94982834D01*
X111623042Y-94980710D01*
X111637500Y-94980000D01*
X111932500Y-94980000D01*
X111946958Y-94980710D01*
G37*
G36*
X110976958Y-94980710D02*
G01*
X110991276Y-94982834D01*
X111005317Y-94986351D01*
X111018946Y-94991228D01*
X111032031Y-94997417D01*
X111044447Y-95004858D01*
X111056073Y-95013481D01*
X111066798Y-95023202D01*
X111076519Y-95033927D01*
X111085142Y-95045553D01*
X111092583Y-95057969D01*
X111098772Y-95071054D01*
X111103649Y-95084683D01*
X111107166Y-95098724D01*
X111109290Y-95113042D01*
X111110000Y-95127500D01*
X111110000Y-95472500D01*
X111109290Y-95486958D01*
X111107166Y-95501276D01*
X111103649Y-95515317D01*
X111098772Y-95528946D01*
X111092583Y-95542031D01*
X111085142Y-95554447D01*
X111076519Y-95566073D01*
X111066798Y-95576798D01*
X111056073Y-95586519D01*
X111044447Y-95595142D01*
X111032031Y-95602583D01*
X111018946Y-95608772D01*
X111005317Y-95613649D01*
X110991276Y-95617166D01*
X110976958Y-95619290D01*
X110962500Y-95620000D01*
X110667500Y-95620000D01*
X110653042Y-95619290D01*
X110638724Y-95617166D01*
X110624683Y-95613649D01*
X110611054Y-95608772D01*
X110597969Y-95602583D01*
X110585553Y-95595142D01*
X110573927Y-95586519D01*
X110563202Y-95576798D01*
X110553481Y-95566073D01*
X110544858Y-95554447D01*
X110537417Y-95542031D01*
X110531228Y-95528946D01*
X110526351Y-95515317D01*
X110522834Y-95501276D01*
X110520710Y-95486958D01*
X110520000Y-95472500D01*
X110520000Y-95127500D01*
X110520710Y-95113042D01*
X110522834Y-95098724D01*
X110526351Y-95084683D01*
X110531228Y-95071054D01*
X110537417Y-95057969D01*
X110544858Y-95045553D01*
X110553481Y-95033927D01*
X110563202Y-95023202D01*
X110573927Y-95013481D01*
X110585553Y-95004858D01*
X110597969Y-94997417D01*
X110611054Y-94991228D01*
X110624683Y-94986351D01*
X110638724Y-94982834D01*
X110653042Y-94980710D01*
X110667500Y-94980000D01*
X110962500Y-94980000D01*
X110976958Y-94980710D01*
G37*
G36*
X128986958Y-94220710D02*
G01*
X129001276Y-94222834D01*
X129015317Y-94226351D01*
X129028946Y-94231228D01*
X129042031Y-94237417D01*
X129054447Y-94244858D01*
X129066073Y-94253481D01*
X129076798Y-94263202D01*
X129086519Y-94273927D01*
X129095142Y-94285553D01*
X129102583Y-94297969D01*
X129108772Y-94311054D01*
X129113649Y-94324683D01*
X129117166Y-94338724D01*
X129119290Y-94353042D01*
X129120000Y-94367500D01*
X129120000Y-94662500D01*
X129119290Y-94676958D01*
X129117166Y-94691276D01*
X129113649Y-94705317D01*
X129108772Y-94718946D01*
X129102583Y-94732031D01*
X129095142Y-94744447D01*
X129086519Y-94756073D01*
X129076798Y-94766798D01*
X129066073Y-94776519D01*
X129054447Y-94785142D01*
X129042031Y-94792583D01*
X129028946Y-94798772D01*
X129015317Y-94803649D01*
X129001276Y-94807166D01*
X128986958Y-94809290D01*
X128972500Y-94810000D01*
X128627500Y-94810000D01*
X128613042Y-94809290D01*
X128598724Y-94807166D01*
X128584683Y-94803649D01*
X128571054Y-94798772D01*
X128557969Y-94792583D01*
X128545553Y-94785142D01*
X128533927Y-94776519D01*
X128523202Y-94766798D01*
X128513481Y-94756073D01*
X128504858Y-94744447D01*
X128497417Y-94732031D01*
X128491228Y-94718946D01*
X128486351Y-94705317D01*
X128482834Y-94691276D01*
X128480710Y-94676958D01*
X128480000Y-94662500D01*
X128480000Y-94367500D01*
X128480710Y-94353042D01*
X128482834Y-94338724D01*
X128486351Y-94324683D01*
X128491228Y-94311054D01*
X128497417Y-94297969D01*
X128504858Y-94285553D01*
X128513481Y-94273927D01*
X128523202Y-94263202D01*
X128533927Y-94253481D01*
X128545553Y-94244858D01*
X128557969Y-94237417D01*
X128571054Y-94231228D01*
X128584683Y-94226351D01*
X128598724Y-94222834D01*
X128613042Y-94220710D01*
X128627500Y-94220000D01*
X128972500Y-94220000D01*
X128986958Y-94220710D01*
G37*
G36*
X128986958Y-95190710D02*
G01*
X129001276Y-95192834D01*
X129015317Y-95196351D01*
X129028946Y-95201228D01*
X129042031Y-95207417D01*
X129054447Y-95214858D01*
X129066073Y-95223481D01*
X129076798Y-95233202D01*
X129086519Y-95243927D01*
X129095142Y-95255553D01*
X129102583Y-95267969D01*
X129108772Y-95281054D01*
X129113649Y-95294683D01*
X129117166Y-95308724D01*
X129119290Y-95323042D01*
X129120000Y-95337500D01*
X129120000Y-95632500D01*
X129119290Y-95646958D01*
X129117166Y-95661276D01*
X129113649Y-95675317D01*
X129108772Y-95688946D01*
X129102583Y-95702031D01*
X129095142Y-95714447D01*
X129086519Y-95726073D01*
X129076798Y-95736798D01*
X129066073Y-95746519D01*
X129054447Y-95755142D01*
X129042031Y-95762583D01*
X129028946Y-95768772D01*
X129015317Y-95773649D01*
X129001276Y-95777166D01*
X128986958Y-95779290D01*
X128972500Y-95780000D01*
X128627500Y-95780000D01*
X128613042Y-95779290D01*
X128598724Y-95777166D01*
X128584683Y-95773649D01*
X128571054Y-95768772D01*
X128557969Y-95762583D01*
X128545553Y-95755142D01*
X128533927Y-95746519D01*
X128523202Y-95736798D01*
X128513481Y-95726073D01*
X128504858Y-95714447D01*
X128497417Y-95702031D01*
X128491228Y-95688946D01*
X128486351Y-95675317D01*
X128482834Y-95661276D01*
X128480710Y-95646958D01*
X128480000Y-95632500D01*
X128480000Y-95337500D01*
X128480710Y-95323042D01*
X128482834Y-95308724D01*
X128486351Y-95294683D01*
X128491228Y-95281054D01*
X128497417Y-95267969D01*
X128504858Y-95255553D01*
X128513481Y-95243927D01*
X128523202Y-95233202D01*
X128533927Y-95223481D01*
X128545553Y-95214858D01*
X128557969Y-95207417D01*
X128571054Y-95201228D01*
X128584683Y-95196351D01*
X128598724Y-95192834D01*
X128613042Y-95190710D01*
X128627500Y-95190000D01*
X128972500Y-95190000D01*
X128986958Y-95190710D01*
G37*
G36*
X136776958Y-95180710D02*
G01*
X136791276Y-95182834D01*
X136805317Y-95186351D01*
X136818946Y-95191228D01*
X136832031Y-95197417D01*
X136844447Y-95204858D01*
X136856073Y-95213481D01*
X136866798Y-95223202D01*
X136876519Y-95233927D01*
X136885142Y-95245553D01*
X136892583Y-95257969D01*
X136898772Y-95271054D01*
X136903649Y-95284683D01*
X136907166Y-95298724D01*
X136909290Y-95313042D01*
X136910000Y-95327500D01*
X136910000Y-95672500D01*
X136909290Y-95686958D01*
X136907166Y-95701276D01*
X136903649Y-95715317D01*
X136898772Y-95728946D01*
X136892583Y-95742031D01*
X136885142Y-95754447D01*
X136876519Y-95766073D01*
X136866798Y-95776798D01*
X136856073Y-95786519D01*
X136844447Y-95795142D01*
X136832031Y-95802583D01*
X136818946Y-95808772D01*
X136805317Y-95813649D01*
X136791276Y-95817166D01*
X136776958Y-95819290D01*
X136762500Y-95820000D01*
X136467500Y-95820000D01*
X136453042Y-95819290D01*
X136438724Y-95817166D01*
X136424683Y-95813649D01*
X136411054Y-95808772D01*
X136397969Y-95802583D01*
X136385553Y-95795142D01*
X136373927Y-95786519D01*
X136363202Y-95776798D01*
X136353481Y-95766073D01*
X136344858Y-95754447D01*
X136337417Y-95742031D01*
X136331228Y-95728946D01*
X136326351Y-95715317D01*
X136322834Y-95701276D01*
X136320710Y-95686958D01*
X136320000Y-95672500D01*
X136320000Y-95327500D01*
X136320710Y-95313042D01*
X136322834Y-95298724D01*
X136326351Y-95284683D01*
X136331228Y-95271054D01*
X136337417Y-95257969D01*
X136344858Y-95245553D01*
X136353481Y-95233927D01*
X136363202Y-95223202D01*
X136373927Y-95213481D01*
X136385553Y-95204858D01*
X136397969Y-95197417D01*
X136411054Y-95191228D01*
X136424683Y-95186351D01*
X136438724Y-95182834D01*
X136453042Y-95180710D01*
X136467500Y-95180000D01*
X136762500Y-95180000D01*
X136776958Y-95180710D01*
G37*
G36*
X137746958Y-95180710D02*
G01*
X137761276Y-95182834D01*
X137775317Y-95186351D01*
X137788946Y-95191228D01*
X137802031Y-95197417D01*
X137814447Y-95204858D01*
X137826073Y-95213481D01*
X137836798Y-95223202D01*
X137846519Y-95233927D01*
X137855142Y-95245553D01*
X137862583Y-95257969D01*
X137868772Y-95271054D01*
X137873649Y-95284683D01*
X137877166Y-95298724D01*
X137879290Y-95313042D01*
X137880000Y-95327500D01*
X137880000Y-95672500D01*
X137879290Y-95686958D01*
X137877166Y-95701276D01*
X137873649Y-95715317D01*
X137868772Y-95728946D01*
X137862583Y-95742031D01*
X137855142Y-95754447D01*
X137846519Y-95766073D01*
X137836798Y-95776798D01*
X137826073Y-95786519D01*
X137814447Y-95795142D01*
X137802031Y-95802583D01*
X137788946Y-95808772D01*
X137775317Y-95813649D01*
X137761276Y-95817166D01*
X137746958Y-95819290D01*
X137732500Y-95820000D01*
X137437500Y-95820000D01*
X137423042Y-95819290D01*
X137408724Y-95817166D01*
X137394683Y-95813649D01*
X137381054Y-95808772D01*
X137367969Y-95802583D01*
X137355553Y-95795142D01*
X137343927Y-95786519D01*
X137333202Y-95776798D01*
X137323481Y-95766073D01*
X137314858Y-95754447D01*
X137307417Y-95742031D01*
X137301228Y-95728946D01*
X137296351Y-95715317D01*
X137292834Y-95701276D01*
X137290710Y-95686958D01*
X137290000Y-95672500D01*
X137290000Y-95327500D01*
X137290710Y-95313042D01*
X137292834Y-95298724D01*
X137296351Y-95284683D01*
X137301228Y-95271054D01*
X137307417Y-95257969D01*
X137314858Y-95245553D01*
X137323481Y-95233927D01*
X137333202Y-95223202D01*
X137343927Y-95213481D01*
X137355553Y-95204858D01*
X137367969Y-95197417D01*
X137381054Y-95191228D01*
X137394683Y-95186351D01*
X137408724Y-95182834D01*
X137423042Y-95180710D01*
X137437500Y-95180000D01*
X137732500Y-95180000D01*
X137746958Y-95180710D01*
G37*
G36*
X155086958Y-95090710D02*
G01*
X155101276Y-95092834D01*
X155115317Y-95096351D01*
X155128946Y-95101228D01*
X155142031Y-95107417D01*
X155154447Y-95114858D01*
X155166073Y-95123481D01*
X155176798Y-95133202D01*
X155186519Y-95143927D01*
X155195142Y-95155553D01*
X155202583Y-95167969D01*
X155208772Y-95181054D01*
X155213649Y-95194683D01*
X155217166Y-95208724D01*
X155219290Y-95223042D01*
X155220000Y-95237500D01*
X155220000Y-95532500D01*
X155219290Y-95546958D01*
X155217166Y-95561276D01*
X155213649Y-95575317D01*
X155208772Y-95588946D01*
X155202583Y-95602031D01*
X155195142Y-95614447D01*
X155186519Y-95626073D01*
X155176798Y-95636798D01*
X155166073Y-95646519D01*
X155154447Y-95655142D01*
X155142031Y-95662583D01*
X155128946Y-95668772D01*
X155115317Y-95673649D01*
X155101276Y-95677166D01*
X155086958Y-95679290D01*
X155072500Y-95680000D01*
X154727500Y-95680000D01*
X154713042Y-95679290D01*
X154698724Y-95677166D01*
X154684683Y-95673649D01*
X154671054Y-95668772D01*
X154657969Y-95662583D01*
X154645553Y-95655142D01*
X154633927Y-95646519D01*
X154623202Y-95636798D01*
X154613481Y-95626073D01*
X154604858Y-95614447D01*
X154597417Y-95602031D01*
X154591228Y-95588946D01*
X154586351Y-95575317D01*
X154582834Y-95561276D01*
X154580710Y-95546958D01*
X154580000Y-95532500D01*
X154580000Y-95237500D01*
X154580710Y-95223042D01*
X154582834Y-95208724D01*
X154586351Y-95194683D01*
X154591228Y-95181054D01*
X154597417Y-95167969D01*
X154604858Y-95155553D01*
X154613481Y-95143927D01*
X154623202Y-95133202D01*
X154633927Y-95123481D01*
X154645553Y-95114858D01*
X154657969Y-95107417D01*
X154671054Y-95101228D01*
X154684683Y-95096351D01*
X154698724Y-95092834D01*
X154713042Y-95090710D01*
X154727500Y-95090000D01*
X155072500Y-95090000D01*
X155086958Y-95090710D01*
G37*
G36*
X155086958Y-94120710D02*
G01*
X155101276Y-94122834D01*
X155115317Y-94126351D01*
X155128946Y-94131228D01*
X155142031Y-94137417D01*
X155154447Y-94144858D01*
X155166073Y-94153481D01*
X155176798Y-94163202D01*
X155186519Y-94173927D01*
X155195142Y-94185553D01*
X155202583Y-94197969D01*
X155208772Y-94211054D01*
X155213649Y-94224683D01*
X155217166Y-94238724D01*
X155219290Y-94253042D01*
X155220000Y-94267500D01*
X155220000Y-94562500D01*
X155219290Y-94576958D01*
X155217166Y-94591276D01*
X155213649Y-94605317D01*
X155208772Y-94618946D01*
X155202583Y-94632031D01*
X155195142Y-94644447D01*
X155186519Y-94656073D01*
X155176798Y-94666798D01*
X155166073Y-94676519D01*
X155154447Y-94685142D01*
X155142031Y-94692583D01*
X155128946Y-94698772D01*
X155115317Y-94703649D01*
X155101276Y-94707166D01*
X155086958Y-94709290D01*
X155072500Y-94710000D01*
X154727500Y-94710000D01*
X154713042Y-94709290D01*
X154698724Y-94707166D01*
X154684683Y-94703649D01*
X154671054Y-94698772D01*
X154657969Y-94692583D01*
X154645553Y-94685142D01*
X154633927Y-94676519D01*
X154623202Y-94666798D01*
X154613481Y-94656073D01*
X154604858Y-94644447D01*
X154597417Y-94632031D01*
X154591228Y-94618946D01*
X154586351Y-94605317D01*
X154582834Y-94591276D01*
X154580710Y-94576958D01*
X154580000Y-94562500D01*
X154580000Y-94267500D01*
X154580710Y-94253042D01*
X154582834Y-94238724D01*
X154586351Y-94224683D01*
X154591228Y-94211054D01*
X154597417Y-94197969D01*
X154604858Y-94185553D01*
X154613481Y-94173927D01*
X154623202Y-94163202D01*
X154633927Y-94153481D01*
X154645553Y-94144858D01*
X154657969Y-94137417D01*
X154671054Y-94131228D01*
X154684683Y-94126351D01*
X154698724Y-94122834D01*
X154713042Y-94120710D01*
X154727500Y-94120000D01*
X155072500Y-94120000D01*
X155086958Y-94120710D01*
G37*
G36*
X109549504Y-102276204D02*
G01*
X109573773Y-102279804D01*
X109597571Y-102285765D01*
X109620671Y-102294030D01*
X109642849Y-102304520D01*
X109663893Y-102317133D01*
X109683598Y-102331747D01*
X109701777Y-102348223D01*
X109718253Y-102366402D01*
X109732867Y-102386107D01*
X109745480Y-102407151D01*
X109755970Y-102429329D01*
X109764235Y-102452429D01*
X109770196Y-102476227D01*
X109773796Y-102500496D01*
X109775000Y-102525000D01*
X109775000Y-103275000D01*
X109773796Y-103299504D01*
X109770196Y-103323773D01*
X109764235Y-103347571D01*
X109755970Y-103370671D01*
X109745480Y-103392849D01*
X109732867Y-103413893D01*
X109718253Y-103433598D01*
X109701777Y-103451777D01*
X109683598Y-103468253D01*
X109663893Y-103482867D01*
X109642849Y-103495480D01*
X109620671Y-103505970D01*
X109597571Y-103514235D01*
X109573773Y-103520196D01*
X109549504Y-103523796D01*
X109525000Y-103525000D01*
X108275000Y-103525000D01*
X108250496Y-103523796D01*
X108226227Y-103520196D01*
X108202429Y-103514235D01*
X108179329Y-103505970D01*
X108157151Y-103495480D01*
X108136107Y-103482867D01*
X108116402Y-103468253D01*
X108098223Y-103451777D01*
X108081747Y-103433598D01*
X108067133Y-103413893D01*
X108054520Y-103392849D01*
X108044030Y-103370671D01*
X108035765Y-103347571D01*
X108029804Y-103323773D01*
X108026204Y-103299504D01*
X108025000Y-103275000D01*
X108025000Y-102525000D01*
X108026204Y-102500496D01*
X108029804Y-102476227D01*
X108035765Y-102452429D01*
X108044030Y-102429329D01*
X108054520Y-102407151D01*
X108067133Y-102386107D01*
X108081747Y-102366402D01*
X108098223Y-102348223D01*
X108116402Y-102331747D01*
X108136107Y-102317133D01*
X108157151Y-102304520D01*
X108179329Y-102294030D01*
X108202429Y-102285765D01*
X108226227Y-102279804D01*
X108250496Y-102276204D01*
X108275000Y-102275000D01*
X109525000Y-102275000D01*
X109549504Y-102276204D01*
G37*
G36*
X109549504Y-99476204D02*
G01*
X109573773Y-99479804D01*
X109597571Y-99485765D01*
X109620671Y-99494030D01*
X109642849Y-99504520D01*
X109663893Y-99517133D01*
X109683598Y-99531747D01*
X109701777Y-99548223D01*
X109718253Y-99566402D01*
X109732867Y-99586107D01*
X109745480Y-99607151D01*
X109755970Y-99629329D01*
X109764235Y-99652429D01*
X109770196Y-99676227D01*
X109773796Y-99700496D01*
X109775000Y-99725000D01*
X109775000Y-100475000D01*
X109773796Y-100499504D01*
X109770196Y-100523773D01*
X109764235Y-100547571D01*
X109755970Y-100570671D01*
X109745480Y-100592849D01*
X109732867Y-100613893D01*
X109718253Y-100633598D01*
X109701777Y-100651777D01*
X109683598Y-100668253D01*
X109663893Y-100682867D01*
X109642849Y-100695480D01*
X109620671Y-100705970D01*
X109597571Y-100714235D01*
X109573773Y-100720196D01*
X109549504Y-100723796D01*
X109525000Y-100725000D01*
X108275000Y-100725000D01*
X108250496Y-100723796D01*
X108226227Y-100720196D01*
X108202429Y-100714235D01*
X108179329Y-100705970D01*
X108157151Y-100695480D01*
X108136107Y-100682867D01*
X108116402Y-100668253D01*
X108098223Y-100651777D01*
X108081747Y-100633598D01*
X108067133Y-100613893D01*
X108054520Y-100592849D01*
X108044030Y-100570671D01*
X108035765Y-100547571D01*
X108029804Y-100523773D01*
X108026204Y-100499504D01*
X108025000Y-100475000D01*
X108025000Y-99725000D01*
X108026204Y-99700496D01*
X108029804Y-99676227D01*
X108035765Y-99652429D01*
X108044030Y-99629329D01*
X108054520Y-99607151D01*
X108067133Y-99586107D01*
X108081747Y-99566402D01*
X108098223Y-99548223D01*
X108116402Y-99531747D01*
X108136107Y-99517133D01*
X108157151Y-99504520D01*
X108179329Y-99494030D01*
X108202429Y-99485765D01*
X108226227Y-99479804D01*
X108250496Y-99476204D01*
X108275000Y-99475000D01*
X109525000Y-99475000D01*
X109549504Y-99476204D01*
G37*
G36*
X122549504Y-102476204D02*
G01*
X122573773Y-102479804D01*
X122597571Y-102485765D01*
X122620671Y-102494030D01*
X122642849Y-102504520D01*
X122663893Y-102517133D01*
X122683598Y-102531747D01*
X122701777Y-102548223D01*
X122718253Y-102566402D01*
X122732867Y-102586107D01*
X122745480Y-102607151D01*
X122755970Y-102629329D01*
X122764235Y-102652429D01*
X122770196Y-102676227D01*
X122773796Y-102700496D01*
X122775000Y-102725000D01*
X122775000Y-103475000D01*
X122773796Y-103499504D01*
X122770196Y-103523773D01*
X122764235Y-103547571D01*
X122755970Y-103570671D01*
X122745480Y-103592849D01*
X122732867Y-103613893D01*
X122718253Y-103633598D01*
X122701777Y-103651777D01*
X122683598Y-103668253D01*
X122663893Y-103682867D01*
X122642849Y-103695480D01*
X122620671Y-103705970D01*
X122597571Y-103714235D01*
X122573773Y-103720196D01*
X122549504Y-103723796D01*
X122525000Y-103725000D01*
X121275000Y-103725000D01*
X121250496Y-103723796D01*
X121226227Y-103720196D01*
X121202429Y-103714235D01*
X121179329Y-103705970D01*
X121157151Y-103695480D01*
X121136107Y-103682867D01*
X121116402Y-103668253D01*
X121098223Y-103651777D01*
X121081747Y-103633598D01*
X121067133Y-103613893D01*
X121054520Y-103592849D01*
X121044030Y-103570671D01*
X121035765Y-103547571D01*
X121029804Y-103523773D01*
X121026204Y-103499504D01*
X121025000Y-103475000D01*
X121025000Y-102725000D01*
X121026204Y-102700496D01*
X121029804Y-102676227D01*
X121035765Y-102652429D01*
X121044030Y-102629329D01*
X121054520Y-102607151D01*
X121067133Y-102586107D01*
X121081747Y-102566402D01*
X121098223Y-102548223D01*
X121116402Y-102531747D01*
X121136107Y-102517133D01*
X121157151Y-102504520D01*
X121179329Y-102494030D01*
X121202429Y-102485765D01*
X121226227Y-102479804D01*
X121250496Y-102476204D01*
X121275000Y-102475000D01*
X122525000Y-102475000D01*
X122549504Y-102476204D01*
G37*
G36*
X122549504Y-99676204D02*
G01*
X122573773Y-99679804D01*
X122597571Y-99685765D01*
X122620671Y-99694030D01*
X122642849Y-99704520D01*
X122663893Y-99717133D01*
X122683598Y-99731747D01*
X122701777Y-99748223D01*
X122718253Y-99766402D01*
X122732867Y-99786107D01*
X122745480Y-99807151D01*
X122755970Y-99829329D01*
X122764235Y-99852429D01*
X122770196Y-99876227D01*
X122773796Y-99900496D01*
X122775000Y-99925000D01*
X122775000Y-100675000D01*
X122773796Y-100699504D01*
X122770196Y-100723773D01*
X122764235Y-100747571D01*
X122755970Y-100770671D01*
X122745480Y-100792849D01*
X122732867Y-100813893D01*
X122718253Y-100833598D01*
X122701777Y-100851777D01*
X122683598Y-100868253D01*
X122663893Y-100882867D01*
X122642849Y-100895480D01*
X122620671Y-100905970D01*
X122597571Y-100914235D01*
X122573773Y-100920196D01*
X122549504Y-100923796D01*
X122525000Y-100925000D01*
X121275000Y-100925000D01*
X121250496Y-100923796D01*
X121226227Y-100920196D01*
X121202429Y-100914235D01*
X121179329Y-100905970D01*
X121157151Y-100895480D01*
X121136107Y-100882867D01*
X121116402Y-100868253D01*
X121098223Y-100851777D01*
X121081747Y-100833598D01*
X121067133Y-100813893D01*
X121054520Y-100792849D01*
X121044030Y-100770671D01*
X121035765Y-100747571D01*
X121029804Y-100723773D01*
X121026204Y-100699504D01*
X121025000Y-100675000D01*
X121025000Y-99925000D01*
X121026204Y-99900496D01*
X121029804Y-99876227D01*
X121035765Y-99852429D01*
X121044030Y-99829329D01*
X121054520Y-99807151D01*
X121067133Y-99786107D01*
X121081747Y-99766402D01*
X121098223Y-99748223D01*
X121116402Y-99731747D01*
X121136107Y-99717133D01*
X121157151Y-99704520D01*
X121179329Y-99694030D01*
X121202429Y-99685765D01*
X121226227Y-99679804D01*
X121250496Y-99676204D01*
X121275000Y-99675000D01*
X122525000Y-99675000D01*
X122549504Y-99676204D01*
G37*
G36*
X135549504Y-102276204D02*
G01*
X135573773Y-102279804D01*
X135597571Y-102285765D01*
X135620671Y-102294030D01*
X135642849Y-102304520D01*
X135663893Y-102317133D01*
X135683598Y-102331747D01*
X135701777Y-102348223D01*
X135718253Y-102366402D01*
X135732867Y-102386107D01*
X135745480Y-102407151D01*
X135755970Y-102429329D01*
X135764235Y-102452429D01*
X135770196Y-102476227D01*
X135773796Y-102500496D01*
X135775000Y-102525000D01*
X135775000Y-103275000D01*
X135773796Y-103299504D01*
X135770196Y-103323773D01*
X135764235Y-103347571D01*
X135755970Y-103370671D01*
X135745480Y-103392849D01*
X135732867Y-103413893D01*
X135718253Y-103433598D01*
X135701777Y-103451777D01*
X135683598Y-103468253D01*
X135663893Y-103482867D01*
X135642849Y-103495480D01*
X135620671Y-103505970D01*
X135597571Y-103514235D01*
X135573773Y-103520196D01*
X135549504Y-103523796D01*
X135525000Y-103525000D01*
X134275000Y-103525000D01*
X134250496Y-103523796D01*
X134226227Y-103520196D01*
X134202429Y-103514235D01*
X134179329Y-103505970D01*
X134157151Y-103495480D01*
X134136107Y-103482867D01*
X134116402Y-103468253D01*
X134098223Y-103451777D01*
X134081747Y-103433598D01*
X134067133Y-103413893D01*
X134054520Y-103392849D01*
X134044030Y-103370671D01*
X134035765Y-103347571D01*
X134029804Y-103323773D01*
X134026204Y-103299504D01*
X134025000Y-103275000D01*
X134025000Y-102525000D01*
X134026204Y-102500496D01*
X134029804Y-102476227D01*
X134035765Y-102452429D01*
X134044030Y-102429329D01*
X134054520Y-102407151D01*
X134067133Y-102386107D01*
X134081747Y-102366402D01*
X134098223Y-102348223D01*
X134116402Y-102331747D01*
X134136107Y-102317133D01*
X134157151Y-102304520D01*
X134179329Y-102294030D01*
X134202429Y-102285765D01*
X134226227Y-102279804D01*
X134250496Y-102276204D01*
X134275000Y-102275000D01*
X135525000Y-102275000D01*
X135549504Y-102276204D01*
G37*
G36*
X135549504Y-99476204D02*
G01*
X135573773Y-99479804D01*
X135597571Y-99485765D01*
X135620671Y-99494030D01*
X135642849Y-99504520D01*
X135663893Y-99517133D01*
X135683598Y-99531747D01*
X135701777Y-99548223D01*
X135718253Y-99566402D01*
X135732867Y-99586107D01*
X135745480Y-99607151D01*
X135755970Y-99629329D01*
X135764235Y-99652429D01*
X135770196Y-99676227D01*
X135773796Y-99700496D01*
X135775000Y-99725000D01*
X135775000Y-100475000D01*
X135773796Y-100499504D01*
X135770196Y-100523773D01*
X135764235Y-100547571D01*
X135755970Y-100570671D01*
X135745480Y-100592849D01*
X135732867Y-100613893D01*
X135718253Y-100633598D01*
X135701777Y-100651777D01*
X135683598Y-100668253D01*
X135663893Y-100682867D01*
X135642849Y-100695480D01*
X135620671Y-100705970D01*
X135597571Y-100714235D01*
X135573773Y-100720196D01*
X135549504Y-100723796D01*
X135525000Y-100725000D01*
X134275000Y-100725000D01*
X134250496Y-100723796D01*
X134226227Y-100720196D01*
X134202429Y-100714235D01*
X134179329Y-100705970D01*
X134157151Y-100695480D01*
X134136107Y-100682867D01*
X134116402Y-100668253D01*
X134098223Y-100651777D01*
X134081747Y-100633598D01*
X134067133Y-100613893D01*
X134054520Y-100592849D01*
X134044030Y-100570671D01*
X134035765Y-100547571D01*
X134029804Y-100523773D01*
X134026204Y-100499504D01*
X134025000Y-100475000D01*
X134025000Y-99725000D01*
X134026204Y-99700496D01*
X134029804Y-99676227D01*
X134035765Y-99652429D01*
X134044030Y-99629329D01*
X134054520Y-99607151D01*
X134067133Y-99586107D01*
X134081747Y-99566402D01*
X134098223Y-99548223D01*
X134116402Y-99531747D01*
X134136107Y-99517133D01*
X134157151Y-99504520D01*
X134179329Y-99494030D01*
X134202429Y-99485765D01*
X134226227Y-99479804D01*
X134250496Y-99476204D01*
X134275000Y-99475000D01*
X135525000Y-99475000D01*
X135549504Y-99476204D01*
G37*
G36*
X148449504Y-99476204D02*
G01*
X148473773Y-99479804D01*
X148497571Y-99485765D01*
X148520671Y-99494030D01*
X148542849Y-99504520D01*
X148563893Y-99517133D01*
X148583598Y-99531747D01*
X148601777Y-99548223D01*
X148618253Y-99566402D01*
X148632867Y-99586107D01*
X148645480Y-99607151D01*
X148655970Y-99629329D01*
X148664235Y-99652429D01*
X148670196Y-99676227D01*
X148673796Y-99700496D01*
X148675000Y-99725000D01*
X148675000Y-100475000D01*
X148673796Y-100499504D01*
X148670196Y-100523773D01*
X148664235Y-100547571D01*
X148655970Y-100570671D01*
X148645480Y-100592849D01*
X148632867Y-100613893D01*
X148618253Y-100633598D01*
X148601777Y-100651777D01*
X148583598Y-100668253D01*
X148563893Y-100682867D01*
X148542849Y-100695480D01*
X148520671Y-100705970D01*
X148497571Y-100714235D01*
X148473773Y-100720196D01*
X148449504Y-100723796D01*
X148425000Y-100725000D01*
X147175000Y-100725000D01*
X147150496Y-100723796D01*
X147126227Y-100720196D01*
X147102429Y-100714235D01*
X147079329Y-100705970D01*
X147057151Y-100695480D01*
X147036107Y-100682867D01*
X147016402Y-100668253D01*
X146998223Y-100651777D01*
X146981747Y-100633598D01*
X146967133Y-100613893D01*
X146954520Y-100592849D01*
X146944030Y-100570671D01*
X146935765Y-100547571D01*
X146929804Y-100523773D01*
X146926204Y-100499504D01*
X146925000Y-100475000D01*
X146925000Y-99725000D01*
X146926204Y-99700496D01*
X146929804Y-99676227D01*
X146935765Y-99652429D01*
X146944030Y-99629329D01*
X146954520Y-99607151D01*
X146967133Y-99586107D01*
X146981747Y-99566402D01*
X146998223Y-99548223D01*
X147016402Y-99531747D01*
X147036107Y-99517133D01*
X147057151Y-99504520D01*
X147079329Y-99494030D01*
X147102429Y-99485765D01*
X147126227Y-99479804D01*
X147150496Y-99476204D01*
X147175000Y-99475000D01*
X148425000Y-99475000D01*
X148449504Y-99476204D01*
G37*
G36*
X148449504Y-102276204D02*
G01*
X148473773Y-102279804D01*
X148497571Y-102285765D01*
X148520671Y-102294030D01*
X148542849Y-102304520D01*
X148563893Y-102317133D01*
X148583598Y-102331747D01*
X148601777Y-102348223D01*
X148618253Y-102366402D01*
X148632867Y-102386107D01*
X148645480Y-102407151D01*
X148655970Y-102429329D01*
X148664235Y-102452429D01*
X148670196Y-102476227D01*
X148673796Y-102500496D01*
X148675000Y-102525000D01*
X148675000Y-103275000D01*
X148673796Y-103299504D01*
X148670196Y-103323773D01*
X148664235Y-103347571D01*
X148655970Y-103370671D01*
X148645480Y-103392849D01*
X148632867Y-103413893D01*
X148618253Y-103433598D01*
X148601777Y-103451777D01*
X148583598Y-103468253D01*
X148563893Y-103482867D01*
X148542849Y-103495480D01*
X148520671Y-103505970D01*
X148497571Y-103514235D01*
X148473773Y-103520196D01*
X148449504Y-103523796D01*
X148425000Y-103525000D01*
X147175000Y-103525000D01*
X147150496Y-103523796D01*
X147126227Y-103520196D01*
X147102429Y-103514235D01*
X147079329Y-103505970D01*
X147057151Y-103495480D01*
X147036107Y-103482867D01*
X147016402Y-103468253D01*
X146998223Y-103451777D01*
X146981747Y-103433598D01*
X146967133Y-103413893D01*
X146954520Y-103392849D01*
X146944030Y-103370671D01*
X146935765Y-103347571D01*
X146929804Y-103323773D01*
X146926204Y-103299504D01*
X146925000Y-103275000D01*
X146925000Y-102525000D01*
X146926204Y-102500496D01*
X146929804Y-102476227D01*
X146935765Y-102452429D01*
X146944030Y-102429329D01*
X146954520Y-102407151D01*
X146967133Y-102386107D01*
X146981747Y-102366402D01*
X146998223Y-102348223D01*
X147016402Y-102331747D01*
X147036107Y-102317133D01*
X147057151Y-102304520D01*
X147079329Y-102294030D01*
X147102429Y-102285765D01*
X147126227Y-102279804D01*
X147150496Y-102276204D01*
X147175000Y-102275000D01*
X148425000Y-102275000D01*
X148449504Y-102276204D01*
G37*
M02*
