G04 #@! TF.GenerationSoftware,KiCad,Pcbnew,(5.1.5)-3*
G04 #@! TF.CreationDate,2020-03-14T15:24:04+00:00*
G04 #@! TF.ProjectId,Hat,4861742e-6b69-4636-9164-5f7063625858,A*
G04 #@! TF.SameCoordinates,Original*
G04 #@! TF.FileFunction,Legend,Bot*
G04 #@! TF.FilePolarity,Positive*
%FSLAX46Y46*%
G04 Gerber Fmt 4.6, Leading zero omitted, Abs format (unit mm)*
G04 Created by KiCad (PCBNEW (5.1.5)-3) date 2020-03-14 15:24:04*
%MOMM*%
%LPD*%
G04 APERTURE LIST*
%ADD10C,0.200000*%
%ADD11C,0.127000*%
%ADD12C,0.120000*%
%ADD13C,0.150000*%
%ADD14C,0.153000*%
%ADD15C,0.130000*%
G04 APERTURE END LIST*
D10*
X111600000Y-83500000D02*
G75*
G03X111600000Y-83500000I-100000J0D01*
G01*
D11*
X118150000Y-85800000D02*
X117870000Y-85800000D01*
X118150000Y-91400000D02*
X118150000Y-85800000D01*
X117870000Y-91400000D02*
X118150000Y-91400000D01*
X110650000Y-91400000D02*
X110930000Y-91400000D01*
X110650000Y-85800000D02*
X110650000Y-91400000D01*
X110930000Y-85800000D02*
X110650000Y-85800000D01*
X136930000Y-85800000D02*
X136650000Y-85800000D01*
X136650000Y-85800000D02*
X136650000Y-91400000D01*
X136650000Y-91400000D02*
X136930000Y-91400000D01*
X143870000Y-91400000D02*
X144150000Y-91400000D01*
X144150000Y-91400000D02*
X144150000Y-85800000D01*
X144150000Y-85800000D02*
X143870000Y-85800000D01*
D10*
X137600000Y-83500000D02*
G75*
G03X137600000Y-83500000I-100000J0D01*
G01*
D12*
X109810000Y-102102064D02*
X109810000Y-100897936D01*
X107990000Y-102102064D02*
X107990000Y-100897936D01*
X122810000Y-102302064D02*
X122810000Y-101097936D01*
X120990000Y-102302064D02*
X120990000Y-101097936D01*
X135810000Y-102102064D02*
X135810000Y-100897936D01*
X133990000Y-102102064D02*
X133990000Y-100897936D01*
X146890000Y-102102064D02*
X146890000Y-100897936D01*
X148710000Y-102102064D02*
X148710000Y-100897936D01*
D13*
X133347619Y-79804761D02*
X133204761Y-79852380D01*
X132966666Y-79852380D01*
X132871428Y-79804761D01*
X132823809Y-79757142D01*
X132776190Y-79661904D01*
X132776190Y-79566666D01*
X132823809Y-79471428D01*
X132871428Y-79423809D01*
X132966666Y-79376190D01*
X133157142Y-79328571D01*
X133252380Y-79280952D01*
X133300000Y-79233333D01*
X133347619Y-79138095D01*
X133347619Y-79042857D01*
X133300000Y-78947619D01*
X133252380Y-78900000D01*
X133157142Y-78852380D01*
X132919047Y-78852380D01*
X132776190Y-78900000D01*
X132014285Y-79328571D02*
X132347619Y-79328571D01*
X132347619Y-79852380D02*
X132347619Y-78852380D01*
X131871428Y-78852380D01*
X131633333Y-78852380D02*
X131061904Y-78852380D01*
X131347619Y-79852380D02*
X131347619Y-78852380D01*
X130728571Y-79852380D02*
X130728571Y-78852380D01*
X130157142Y-79852380D01*
X130157142Y-78852380D01*
X129490476Y-78852380D02*
X129395238Y-78852380D01*
X129300000Y-78900000D01*
X129252380Y-78947619D01*
X129204761Y-79042857D01*
X129157142Y-79233333D01*
X129157142Y-79471428D01*
X129204761Y-79661904D01*
X129252380Y-79757142D01*
X129300000Y-79804761D01*
X129395238Y-79852380D01*
X129490476Y-79852380D01*
X129585714Y-79804761D01*
X129633333Y-79757142D01*
X129680952Y-79661904D01*
X129728571Y-79471428D01*
X129728571Y-79233333D01*
X129680952Y-79042857D01*
X129633333Y-78947619D01*
X129585714Y-78900000D01*
X129490476Y-78852380D01*
X128776190Y-78947619D02*
X128728571Y-78900000D01*
X128633333Y-78852380D01*
X128395238Y-78852380D01*
X128300000Y-78900000D01*
X128252380Y-78947619D01*
X128204761Y-79042857D01*
X128204761Y-79138095D01*
X128252380Y-79280952D01*
X128823809Y-79852380D01*
X128204761Y-79852380D01*
X127300000Y-79852380D02*
X127776190Y-79852380D01*
X127776190Y-78852380D01*
X126966666Y-79471428D02*
X126204761Y-79471428D01*
X125204761Y-79852380D02*
X125776190Y-79852380D01*
X125490476Y-79852380D02*
X125490476Y-78852380D01*
X125585714Y-78995238D01*
X125680952Y-79090476D01*
X125776190Y-79138095D01*
X124823809Y-78947619D02*
X124776190Y-78900000D01*
X124680952Y-78852380D01*
X124442857Y-78852380D01*
X124347619Y-78900000D01*
X124300000Y-78947619D01*
X124252380Y-79042857D01*
X124252380Y-79138095D01*
X124300000Y-79280952D01*
X124871428Y-79852380D01*
X124252380Y-79852380D01*
X159447619Y-79704761D02*
X159304761Y-79752380D01*
X159066666Y-79752380D01*
X158971428Y-79704761D01*
X158923809Y-79657142D01*
X158876190Y-79561904D01*
X158876190Y-79466666D01*
X158923809Y-79371428D01*
X158971428Y-79323809D01*
X159066666Y-79276190D01*
X159257142Y-79228571D01*
X159352380Y-79180952D01*
X159400000Y-79133333D01*
X159447619Y-79038095D01*
X159447619Y-78942857D01*
X159400000Y-78847619D01*
X159352380Y-78800000D01*
X159257142Y-78752380D01*
X159019047Y-78752380D01*
X158876190Y-78800000D01*
X158114285Y-79228571D02*
X158447619Y-79228571D01*
X158447619Y-79752380D02*
X158447619Y-78752380D01*
X157971428Y-78752380D01*
X157733333Y-78752380D02*
X157161904Y-78752380D01*
X157447619Y-79752380D02*
X157447619Y-78752380D01*
X156828571Y-79752380D02*
X156828571Y-78752380D01*
X156257142Y-79752380D01*
X156257142Y-78752380D01*
X155590476Y-78752380D02*
X155495238Y-78752380D01*
X155400000Y-78800000D01*
X155352380Y-78847619D01*
X155304761Y-78942857D01*
X155257142Y-79133333D01*
X155257142Y-79371428D01*
X155304761Y-79561904D01*
X155352380Y-79657142D01*
X155400000Y-79704761D01*
X155495238Y-79752380D01*
X155590476Y-79752380D01*
X155685714Y-79704761D01*
X155733333Y-79657142D01*
X155780952Y-79561904D01*
X155828571Y-79371428D01*
X155828571Y-79133333D01*
X155780952Y-78942857D01*
X155733333Y-78847619D01*
X155685714Y-78800000D01*
X155590476Y-78752380D01*
X154876190Y-78847619D02*
X154828571Y-78800000D01*
X154733333Y-78752380D01*
X154495238Y-78752380D01*
X154400000Y-78800000D01*
X154352380Y-78847619D01*
X154304761Y-78942857D01*
X154304761Y-79038095D01*
X154352380Y-79180952D01*
X154923809Y-79752380D01*
X154304761Y-79752380D01*
X153400000Y-79752380D02*
X153876190Y-79752380D01*
X153876190Y-78752380D01*
X153066666Y-79371428D02*
X152304761Y-79371428D01*
X151304761Y-79752380D02*
X151876190Y-79752380D01*
X151590476Y-79752380D02*
X151590476Y-78752380D01*
X151685714Y-78895238D01*
X151780952Y-78990476D01*
X151876190Y-79038095D01*
X150923809Y-78847619D02*
X150876190Y-78800000D01*
X150780952Y-78752380D01*
X150542857Y-78752380D01*
X150447619Y-78800000D01*
X150400000Y-78847619D01*
X150352380Y-78942857D01*
X150352380Y-79038095D01*
X150400000Y-79180952D01*
X150971428Y-79752380D01*
X150352380Y-79752380D01*
D14*
X109966666Y-84861904D02*
X109966666Y-85338095D01*
X110252380Y-84766666D02*
X109252380Y-85100000D01*
X110252380Y-85433333D01*
X110252380Y-85766666D02*
X109252380Y-85766666D01*
X109252380Y-86004761D01*
X109300000Y-86147619D01*
X109395238Y-86242857D01*
X109490476Y-86290476D01*
X109680952Y-86338095D01*
X109823809Y-86338095D01*
X110014285Y-86290476D01*
X110109523Y-86242857D01*
X110204761Y-86147619D01*
X110252380Y-86004761D01*
X110252380Y-85766666D01*
X109252380Y-86766666D02*
X110061904Y-86766666D01*
X110157142Y-86814285D01*
X110204761Y-86861904D01*
X110252380Y-86957142D01*
X110252380Y-87147619D01*
X110204761Y-87242857D01*
X110157142Y-87290476D01*
X110061904Y-87338095D01*
X109252380Y-87338095D01*
X110252380Y-87814285D02*
X109252380Y-87814285D01*
X109966666Y-88147619D01*
X109252380Y-88480952D01*
X110252380Y-88480952D01*
X109252380Y-88861904D02*
X109252380Y-89480952D01*
X109633333Y-89147619D01*
X109633333Y-89290476D01*
X109680952Y-89385714D01*
X109728571Y-89433333D01*
X109823809Y-89480952D01*
X110061904Y-89480952D01*
X110157142Y-89433333D01*
X110204761Y-89385714D01*
X110252380Y-89290476D01*
X110252380Y-89004761D01*
X110204761Y-88909523D01*
X110157142Y-88861904D01*
X110252380Y-90433333D02*
X110252380Y-89861904D01*
X110252380Y-90147619D02*
X109252380Y-90147619D01*
X109395238Y-90052380D01*
X109490476Y-89957142D01*
X109538095Y-89861904D01*
X109252380Y-91338095D02*
X109252380Y-90861904D01*
X109728571Y-90814285D01*
X109680952Y-90861904D01*
X109633333Y-90957142D01*
X109633333Y-91195238D01*
X109680952Y-91290476D01*
X109728571Y-91338095D01*
X109823809Y-91385714D01*
X110061904Y-91385714D01*
X110157142Y-91338095D01*
X110204761Y-91290476D01*
X110252380Y-91195238D01*
X110252380Y-90957142D01*
X110204761Y-90861904D01*
X110157142Y-90814285D01*
X109585714Y-92242857D02*
X110252380Y-92242857D01*
X109204761Y-92004761D02*
X109919047Y-91766666D01*
X109919047Y-92385714D01*
X135966666Y-84861904D02*
X135966666Y-85338095D01*
X136252380Y-84766666D02*
X135252380Y-85100000D01*
X136252380Y-85433333D01*
X136252380Y-85766666D02*
X135252380Y-85766666D01*
X135252380Y-86004761D01*
X135300000Y-86147619D01*
X135395238Y-86242857D01*
X135490476Y-86290476D01*
X135680952Y-86338095D01*
X135823809Y-86338095D01*
X136014285Y-86290476D01*
X136109523Y-86242857D01*
X136204761Y-86147619D01*
X136252380Y-86004761D01*
X136252380Y-85766666D01*
X135252380Y-86766666D02*
X136061904Y-86766666D01*
X136157142Y-86814285D01*
X136204761Y-86861904D01*
X136252380Y-86957142D01*
X136252380Y-87147619D01*
X136204761Y-87242857D01*
X136157142Y-87290476D01*
X136061904Y-87338095D01*
X135252380Y-87338095D01*
X136252380Y-87814285D02*
X135252380Y-87814285D01*
X135966666Y-88147619D01*
X135252380Y-88480952D01*
X136252380Y-88480952D01*
X135252380Y-88861904D02*
X135252380Y-89480952D01*
X135633333Y-89147619D01*
X135633333Y-89290476D01*
X135680952Y-89385714D01*
X135728571Y-89433333D01*
X135823809Y-89480952D01*
X136061904Y-89480952D01*
X136157142Y-89433333D01*
X136204761Y-89385714D01*
X136252380Y-89290476D01*
X136252380Y-89004761D01*
X136204761Y-88909523D01*
X136157142Y-88861904D01*
X136252380Y-90433333D02*
X136252380Y-89861904D01*
X136252380Y-90147619D02*
X135252380Y-90147619D01*
X135395238Y-90052380D01*
X135490476Y-89957142D01*
X135538095Y-89861904D01*
X135252380Y-91338095D02*
X135252380Y-90861904D01*
X135728571Y-90814285D01*
X135680952Y-90861904D01*
X135633333Y-90957142D01*
X135633333Y-91195238D01*
X135680952Y-91290476D01*
X135728571Y-91338095D01*
X135823809Y-91385714D01*
X136061904Y-91385714D01*
X136157142Y-91338095D01*
X136204761Y-91290476D01*
X136252380Y-91195238D01*
X136252380Y-90957142D01*
X136204761Y-90861904D01*
X136157142Y-90814285D01*
X135585714Y-92242857D02*
X136252380Y-92242857D01*
X135204761Y-92004761D02*
X135919047Y-91766666D01*
X135919047Y-92385714D01*
X111760714Y-82139285D02*
X112189285Y-82139285D01*
X111975000Y-82139285D02*
X111975000Y-81389285D01*
X112046428Y-81496428D01*
X112117857Y-81567857D01*
X112189285Y-81603571D01*
X111296428Y-81389285D02*
X111225000Y-81389285D01*
X111153571Y-81425000D01*
X111117857Y-81460714D01*
X111082142Y-81532142D01*
X111046428Y-81675000D01*
X111046428Y-81853571D01*
X111082142Y-81996428D01*
X111117857Y-82067857D01*
X111153571Y-82103571D01*
X111225000Y-82139285D01*
X111296428Y-82139285D01*
X111367857Y-82103571D01*
X111403571Y-82067857D01*
X111439285Y-81996428D01*
X111475000Y-81853571D01*
X111475000Y-81675000D01*
X111439285Y-81532142D01*
X111403571Y-81460714D01*
X111367857Y-81425000D01*
X111296428Y-81389285D01*
X110582142Y-81389285D02*
X110510714Y-81389285D01*
X110439285Y-81425000D01*
X110403571Y-81460714D01*
X110367857Y-81532142D01*
X110332142Y-81675000D01*
X110332142Y-81853571D01*
X110367857Y-81996428D01*
X110403571Y-82067857D01*
X110439285Y-82103571D01*
X110510714Y-82139285D01*
X110582142Y-82139285D01*
X110653571Y-82103571D01*
X110689285Y-82067857D01*
X110725000Y-81996428D01*
X110760714Y-81853571D01*
X110760714Y-81675000D01*
X110725000Y-81532142D01*
X110689285Y-81460714D01*
X110653571Y-81425000D01*
X110582142Y-81389285D01*
X110010714Y-81639285D02*
X110010714Y-82139285D01*
X110010714Y-81710714D02*
X109975000Y-81675000D01*
X109903571Y-81639285D01*
X109796428Y-81639285D01*
X109725000Y-81675000D01*
X109689285Y-81746428D01*
X109689285Y-82139285D01*
X109082142Y-81746428D02*
X109332142Y-81746428D01*
X109332142Y-82139285D02*
X109332142Y-81389285D01*
X108975000Y-81389285D01*
X138060714Y-82139285D02*
X138489285Y-82139285D01*
X138275000Y-82139285D02*
X138275000Y-81389285D01*
X138346428Y-81496428D01*
X138417857Y-81567857D01*
X138489285Y-81603571D01*
X137596428Y-81389285D02*
X137525000Y-81389285D01*
X137453571Y-81425000D01*
X137417857Y-81460714D01*
X137382142Y-81532142D01*
X137346428Y-81675000D01*
X137346428Y-81853571D01*
X137382142Y-81996428D01*
X137417857Y-82067857D01*
X137453571Y-82103571D01*
X137525000Y-82139285D01*
X137596428Y-82139285D01*
X137667857Y-82103571D01*
X137703571Y-82067857D01*
X137739285Y-81996428D01*
X137775000Y-81853571D01*
X137775000Y-81675000D01*
X137739285Y-81532142D01*
X137703571Y-81460714D01*
X137667857Y-81425000D01*
X137596428Y-81389285D01*
X136882142Y-81389285D02*
X136810714Y-81389285D01*
X136739285Y-81425000D01*
X136703571Y-81460714D01*
X136667857Y-81532142D01*
X136632142Y-81675000D01*
X136632142Y-81853571D01*
X136667857Y-81996428D01*
X136703571Y-82067857D01*
X136739285Y-82103571D01*
X136810714Y-82139285D01*
X136882142Y-82139285D01*
X136953571Y-82103571D01*
X136989285Y-82067857D01*
X137025000Y-81996428D01*
X137060714Y-81853571D01*
X137060714Y-81675000D01*
X137025000Y-81532142D01*
X136989285Y-81460714D01*
X136953571Y-81425000D01*
X136882142Y-81389285D01*
X136310714Y-81639285D02*
X136310714Y-82139285D01*
X136310714Y-81710714D02*
X136275000Y-81675000D01*
X136203571Y-81639285D01*
X136096428Y-81639285D01*
X136025000Y-81675000D01*
X135989285Y-81746428D01*
X135989285Y-82139285D01*
X135382142Y-81746428D02*
X135632142Y-81746428D01*
X135632142Y-82139285D02*
X135632142Y-81389285D01*
X135275000Y-81389285D01*
X111960714Y-96809285D02*
X112389285Y-96809285D01*
X112175000Y-96809285D02*
X112175000Y-96059285D01*
X112246428Y-96166428D01*
X112317857Y-96237857D01*
X112389285Y-96273571D01*
X111496428Y-96059285D02*
X111425000Y-96059285D01*
X111353571Y-96095000D01*
X111317857Y-96130714D01*
X111282142Y-96202142D01*
X111246428Y-96345000D01*
X111246428Y-96523571D01*
X111282142Y-96666428D01*
X111317857Y-96737857D01*
X111353571Y-96773571D01*
X111425000Y-96809285D01*
X111496428Y-96809285D01*
X111567857Y-96773571D01*
X111603571Y-96737857D01*
X111639285Y-96666428D01*
X111675000Y-96523571D01*
X111675000Y-96345000D01*
X111639285Y-96202142D01*
X111603571Y-96130714D01*
X111567857Y-96095000D01*
X111496428Y-96059285D01*
X110782142Y-96059285D02*
X110710714Y-96059285D01*
X110639285Y-96095000D01*
X110603571Y-96130714D01*
X110567857Y-96202142D01*
X110532142Y-96345000D01*
X110532142Y-96523571D01*
X110567857Y-96666428D01*
X110603571Y-96737857D01*
X110639285Y-96773571D01*
X110710714Y-96809285D01*
X110782142Y-96809285D01*
X110853571Y-96773571D01*
X110889285Y-96737857D01*
X110925000Y-96666428D01*
X110960714Y-96523571D01*
X110960714Y-96345000D01*
X110925000Y-96202142D01*
X110889285Y-96130714D01*
X110853571Y-96095000D01*
X110782142Y-96059285D01*
X110210714Y-96309285D02*
X110210714Y-96809285D01*
X110210714Y-96380714D02*
X110175000Y-96345000D01*
X110103571Y-96309285D01*
X109996428Y-96309285D01*
X109925000Y-96345000D01*
X109889285Y-96416428D01*
X109889285Y-96809285D01*
X109282142Y-96416428D02*
X109532142Y-96416428D01*
X109532142Y-96809285D02*
X109532142Y-96059285D01*
X109175000Y-96059285D01*
X130309285Y-94739285D02*
X130309285Y-94310714D01*
X130309285Y-94525000D02*
X129559285Y-94525000D01*
X129666428Y-94453571D01*
X129737857Y-94382142D01*
X129773571Y-94310714D01*
X129559285Y-95203571D02*
X129559285Y-95275000D01*
X129595000Y-95346428D01*
X129630714Y-95382142D01*
X129702142Y-95417857D01*
X129845000Y-95453571D01*
X130023571Y-95453571D01*
X130166428Y-95417857D01*
X130237857Y-95382142D01*
X130273571Y-95346428D01*
X130309285Y-95275000D01*
X130309285Y-95203571D01*
X130273571Y-95132142D01*
X130237857Y-95096428D01*
X130166428Y-95060714D01*
X130023571Y-95025000D01*
X129845000Y-95025000D01*
X129702142Y-95060714D01*
X129630714Y-95096428D01*
X129595000Y-95132142D01*
X129559285Y-95203571D01*
X129559285Y-95917857D02*
X129559285Y-95989285D01*
X129595000Y-96060714D01*
X129630714Y-96096428D01*
X129702142Y-96132142D01*
X129845000Y-96167857D01*
X130023571Y-96167857D01*
X130166428Y-96132142D01*
X130237857Y-96096428D01*
X130273571Y-96060714D01*
X130309285Y-95989285D01*
X130309285Y-95917857D01*
X130273571Y-95846428D01*
X130237857Y-95810714D01*
X130166428Y-95775000D01*
X130023571Y-95739285D01*
X129845000Y-95739285D01*
X129702142Y-95775000D01*
X129630714Y-95810714D01*
X129595000Y-95846428D01*
X129559285Y-95917857D01*
X129809285Y-96489285D02*
X130309285Y-96489285D01*
X129880714Y-96489285D02*
X129845000Y-96525000D01*
X129809285Y-96596428D01*
X129809285Y-96703571D01*
X129845000Y-96775000D01*
X129916428Y-96810714D01*
X130309285Y-96810714D01*
X129916428Y-97417857D02*
X129916428Y-97167857D01*
X130309285Y-97167857D02*
X129559285Y-97167857D01*
X129559285Y-97525000D01*
X137860714Y-96939285D02*
X138289285Y-96939285D01*
X138075000Y-96939285D02*
X138075000Y-96189285D01*
X138146428Y-96296428D01*
X138217857Y-96367857D01*
X138289285Y-96403571D01*
X137396428Y-96189285D02*
X137325000Y-96189285D01*
X137253571Y-96225000D01*
X137217857Y-96260714D01*
X137182142Y-96332142D01*
X137146428Y-96475000D01*
X137146428Y-96653571D01*
X137182142Y-96796428D01*
X137217857Y-96867857D01*
X137253571Y-96903571D01*
X137325000Y-96939285D01*
X137396428Y-96939285D01*
X137467857Y-96903571D01*
X137503571Y-96867857D01*
X137539285Y-96796428D01*
X137575000Y-96653571D01*
X137575000Y-96475000D01*
X137539285Y-96332142D01*
X137503571Y-96260714D01*
X137467857Y-96225000D01*
X137396428Y-96189285D01*
X136682142Y-96189285D02*
X136610714Y-96189285D01*
X136539285Y-96225000D01*
X136503571Y-96260714D01*
X136467857Y-96332142D01*
X136432142Y-96475000D01*
X136432142Y-96653571D01*
X136467857Y-96796428D01*
X136503571Y-96867857D01*
X136539285Y-96903571D01*
X136610714Y-96939285D01*
X136682142Y-96939285D01*
X136753571Y-96903571D01*
X136789285Y-96867857D01*
X136825000Y-96796428D01*
X136860714Y-96653571D01*
X136860714Y-96475000D01*
X136825000Y-96332142D01*
X136789285Y-96260714D01*
X136753571Y-96225000D01*
X136682142Y-96189285D01*
X136110714Y-96439285D02*
X136110714Y-96939285D01*
X136110714Y-96510714D02*
X136075000Y-96475000D01*
X136003571Y-96439285D01*
X135896428Y-96439285D01*
X135825000Y-96475000D01*
X135789285Y-96546428D01*
X135789285Y-96939285D01*
X135182142Y-96546428D02*
X135432142Y-96546428D01*
X135432142Y-96939285D02*
X135432142Y-96189285D01*
X135075000Y-96189285D01*
X156439285Y-94639285D02*
X156439285Y-94210714D01*
X156439285Y-94425000D02*
X155689285Y-94425000D01*
X155796428Y-94353571D01*
X155867857Y-94282142D01*
X155903571Y-94210714D01*
X155689285Y-95103571D02*
X155689285Y-95175000D01*
X155725000Y-95246428D01*
X155760714Y-95282142D01*
X155832142Y-95317857D01*
X155975000Y-95353571D01*
X156153571Y-95353571D01*
X156296428Y-95317857D01*
X156367857Y-95282142D01*
X156403571Y-95246428D01*
X156439285Y-95175000D01*
X156439285Y-95103571D01*
X156403571Y-95032142D01*
X156367857Y-94996428D01*
X156296428Y-94960714D01*
X156153571Y-94925000D01*
X155975000Y-94925000D01*
X155832142Y-94960714D01*
X155760714Y-94996428D01*
X155725000Y-95032142D01*
X155689285Y-95103571D01*
X155689285Y-95817857D02*
X155689285Y-95889285D01*
X155725000Y-95960714D01*
X155760714Y-95996428D01*
X155832142Y-96032142D01*
X155975000Y-96067857D01*
X156153571Y-96067857D01*
X156296428Y-96032142D01*
X156367857Y-95996428D01*
X156403571Y-95960714D01*
X156439285Y-95889285D01*
X156439285Y-95817857D01*
X156403571Y-95746428D01*
X156367857Y-95710714D01*
X156296428Y-95675000D01*
X156153571Y-95639285D01*
X155975000Y-95639285D01*
X155832142Y-95675000D01*
X155760714Y-95710714D01*
X155725000Y-95746428D01*
X155689285Y-95817857D01*
X155939285Y-96389285D02*
X156439285Y-96389285D01*
X156010714Y-96389285D02*
X155975000Y-96425000D01*
X155939285Y-96496428D01*
X155939285Y-96603571D01*
X155975000Y-96675000D01*
X156046428Y-96710714D01*
X156439285Y-96710714D01*
X156046428Y-97317857D02*
X156046428Y-97067857D01*
X156439285Y-97067857D02*
X155689285Y-97067857D01*
X155689285Y-97425000D01*
X106865714Y-100333333D02*
X107532380Y-100333333D01*
X106484761Y-100095238D02*
X107199047Y-99857142D01*
X107199047Y-100476190D01*
X106532380Y-100761904D02*
X106532380Y-101428571D01*
X107532380Y-101000000D01*
X106865714Y-102238095D02*
X107532380Y-102238095D01*
X106865714Y-101809523D02*
X107389523Y-101809523D01*
X107484761Y-101857142D01*
X107532380Y-101952380D01*
X107532380Y-102095238D01*
X107484761Y-102190476D01*
X107437142Y-102238095D01*
X107008571Y-103047619D02*
X107008571Y-102714285D01*
X107532380Y-102714285D02*
X106532380Y-102714285D01*
X106532380Y-103190476D01*
D15*
X119865714Y-100533333D02*
X120532380Y-100533333D01*
X119484761Y-100295238D02*
X120199047Y-100057142D01*
X120199047Y-100676190D01*
X119532380Y-100961904D02*
X119532380Y-101628571D01*
X120532380Y-101200000D01*
X119865714Y-102438095D02*
X120532380Y-102438095D01*
X119865714Y-102009523D02*
X120389523Y-102009523D01*
X120484761Y-102057142D01*
X120532380Y-102152380D01*
X120532380Y-102295238D01*
X120484761Y-102390476D01*
X120437142Y-102438095D01*
X120008571Y-103247619D02*
X120008571Y-102914285D01*
X120532380Y-102914285D02*
X119532380Y-102914285D01*
X119532380Y-103390476D01*
D14*
X132865714Y-100333333D02*
X133532380Y-100333333D01*
X132484761Y-100095238D02*
X133199047Y-99857142D01*
X133199047Y-100476190D01*
X132532380Y-100761904D02*
X132532380Y-101428571D01*
X133532380Y-101000000D01*
X132865714Y-102238095D02*
X133532380Y-102238095D01*
X132865714Y-101809523D02*
X133389523Y-101809523D01*
X133484761Y-101857142D01*
X133532380Y-101952380D01*
X133532380Y-102095238D01*
X133484761Y-102190476D01*
X133437142Y-102238095D01*
X133008571Y-103047619D02*
X133008571Y-102714285D01*
X133532380Y-102714285D02*
X132532380Y-102714285D01*
X132532380Y-103190476D01*
X145765714Y-100333333D02*
X146432380Y-100333333D01*
X145384761Y-100095238D02*
X146099047Y-99857142D01*
X146099047Y-100476190D01*
X145432380Y-100761904D02*
X145432380Y-101428571D01*
X146432380Y-101000000D01*
X145765714Y-102238095D02*
X146432380Y-102238095D01*
X145765714Y-101809523D02*
X146289523Y-101809523D01*
X146384761Y-101857142D01*
X146432380Y-101952380D01*
X146432380Y-102095238D01*
X146384761Y-102190476D01*
X146337142Y-102238095D01*
X145908571Y-103047619D02*
X145908571Y-102714285D01*
X146432380Y-102714285D02*
X145432380Y-102714285D01*
X145432380Y-103190476D01*
M02*
