G04 #@! TF.GenerationSoftware,KiCad,Pcbnew,(5.1.5)-3*
G04 #@! TF.CreationDate,2020-03-08T21:26:16+00:00*
G04 #@! TF.ProjectId,Hat,4861742e-6b69-4636-9164-5f7063625858,A*
G04 #@! TF.SameCoordinates,Original*
G04 #@! TF.FileFunction,Paste,Bot*
G04 #@! TF.FilePolarity,Positive*
%FSLAX46Y46*%
G04 Gerber Fmt 4.6, Leading zero omitted, Abs format (unit mm)*
G04 Created by KiCad (PCBNEW (5.1.5)-3) date 2020-03-08 21:26:16*
%MOMM*%
%LPD*%
G04 APERTURE LIST*
%ADD10C,0.100000*%
%ADD11C,0.150000*%
%ADD12C,0.300000*%
%ADD13C,0.400000*%
%ADD14R,1.200000X1.800000*%
%ADD15R,0.480000X1.900000*%
G04 APERTURE END LIST*
D10*
D11*
X177002200Y-166007200D02*
X177002200Y-198007200D01*
X285002200Y-198007200D01*
X285002200Y-166007200D01*
X177002200Y-166007200D01*
D10*
D11*
X10000000Y-10000000D02*
X10000000Y-200007200D01*
X287002200Y-200007200D01*
X287002200Y-10000000D01*
X10000000Y-10000000D01*
D10*
D11*
X12000000Y-12000000D02*
X12000000Y-198007200D01*
X285002200Y-198007200D01*
X285002200Y-12000000D01*
X12000000Y-12000000D01*
D10*
D11*
X60000000Y-12000000D02*
X60000000Y-10000000D01*
D10*
D11*
X110000000Y-12000000D02*
X110000000Y-10000000D01*
D10*
D11*
X160000000Y-12000000D02*
X160000000Y-10000000D01*
D10*
D11*
X210000000Y-12000000D02*
X210000000Y-10000000D01*
D10*
D11*
X260000000Y-12000000D02*
X260000000Y-10000000D01*
D10*
D11*
X36065476Y-11588095D02*
X35322619Y-11588095D01*
X35694047Y-11588095D02*
X35694047Y-10288095D01*
X35570238Y-10473809D01*
X35446428Y-10597619D01*
X35322619Y-10659523D01*
D10*
D11*
X85322619Y-10411904D02*
X85384523Y-10350000D01*
X85508333Y-10288095D01*
X85817857Y-10288095D01*
X85941666Y-10350000D01*
X86003571Y-10411904D01*
X86065476Y-10535714D01*
X86065476Y-10659523D01*
X86003571Y-10845238D01*
X85260714Y-11588095D01*
X86065476Y-11588095D01*
D10*
D11*
X135260714Y-10288095D02*
X136065476Y-10288095D01*
X135632142Y-10783333D01*
X135817857Y-10783333D01*
X135941666Y-10845238D01*
X136003571Y-10907142D01*
X136065476Y-11030952D01*
X136065476Y-11340476D01*
X136003571Y-11464285D01*
X135941666Y-11526190D01*
X135817857Y-11588095D01*
X135446428Y-11588095D01*
X135322619Y-11526190D01*
X135260714Y-11464285D01*
D10*
D11*
X185941666Y-10721428D02*
X185941666Y-11588095D01*
X185632142Y-10226190D02*
X185322619Y-11154761D01*
X186127380Y-11154761D01*
D10*
D11*
X236003571Y-10288095D02*
X235384523Y-10288095D01*
X235322619Y-10907142D01*
X235384523Y-10845238D01*
X235508333Y-10783333D01*
X235817857Y-10783333D01*
X235941666Y-10845238D01*
X236003571Y-10907142D01*
X236065476Y-11030952D01*
X236065476Y-11340476D01*
X236003571Y-11464285D01*
X235941666Y-11526190D01*
X235817857Y-11588095D01*
X235508333Y-11588095D01*
X235384523Y-11526190D01*
X235322619Y-11464285D01*
D10*
D11*
X285941666Y-10288095D02*
X285694047Y-10288095D01*
X285570238Y-10350000D01*
X285508333Y-10411904D01*
X285384523Y-10597619D01*
X285322619Y-10845238D01*
X285322619Y-11340476D01*
X285384523Y-11464285D01*
X285446428Y-11526190D01*
X285570238Y-11588095D01*
X285817857Y-11588095D01*
X285941666Y-11526190D01*
X286003571Y-11464285D01*
X286065476Y-11340476D01*
X286065476Y-11030952D01*
X286003571Y-10907142D01*
X285941666Y-10845238D01*
X285817857Y-10783333D01*
X285570238Y-10783333D01*
X285446428Y-10845238D01*
X285384523Y-10907142D01*
X285322619Y-11030952D01*
D10*
D11*
X60000000Y-198007200D02*
X60000000Y-200007200D01*
D10*
D11*
X110000000Y-198007200D02*
X110000000Y-200007200D01*
D10*
D11*
X160000000Y-198007200D02*
X160000000Y-200007200D01*
D10*
D11*
X210000000Y-198007200D02*
X210000000Y-200007200D01*
D10*
D11*
X260000000Y-198007200D02*
X260000000Y-200007200D01*
D10*
D11*
X36065476Y-199595295D02*
X35322619Y-199595295D01*
X35694047Y-199595295D02*
X35694047Y-198295295D01*
X35570238Y-198481009D01*
X35446428Y-198604819D01*
X35322619Y-198666723D01*
D10*
D11*
X85322619Y-198419104D02*
X85384523Y-198357200D01*
X85508333Y-198295295D01*
X85817857Y-198295295D01*
X85941666Y-198357200D01*
X86003571Y-198419104D01*
X86065476Y-198542914D01*
X86065476Y-198666723D01*
X86003571Y-198852438D01*
X85260714Y-199595295D01*
X86065476Y-199595295D01*
D10*
D11*
X135260714Y-198295295D02*
X136065476Y-198295295D01*
X135632142Y-198790533D01*
X135817857Y-198790533D01*
X135941666Y-198852438D01*
X136003571Y-198914342D01*
X136065476Y-199038152D01*
X136065476Y-199347676D01*
X136003571Y-199471485D01*
X135941666Y-199533390D01*
X135817857Y-199595295D01*
X135446428Y-199595295D01*
X135322619Y-199533390D01*
X135260714Y-199471485D01*
D10*
D11*
X185941666Y-198728628D02*
X185941666Y-199595295D01*
X185632142Y-198233390D02*
X185322619Y-199161961D01*
X186127380Y-199161961D01*
D10*
D11*
X236003571Y-198295295D02*
X235384523Y-198295295D01*
X235322619Y-198914342D01*
X235384523Y-198852438D01*
X235508333Y-198790533D01*
X235817857Y-198790533D01*
X235941666Y-198852438D01*
X236003571Y-198914342D01*
X236065476Y-199038152D01*
X236065476Y-199347676D01*
X236003571Y-199471485D01*
X235941666Y-199533390D01*
X235817857Y-199595295D01*
X235508333Y-199595295D01*
X235384523Y-199533390D01*
X235322619Y-199471485D01*
D10*
D11*
X285941666Y-198295295D02*
X285694047Y-198295295D01*
X285570238Y-198357200D01*
X285508333Y-198419104D01*
X285384523Y-198604819D01*
X285322619Y-198852438D01*
X285322619Y-199347676D01*
X285384523Y-199471485D01*
X285446428Y-199533390D01*
X285570238Y-199595295D01*
X285817857Y-199595295D01*
X285941666Y-199533390D01*
X286003571Y-199471485D01*
X286065476Y-199347676D01*
X286065476Y-199038152D01*
X286003571Y-198914342D01*
X285941666Y-198852438D01*
X285817857Y-198790533D01*
X285570238Y-198790533D01*
X285446428Y-198852438D01*
X285384523Y-198914342D01*
X285322619Y-199038152D01*
D10*
D11*
X10000000Y-60000000D02*
X12000000Y-60000000D01*
D10*
D11*
X10000000Y-110000000D02*
X12000000Y-110000000D01*
D10*
D11*
X10000000Y-160000000D02*
X12000000Y-160000000D01*
D10*
D11*
X10690476Y-35216666D02*
X11309523Y-35216666D01*
X10566666Y-35588095D02*
X11000000Y-34288095D01*
X11433333Y-35588095D01*
D10*
D11*
X11092857Y-84907142D02*
X11278571Y-84969047D01*
X11340476Y-85030952D01*
X11402380Y-85154761D01*
X11402380Y-85340476D01*
X11340476Y-85464285D01*
X11278571Y-85526190D01*
X11154761Y-85588095D01*
X10659523Y-85588095D01*
X10659523Y-84288095D01*
X11092857Y-84288095D01*
X11216666Y-84350000D01*
X11278571Y-84411904D01*
X11340476Y-84535714D01*
X11340476Y-84659523D01*
X11278571Y-84783333D01*
X11216666Y-84845238D01*
X11092857Y-84907142D01*
X10659523Y-84907142D01*
D10*
D11*
X11402380Y-135464285D02*
X11340476Y-135526190D01*
X11154761Y-135588095D01*
X11030952Y-135588095D01*
X10845238Y-135526190D01*
X10721428Y-135402380D01*
X10659523Y-135278571D01*
X10597619Y-135030952D01*
X10597619Y-134845238D01*
X10659523Y-134597619D01*
X10721428Y-134473809D01*
X10845238Y-134350000D01*
X11030952Y-134288095D01*
X11154761Y-134288095D01*
X11340476Y-134350000D01*
X11402380Y-134411904D01*
D10*
D11*
X10659523Y-185588095D02*
X10659523Y-184288095D01*
X10969047Y-184288095D01*
X11154761Y-184350000D01*
X11278571Y-184473809D01*
X11340476Y-184597619D01*
X11402380Y-184845238D01*
X11402380Y-185030952D01*
X11340476Y-185278571D01*
X11278571Y-185402380D01*
X11154761Y-185526190D01*
X10969047Y-185588095D01*
X10659523Y-185588095D01*
D10*
D11*
X287002200Y-60000000D02*
X285002200Y-60000000D01*
D10*
D11*
X287002200Y-110000000D02*
X285002200Y-110000000D01*
D10*
D11*
X287002200Y-160000000D02*
X285002200Y-160000000D01*
D10*
D11*
X285692676Y-35216666D02*
X286311723Y-35216666D01*
X285568866Y-35588095D02*
X286002200Y-34288095D01*
X286435533Y-35588095D01*
D10*
D11*
X286095057Y-84907142D02*
X286280771Y-84969047D01*
X286342676Y-85030952D01*
X286404580Y-85154761D01*
X286404580Y-85340476D01*
X286342676Y-85464285D01*
X286280771Y-85526190D01*
X286156961Y-85588095D01*
X285661723Y-85588095D01*
X285661723Y-84288095D01*
X286095057Y-84288095D01*
X286218866Y-84350000D01*
X286280771Y-84411904D01*
X286342676Y-84535714D01*
X286342676Y-84659523D01*
X286280771Y-84783333D01*
X286218866Y-84845238D01*
X286095057Y-84907142D01*
X285661723Y-84907142D01*
D10*
D11*
X286404580Y-135464285D02*
X286342676Y-135526190D01*
X286156961Y-135588095D01*
X286033152Y-135588095D01*
X285847438Y-135526190D01*
X285723628Y-135402380D01*
X285661723Y-135278571D01*
X285599819Y-135030952D01*
X285599819Y-134845238D01*
X285661723Y-134597619D01*
X285723628Y-134473809D01*
X285847438Y-134350000D01*
X286033152Y-134288095D01*
X286156961Y-134288095D01*
X286342676Y-134350000D01*
X286404580Y-134411904D01*
D10*
D11*
X285661723Y-185588095D02*
X285661723Y-184288095D01*
X285971247Y-184288095D01*
X286156961Y-184350000D01*
X286280771Y-184473809D01*
X286342676Y-184597619D01*
X286404580Y-184845238D01*
X286404580Y-185030952D01*
X286342676Y-185278571D01*
X286280771Y-185402380D01*
X286156961Y-185526190D01*
X285971247Y-185588095D01*
X285661723Y-185588095D01*
D10*
D11*
X200434342Y-193785771D02*
X200434342Y-192285771D01*
X200791485Y-192285771D01*
X201005771Y-192357200D01*
X201148628Y-192500057D01*
X201220057Y-192642914D01*
X201291485Y-192928628D01*
X201291485Y-193142914D01*
X201220057Y-193428628D01*
X201148628Y-193571485D01*
X201005771Y-193714342D01*
X200791485Y-193785771D01*
X200434342Y-193785771D01*
X202577200Y-193785771D02*
X202577200Y-193000057D01*
X202505771Y-192857200D01*
X202362914Y-192785771D01*
X202077200Y-192785771D01*
X201934342Y-192857200D01*
X202577200Y-193714342D02*
X202434342Y-193785771D01*
X202077200Y-193785771D01*
X201934342Y-193714342D01*
X201862914Y-193571485D01*
X201862914Y-193428628D01*
X201934342Y-193285771D01*
X202077200Y-193214342D01*
X202434342Y-193214342D01*
X202577200Y-193142914D01*
X203077200Y-192785771D02*
X203648628Y-192785771D01*
X203291485Y-192285771D02*
X203291485Y-193571485D01*
X203362914Y-193714342D01*
X203505771Y-193785771D01*
X203648628Y-193785771D01*
X204720057Y-193714342D02*
X204577200Y-193785771D01*
X204291485Y-193785771D01*
X204148628Y-193714342D01*
X204077200Y-193571485D01*
X204077200Y-193000057D01*
X204148628Y-192857200D01*
X204291485Y-192785771D01*
X204577200Y-192785771D01*
X204720057Y-192857200D01*
X204791485Y-193000057D01*
X204791485Y-193142914D01*
X204077200Y-193285771D01*
X205434342Y-193642914D02*
X205505771Y-193714342D01*
X205434342Y-193785771D01*
X205362914Y-193714342D01*
X205434342Y-193642914D01*
X205434342Y-193785771D01*
X205434342Y-192857200D02*
X205505771Y-192928628D01*
X205434342Y-193000057D01*
X205362914Y-192928628D01*
X205434342Y-192857200D01*
X205434342Y-193000057D01*
X207220057Y-192428628D02*
X207291485Y-192357200D01*
X207434342Y-192285771D01*
X207791485Y-192285771D01*
X207934342Y-192357200D01*
X208005771Y-192428628D01*
X208077200Y-192571485D01*
X208077200Y-192714342D01*
X208005771Y-192928628D01*
X207148628Y-193785771D01*
X208077200Y-193785771D01*
X209005771Y-192285771D02*
X209148628Y-192285771D01*
X209291485Y-192357200D01*
X209362914Y-192428628D01*
X209434342Y-192571485D01*
X209505771Y-192857200D01*
X209505771Y-193214342D01*
X209434342Y-193500057D01*
X209362914Y-193642914D01*
X209291485Y-193714342D01*
X209148628Y-193785771D01*
X209005771Y-193785771D01*
X208862914Y-193714342D01*
X208791485Y-193642914D01*
X208720057Y-193500057D01*
X208648628Y-193214342D01*
X208648628Y-192857200D01*
X208720057Y-192571485D01*
X208791485Y-192428628D01*
X208862914Y-192357200D01*
X209005771Y-192285771D01*
X210077200Y-192428628D02*
X210148628Y-192357200D01*
X210291485Y-192285771D01*
X210648628Y-192285771D01*
X210791485Y-192357200D01*
X210862914Y-192428628D01*
X210934342Y-192571485D01*
X210934342Y-192714342D01*
X210862914Y-192928628D01*
X210005771Y-193785771D01*
X210934342Y-193785771D01*
X211862914Y-192285771D02*
X212005771Y-192285771D01*
X212148628Y-192357200D01*
X212220057Y-192428628D01*
X212291485Y-192571485D01*
X212362914Y-192857200D01*
X212362914Y-193214342D01*
X212291485Y-193500057D01*
X212220057Y-193642914D01*
X212148628Y-193714342D01*
X212005771Y-193785771D01*
X211862914Y-193785771D01*
X211720057Y-193714342D01*
X211648628Y-193642914D01*
X211577200Y-193500057D01*
X211505771Y-193214342D01*
X211505771Y-192857200D01*
X211577200Y-192571485D01*
X211648628Y-192428628D01*
X211720057Y-192357200D01*
X211862914Y-192285771D01*
X213005771Y-193214342D02*
X214148628Y-193214342D01*
X215148628Y-192285771D02*
X215291485Y-192285771D01*
X215434342Y-192357200D01*
X215505771Y-192428628D01*
X215577200Y-192571485D01*
X215648628Y-192857200D01*
X215648628Y-193214342D01*
X215577200Y-193500057D01*
X215505771Y-193642914D01*
X215434342Y-193714342D01*
X215291485Y-193785771D01*
X215148628Y-193785771D01*
X215005771Y-193714342D01*
X214934342Y-193642914D01*
X214862914Y-193500057D01*
X214791485Y-193214342D01*
X214791485Y-192857200D01*
X214862914Y-192571485D01*
X214934342Y-192428628D01*
X215005771Y-192357200D01*
X215148628Y-192285771D01*
X216148628Y-192285771D02*
X217077200Y-192285771D01*
X216577200Y-192857200D01*
X216791485Y-192857200D01*
X216934342Y-192928628D01*
X217005771Y-193000057D01*
X217077200Y-193142914D01*
X217077200Y-193500057D01*
X217005771Y-193642914D01*
X216934342Y-193714342D01*
X216791485Y-193785771D01*
X216362914Y-193785771D01*
X216220057Y-193714342D01*
X216148628Y-193642914D01*
X217720057Y-193214342D02*
X218862914Y-193214342D01*
X219862914Y-192285771D02*
X220005771Y-192285771D01*
X220148628Y-192357200D01*
X220220057Y-192428628D01*
X220291485Y-192571485D01*
X220362914Y-192857200D01*
X220362914Y-193214342D01*
X220291485Y-193500057D01*
X220220057Y-193642914D01*
X220148628Y-193714342D01*
X220005771Y-193785771D01*
X219862914Y-193785771D01*
X219720057Y-193714342D01*
X219648628Y-193642914D01*
X219577200Y-193500057D01*
X219505771Y-193214342D01*
X219505771Y-192857200D01*
X219577200Y-192571485D01*
X219648628Y-192428628D01*
X219720057Y-192357200D01*
X219862914Y-192285771D01*
X221220057Y-192928628D02*
X221077200Y-192857200D01*
X221005771Y-192785771D01*
X220934342Y-192642914D01*
X220934342Y-192571485D01*
X221005771Y-192428628D01*
X221077200Y-192357200D01*
X221220057Y-192285771D01*
X221505771Y-192285771D01*
X221648628Y-192357200D01*
X221720057Y-192428628D01*
X221791485Y-192571485D01*
X221791485Y-192642914D01*
X221720057Y-192785771D01*
X221648628Y-192857200D01*
X221505771Y-192928628D01*
X221220057Y-192928628D01*
X221077200Y-193000057D01*
X221005771Y-193071485D01*
X220934342Y-193214342D01*
X220934342Y-193500057D01*
X221005771Y-193642914D01*
X221077200Y-193714342D01*
X221220057Y-193785771D01*
X221505771Y-193785771D01*
X221648628Y-193714342D01*
X221720057Y-193642914D01*
X221791485Y-193500057D01*
X221791485Y-193214342D01*
X221720057Y-193071485D01*
X221648628Y-193000057D01*
X221505771Y-192928628D01*
D10*
D11*
X177002200Y-194507200D02*
X285002200Y-194507200D01*
D10*
D11*
X178434342Y-196585771D02*
X178434342Y-195085771D01*
X179291485Y-196585771D02*
X178648628Y-195728628D01*
X179291485Y-195085771D02*
X178434342Y-195942914D01*
X179934342Y-196585771D02*
X179934342Y-195585771D01*
X179934342Y-195085771D02*
X179862914Y-195157200D01*
X179934342Y-195228628D01*
X180005771Y-195157200D01*
X179934342Y-195085771D01*
X179934342Y-195228628D01*
X181505771Y-196442914D02*
X181434342Y-196514342D01*
X181220057Y-196585771D01*
X181077200Y-196585771D01*
X180862914Y-196514342D01*
X180720057Y-196371485D01*
X180648628Y-196228628D01*
X180577200Y-195942914D01*
X180577200Y-195728628D01*
X180648628Y-195442914D01*
X180720057Y-195300057D01*
X180862914Y-195157200D01*
X181077200Y-195085771D01*
X181220057Y-195085771D01*
X181434342Y-195157200D01*
X181505771Y-195228628D01*
X182791485Y-196585771D02*
X182791485Y-195800057D01*
X182720057Y-195657200D01*
X182577200Y-195585771D01*
X182291485Y-195585771D01*
X182148628Y-195657200D01*
X182791485Y-196514342D02*
X182648628Y-196585771D01*
X182291485Y-196585771D01*
X182148628Y-196514342D01*
X182077200Y-196371485D01*
X182077200Y-196228628D01*
X182148628Y-196085771D01*
X182291485Y-196014342D01*
X182648628Y-196014342D01*
X182791485Y-195942914D01*
X184148628Y-196585771D02*
X184148628Y-195085771D01*
X184148628Y-196514342D02*
X184005771Y-196585771D01*
X183720057Y-196585771D01*
X183577200Y-196514342D01*
X183505771Y-196442914D01*
X183434342Y-196300057D01*
X183434342Y-195871485D01*
X183505771Y-195728628D01*
X183577200Y-195657200D01*
X183720057Y-195585771D01*
X184005771Y-195585771D01*
X184148628Y-195657200D01*
X186005771Y-195800057D02*
X186505771Y-195800057D01*
X186720057Y-196585771D02*
X186005771Y-196585771D01*
X186005771Y-195085771D01*
X186720057Y-195085771D01*
X187362914Y-196442914D02*
X187434342Y-196514342D01*
X187362914Y-196585771D01*
X187291485Y-196514342D01*
X187362914Y-196442914D01*
X187362914Y-196585771D01*
X188077200Y-196585771D02*
X188077200Y-195085771D01*
X188434342Y-195085771D01*
X188648628Y-195157200D01*
X188791485Y-195300057D01*
X188862914Y-195442914D01*
X188934342Y-195728628D01*
X188934342Y-195942914D01*
X188862914Y-196228628D01*
X188791485Y-196371485D01*
X188648628Y-196514342D01*
X188434342Y-196585771D01*
X188077200Y-196585771D01*
X189577200Y-196442914D02*
X189648628Y-196514342D01*
X189577200Y-196585771D01*
X189505771Y-196514342D01*
X189577200Y-196442914D01*
X189577200Y-196585771D01*
X190220057Y-196157200D02*
X190934342Y-196157200D01*
X190077200Y-196585771D02*
X190577200Y-195085771D01*
X191077200Y-196585771D01*
X191577200Y-196442914D02*
X191648628Y-196514342D01*
X191577200Y-196585771D01*
X191505771Y-196514342D01*
X191577200Y-196442914D01*
X191577200Y-196585771D01*
X194577200Y-196585771D02*
X194577200Y-195085771D01*
X194720057Y-196014342D02*
X195148628Y-196585771D01*
X195148628Y-195585771D02*
X194577200Y-196157200D01*
X195791485Y-196585771D02*
X195791485Y-195585771D01*
X195791485Y-195085771D02*
X195720057Y-195157200D01*
X195791485Y-195228628D01*
X195862914Y-195157200D01*
X195791485Y-195085771D01*
X195791485Y-195228628D01*
X197148628Y-196514342D02*
X197005771Y-196585771D01*
X196720057Y-196585771D01*
X196577200Y-196514342D01*
X196505771Y-196442914D01*
X196434342Y-196300057D01*
X196434342Y-195871485D01*
X196505771Y-195728628D01*
X196577200Y-195657200D01*
X196720057Y-195585771D01*
X197005771Y-195585771D01*
X197148628Y-195657200D01*
X198434342Y-196585771D02*
X198434342Y-195800057D01*
X198362914Y-195657200D01*
X198220057Y-195585771D01*
X197934342Y-195585771D01*
X197791485Y-195657200D01*
X198434342Y-196514342D02*
X198291485Y-196585771D01*
X197934342Y-196585771D01*
X197791485Y-196514342D01*
X197720057Y-196371485D01*
X197720057Y-196228628D01*
X197791485Y-196085771D01*
X197934342Y-196014342D01*
X198291485Y-196014342D01*
X198434342Y-195942914D01*
X199791485Y-196585771D02*
X199791485Y-195085771D01*
X199791485Y-196514342D02*
X199648628Y-196585771D01*
X199362914Y-196585771D01*
X199220057Y-196514342D01*
X199148628Y-196442914D01*
X199077200Y-196300057D01*
X199077200Y-195871485D01*
X199148628Y-195728628D01*
X199220057Y-195657200D01*
X199362914Y-195585771D01*
X199648628Y-195585771D01*
X199791485Y-195657200D01*
X202077200Y-197157200D02*
X202005771Y-197085771D01*
X201862914Y-196871485D01*
X201791485Y-196728628D01*
X201720057Y-196514342D01*
X201648628Y-196157200D01*
X201648628Y-195871485D01*
X201720057Y-195514342D01*
X201791485Y-195300057D01*
X201862914Y-195157200D01*
X202005771Y-194942914D01*
X202077200Y-194871485D01*
X203362914Y-195085771D02*
X202648628Y-195085771D01*
X202577200Y-195800057D01*
X202648628Y-195728628D01*
X202791485Y-195657200D01*
X203148628Y-195657200D01*
X203291485Y-195728628D01*
X203362914Y-195800057D01*
X203434342Y-195942914D01*
X203434342Y-196300057D01*
X203362914Y-196442914D01*
X203291485Y-196514342D01*
X203148628Y-196585771D01*
X202791485Y-196585771D01*
X202648628Y-196514342D01*
X202577200Y-196442914D01*
X204077200Y-196442914D02*
X204148628Y-196514342D01*
X204077200Y-196585771D01*
X204005771Y-196514342D01*
X204077200Y-196442914D01*
X204077200Y-196585771D01*
X205577200Y-196585771D02*
X204720057Y-196585771D01*
X205148628Y-196585771D02*
X205148628Y-195085771D01*
X205005771Y-195300057D01*
X204862914Y-195442914D01*
X204720057Y-195514342D01*
X206220057Y-196442914D02*
X206291485Y-196514342D01*
X206220057Y-196585771D01*
X206148628Y-196514342D01*
X206220057Y-196442914D01*
X206220057Y-196585771D01*
X207648628Y-195085771D02*
X206934342Y-195085771D01*
X206862914Y-195800057D01*
X206934342Y-195728628D01*
X207077200Y-195657200D01*
X207434342Y-195657200D01*
X207577200Y-195728628D01*
X207648628Y-195800057D01*
X207720057Y-195942914D01*
X207720057Y-196300057D01*
X207648628Y-196442914D01*
X207577200Y-196514342D01*
X207434342Y-196585771D01*
X207077200Y-196585771D01*
X206934342Y-196514342D01*
X206862914Y-196442914D01*
X208220057Y-197157200D02*
X208291485Y-197085771D01*
X208434342Y-196871485D01*
X208505771Y-196728628D01*
X208577200Y-196514342D01*
X208648628Y-196157200D01*
X208648628Y-195871485D01*
X208577200Y-195514342D01*
X208505771Y-195300057D01*
X208434342Y-195157200D01*
X208291485Y-194942914D01*
X208220057Y-194871485D01*
X209362914Y-196014342D02*
X210505771Y-196014342D01*
X211077200Y-195085771D02*
X212005771Y-195085771D01*
X211505771Y-195657200D01*
X211720057Y-195657200D01*
X211862914Y-195728628D01*
X211934342Y-195800057D01*
X212005771Y-195942914D01*
X212005771Y-196300057D01*
X211934342Y-196442914D01*
X211862914Y-196514342D01*
X211720057Y-196585771D01*
X211291485Y-196585771D01*
X211148628Y-196514342D01*
X211077200Y-196442914D01*
D10*
D11*
X177002200Y-191507200D02*
X285002200Y-191507200D01*
D10*
D12*
X264411485Y-193785771D02*
X263911485Y-193071485D01*
X263554342Y-193785771D02*
X263554342Y-192285771D01*
X264125771Y-192285771D01*
X264268628Y-192357200D01*
X264340057Y-192428628D01*
X264411485Y-192571485D01*
X264411485Y-192785771D01*
X264340057Y-192928628D01*
X264268628Y-193000057D01*
X264125771Y-193071485D01*
X263554342Y-193071485D01*
X265625771Y-193714342D02*
X265482914Y-193785771D01*
X265197200Y-193785771D01*
X265054342Y-193714342D01*
X264982914Y-193571485D01*
X264982914Y-193000057D01*
X265054342Y-192857200D01*
X265197200Y-192785771D01*
X265482914Y-192785771D01*
X265625771Y-192857200D01*
X265697200Y-193000057D01*
X265697200Y-193142914D01*
X264982914Y-193285771D01*
X266197200Y-192785771D02*
X266554342Y-193785771D01*
X266911485Y-192785771D01*
X267482914Y-193642914D02*
X267554342Y-193714342D01*
X267482914Y-193785771D01*
X267411485Y-193714342D01*
X267482914Y-193642914D01*
X267482914Y-193785771D01*
X267482914Y-192857200D02*
X267554342Y-192928628D01*
X267482914Y-193000057D01*
X267411485Y-192928628D01*
X267482914Y-192857200D01*
X267482914Y-193000057D01*
X269268628Y-193357200D02*
X269982914Y-193357200D01*
X269125771Y-193785771D02*
X269625771Y-192285771D01*
X270125771Y-193785771D01*
D10*
D11*
X178362914Y-193714342D02*
X178577200Y-193785771D01*
X178934342Y-193785771D01*
X179077200Y-193714342D01*
X179148628Y-193642914D01*
X179220057Y-193500057D01*
X179220057Y-193357200D01*
X179148628Y-193214342D01*
X179077200Y-193142914D01*
X178934342Y-193071485D01*
X178648628Y-193000057D01*
X178505771Y-192928628D01*
X178434342Y-192857200D01*
X178362914Y-192714342D01*
X178362914Y-192571485D01*
X178434342Y-192428628D01*
X178505771Y-192357200D01*
X178648628Y-192285771D01*
X179005771Y-192285771D01*
X179220057Y-192357200D01*
X179862914Y-193785771D02*
X179862914Y-192785771D01*
X179862914Y-192285771D02*
X179791485Y-192357200D01*
X179862914Y-192428628D01*
X179934342Y-192357200D01*
X179862914Y-192285771D01*
X179862914Y-192428628D01*
X180434342Y-192785771D02*
X181220057Y-192785771D01*
X180434342Y-193785771D01*
X181220057Y-193785771D01*
X182362914Y-193714342D02*
X182220057Y-193785771D01*
X181934342Y-193785771D01*
X181791485Y-193714342D01*
X181720057Y-193571485D01*
X181720057Y-193000057D01*
X181791485Y-192857200D01*
X181934342Y-192785771D01*
X182220057Y-192785771D01*
X182362914Y-192857200D01*
X182434342Y-193000057D01*
X182434342Y-193142914D01*
X181720057Y-193285771D01*
X183077200Y-193642914D02*
X183148628Y-193714342D01*
X183077200Y-193785771D01*
X183005771Y-193714342D01*
X183077200Y-193642914D01*
X183077200Y-193785771D01*
X183077200Y-192857200D02*
X183148628Y-192928628D01*
X183077200Y-193000057D01*
X183005771Y-192928628D01*
X183077200Y-192857200D01*
X183077200Y-193000057D01*
X184862914Y-193357200D02*
X185577200Y-193357200D01*
X184720057Y-193785771D02*
X185220057Y-192285771D01*
X185720057Y-193785771D01*
X186862914Y-192785771D02*
X186862914Y-193785771D01*
X186505771Y-192214342D02*
X186148628Y-193285771D01*
X187077200Y-193285771D01*
D10*
D11*
X263434342Y-196585771D02*
X263434342Y-195085771D01*
X264791485Y-196585771D02*
X264791485Y-195085771D01*
X264791485Y-196514342D02*
X264648628Y-196585771D01*
X264362914Y-196585771D01*
X264220057Y-196514342D01*
X264148628Y-196442914D01*
X264077200Y-196300057D01*
X264077200Y-195871485D01*
X264148628Y-195728628D01*
X264220057Y-195657200D01*
X264362914Y-195585771D01*
X264648628Y-195585771D01*
X264791485Y-195657200D01*
X265505771Y-196442914D02*
X265577200Y-196514342D01*
X265505771Y-196585771D01*
X265434342Y-196514342D01*
X265505771Y-196442914D01*
X265505771Y-196585771D01*
X265505771Y-195657200D02*
X265577200Y-195728628D01*
X265505771Y-195800057D01*
X265434342Y-195728628D01*
X265505771Y-195657200D01*
X265505771Y-195800057D01*
X268148628Y-196585771D02*
X267291485Y-196585771D01*
X267720057Y-196585771D02*
X267720057Y-195085771D01*
X267577200Y-195300057D01*
X267434342Y-195442914D01*
X267291485Y-195514342D01*
X269862914Y-195014342D02*
X268577200Y-196942914D01*
X271148628Y-196585771D02*
X270291485Y-196585771D01*
X270720057Y-196585771D02*
X270720057Y-195085771D01*
X270577200Y-195300057D01*
X270434342Y-195442914D01*
X270291485Y-195514342D01*
D10*
D11*
X177002200Y-187507200D02*
X285002200Y-187507200D01*
D10*
D13*
X178714580Y-188211961D02*
X179857438Y-188211961D01*
X179036009Y-190211961D02*
X179286009Y-188211961D01*
X180274104Y-190211961D02*
X180440771Y-188878628D01*
X180524104Y-188211961D02*
X180416961Y-188307200D01*
X180500295Y-188402438D01*
X180607438Y-188307200D01*
X180524104Y-188211961D01*
X180500295Y-188402438D01*
X181107438Y-188878628D02*
X181869342Y-188878628D01*
X181476485Y-188211961D02*
X181262200Y-189926247D01*
X181333628Y-190116723D01*
X181512200Y-190211961D01*
X181702676Y-190211961D01*
X182655057Y-190211961D02*
X182476485Y-190116723D01*
X182405057Y-189926247D01*
X182619342Y-188211961D01*
X184190771Y-190116723D02*
X183988390Y-190211961D01*
X183607438Y-190211961D01*
X183428866Y-190116723D01*
X183357438Y-189926247D01*
X183452676Y-189164342D01*
X183571723Y-188973866D01*
X183774104Y-188878628D01*
X184155057Y-188878628D01*
X184333628Y-188973866D01*
X184405057Y-189164342D01*
X184381247Y-189354819D01*
X183405057Y-189545295D01*
X185155057Y-190021485D02*
X185238390Y-190116723D01*
X185131247Y-190211961D01*
X185047914Y-190116723D01*
X185155057Y-190021485D01*
X185131247Y-190211961D01*
X185286009Y-188973866D02*
X185369342Y-189069104D01*
X185262200Y-189164342D01*
X185178866Y-189069104D01*
X185286009Y-188973866D01*
X185262200Y-189164342D01*
X187607438Y-190211961D02*
X187857438Y-188211961D01*
X188476485Y-190116723D02*
X188655057Y-190211961D01*
X189036009Y-190211961D01*
X189238390Y-190116723D01*
X189357438Y-189926247D01*
X189369342Y-189831009D01*
X189297914Y-189640533D01*
X189119342Y-189545295D01*
X188833628Y-189545295D01*
X188655057Y-189450057D01*
X188583628Y-189259580D01*
X188595533Y-189164342D01*
X188714580Y-188973866D01*
X188916961Y-188878628D01*
X189202676Y-188878628D01*
X189381247Y-188973866D01*
X190464580Y-190211961D02*
X190286009Y-190116723D01*
X190202676Y-190021485D01*
X190131247Y-189831009D01*
X190202676Y-189259580D01*
X190321723Y-189069104D01*
X190428866Y-188973866D01*
X190631247Y-188878628D01*
X190916961Y-188878628D01*
X191095533Y-188973866D01*
X191178866Y-189069104D01*
X191250295Y-189259580D01*
X191178866Y-189831009D01*
X191059819Y-190021485D01*
X190952676Y-190116723D01*
X190750295Y-190211961D01*
X190464580Y-190211961D01*
X193155057Y-190021485D02*
X193047914Y-190116723D01*
X192750295Y-190211961D01*
X192559819Y-190211961D01*
X192286009Y-190116723D01*
X192119342Y-189926247D01*
X192047914Y-189735771D01*
X192000295Y-189354819D01*
X192036009Y-189069104D01*
X192178866Y-188688152D01*
X192297914Y-188497676D01*
X192512200Y-188307200D01*
X192809819Y-188211961D01*
X193000295Y-188211961D01*
X193274104Y-188307200D01*
X193357438Y-188402438D01*
X194845533Y-190211961D02*
X194976485Y-189164342D01*
X194905057Y-188973866D01*
X194726485Y-188878628D01*
X194345533Y-188878628D01*
X194143152Y-188973866D01*
X194857438Y-190116723D02*
X194655057Y-190211961D01*
X194178866Y-190211961D01*
X194000295Y-190116723D01*
X193928866Y-189926247D01*
X193952676Y-189735771D01*
X194071723Y-189545295D01*
X194274104Y-189450057D01*
X194750295Y-189450057D01*
X194952676Y-189354819D01*
X195797914Y-190211961D02*
X195964580Y-188878628D01*
X195916961Y-189259580D02*
X196036009Y-189069104D01*
X196143152Y-188973866D01*
X196345533Y-188878628D01*
X196536009Y-188878628D01*
X197893152Y-190211961D02*
X198143152Y-188211961D01*
X197905057Y-190116723D02*
X197702676Y-190211961D01*
X197321723Y-190211961D01*
X197143152Y-190116723D01*
X197059819Y-190021485D01*
X196988390Y-189831009D01*
X197059819Y-189259580D01*
X197178866Y-189069104D01*
X197286009Y-188973866D01*
X197488390Y-188878628D01*
X197869342Y-188878628D01*
X198047914Y-188973866D01*
X200345533Y-189640533D02*
X201297914Y-189640533D01*
X200083628Y-190211961D02*
X201000295Y-188211961D01*
X201416961Y-190211961D01*
X202881247Y-189164342D02*
X202214580Y-189164342D01*
X202083628Y-190211961D02*
X202333628Y-188211961D01*
X203286009Y-188211961D01*
X203928866Y-189164342D02*
X204595533Y-189164342D01*
X204750295Y-190211961D02*
X203797914Y-190211961D01*
X204047914Y-188211961D01*
X205000295Y-188211961D01*
X207131247Y-190211961D02*
X207381247Y-188211961D01*
X207262200Y-189164342D02*
X208405057Y-189164342D01*
X208274104Y-190211961D02*
X208524104Y-188211961D01*
X209202676Y-189640533D02*
X210155057Y-189640533D01*
X208940771Y-190211961D02*
X209857438Y-188211961D01*
X210274104Y-190211961D01*
X210905057Y-188211961D02*
X212047914Y-188211961D01*
X211226485Y-190211961D02*
X211476485Y-188211961D01*
D10*
D11*
X178934342Y-185600057D02*
X178434342Y-185600057D01*
X178434342Y-186385771D02*
X178434342Y-184885771D01*
X179148628Y-184885771D01*
X179720057Y-186385771D02*
X179720057Y-185385771D01*
X179720057Y-184885771D02*
X179648628Y-184957200D01*
X179720057Y-185028628D01*
X179791485Y-184957200D01*
X179720057Y-184885771D01*
X179720057Y-185028628D01*
X180648628Y-186385771D02*
X180505771Y-186314342D01*
X180434342Y-186171485D01*
X180434342Y-184885771D01*
X181791485Y-186314342D02*
X181648628Y-186385771D01*
X181362914Y-186385771D01*
X181220057Y-186314342D01*
X181148628Y-186171485D01*
X181148628Y-185600057D01*
X181220057Y-185457200D01*
X181362914Y-185385771D01*
X181648628Y-185385771D01*
X181791485Y-185457200D01*
X181862914Y-185600057D01*
X181862914Y-185742914D01*
X181148628Y-185885771D01*
X182505771Y-186242914D02*
X182577200Y-186314342D01*
X182505771Y-186385771D01*
X182434342Y-186314342D01*
X182505771Y-186242914D01*
X182505771Y-186385771D01*
X182505771Y-185457200D02*
X182577200Y-185528628D01*
X182505771Y-185600057D01*
X182434342Y-185528628D01*
X182505771Y-185457200D01*
X182505771Y-185600057D01*
X184362914Y-186385771D02*
X184362914Y-184885771D01*
X184362914Y-185600057D02*
X185220057Y-185600057D01*
X185220057Y-186385771D02*
X185220057Y-184885771D01*
X186577200Y-186385771D02*
X186577200Y-185600057D01*
X186505771Y-185457200D01*
X186362914Y-185385771D01*
X186077200Y-185385771D01*
X185934342Y-185457200D01*
X186577200Y-186314342D02*
X186434342Y-186385771D01*
X186077200Y-186385771D01*
X185934342Y-186314342D01*
X185862914Y-186171485D01*
X185862914Y-186028628D01*
X185934342Y-185885771D01*
X186077200Y-185814342D01*
X186434342Y-185814342D01*
X186577200Y-185742914D01*
X187077200Y-185385771D02*
X187648628Y-185385771D01*
X187291485Y-184885771D02*
X187291485Y-186171485D01*
X187362914Y-186314342D01*
X187505771Y-186385771D01*
X187648628Y-186385771D01*
X188148628Y-186242914D02*
X188220057Y-186314342D01*
X188148628Y-186385771D01*
X188077200Y-186314342D01*
X188148628Y-186242914D01*
X188148628Y-186385771D01*
X188862914Y-186385771D02*
X188862914Y-184885771D01*
X189005771Y-185814342D02*
X189434342Y-186385771D01*
X189434342Y-185385771D02*
X188862914Y-185957200D01*
X190077200Y-186385771D02*
X190077200Y-185385771D01*
X190077200Y-184885771D02*
X190005771Y-184957200D01*
X190077200Y-185028628D01*
X190148628Y-184957200D01*
X190077200Y-184885771D01*
X190077200Y-185028628D01*
X191434342Y-186314342D02*
X191291485Y-186385771D01*
X191005771Y-186385771D01*
X190862914Y-186314342D01*
X190791485Y-186242914D01*
X190720057Y-186100057D01*
X190720057Y-185671485D01*
X190791485Y-185528628D01*
X190862914Y-185457200D01*
X191005771Y-185385771D01*
X191291485Y-185385771D01*
X191434342Y-185457200D01*
X192720057Y-186385771D02*
X192720057Y-185600057D01*
X192648628Y-185457200D01*
X192505771Y-185385771D01*
X192220057Y-185385771D01*
X192077200Y-185457200D01*
X192720057Y-186314342D02*
X192577200Y-186385771D01*
X192220057Y-186385771D01*
X192077200Y-186314342D01*
X192005771Y-186171485D01*
X192005771Y-186028628D01*
X192077200Y-185885771D01*
X192220057Y-185814342D01*
X192577200Y-185814342D01*
X192720057Y-185742914D01*
X194077200Y-186385771D02*
X194077200Y-184885771D01*
X194077200Y-186314342D02*
X193934342Y-186385771D01*
X193648628Y-186385771D01*
X193505771Y-186314342D01*
X193434342Y-186242914D01*
X193362914Y-186100057D01*
X193362914Y-185671485D01*
X193434342Y-185528628D01*
X193505771Y-185457200D01*
X193648628Y-185385771D01*
X193934342Y-185385771D01*
X194077200Y-185457200D01*
X194434342Y-186528628D02*
X195577200Y-186528628D01*
X195934342Y-185385771D02*
X195934342Y-186885771D01*
X195934342Y-185457200D02*
X196077200Y-185385771D01*
X196362914Y-185385771D01*
X196505771Y-185457200D01*
X196577200Y-185528628D01*
X196648628Y-185671485D01*
X196648628Y-186100057D01*
X196577200Y-186242914D01*
X196505771Y-186314342D01*
X196362914Y-186385771D01*
X196077200Y-186385771D01*
X195934342Y-186314342D01*
X197934342Y-186314342D02*
X197791485Y-186385771D01*
X197505771Y-186385771D01*
X197362914Y-186314342D01*
X197291485Y-186242914D01*
X197220057Y-186100057D01*
X197220057Y-185671485D01*
X197291485Y-185528628D01*
X197362914Y-185457200D01*
X197505771Y-185385771D01*
X197791485Y-185385771D01*
X197934342Y-185457200D01*
X198577200Y-186385771D02*
X198577200Y-184885771D01*
X198577200Y-185457200D02*
X198720057Y-185385771D01*
X199005771Y-185385771D01*
X199148628Y-185457200D01*
X199220057Y-185528628D01*
X199291485Y-185671485D01*
X199291485Y-186100057D01*
X199220057Y-186242914D01*
X199148628Y-186314342D01*
X199005771Y-186385771D01*
X198720057Y-186385771D01*
X198577200Y-186314342D01*
D10*
D11*
X177002200Y-181507200D02*
X285002200Y-181507200D01*
D10*
D11*
X178362914Y-183614342D02*
X178577200Y-183685771D01*
X178934342Y-183685771D01*
X179077200Y-183614342D01*
X179148628Y-183542914D01*
X179220057Y-183400057D01*
X179220057Y-183257200D01*
X179148628Y-183114342D01*
X179077200Y-183042914D01*
X178934342Y-182971485D01*
X178648628Y-182900057D01*
X178505771Y-182828628D01*
X178434342Y-182757200D01*
X178362914Y-182614342D01*
X178362914Y-182471485D01*
X178434342Y-182328628D01*
X178505771Y-182257200D01*
X178648628Y-182185771D01*
X179005771Y-182185771D01*
X179220057Y-182257200D01*
X179862914Y-183685771D02*
X179862914Y-182185771D01*
X180505771Y-183685771D02*
X180505771Y-182900057D01*
X180434342Y-182757200D01*
X180291485Y-182685771D01*
X180077200Y-182685771D01*
X179934342Y-182757200D01*
X179862914Y-182828628D01*
X181791485Y-183614342D02*
X181648628Y-183685771D01*
X181362914Y-183685771D01*
X181220057Y-183614342D01*
X181148628Y-183471485D01*
X181148628Y-182900057D01*
X181220057Y-182757200D01*
X181362914Y-182685771D01*
X181648628Y-182685771D01*
X181791485Y-182757200D01*
X181862914Y-182900057D01*
X181862914Y-183042914D01*
X181148628Y-183185771D01*
X183077200Y-183614342D02*
X182934342Y-183685771D01*
X182648628Y-183685771D01*
X182505771Y-183614342D01*
X182434342Y-183471485D01*
X182434342Y-182900057D01*
X182505771Y-182757200D01*
X182648628Y-182685771D01*
X182934342Y-182685771D01*
X183077200Y-182757200D01*
X183148628Y-182900057D01*
X183148628Y-183042914D01*
X182434342Y-183185771D01*
X183577200Y-182685771D02*
X184148628Y-182685771D01*
X183791485Y-182185771D02*
X183791485Y-183471485D01*
X183862914Y-183614342D01*
X184005771Y-183685771D01*
X184148628Y-183685771D01*
X184648628Y-183542914D02*
X184720057Y-183614342D01*
X184648628Y-183685771D01*
X184577200Y-183614342D01*
X184648628Y-183542914D01*
X184648628Y-183685771D01*
X184648628Y-182757200D02*
X184720057Y-182828628D01*
X184648628Y-182900057D01*
X184577200Y-182828628D01*
X184648628Y-182757200D01*
X184648628Y-182900057D01*
D10*
D12*
X178554342Y-180685771D02*
X178554342Y-179185771D01*
X179054342Y-180257200D01*
X179554342Y-179185771D01*
X179554342Y-180685771D01*
X180911485Y-180685771D02*
X180911485Y-179900057D01*
X180840057Y-179757200D01*
X180697200Y-179685771D01*
X180411485Y-179685771D01*
X180268628Y-179757200D01*
X180911485Y-180614342D02*
X180768628Y-180685771D01*
X180411485Y-180685771D01*
X180268628Y-180614342D01*
X180197200Y-180471485D01*
X180197200Y-180328628D01*
X180268628Y-180185771D01*
X180411485Y-180114342D01*
X180768628Y-180114342D01*
X180911485Y-180042914D01*
X181411485Y-179685771D02*
X181982914Y-179685771D01*
X181625771Y-179185771D02*
X181625771Y-180471485D01*
X181697200Y-180614342D01*
X181840057Y-180685771D01*
X181982914Y-180685771D01*
X182268628Y-179685771D02*
X182840057Y-179685771D01*
X182482914Y-179185771D02*
X182482914Y-180471485D01*
X182554342Y-180614342D01*
X182697200Y-180685771D01*
X182840057Y-180685771D01*
X184340057Y-179185771D02*
X184697200Y-180685771D01*
X184982914Y-179614342D01*
X185268628Y-180685771D01*
X185625771Y-179185771D01*
X186411485Y-180685771D02*
X186268628Y-180614342D01*
X186197200Y-180542914D01*
X186125771Y-180400057D01*
X186125771Y-179971485D01*
X186197200Y-179828628D01*
X186268628Y-179757200D01*
X186411485Y-179685771D01*
X186625771Y-179685771D01*
X186768628Y-179757200D01*
X186840057Y-179828628D01*
X186911485Y-179971485D01*
X186911485Y-180400057D01*
X186840057Y-180542914D01*
X186768628Y-180614342D01*
X186625771Y-180685771D01*
X186411485Y-180685771D01*
X187768628Y-180685771D02*
X187625771Y-180614342D01*
X187554342Y-180542914D01*
X187482914Y-180400057D01*
X187482914Y-179971485D01*
X187554342Y-179828628D01*
X187625771Y-179757200D01*
X187768628Y-179685771D01*
X187982914Y-179685771D01*
X188125771Y-179757200D01*
X188197200Y-179828628D01*
X188268628Y-179971485D01*
X188268628Y-180400057D01*
X188197200Y-180542914D01*
X188125771Y-180614342D01*
X187982914Y-180685771D01*
X187768628Y-180685771D01*
X189554342Y-180685771D02*
X189554342Y-179185771D01*
X189554342Y-180614342D02*
X189411485Y-180685771D01*
X189125771Y-180685771D01*
X188982914Y-180614342D01*
X188911485Y-180542914D01*
X188840057Y-180400057D01*
X188840057Y-179971485D01*
X188911485Y-179828628D01*
X188982914Y-179757200D01*
X189125771Y-179685771D01*
X189411485Y-179685771D01*
X189554342Y-179757200D01*
D10*
D11*
X197002200Y-191507200D02*
X197002200Y-194507200D01*
D10*
D11*
X261002200Y-191507200D02*
X261002200Y-198007200D01*
D14*
X121180000Y-82520000D03*
X123720000Y-82520000D03*
X126260000Y-82520000D03*
X131340000Y-82520000D03*
X133880000Y-82520000D03*
X133880000Y-92680000D03*
X131340000Y-92680000D03*
X126260000Y-92680000D03*
X123720000Y-92680000D03*
X121180000Y-92680000D03*
X147180000Y-92580000D03*
X149720000Y-92580000D03*
X152260000Y-92580000D03*
X157340000Y-92580000D03*
X159880000Y-92580000D03*
X159880000Y-82420000D03*
X157340000Y-82420000D03*
X152260000Y-82420000D03*
X149720000Y-82420000D03*
X147180000Y-82420000D03*
D15*
X111475000Y-92105000D03*
X112125000Y-92105000D03*
X112775000Y-92105000D03*
X113425000Y-92105000D03*
X114075000Y-92105000D03*
X114725000Y-92105000D03*
X115375000Y-92105000D03*
X116025000Y-92105000D03*
X116675000Y-92105000D03*
X117325000Y-92105000D03*
X117325000Y-85095000D03*
X116675000Y-85095000D03*
X116025000Y-85095000D03*
X115375000Y-85095000D03*
X114725000Y-85095000D03*
X114075000Y-85095000D03*
X113425000Y-85095000D03*
X112775000Y-85095000D03*
X112125000Y-85095000D03*
X111475000Y-85095000D03*
X137475000Y-85095000D03*
X138125000Y-85095000D03*
X138775000Y-85095000D03*
X139425000Y-85095000D03*
X140075000Y-85095000D03*
X140725000Y-85095000D03*
X141375000Y-85095000D03*
X142025000Y-85095000D03*
X142675000Y-85095000D03*
X143325000Y-85095000D03*
X143325000Y-92105000D03*
X142675000Y-92105000D03*
X142025000Y-92105000D03*
X141375000Y-92105000D03*
X140725000Y-92105000D03*
X140075000Y-92105000D03*
X139425000Y-92105000D03*
X138775000Y-92105000D03*
X138125000Y-92105000D03*
X137475000Y-92105000D03*
D10*
G36*
X110576958Y-82480710D02*
G01*
X110591276Y-82482834D01*
X110605317Y-82486351D01*
X110618946Y-82491228D01*
X110632031Y-82497417D01*
X110644447Y-82504858D01*
X110656073Y-82513481D01*
X110666798Y-82523202D01*
X110676519Y-82533927D01*
X110685142Y-82545553D01*
X110692583Y-82557969D01*
X110698772Y-82571054D01*
X110703649Y-82584683D01*
X110707166Y-82598724D01*
X110709290Y-82613042D01*
X110710000Y-82627500D01*
X110710000Y-82972500D01*
X110709290Y-82986958D01*
X110707166Y-83001276D01*
X110703649Y-83015317D01*
X110698772Y-83028946D01*
X110692583Y-83042031D01*
X110685142Y-83054447D01*
X110676519Y-83066073D01*
X110666798Y-83076798D01*
X110656073Y-83086519D01*
X110644447Y-83095142D01*
X110632031Y-83102583D01*
X110618946Y-83108772D01*
X110605317Y-83113649D01*
X110591276Y-83117166D01*
X110576958Y-83119290D01*
X110562500Y-83120000D01*
X110267500Y-83120000D01*
X110253042Y-83119290D01*
X110238724Y-83117166D01*
X110224683Y-83113649D01*
X110211054Y-83108772D01*
X110197969Y-83102583D01*
X110185553Y-83095142D01*
X110173927Y-83086519D01*
X110163202Y-83076798D01*
X110153481Y-83066073D01*
X110144858Y-83054447D01*
X110137417Y-83042031D01*
X110131228Y-83028946D01*
X110126351Y-83015317D01*
X110122834Y-83001276D01*
X110120710Y-82986958D01*
X110120000Y-82972500D01*
X110120000Y-82627500D01*
X110120710Y-82613042D01*
X110122834Y-82598724D01*
X110126351Y-82584683D01*
X110131228Y-82571054D01*
X110137417Y-82557969D01*
X110144858Y-82545553D01*
X110153481Y-82533927D01*
X110163202Y-82523202D01*
X110173927Y-82513481D01*
X110185553Y-82504858D01*
X110197969Y-82497417D01*
X110211054Y-82491228D01*
X110224683Y-82486351D01*
X110238724Y-82482834D01*
X110253042Y-82480710D01*
X110267500Y-82480000D01*
X110562500Y-82480000D01*
X110576958Y-82480710D01*
G37*
G36*
X111546958Y-82480710D02*
G01*
X111561276Y-82482834D01*
X111575317Y-82486351D01*
X111588946Y-82491228D01*
X111602031Y-82497417D01*
X111614447Y-82504858D01*
X111626073Y-82513481D01*
X111636798Y-82523202D01*
X111646519Y-82533927D01*
X111655142Y-82545553D01*
X111662583Y-82557969D01*
X111668772Y-82571054D01*
X111673649Y-82584683D01*
X111677166Y-82598724D01*
X111679290Y-82613042D01*
X111680000Y-82627500D01*
X111680000Y-82972500D01*
X111679290Y-82986958D01*
X111677166Y-83001276D01*
X111673649Y-83015317D01*
X111668772Y-83028946D01*
X111662583Y-83042031D01*
X111655142Y-83054447D01*
X111646519Y-83066073D01*
X111636798Y-83076798D01*
X111626073Y-83086519D01*
X111614447Y-83095142D01*
X111602031Y-83102583D01*
X111588946Y-83108772D01*
X111575317Y-83113649D01*
X111561276Y-83117166D01*
X111546958Y-83119290D01*
X111532500Y-83120000D01*
X111237500Y-83120000D01*
X111223042Y-83119290D01*
X111208724Y-83117166D01*
X111194683Y-83113649D01*
X111181054Y-83108772D01*
X111167969Y-83102583D01*
X111155553Y-83095142D01*
X111143927Y-83086519D01*
X111133202Y-83076798D01*
X111123481Y-83066073D01*
X111114858Y-83054447D01*
X111107417Y-83042031D01*
X111101228Y-83028946D01*
X111096351Y-83015317D01*
X111092834Y-83001276D01*
X111090710Y-82986958D01*
X111090000Y-82972500D01*
X111090000Y-82627500D01*
X111090710Y-82613042D01*
X111092834Y-82598724D01*
X111096351Y-82584683D01*
X111101228Y-82571054D01*
X111107417Y-82557969D01*
X111114858Y-82545553D01*
X111123481Y-82533927D01*
X111133202Y-82523202D01*
X111143927Y-82513481D01*
X111155553Y-82504858D01*
X111167969Y-82497417D01*
X111181054Y-82491228D01*
X111194683Y-82486351D01*
X111208724Y-82482834D01*
X111223042Y-82480710D01*
X111237500Y-82480000D01*
X111532500Y-82480000D01*
X111546958Y-82480710D01*
G37*
G36*
X137646958Y-82480710D02*
G01*
X137661276Y-82482834D01*
X137675317Y-82486351D01*
X137688946Y-82491228D01*
X137702031Y-82497417D01*
X137714447Y-82504858D01*
X137726073Y-82513481D01*
X137736798Y-82523202D01*
X137746519Y-82533927D01*
X137755142Y-82545553D01*
X137762583Y-82557969D01*
X137768772Y-82571054D01*
X137773649Y-82584683D01*
X137777166Y-82598724D01*
X137779290Y-82613042D01*
X137780000Y-82627500D01*
X137780000Y-82972500D01*
X137779290Y-82986958D01*
X137777166Y-83001276D01*
X137773649Y-83015317D01*
X137768772Y-83028946D01*
X137762583Y-83042031D01*
X137755142Y-83054447D01*
X137746519Y-83066073D01*
X137736798Y-83076798D01*
X137726073Y-83086519D01*
X137714447Y-83095142D01*
X137702031Y-83102583D01*
X137688946Y-83108772D01*
X137675317Y-83113649D01*
X137661276Y-83117166D01*
X137646958Y-83119290D01*
X137632500Y-83120000D01*
X137337500Y-83120000D01*
X137323042Y-83119290D01*
X137308724Y-83117166D01*
X137294683Y-83113649D01*
X137281054Y-83108772D01*
X137267969Y-83102583D01*
X137255553Y-83095142D01*
X137243927Y-83086519D01*
X137233202Y-83076798D01*
X137223481Y-83066073D01*
X137214858Y-83054447D01*
X137207417Y-83042031D01*
X137201228Y-83028946D01*
X137196351Y-83015317D01*
X137192834Y-83001276D01*
X137190710Y-82986958D01*
X137190000Y-82972500D01*
X137190000Y-82627500D01*
X137190710Y-82613042D01*
X137192834Y-82598724D01*
X137196351Y-82584683D01*
X137201228Y-82571054D01*
X137207417Y-82557969D01*
X137214858Y-82545553D01*
X137223481Y-82533927D01*
X137233202Y-82523202D01*
X137243927Y-82513481D01*
X137255553Y-82504858D01*
X137267969Y-82497417D01*
X137281054Y-82491228D01*
X137294683Y-82486351D01*
X137308724Y-82482834D01*
X137323042Y-82480710D01*
X137337500Y-82480000D01*
X137632500Y-82480000D01*
X137646958Y-82480710D01*
G37*
G36*
X136676958Y-82480710D02*
G01*
X136691276Y-82482834D01*
X136705317Y-82486351D01*
X136718946Y-82491228D01*
X136732031Y-82497417D01*
X136744447Y-82504858D01*
X136756073Y-82513481D01*
X136766798Y-82523202D01*
X136776519Y-82533927D01*
X136785142Y-82545553D01*
X136792583Y-82557969D01*
X136798772Y-82571054D01*
X136803649Y-82584683D01*
X136807166Y-82598724D01*
X136809290Y-82613042D01*
X136810000Y-82627500D01*
X136810000Y-82972500D01*
X136809290Y-82986958D01*
X136807166Y-83001276D01*
X136803649Y-83015317D01*
X136798772Y-83028946D01*
X136792583Y-83042031D01*
X136785142Y-83054447D01*
X136776519Y-83066073D01*
X136766798Y-83076798D01*
X136756073Y-83086519D01*
X136744447Y-83095142D01*
X136732031Y-83102583D01*
X136718946Y-83108772D01*
X136705317Y-83113649D01*
X136691276Y-83117166D01*
X136676958Y-83119290D01*
X136662500Y-83120000D01*
X136367500Y-83120000D01*
X136353042Y-83119290D01*
X136338724Y-83117166D01*
X136324683Y-83113649D01*
X136311054Y-83108772D01*
X136297969Y-83102583D01*
X136285553Y-83095142D01*
X136273927Y-83086519D01*
X136263202Y-83076798D01*
X136253481Y-83066073D01*
X136244858Y-83054447D01*
X136237417Y-83042031D01*
X136231228Y-83028946D01*
X136226351Y-83015317D01*
X136222834Y-83001276D01*
X136220710Y-82986958D01*
X136220000Y-82972500D01*
X136220000Y-82627500D01*
X136220710Y-82613042D01*
X136222834Y-82598724D01*
X136226351Y-82584683D01*
X136231228Y-82571054D01*
X136237417Y-82557969D01*
X136244858Y-82545553D01*
X136253481Y-82533927D01*
X136263202Y-82523202D01*
X136273927Y-82513481D01*
X136285553Y-82504858D01*
X136297969Y-82497417D01*
X136311054Y-82491228D01*
X136324683Y-82486351D01*
X136338724Y-82482834D01*
X136353042Y-82480710D01*
X136367500Y-82480000D01*
X136662500Y-82480000D01*
X136676958Y-82480710D01*
G37*
G36*
X111946958Y-94980710D02*
G01*
X111961276Y-94982834D01*
X111975317Y-94986351D01*
X111988946Y-94991228D01*
X112002031Y-94997417D01*
X112014447Y-95004858D01*
X112026073Y-95013481D01*
X112036798Y-95023202D01*
X112046519Y-95033927D01*
X112055142Y-95045553D01*
X112062583Y-95057969D01*
X112068772Y-95071054D01*
X112073649Y-95084683D01*
X112077166Y-95098724D01*
X112079290Y-95113042D01*
X112080000Y-95127500D01*
X112080000Y-95472500D01*
X112079290Y-95486958D01*
X112077166Y-95501276D01*
X112073649Y-95515317D01*
X112068772Y-95528946D01*
X112062583Y-95542031D01*
X112055142Y-95554447D01*
X112046519Y-95566073D01*
X112036798Y-95576798D01*
X112026073Y-95586519D01*
X112014447Y-95595142D01*
X112002031Y-95602583D01*
X111988946Y-95608772D01*
X111975317Y-95613649D01*
X111961276Y-95617166D01*
X111946958Y-95619290D01*
X111932500Y-95620000D01*
X111637500Y-95620000D01*
X111623042Y-95619290D01*
X111608724Y-95617166D01*
X111594683Y-95613649D01*
X111581054Y-95608772D01*
X111567969Y-95602583D01*
X111555553Y-95595142D01*
X111543927Y-95586519D01*
X111533202Y-95576798D01*
X111523481Y-95566073D01*
X111514858Y-95554447D01*
X111507417Y-95542031D01*
X111501228Y-95528946D01*
X111496351Y-95515317D01*
X111492834Y-95501276D01*
X111490710Y-95486958D01*
X111490000Y-95472500D01*
X111490000Y-95127500D01*
X111490710Y-95113042D01*
X111492834Y-95098724D01*
X111496351Y-95084683D01*
X111501228Y-95071054D01*
X111507417Y-95057969D01*
X111514858Y-95045553D01*
X111523481Y-95033927D01*
X111533202Y-95023202D01*
X111543927Y-95013481D01*
X111555553Y-95004858D01*
X111567969Y-94997417D01*
X111581054Y-94991228D01*
X111594683Y-94986351D01*
X111608724Y-94982834D01*
X111623042Y-94980710D01*
X111637500Y-94980000D01*
X111932500Y-94980000D01*
X111946958Y-94980710D01*
G37*
G36*
X110976958Y-94980710D02*
G01*
X110991276Y-94982834D01*
X111005317Y-94986351D01*
X111018946Y-94991228D01*
X111032031Y-94997417D01*
X111044447Y-95004858D01*
X111056073Y-95013481D01*
X111066798Y-95023202D01*
X111076519Y-95033927D01*
X111085142Y-95045553D01*
X111092583Y-95057969D01*
X111098772Y-95071054D01*
X111103649Y-95084683D01*
X111107166Y-95098724D01*
X111109290Y-95113042D01*
X111110000Y-95127500D01*
X111110000Y-95472500D01*
X111109290Y-95486958D01*
X111107166Y-95501276D01*
X111103649Y-95515317D01*
X111098772Y-95528946D01*
X111092583Y-95542031D01*
X111085142Y-95554447D01*
X111076519Y-95566073D01*
X111066798Y-95576798D01*
X111056073Y-95586519D01*
X111044447Y-95595142D01*
X111032031Y-95602583D01*
X111018946Y-95608772D01*
X111005317Y-95613649D01*
X110991276Y-95617166D01*
X110976958Y-95619290D01*
X110962500Y-95620000D01*
X110667500Y-95620000D01*
X110653042Y-95619290D01*
X110638724Y-95617166D01*
X110624683Y-95613649D01*
X110611054Y-95608772D01*
X110597969Y-95602583D01*
X110585553Y-95595142D01*
X110573927Y-95586519D01*
X110563202Y-95576798D01*
X110553481Y-95566073D01*
X110544858Y-95554447D01*
X110537417Y-95542031D01*
X110531228Y-95528946D01*
X110526351Y-95515317D01*
X110522834Y-95501276D01*
X110520710Y-95486958D01*
X110520000Y-95472500D01*
X110520000Y-95127500D01*
X110520710Y-95113042D01*
X110522834Y-95098724D01*
X110526351Y-95084683D01*
X110531228Y-95071054D01*
X110537417Y-95057969D01*
X110544858Y-95045553D01*
X110553481Y-95033927D01*
X110563202Y-95023202D01*
X110573927Y-95013481D01*
X110585553Y-95004858D01*
X110597969Y-94997417D01*
X110611054Y-94991228D01*
X110624683Y-94986351D01*
X110638724Y-94982834D01*
X110653042Y-94980710D01*
X110667500Y-94980000D01*
X110962500Y-94980000D01*
X110976958Y-94980710D01*
G37*
G36*
X128986958Y-94220710D02*
G01*
X129001276Y-94222834D01*
X129015317Y-94226351D01*
X129028946Y-94231228D01*
X129042031Y-94237417D01*
X129054447Y-94244858D01*
X129066073Y-94253481D01*
X129076798Y-94263202D01*
X129086519Y-94273927D01*
X129095142Y-94285553D01*
X129102583Y-94297969D01*
X129108772Y-94311054D01*
X129113649Y-94324683D01*
X129117166Y-94338724D01*
X129119290Y-94353042D01*
X129120000Y-94367500D01*
X129120000Y-94662500D01*
X129119290Y-94676958D01*
X129117166Y-94691276D01*
X129113649Y-94705317D01*
X129108772Y-94718946D01*
X129102583Y-94732031D01*
X129095142Y-94744447D01*
X129086519Y-94756073D01*
X129076798Y-94766798D01*
X129066073Y-94776519D01*
X129054447Y-94785142D01*
X129042031Y-94792583D01*
X129028946Y-94798772D01*
X129015317Y-94803649D01*
X129001276Y-94807166D01*
X128986958Y-94809290D01*
X128972500Y-94810000D01*
X128627500Y-94810000D01*
X128613042Y-94809290D01*
X128598724Y-94807166D01*
X128584683Y-94803649D01*
X128571054Y-94798772D01*
X128557969Y-94792583D01*
X128545553Y-94785142D01*
X128533927Y-94776519D01*
X128523202Y-94766798D01*
X128513481Y-94756073D01*
X128504858Y-94744447D01*
X128497417Y-94732031D01*
X128491228Y-94718946D01*
X128486351Y-94705317D01*
X128482834Y-94691276D01*
X128480710Y-94676958D01*
X128480000Y-94662500D01*
X128480000Y-94367500D01*
X128480710Y-94353042D01*
X128482834Y-94338724D01*
X128486351Y-94324683D01*
X128491228Y-94311054D01*
X128497417Y-94297969D01*
X128504858Y-94285553D01*
X128513481Y-94273927D01*
X128523202Y-94263202D01*
X128533927Y-94253481D01*
X128545553Y-94244858D01*
X128557969Y-94237417D01*
X128571054Y-94231228D01*
X128584683Y-94226351D01*
X128598724Y-94222834D01*
X128613042Y-94220710D01*
X128627500Y-94220000D01*
X128972500Y-94220000D01*
X128986958Y-94220710D01*
G37*
G36*
X128986958Y-95190710D02*
G01*
X129001276Y-95192834D01*
X129015317Y-95196351D01*
X129028946Y-95201228D01*
X129042031Y-95207417D01*
X129054447Y-95214858D01*
X129066073Y-95223481D01*
X129076798Y-95233202D01*
X129086519Y-95243927D01*
X129095142Y-95255553D01*
X129102583Y-95267969D01*
X129108772Y-95281054D01*
X129113649Y-95294683D01*
X129117166Y-95308724D01*
X129119290Y-95323042D01*
X129120000Y-95337500D01*
X129120000Y-95632500D01*
X129119290Y-95646958D01*
X129117166Y-95661276D01*
X129113649Y-95675317D01*
X129108772Y-95688946D01*
X129102583Y-95702031D01*
X129095142Y-95714447D01*
X129086519Y-95726073D01*
X129076798Y-95736798D01*
X129066073Y-95746519D01*
X129054447Y-95755142D01*
X129042031Y-95762583D01*
X129028946Y-95768772D01*
X129015317Y-95773649D01*
X129001276Y-95777166D01*
X128986958Y-95779290D01*
X128972500Y-95780000D01*
X128627500Y-95780000D01*
X128613042Y-95779290D01*
X128598724Y-95777166D01*
X128584683Y-95773649D01*
X128571054Y-95768772D01*
X128557969Y-95762583D01*
X128545553Y-95755142D01*
X128533927Y-95746519D01*
X128523202Y-95736798D01*
X128513481Y-95726073D01*
X128504858Y-95714447D01*
X128497417Y-95702031D01*
X128491228Y-95688946D01*
X128486351Y-95675317D01*
X128482834Y-95661276D01*
X128480710Y-95646958D01*
X128480000Y-95632500D01*
X128480000Y-95337500D01*
X128480710Y-95323042D01*
X128482834Y-95308724D01*
X128486351Y-95294683D01*
X128491228Y-95281054D01*
X128497417Y-95267969D01*
X128504858Y-95255553D01*
X128513481Y-95243927D01*
X128523202Y-95233202D01*
X128533927Y-95223481D01*
X128545553Y-95214858D01*
X128557969Y-95207417D01*
X128571054Y-95201228D01*
X128584683Y-95196351D01*
X128598724Y-95192834D01*
X128613042Y-95190710D01*
X128627500Y-95190000D01*
X128972500Y-95190000D01*
X128986958Y-95190710D01*
G37*
G36*
X136776958Y-95180710D02*
G01*
X136791276Y-95182834D01*
X136805317Y-95186351D01*
X136818946Y-95191228D01*
X136832031Y-95197417D01*
X136844447Y-95204858D01*
X136856073Y-95213481D01*
X136866798Y-95223202D01*
X136876519Y-95233927D01*
X136885142Y-95245553D01*
X136892583Y-95257969D01*
X136898772Y-95271054D01*
X136903649Y-95284683D01*
X136907166Y-95298724D01*
X136909290Y-95313042D01*
X136910000Y-95327500D01*
X136910000Y-95672500D01*
X136909290Y-95686958D01*
X136907166Y-95701276D01*
X136903649Y-95715317D01*
X136898772Y-95728946D01*
X136892583Y-95742031D01*
X136885142Y-95754447D01*
X136876519Y-95766073D01*
X136866798Y-95776798D01*
X136856073Y-95786519D01*
X136844447Y-95795142D01*
X136832031Y-95802583D01*
X136818946Y-95808772D01*
X136805317Y-95813649D01*
X136791276Y-95817166D01*
X136776958Y-95819290D01*
X136762500Y-95820000D01*
X136467500Y-95820000D01*
X136453042Y-95819290D01*
X136438724Y-95817166D01*
X136424683Y-95813649D01*
X136411054Y-95808772D01*
X136397969Y-95802583D01*
X136385553Y-95795142D01*
X136373927Y-95786519D01*
X136363202Y-95776798D01*
X136353481Y-95766073D01*
X136344858Y-95754447D01*
X136337417Y-95742031D01*
X136331228Y-95728946D01*
X136326351Y-95715317D01*
X136322834Y-95701276D01*
X136320710Y-95686958D01*
X136320000Y-95672500D01*
X136320000Y-95327500D01*
X136320710Y-95313042D01*
X136322834Y-95298724D01*
X136326351Y-95284683D01*
X136331228Y-95271054D01*
X136337417Y-95257969D01*
X136344858Y-95245553D01*
X136353481Y-95233927D01*
X136363202Y-95223202D01*
X136373927Y-95213481D01*
X136385553Y-95204858D01*
X136397969Y-95197417D01*
X136411054Y-95191228D01*
X136424683Y-95186351D01*
X136438724Y-95182834D01*
X136453042Y-95180710D01*
X136467500Y-95180000D01*
X136762500Y-95180000D01*
X136776958Y-95180710D01*
G37*
G36*
X137746958Y-95180710D02*
G01*
X137761276Y-95182834D01*
X137775317Y-95186351D01*
X137788946Y-95191228D01*
X137802031Y-95197417D01*
X137814447Y-95204858D01*
X137826073Y-95213481D01*
X137836798Y-95223202D01*
X137846519Y-95233927D01*
X137855142Y-95245553D01*
X137862583Y-95257969D01*
X137868772Y-95271054D01*
X137873649Y-95284683D01*
X137877166Y-95298724D01*
X137879290Y-95313042D01*
X137880000Y-95327500D01*
X137880000Y-95672500D01*
X137879290Y-95686958D01*
X137877166Y-95701276D01*
X137873649Y-95715317D01*
X137868772Y-95728946D01*
X137862583Y-95742031D01*
X137855142Y-95754447D01*
X137846519Y-95766073D01*
X137836798Y-95776798D01*
X137826073Y-95786519D01*
X137814447Y-95795142D01*
X137802031Y-95802583D01*
X137788946Y-95808772D01*
X137775317Y-95813649D01*
X137761276Y-95817166D01*
X137746958Y-95819290D01*
X137732500Y-95820000D01*
X137437500Y-95820000D01*
X137423042Y-95819290D01*
X137408724Y-95817166D01*
X137394683Y-95813649D01*
X137381054Y-95808772D01*
X137367969Y-95802583D01*
X137355553Y-95795142D01*
X137343927Y-95786519D01*
X137333202Y-95776798D01*
X137323481Y-95766073D01*
X137314858Y-95754447D01*
X137307417Y-95742031D01*
X137301228Y-95728946D01*
X137296351Y-95715317D01*
X137292834Y-95701276D01*
X137290710Y-95686958D01*
X137290000Y-95672500D01*
X137290000Y-95327500D01*
X137290710Y-95313042D01*
X137292834Y-95298724D01*
X137296351Y-95284683D01*
X137301228Y-95271054D01*
X137307417Y-95257969D01*
X137314858Y-95245553D01*
X137323481Y-95233927D01*
X137333202Y-95223202D01*
X137343927Y-95213481D01*
X137355553Y-95204858D01*
X137367969Y-95197417D01*
X137381054Y-95191228D01*
X137394683Y-95186351D01*
X137408724Y-95182834D01*
X137423042Y-95180710D01*
X137437500Y-95180000D01*
X137732500Y-95180000D01*
X137746958Y-95180710D01*
G37*
G36*
X155086958Y-95090710D02*
G01*
X155101276Y-95092834D01*
X155115317Y-95096351D01*
X155128946Y-95101228D01*
X155142031Y-95107417D01*
X155154447Y-95114858D01*
X155166073Y-95123481D01*
X155176798Y-95133202D01*
X155186519Y-95143927D01*
X155195142Y-95155553D01*
X155202583Y-95167969D01*
X155208772Y-95181054D01*
X155213649Y-95194683D01*
X155217166Y-95208724D01*
X155219290Y-95223042D01*
X155220000Y-95237500D01*
X155220000Y-95532500D01*
X155219290Y-95546958D01*
X155217166Y-95561276D01*
X155213649Y-95575317D01*
X155208772Y-95588946D01*
X155202583Y-95602031D01*
X155195142Y-95614447D01*
X155186519Y-95626073D01*
X155176798Y-95636798D01*
X155166073Y-95646519D01*
X155154447Y-95655142D01*
X155142031Y-95662583D01*
X155128946Y-95668772D01*
X155115317Y-95673649D01*
X155101276Y-95677166D01*
X155086958Y-95679290D01*
X155072500Y-95680000D01*
X154727500Y-95680000D01*
X154713042Y-95679290D01*
X154698724Y-95677166D01*
X154684683Y-95673649D01*
X154671054Y-95668772D01*
X154657969Y-95662583D01*
X154645553Y-95655142D01*
X154633927Y-95646519D01*
X154623202Y-95636798D01*
X154613481Y-95626073D01*
X154604858Y-95614447D01*
X154597417Y-95602031D01*
X154591228Y-95588946D01*
X154586351Y-95575317D01*
X154582834Y-95561276D01*
X154580710Y-95546958D01*
X154580000Y-95532500D01*
X154580000Y-95237500D01*
X154580710Y-95223042D01*
X154582834Y-95208724D01*
X154586351Y-95194683D01*
X154591228Y-95181054D01*
X154597417Y-95167969D01*
X154604858Y-95155553D01*
X154613481Y-95143927D01*
X154623202Y-95133202D01*
X154633927Y-95123481D01*
X154645553Y-95114858D01*
X154657969Y-95107417D01*
X154671054Y-95101228D01*
X154684683Y-95096351D01*
X154698724Y-95092834D01*
X154713042Y-95090710D01*
X154727500Y-95090000D01*
X155072500Y-95090000D01*
X155086958Y-95090710D01*
G37*
G36*
X155086958Y-94120710D02*
G01*
X155101276Y-94122834D01*
X155115317Y-94126351D01*
X155128946Y-94131228D01*
X155142031Y-94137417D01*
X155154447Y-94144858D01*
X155166073Y-94153481D01*
X155176798Y-94163202D01*
X155186519Y-94173927D01*
X155195142Y-94185553D01*
X155202583Y-94197969D01*
X155208772Y-94211054D01*
X155213649Y-94224683D01*
X155217166Y-94238724D01*
X155219290Y-94253042D01*
X155220000Y-94267500D01*
X155220000Y-94562500D01*
X155219290Y-94576958D01*
X155217166Y-94591276D01*
X155213649Y-94605317D01*
X155208772Y-94618946D01*
X155202583Y-94632031D01*
X155195142Y-94644447D01*
X155186519Y-94656073D01*
X155176798Y-94666798D01*
X155166073Y-94676519D01*
X155154447Y-94685142D01*
X155142031Y-94692583D01*
X155128946Y-94698772D01*
X155115317Y-94703649D01*
X155101276Y-94707166D01*
X155086958Y-94709290D01*
X155072500Y-94710000D01*
X154727500Y-94710000D01*
X154713042Y-94709290D01*
X154698724Y-94707166D01*
X154684683Y-94703649D01*
X154671054Y-94698772D01*
X154657969Y-94692583D01*
X154645553Y-94685142D01*
X154633927Y-94676519D01*
X154623202Y-94666798D01*
X154613481Y-94656073D01*
X154604858Y-94644447D01*
X154597417Y-94632031D01*
X154591228Y-94618946D01*
X154586351Y-94605317D01*
X154582834Y-94591276D01*
X154580710Y-94576958D01*
X154580000Y-94562500D01*
X154580000Y-94267500D01*
X154580710Y-94253042D01*
X154582834Y-94238724D01*
X154586351Y-94224683D01*
X154591228Y-94211054D01*
X154597417Y-94197969D01*
X154604858Y-94185553D01*
X154613481Y-94173927D01*
X154623202Y-94163202D01*
X154633927Y-94153481D01*
X154645553Y-94144858D01*
X154657969Y-94137417D01*
X154671054Y-94131228D01*
X154684683Y-94126351D01*
X154698724Y-94122834D01*
X154713042Y-94120710D01*
X154727500Y-94120000D01*
X155072500Y-94120000D01*
X155086958Y-94120710D01*
G37*
G36*
X109549504Y-102276204D02*
G01*
X109573773Y-102279804D01*
X109597571Y-102285765D01*
X109620671Y-102294030D01*
X109642849Y-102304520D01*
X109663893Y-102317133D01*
X109683598Y-102331747D01*
X109701777Y-102348223D01*
X109718253Y-102366402D01*
X109732867Y-102386107D01*
X109745480Y-102407151D01*
X109755970Y-102429329D01*
X109764235Y-102452429D01*
X109770196Y-102476227D01*
X109773796Y-102500496D01*
X109775000Y-102525000D01*
X109775000Y-103275000D01*
X109773796Y-103299504D01*
X109770196Y-103323773D01*
X109764235Y-103347571D01*
X109755970Y-103370671D01*
X109745480Y-103392849D01*
X109732867Y-103413893D01*
X109718253Y-103433598D01*
X109701777Y-103451777D01*
X109683598Y-103468253D01*
X109663893Y-103482867D01*
X109642849Y-103495480D01*
X109620671Y-103505970D01*
X109597571Y-103514235D01*
X109573773Y-103520196D01*
X109549504Y-103523796D01*
X109525000Y-103525000D01*
X108275000Y-103525000D01*
X108250496Y-103523796D01*
X108226227Y-103520196D01*
X108202429Y-103514235D01*
X108179329Y-103505970D01*
X108157151Y-103495480D01*
X108136107Y-103482867D01*
X108116402Y-103468253D01*
X108098223Y-103451777D01*
X108081747Y-103433598D01*
X108067133Y-103413893D01*
X108054520Y-103392849D01*
X108044030Y-103370671D01*
X108035765Y-103347571D01*
X108029804Y-103323773D01*
X108026204Y-103299504D01*
X108025000Y-103275000D01*
X108025000Y-102525000D01*
X108026204Y-102500496D01*
X108029804Y-102476227D01*
X108035765Y-102452429D01*
X108044030Y-102429329D01*
X108054520Y-102407151D01*
X108067133Y-102386107D01*
X108081747Y-102366402D01*
X108098223Y-102348223D01*
X108116402Y-102331747D01*
X108136107Y-102317133D01*
X108157151Y-102304520D01*
X108179329Y-102294030D01*
X108202429Y-102285765D01*
X108226227Y-102279804D01*
X108250496Y-102276204D01*
X108275000Y-102275000D01*
X109525000Y-102275000D01*
X109549504Y-102276204D01*
G37*
G36*
X109549504Y-99476204D02*
G01*
X109573773Y-99479804D01*
X109597571Y-99485765D01*
X109620671Y-99494030D01*
X109642849Y-99504520D01*
X109663893Y-99517133D01*
X109683598Y-99531747D01*
X109701777Y-99548223D01*
X109718253Y-99566402D01*
X109732867Y-99586107D01*
X109745480Y-99607151D01*
X109755970Y-99629329D01*
X109764235Y-99652429D01*
X109770196Y-99676227D01*
X109773796Y-99700496D01*
X109775000Y-99725000D01*
X109775000Y-100475000D01*
X109773796Y-100499504D01*
X109770196Y-100523773D01*
X109764235Y-100547571D01*
X109755970Y-100570671D01*
X109745480Y-100592849D01*
X109732867Y-100613893D01*
X109718253Y-100633598D01*
X109701777Y-100651777D01*
X109683598Y-100668253D01*
X109663893Y-100682867D01*
X109642849Y-100695480D01*
X109620671Y-100705970D01*
X109597571Y-100714235D01*
X109573773Y-100720196D01*
X109549504Y-100723796D01*
X109525000Y-100725000D01*
X108275000Y-100725000D01*
X108250496Y-100723796D01*
X108226227Y-100720196D01*
X108202429Y-100714235D01*
X108179329Y-100705970D01*
X108157151Y-100695480D01*
X108136107Y-100682867D01*
X108116402Y-100668253D01*
X108098223Y-100651777D01*
X108081747Y-100633598D01*
X108067133Y-100613893D01*
X108054520Y-100592849D01*
X108044030Y-100570671D01*
X108035765Y-100547571D01*
X108029804Y-100523773D01*
X108026204Y-100499504D01*
X108025000Y-100475000D01*
X108025000Y-99725000D01*
X108026204Y-99700496D01*
X108029804Y-99676227D01*
X108035765Y-99652429D01*
X108044030Y-99629329D01*
X108054520Y-99607151D01*
X108067133Y-99586107D01*
X108081747Y-99566402D01*
X108098223Y-99548223D01*
X108116402Y-99531747D01*
X108136107Y-99517133D01*
X108157151Y-99504520D01*
X108179329Y-99494030D01*
X108202429Y-99485765D01*
X108226227Y-99479804D01*
X108250496Y-99476204D01*
X108275000Y-99475000D01*
X109525000Y-99475000D01*
X109549504Y-99476204D01*
G37*
G36*
X122549504Y-102476204D02*
G01*
X122573773Y-102479804D01*
X122597571Y-102485765D01*
X122620671Y-102494030D01*
X122642849Y-102504520D01*
X122663893Y-102517133D01*
X122683598Y-102531747D01*
X122701777Y-102548223D01*
X122718253Y-102566402D01*
X122732867Y-102586107D01*
X122745480Y-102607151D01*
X122755970Y-102629329D01*
X122764235Y-102652429D01*
X122770196Y-102676227D01*
X122773796Y-102700496D01*
X122775000Y-102725000D01*
X122775000Y-103475000D01*
X122773796Y-103499504D01*
X122770196Y-103523773D01*
X122764235Y-103547571D01*
X122755970Y-103570671D01*
X122745480Y-103592849D01*
X122732867Y-103613893D01*
X122718253Y-103633598D01*
X122701777Y-103651777D01*
X122683598Y-103668253D01*
X122663893Y-103682867D01*
X122642849Y-103695480D01*
X122620671Y-103705970D01*
X122597571Y-103714235D01*
X122573773Y-103720196D01*
X122549504Y-103723796D01*
X122525000Y-103725000D01*
X121275000Y-103725000D01*
X121250496Y-103723796D01*
X121226227Y-103720196D01*
X121202429Y-103714235D01*
X121179329Y-103705970D01*
X121157151Y-103695480D01*
X121136107Y-103682867D01*
X121116402Y-103668253D01*
X121098223Y-103651777D01*
X121081747Y-103633598D01*
X121067133Y-103613893D01*
X121054520Y-103592849D01*
X121044030Y-103570671D01*
X121035765Y-103547571D01*
X121029804Y-103523773D01*
X121026204Y-103499504D01*
X121025000Y-103475000D01*
X121025000Y-102725000D01*
X121026204Y-102700496D01*
X121029804Y-102676227D01*
X121035765Y-102652429D01*
X121044030Y-102629329D01*
X121054520Y-102607151D01*
X121067133Y-102586107D01*
X121081747Y-102566402D01*
X121098223Y-102548223D01*
X121116402Y-102531747D01*
X121136107Y-102517133D01*
X121157151Y-102504520D01*
X121179329Y-102494030D01*
X121202429Y-102485765D01*
X121226227Y-102479804D01*
X121250496Y-102476204D01*
X121275000Y-102475000D01*
X122525000Y-102475000D01*
X122549504Y-102476204D01*
G37*
G36*
X122549504Y-99676204D02*
G01*
X122573773Y-99679804D01*
X122597571Y-99685765D01*
X122620671Y-99694030D01*
X122642849Y-99704520D01*
X122663893Y-99717133D01*
X122683598Y-99731747D01*
X122701777Y-99748223D01*
X122718253Y-99766402D01*
X122732867Y-99786107D01*
X122745480Y-99807151D01*
X122755970Y-99829329D01*
X122764235Y-99852429D01*
X122770196Y-99876227D01*
X122773796Y-99900496D01*
X122775000Y-99925000D01*
X122775000Y-100675000D01*
X122773796Y-100699504D01*
X122770196Y-100723773D01*
X122764235Y-100747571D01*
X122755970Y-100770671D01*
X122745480Y-100792849D01*
X122732867Y-100813893D01*
X122718253Y-100833598D01*
X122701777Y-100851777D01*
X122683598Y-100868253D01*
X122663893Y-100882867D01*
X122642849Y-100895480D01*
X122620671Y-100905970D01*
X122597571Y-100914235D01*
X122573773Y-100920196D01*
X122549504Y-100923796D01*
X122525000Y-100925000D01*
X121275000Y-100925000D01*
X121250496Y-100923796D01*
X121226227Y-100920196D01*
X121202429Y-100914235D01*
X121179329Y-100905970D01*
X121157151Y-100895480D01*
X121136107Y-100882867D01*
X121116402Y-100868253D01*
X121098223Y-100851777D01*
X121081747Y-100833598D01*
X121067133Y-100813893D01*
X121054520Y-100792849D01*
X121044030Y-100770671D01*
X121035765Y-100747571D01*
X121029804Y-100723773D01*
X121026204Y-100699504D01*
X121025000Y-100675000D01*
X121025000Y-99925000D01*
X121026204Y-99900496D01*
X121029804Y-99876227D01*
X121035765Y-99852429D01*
X121044030Y-99829329D01*
X121054520Y-99807151D01*
X121067133Y-99786107D01*
X121081747Y-99766402D01*
X121098223Y-99748223D01*
X121116402Y-99731747D01*
X121136107Y-99717133D01*
X121157151Y-99704520D01*
X121179329Y-99694030D01*
X121202429Y-99685765D01*
X121226227Y-99679804D01*
X121250496Y-99676204D01*
X121275000Y-99675000D01*
X122525000Y-99675000D01*
X122549504Y-99676204D01*
G37*
G36*
X135549504Y-102276204D02*
G01*
X135573773Y-102279804D01*
X135597571Y-102285765D01*
X135620671Y-102294030D01*
X135642849Y-102304520D01*
X135663893Y-102317133D01*
X135683598Y-102331747D01*
X135701777Y-102348223D01*
X135718253Y-102366402D01*
X135732867Y-102386107D01*
X135745480Y-102407151D01*
X135755970Y-102429329D01*
X135764235Y-102452429D01*
X135770196Y-102476227D01*
X135773796Y-102500496D01*
X135775000Y-102525000D01*
X135775000Y-103275000D01*
X135773796Y-103299504D01*
X135770196Y-103323773D01*
X135764235Y-103347571D01*
X135755970Y-103370671D01*
X135745480Y-103392849D01*
X135732867Y-103413893D01*
X135718253Y-103433598D01*
X135701777Y-103451777D01*
X135683598Y-103468253D01*
X135663893Y-103482867D01*
X135642849Y-103495480D01*
X135620671Y-103505970D01*
X135597571Y-103514235D01*
X135573773Y-103520196D01*
X135549504Y-103523796D01*
X135525000Y-103525000D01*
X134275000Y-103525000D01*
X134250496Y-103523796D01*
X134226227Y-103520196D01*
X134202429Y-103514235D01*
X134179329Y-103505970D01*
X134157151Y-103495480D01*
X134136107Y-103482867D01*
X134116402Y-103468253D01*
X134098223Y-103451777D01*
X134081747Y-103433598D01*
X134067133Y-103413893D01*
X134054520Y-103392849D01*
X134044030Y-103370671D01*
X134035765Y-103347571D01*
X134029804Y-103323773D01*
X134026204Y-103299504D01*
X134025000Y-103275000D01*
X134025000Y-102525000D01*
X134026204Y-102500496D01*
X134029804Y-102476227D01*
X134035765Y-102452429D01*
X134044030Y-102429329D01*
X134054520Y-102407151D01*
X134067133Y-102386107D01*
X134081747Y-102366402D01*
X134098223Y-102348223D01*
X134116402Y-102331747D01*
X134136107Y-102317133D01*
X134157151Y-102304520D01*
X134179329Y-102294030D01*
X134202429Y-102285765D01*
X134226227Y-102279804D01*
X134250496Y-102276204D01*
X134275000Y-102275000D01*
X135525000Y-102275000D01*
X135549504Y-102276204D01*
G37*
G36*
X135549504Y-99476204D02*
G01*
X135573773Y-99479804D01*
X135597571Y-99485765D01*
X135620671Y-99494030D01*
X135642849Y-99504520D01*
X135663893Y-99517133D01*
X135683598Y-99531747D01*
X135701777Y-99548223D01*
X135718253Y-99566402D01*
X135732867Y-99586107D01*
X135745480Y-99607151D01*
X135755970Y-99629329D01*
X135764235Y-99652429D01*
X135770196Y-99676227D01*
X135773796Y-99700496D01*
X135775000Y-99725000D01*
X135775000Y-100475000D01*
X135773796Y-100499504D01*
X135770196Y-100523773D01*
X135764235Y-100547571D01*
X135755970Y-100570671D01*
X135745480Y-100592849D01*
X135732867Y-100613893D01*
X135718253Y-100633598D01*
X135701777Y-100651777D01*
X135683598Y-100668253D01*
X135663893Y-100682867D01*
X135642849Y-100695480D01*
X135620671Y-100705970D01*
X135597571Y-100714235D01*
X135573773Y-100720196D01*
X135549504Y-100723796D01*
X135525000Y-100725000D01*
X134275000Y-100725000D01*
X134250496Y-100723796D01*
X134226227Y-100720196D01*
X134202429Y-100714235D01*
X134179329Y-100705970D01*
X134157151Y-100695480D01*
X134136107Y-100682867D01*
X134116402Y-100668253D01*
X134098223Y-100651777D01*
X134081747Y-100633598D01*
X134067133Y-100613893D01*
X134054520Y-100592849D01*
X134044030Y-100570671D01*
X134035765Y-100547571D01*
X134029804Y-100523773D01*
X134026204Y-100499504D01*
X134025000Y-100475000D01*
X134025000Y-99725000D01*
X134026204Y-99700496D01*
X134029804Y-99676227D01*
X134035765Y-99652429D01*
X134044030Y-99629329D01*
X134054520Y-99607151D01*
X134067133Y-99586107D01*
X134081747Y-99566402D01*
X134098223Y-99548223D01*
X134116402Y-99531747D01*
X134136107Y-99517133D01*
X134157151Y-99504520D01*
X134179329Y-99494030D01*
X134202429Y-99485765D01*
X134226227Y-99479804D01*
X134250496Y-99476204D01*
X134275000Y-99475000D01*
X135525000Y-99475000D01*
X135549504Y-99476204D01*
G37*
G36*
X148449504Y-99476204D02*
G01*
X148473773Y-99479804D01*
X148497571Y-99485765D01*
X148520671Y-99494030D01*
X148542849Y-99504520D01*
X148563893Y-99517133D01*
X148583598Y-99531747D01*
X148601777Y-99548223D01*
X148618253Y-99566402D01*
X148632867Y-99586107D01*
X148645480Y-99607151D01*
X148655970Y-99629329D01*
X148664235Y-99652429D01*
X148670196Y-99676227D01*
X148673796Y-99700496D01*
X148675000Y-99725000D01*
X148675000Y-100475000D01*
X148673796Y-100499504D01*
X148670196Y-100523773D01*
X148664235Y-100547571D01*
X148655970Y-100570671D01*
X148645480Y-100592849D01*
X148632867Y-100613893D01*
X148618253Y-100633598D01*
X148601777Y-100651777D01*
X148583598Y-100668253D01*
X148563893Y-100682867D01*
X148542849Y-100695480D01*
X148520671Y-100705970D01*
X148497571Y-100714235D01*
X148473773Y-100720196D01*
X148449504Y-100723796D01*
X148425000Y-100725000D01*
X147175000Y-100725000D01*
X147150496Y-100723796D01*
X147126227Y-100720196D01*
X147102429Y-100714235D01*
X147079329Y-100705970D01*
X147057151Y-100695480D01*
X147036107Y-100682867D01*
X147016402Y-100668253D01*
X146998223Y-100651777D01*
X146981747Y-100633598D01*
X146967133Y-100613893D01*
X146954520Y-100592849D01*
X146944030Y-100570671D01*
X146935765Y-100547571D01*
X146929804Y-100523773D01*
X146926204Y-100499504D01*
X146925000Y-100475000D01*
X146925000Y-99725000D01*
X146926204Y-99700496D01*
X146929804Y-99676227D01*
X146935765Y-99652429D01*
X146944030Y-99629329D01*
X146954520Y-99607151D01*
X146967133Y-99586107D01*
X146981747Y-99566402D01*
X146998223Y-99548223D01*
X147016402Y-99531747D01*
X147036107Y-99517133D01*
X147057151Y-99504520D01*
X147079329Y-99494030D01*
X147102429Y-99485765D01*
X147126227Y-99479804D01*
X147150496Y-99476204D01*
X147175000Y-99475000D01*
X148425000Y-99475000D01*
X148449504Y-99476204D01*
G37*
G36*
X148449504Y-102276204D02*
G01*
X148473773Y-102279804D01*
X148497571Y-102285765D01*
X148520671Y-102294030D01*
X148542849Y-102304520D01*
X148563893Y-102317133D01*
X148583598Y-102331747D01*
X148601777Y-102348223D01*
X148618253Y-102366402D01*
X148632867Y-102386107D01*
X148645480Y-102407151D01*
X148655970Y-102429329D01*
X148664235Y-102452429D01*
X148670196Y-102476227D01*
X148673796Y-102500496D01*
X148675000Y-102525000D01*
X148675000Y-103275000D01*
X148673796Y-103299504D01*
X148670196Y-103323773D01*
X148664235Y-103347571D01*
X148655970Y-103370671D01*
X148645480Y-103392849D01*
X148632867Y-103413893D01*
X148618253Y-103433598D01*
X148601777Y-103451777D01*
X148583598Y-103468253D01*
X148563893Y-103482867D01*
X148542849Y-103495480D01*
X148520671Y-103505970D01*
X148497571Y-103514235D01*
X148473773Y-103520196D01*
X148449504Y-103523796D01*
X148425000Y-103525000D01*
X147175000Y-103525000D01*
X147150496Y-103523796D01*
X147126227Y-103520196D01*
X147102429Y-103514235D01*
X147079329Y-103505970D01*
X147057151Y-103495480D01*
X147036107Y-103482867D01*
X147016402Y-103468253D01*
X146998223Y-103451777D01*
X146981747Y-103433598D01*
X146967133Y-103413893D01*
X146954520Y-103392849D01*
X146944030Y-103370671D01*
X146935765Y-103347571D01*
X146929804Y-103323773D01*
X146926204Y-103299504D01*
X146925000Y-103275000D01*
X146925000Y-102525000D01*
X146926204Y-102500496D01*
X146929804Y-102476227D01*
X146935765Y-102452429D01*
X146944030Y-102429329D01*
X146954520Y-102407151D01*
X146967133Y-102386107D01*
X146981747Y-102366402D01*
X146998223Y-102348223D01*
X147016402Y-102331747D01*
X147036107Y-102317133D01*
X147057151Y-102304520D01*
X147079329Y-102294030D01*
X147102429Y-102285765D01*
X147126227Y-102279804D01*
X147150496Y-102276204D01*
X147175000Y-102275000D01*
X148425000Y-102275000D01*
X148449504Y-102276204D01*
G37*
M02*
